<?xml version="1.0" encoding="UTF-8"?>
<svg viewBox="0 0 146 28" version="1.1" xmlns="http://www.w3.org/2000/svg" xmlns:xlink="http://www.w3.org/1999/xlink">
    <defs>
        <linearGradient x1="0%" y1="35.7304525%" x2="100%" y2="35.7304525%" id="linearGradient-1">
            <stop stop-color="#1C84A6" offset="0%"></stop>
            <stop stop-color="#386BB2" offset="25.2712057%"></stop>
            <stop stop-color="#7356A3" offset="49.4423174%"></stop>
            <stop stop-color="#903B94" offset="71.6984241%"></stop>
            <stop stop-color="#C54961" offset="100%"></stop>
        </linearGradient>
    </defs>
    <g id="Page-1" stroke="none" stroke-width="1" fill="none" fill-rule="evenodd">
        <g id="Logos-with-Pipe" transform="translate(-494.000000, -111.000000)">
            <g id="Group-6" transform="translate(494.000000, 111.000000)">
                <g id="Group-5" transform="translate(0.000000, 0.000000)">
                    <path d="M90.8039216,23.9529412 C91.3529412,23.9529412 91.8856209,23.8777778 92.4019608,23.727451 C92.9183007,23.5771242 93.3986928,23.3647059 93.8431373,23.0901961 C94.2875817,22.8156863 94.6830065,22.4823529 95.0294118,22.0901961 C95.375817,21.6980392 95.6470588,21.2535948 95.8431373,20.7568628 C95.8954248,20.6522876 95.9281046,20.5607843 95.9411765,20.4823529 C95.9542484,20.4039216 95.9607843,20.3189542 95.9607843,20.227451 C95.9607843,19.9398693 95.8496732,19.7045752 95.627451,19.5215686 C95.4052288,19.3385621 95.1764706,19.2470588 94.9411765,19.2470588 C94.6797386,19.2470588 94.4803922,19.3058824 94.3431373,19.4235294 C94.2058824,19.5411765 94.0849673,19.6915033 93.9803922,19.8745098 C93.6928105,20.5019608 93.2679739,21.0019608 92.7058824,21.3745098 C92.1437908,21.7470588 91.503268,21.9333333 90.7843137,21.9333333 C90.2614379,21.9333333 89.7875817,21.8418301 89.3627451,21.6588235 C88.9379085,21.475817 88.5718954,21.224183 88.2647059,20.9039216 C87.9575163,20.5836601 87.7091503,20.1980392 87.5196078,19.7470588 C87.3300654,19.2960784 87.2156863,18.8026144 87.1764706,18.2666667 C87.1111111,17.3385621 87.1111111,16.4104575 87.1764706,15.4823529 C87.2156863,14.9594771 87.3300654,14.469281 87.5196078,14.0117647 C87.7091503,13.5542484 87.9575163,13.1588235 88.2647059,12.8254902 C88.5718954,12.4921569 88.9379085,12.230719 89.3627451,12.0411765 C89.7875817,11.851634 90.2614379,11.7568628 90.7843137,11.7568628 C91.503268,11.7568628 92.1437908,11.9431373 92.7058824,12.3156863 C93.2679739,12.6882353 93.6928105,13.1947712 93.9803922,13.8352941 C94.0718954,13.9921569 94.1895425,14.1359477 94.3333333,14.2666667 C94.4771242,14.3973856 94.6797386,14.4627451 94.9411765,14.4627451 C95.1764706,14.4627451 95.4052288,14.3712418 95.627451,14.1882353 C95.8496732,14.0052288 95.9607843,13.7699346 95.9607843,13.4823529 C95.9607843,13.3908497 95.9542484,13.3058824 95.9411765,13.227451 C95.9281046,13.1490196 95.8954248,13.0575163 95.8431373,12.9529412 C95.6470588,12.4562092 95.375817,12.0117647 95.0294118,11.6196078 C94.6830065,11.227451 94.2875817,10.8941176 93.8431373,10.6196078 C93.3986928,10.345098 92.9150327,10.1326797 92.3921569,9.98235294 C91.869281,9.83202614 91.3333333,9.75686275 90.7843137,9.75686275 C89.9738562,9.75686275 89.2352941,9.90065359 88.5686275,10.1882353 C87.9019608,10.475817 87.3169935,10.8679739 86.8137255,11.3647059 C86.3104575,11.8614379 85.9084967,12.4464052 85.6078431,13.1196078 C85.3071895,13.7928105 85.130719,14.5150327 85.0784314,15.2862745 C84.9738562,16.3189542 84.9738562,17.3647059 85.0784314,18.4235294 C85.130719,19.2078431 85.3071895,19.9366013 85.6078431,20.6098039 C85.9084967,21.2830065 86.3104575,21.8679739 86.8137255,22.3647059 C87.3169935,22.8614379 87.9052288,23.2503268 88.5784314,23.5313725 C89.251634,23.8124183 89.9934641,23.9529412 90.8039216,23.9529412 Z M101.666667,23.9333333 C102.176471,23.9333333 102.650327,23.8941176 103.088235,23.8156863 C103.526144,23.7372549 103.918301,23.6392157 104.264706,23.5215686 C104.611111,23.4039216 104.908497,23.2830065 105.156863,23.1588235 C105.405229,23.0346405 105.601307,22.9267974 105.745098,22.8352941 C105.888889,22.730719 105.986928,22.6228758 106.039216,22.5117647 C106.091503,22.4006536 106.117647,22.2535948 106.117647,22.0705882 L106.117647,22.0705882 L106.117647,16.972549 C106.117647,15.6522876 105.754902,14.6882353 105.029412,14.0803922 C104.303922,13.472549 103.313726,13.1686275 102.058824,13.1686275 C101.457516,13.1686275 100.879085,13.230719 100.323529,13.354902 C99.7679739,13.479085 99.3464052,13.6130719 99.0588235,13.7568627 C98.7973856,13.8745098 98.6176471,14.0215686 98.5196078,14.1980392 C98.4215686,14.3745098 98.372549,14.5477124 98.372549,14.7176471 C98.372549,15.0183007 98.503268,15.2601307 98.7647059,15.4431373 C99.0261438,15.6261438 99.372549,15.6457516 99.8039216,15.5019608 C100.078431,15.3973856 100.401961,15.2993464 100.77451,15.2078431 C101.147059,15.1163399 101.535948,15.0705882 101.941176,15.0705882 C102.712418,15.0705882 103.267974,15.220915 103.607843,15.5215686 C103.947712,15.8222222 104.117647,16.3058824 104.117647,16.972549 L104.117647,16.972549 L104.117647,17.6196078 C103.660131,17.5150327 103.245098,17.4333333 102.872549,17.3745098 C102.5,17.3156863 102.084967,17.2862745 101.627451,17.2862745 C100.934641,17.2862745 100.339869,17.3745098 99.8431373,17.5509804 C99.3464052,17.727451 98.9346405,17.9660131 98.6078431,18.2666667 C98.2810458,18.5673203 98.0392157,18.9137255 97.8823529,19.3058824 C97.7254902,19.6980392 97.6470588,20.1098039 97.6470588,20.5411765 C97.6470588,21.0248366 97.7320261,21.472549 97.9019608,21.8843137 C98.0718954,22.2960784 98.3235294,22.6555556 98.6568627,22.9627451 C98.9901961,23.2699346 99.4084967,23.5084967 99.9117647,23.6784314 C100.415033,23.848366 101,23.9333333 101.666667,23.9333333 Z M101.843137,22.1098039 C101.137255,22.1098039 100.601307,21.969281 100.235294,21.6882353 C99.869281,21.4071895 99.6862745,20.9986928 99.6862745,20.4627451 C99.6862745,19.9921569 99.879085,19.6294118 100.264706,19.3745098 C100.650327,19.1196078 101.143791,18.9921569 101.745098,18.9921569 C102.189543,18.9921569 102.588235,19.0215686 102.941176,19.0803922 C103.294118,19.1392157 103.686274,19.220915 104.117647,19.3254902 L104.117647,19.3254902 L104.117647,21.5019608 C104.013072,21.5803922 103.777778,21.7013072 103.411765,21.8647059 C103.045752,22.0281046 102.522876,22.1098039 101.843137,22.1098039 Z M109.705882,27.6 C109.993464,27.6 110.238562,27.4986928 110.441176,27.2960784 C110.643791,27.0934641 110.745098,26.8418301 110.745098,26.5411765 L110.745098,26.5411765 L110.745098,23.345098 C111.058824,23.4888889 111.434641,23.6228758 111.872549,23.7470588 C112.310458,23.8712418 112.751634,23.9333333 113.196078,23.9333333 C114.503268,23.9333333 115.526144,23.5771242 116.264706,22.8647059 C117.003268,22.1522876 117.424837,21.1816993 117.529412,19.9529412 C117.542484,19.7830065 117.552288,19.5738562 117.558824,19.3254902 C117.565359,19.0771242 117.568627,18.8222222 117.568627,18.5607843 C117.568627,18.2993464 117.565359,18.0477124 117.558824,17.8058824 C117.552288,17.5640523 117.542484,17.3581699 117.529412,17.1882353 C117.477124,16.5869281 117.339869,16.0379085 117.117647,15.5411765 C116.895425,15.0444444 116.598039,14.6196078 116.22549,14.2666667 C115.852941,13.9137255 115.405229,13.6424837 114.882353,13.4529412 C114.359477,13.2633987 113.771242,13.1686275 113.117647,13.1686275 C112.620915,13.1686275 112.153595,13.2176471 111.715686,13.3156863 C111.277778,13.4137255 110.879085,13.5281046 110.519608,13.6588235 C110.160131,13.7895425 109.846405,13.9300654 109.578431,14.0803922 C109.310458,14.230719 109.111111,14.351634 108.980392,14.4431373 C108.849673,14.5346405 108.764706,14.6228758 108.72549,14.7078431 C108.686274,14.7928105 108.666667,14.9006536 108.666667,15.0313725 L108.666667,15.0313725 L108.666667,26.5411765 C108.666667,26.8418301 108.764706,27.0934641 108.960784,27.2960784 C109.156863,27.4986928 109.405229,27.6 109.705882,27.6 Z M113.039216,21.9333333 C112.555556,21.9333333 112.098039,21.8581699 111.666667,21.7078431 C111.235294,21.5575163 110.928105,21.4169935 110.745098,21.2862745 L110.745098,21.2862745 L110.745098,15.8941176 C110.836601,15.8156863 110.970588,15.7339869 111.147059,15.6490196 C111.323529,15.5640523 111.519608,15.4856209 111.735294,15.4137255 C111.95098,15.3418301 112.173203,15.2830065 112.401961,15.2372549 C112.630719,15.1915033 112.856209,15.1686275 113.078431,15.1686275 C113.823529,15.1686275 114.388889,15.3647059 114.77451,15.7568627 C115.160131,16.1490196 115.385621,16.7176471 115.45098,17.4627451 C115.464052,17.6196078 115.470588,17.7993464 115.470588,18.0019608 L115.470588,18.0019608 L115.470588,19.2470588 C115.470588,19.4431373 115.464052,19.6065359 115.45098,19.7372549 C115.398693,20.4431373 115.183007,20.9856209 114.803922,21.3647059 C114.424837,21.7437908 113.836601,21.9333333 113.039216,21.9333333 Z M121.078431,11.9529412 C121.405229,11.9529412 121.679739,11.8352941 121.901961,11.6 C122.124183,11.3647059 122.235294,11.0836601 122.235294,10.7568627 C122.235294,10.4300654 122.124183,10.1555556 121.901961,9.93333333 C121.679739,9.71111111 121.405229,9.6 121.078431,9.6 C120.738562,9.6 120.457516,9.71111111 120.235294,9.93333333 C120.013072,10.1555556 119.901961,10.4300654 119.901961,10.7568627 C119.901961,11.0836601 120.013072,11.3647059 120.235294,11.6 C120.457516,11.8352941 120.738562,11.9529412 121.078431,11.9529412 Z M121.078431,23.8156863 C121.379085,23.8156863 121.627451,23.7143791 121.823529,23.5117647 C122.019608,23.3091503 122.117647,23.0575163 122.117647,22.7568627 L122.117647,22.7568627 L122.117647,14.3647059 C122.117647,14.0640523 122.01634,13.8124183 121.813725,13.6098039 C121.611111,13.4071895 121.366013,13.3058824 121.078431,13.3058824 C120.777778,13.3058824 120.529412,13.4071895 120.333333,13.6098039 C120.137255,13.8124183 120.039216,14.0640523 120.039216,14.3647059 L120.039216,14.3647059 L120.039216,22.7568627 C120.039216,23.0575163 120.143791,23.3091503 120.352941,23.5117647 C120.562092,23.7143791 120.803922,23.8156863 121.078431,23.8156863 Z M128.098039,23.9333333 C128.477124,23.9333333 128.862745,23.9039216 129.254902,23.845098 C129.647059,23.7862745 129.993464,23.6915033 130.294118,23.5607843 C130.555556,23.4562092 130.738562,23.3189542 130.843137,23.1490196 C130.947712,22.979085 131,22.7960784 131,22.6 C131,22.4562092 130.970588,22.3156863 130.911765,22.1784314 C130.852941,22.0411765 130.771242,21.9300654 130.666667,21.845098 C130.562092,21.7601307 130.428105,21.6980392 130.264706,21.6588235 C130.101307,21.6196078 129.921569,21.6261438 129.72549,21.6784314 C129.503268,21.7437908 129.277778,21.8091503 129.04902,21.8745098 C128.820261,21.9398693 128.575163,21.972549 128.313725,21.972549 C127.830065,21.972549 127.477124,21.8385621 127.254902,21.5705882 C127.03268,21.3026144 126.921569,20.9202614 126.921569,20.4235294 L126.921569,20.4235294 L126.921569,15.5411765 L129.627451,15.5411765 C129.888889,15.5411765 130.117647,15.4529412 130.313725,15.2764706 C130.509804,15.1 130.607843,14.8810458 130.607843,14.6196078 C130.607843,14.3581699 130.509804,14.1392157 130.313725,13.9627451 C130.117647,13.7862745 129.888889,13.6980392 129.627451,13.6980392 L129.627451,13.6980392 L126.921569,13.6980392 L126.921569,12.2078431 C126.921569,11.9071895 126.820261,11.6555556 126.617647,11.4529412 C126.415033,11.2503268 126.169935,11.1490196 125.882353,11.1490196 C125.581699,11.1490196 125.333333,11.2503268 125.137255,11.4529412 C124.941176,11.6555556 124.843137,11.9071895 124.843137,12.2078431 L124.843137,12.2078431 L124.843137,20.4039216 C124.843137,20.9006536 124.908497,21.3647059 125.039216,21.7960784 C125.169935,22.227451 125.369281,22.6 125.637255,22.9137255 C125.905229,23.227451 126.24183,23.475817 126.647059,23.6588235 C127.052288,23.8418301 127.535948,23.9333333 128.098039,23.9333333 Z M136.098039,23.9333333 C136.607843,23.9333333 137.081699,23.8941176 137.519608,23.8156863 C137.957516,23.7372549 138.349673,23.6392157 138.696078,23.5215686 C139.042484,23.4039216 139.339869,23.2830065 139.588235,23.1588235 C139.836601,23.0346405 140.03268,22.9267974 140.176471,22.8352941 C140.320261,22.730719 140.418301,22.6228758 140.470588,22.5117647 C140.522876,22.4006536 140.54902,22.2535948 140.54902,22.0705882 L140.54902,22.0705882 L140.54902,16.972549 C140.54902,15.6522876 140.186275,14.6882353 139.460784,14.0803922 C138.735294,13.472549 137.745098,13.1686275 136.490196,13.1686275 C135.888889,13.1686275 135.310458,13.230719 134.754902,13.354902 C134.199346,13.479085 133.777778,13.6130719 133.490196,13.7568627 C133.228758,13.8745098 133.04902,14.0215686 132.95098,14.1980392 C132.852941,14.3745098 132.803922,14.5477124 132.803922,14.7176471 C132.803922,15.0183007 132.934641,15.2601307 133.196078,15.4431373 C133.457516,15.6261438 133.803922,15.6457516 134.235294,15.5019608 C134.509804,15.3973856 134.833333,15.2993464 135.205882,15.2078431 C135.578431,15.1163399 135.96732,15.0705882 136.372549,15.0705882 C137.143791,15.0705882 137.699346,15.220915 138.039216,15.5215686 C138.379085,15.8222222 138.54902,16.3058824 138.54902,16.972549 L138.54902,16.972549 L138.54902,17.6196078 C138.091503,17.5150327 137.676471,17.4333333 137.303922,17.3745098 C136.931373,17.3156863 136.51634,17.2862745 136.058824,17.2862745 C135.366013,17.2862745 134.771242,17.3745098 134.27451,17.5509804 C133.777778,17.727451 133.366013,17.9660131 133.039216,18.2666667 C132.712418,18.5673203 132.470588,18.9137255 132.313725,19.3058824 C132.156863,19.6980392 132.078431,20.1098039 132.078431,20.5411765 C132.078431,21.0248366 132.163399,21.472549 132.333333,21.8843137 C132.503268,22.2960784 132.754902,22.6555556 133.088235,22.9627451 C133.421569,23.2699346 133.839869,23.5084967 134.343137,23.6784314 C134.846405,23.848366 135.431373,23.9333333 136.098039,23.9333333 Z M136.27451,22.1098039 C135.568627,22.1098039 135.03268,21.969281 134.666667,21.6882353 C134.300654,21.4071895 134.117647,20.9986928 134.117647,20.4627451 C134.117647,19.9921569 134.310458,19.6294118 134.696078,19.3745098 C135.081699,19.1196078 135.575163,18.9921569 136.176471,18.9921569 C136.620915,18.9921569 137.019608,19.0215686 137.372549,19.0803922 C137.72549,19.1392157 138.117647,19.220915 138.54902,19.3254902 L138.54902,19.3254902 L138.54902,21.5019608 C138.444444,21.5803922 138.20915,21.7013072 137.843137,21.8647059 C137.477124,22.0281046 136.954248,22.1098039 136.27451,22.1098039 Z M144.176471,23.8156863 C144.477124,23.8156863 144.72549,23.7143791 144.921569,23.5117647 C145.117647,23.3091503 145.215686,23.0575163 145.215686,22.7568628 L145.215686,22.7568628 L145.215686,10.8156863 C145.215686,10.5150327 145.114379,10.2633987 144.911765,10.0607843 C144.70915,9.85816993 144.464052,9.75686275 144.176471,9.75686275 C143.875817,9.75686275 143.627451,9.85816993 143.431373,10.0607843 C143.235294,10.2633987 143.137255,10.5150327 143.137255,10.8156863 L143.137255,10.8156863 L143.137255,22.7568628 C143.137255,23.0575163 143.24183,23.3091503 143.45098,23.5117647 C143.660131,23.7143791 143.901961,23.8156863 144.176471,23.8156863 Z" id="Capital" fill="#555555" fill-rule="nonzero"></path>
                    <rect id="Rectangle-Copy-4" fill="#555555" x="76" y="5.68434189e-14" width="1" height="24" rx="0.5"></rect>
                    <path d="M6.6698565,24 C7.5157895,24 8.3020734,23.9343365 9.0287081,23.8030096 C9.7553429,23.6716826 10.4060606,23.5075239 10.9808612,23.3105335 C11.5556619,23.1135431 12.0491228,22.9110807 12.461244,22.7031464 C12.8733652,22.495212 13.1987241,22.3146375 13.4373206,22.1614227 C13.6759171,21.9863201 13.8385965,21.8057456 13.9253589,21.619699 C14.0121212,21.4336525 14.0555024,21.1874145 14.0555024,20.880985 L14.0555024,20.880985 L14.0555024,12.3447332 C14.0555024,10.1340629 13.4535885,8.5198358 12.2497608,7.502052 C11.045933,6.4842681 9.4028708,5.9753762 7.3205742,5.9753762 C6.322807,5.9753762 5.3629984,6.0793434 4.4411483,6.2872777 C3.5192982,6.495212 2.8197767,6.7195622 2.3425837,6.9603283 C1.90877193,7.1573187 1.61052632,7.4035568 1.44784689,7.6990424 C1.28516746,7.994528 1.20382775,8.2845417 1.20382775,8.5690834 C1.20382775,9.0725034 1.42073365,9.4774282 1.85454545,9.7838577 C2.2883573,10.0902873 2.8631579,10.123119 3.5789474,9.8823529 C4.0344498,9.7072503 4.5712919,9.5430917 5.1894737,9.3898769 C5.8076555,9.2366621 6.4529506,9.1600547 7.1253589,9.1600547 C8.4051037,9.1600547 9.3269537,9.4117647 9.8909091,9.9151847 C10.4548644,10.4186047 10.7368421,11.2284542 10.7368421,12.3447332 L10.7368421,12.3447332 L10.7368421,13.4281806 C9.9776715,13.253078 9.2889952,13.1162791 8.6708134,13.0177839 C8.0526316,12.9192886 7.3639553,12.870041 6.6047847,12.870041 C5.4551834,12.870041 4.4682616,13.0177839 3.6440191,13.3132695 C2.8197767,13.6087551 2.1365231,14.0082079 1.59425837,14.5116279 C1.05199362,15.0150479 0.6507177,15.5950752 0.39043062,16.25171 C0.13014354,16.9083447 0,17.5978112 0,18.3201094 C0,19.129959 0.14098884,19.879617 0.42296651,20.5690834 C0.70494418,21.2585499 1.12248804,21.8604651 1.67559809,22.374829 C2.2287081,22.8891929 2.922807,23.2886457 3.7578947,23.5731874 C4.5929825,23.8577291 5.5636364,24 6.6698565,24 Z M6.9626794,20.9466484 C5.7913876,20.9466484 4.9020734,20.7113543 4.2947368,20.2407661 C3.6874003,19.7701778 3.3837321,19.0861833 3.3837321,18.1887825 C3.3837321,17.4008208 3.7036683,16.7934337 4.3435407,16.3666211 C4.9834131,15.9398085 5.8022329,15.7264022 6.8,15.7264022 C7.5374801,15.7264022 8.1990431,15.7756498 8.784689,15.874145 C9.3703349,15.9726402 10.0210526,16.1094391 10.7368421,16.2845417 L10.7368421,16.2845417 L10.7368421,19.9288646 C10.5633174,20.0601915 10.1728868,20.2626539 9.5655502,20.5362517 C8.9582137,20.8098495 8.0905901,20.9466484 6.9626794,20.9466484 Z M22.937799,24 C23.7186603,24 24.4669856,23.9233926 25.1827751,23.7701778 C25.8985646,23.6169631 26.5438596,23.4309166 27.1186603,23.2120383 C27.6934609,22.9931601 28.1923445,22.7688098 28.615311,22.5389877 C29.0382775,22.3091655 29.3582137,22.1176471 29.5751196,21.9644323 C29.8354067,21.7893297 30.0035088,21.6032832 30.0794258,21.4062927 C30.1553429,21.2093023 30.1933014,20.9575923 30.1933014,20.6511628 L30.1933014,20.6511628 L30.1933014,2.002736 C30.1933014,1.49931601 30.030622,1.07797538 29.7052632,0.73871409 C29.3799043,0.3994528 28.9677831,0.22982216 28.4688995,0.22982216 C27.9917065,0.22982216 27.585008,0.3994528 27.2488038,0.73871409 C26.9125997,1.07797538 26.7444976,1.49931601 26.7444976,2.002736 L26.7444976,2.002736 L26.7444976,6.9274966 C26.2022329,6.6867305 25.5515152,6.4678523 24.7923445,6.2708618 C24.0331738,6.0738714 23.2631579,5.9753762 22.4822967,5.9753762 C20.3783094,5.9753762 18.7352472,6.5608755 17.55311,7.7318741 C16.3709729,8.9028728 15.6931419,10.5170999 15.5196172,12.5745554 C15.4979266,12.880985 15.4816587,13.2366621 15.4708134,13.6415869 C15.4599681,14.0465116 15.4545455,14.4678523 15.4545455,14.9056088 C15.4545455,15.3433653 15.4599681,15.7701778 15.4708134,16.1860465 C15.4816587,16.6019152 15.4979266,16.9521204 15.5196172,17.2366621 C15.6063796,18.2435021 15.8341308,19.1627907 16.2028708,19.994528 C16.5716108,20.8262654 17.0759171,21.5376197 17.7157895,22.128591 C18.3556619,22.7195622 19.1094099,23.1792066 19.9770335,23.5075239 C20.8446571,23.8358413 21.8315789,24 22.937799,24 Z M23.0028708,20.6511628 C20.508453,20.6511628 19.1636364,19.370725 18.9684211,16.8098495 C18.9467305,16.5471956 18.9304625,16.246238 18.9196172,15.9069767 C18.9087719,15.5677155 18.9033493,15.2175103 18.9033493,14.8563611 C18.9033493,14.495212 18.9087719,14.1450068 18.9196172,13.8057456 C18.9304625,13.4664843 18.9467305,13.1874145 18.9684211,12.9685363 C19.0334928,11.7647059 19.369697,10.8563611 19.9770335,10.2435021 C20.58437,9.630643 21.5062201,9.3242134 22.7425837,9.3242134 C23.5885167,9.3242134 24.3802233,9.4391245 25.1177033,9.6689466 C25.8551834,9.8987688 26.3974482,10.123119 26.7444976,10.3419973 L26.7444976,10.3419973 L26.7444976,19.4692202 C26.5709729,19.6005472 26.3486443,19.7318741 26.077512,19.8632011 C25.8063796,19.994528 25.4972887,20.120383 25.1502392,20.2407661 C24.8031898,20.3611491 24.4452951,20.4596443 24.076555,20.5362517 C23.707815,20.6128591 23.3499203,20.6511628 23.0028708,20.6511628 Z M38.2947368,24 C39.1406699,24 39.9269537,23.9343365 40.6535885,23.8030096 C41.3802233,23.6716826 42.030941,23.5075239 42.6057416,23.3105335 C43.1805423,23.1135431 43.6740032,22.9110807 44.0861244,22.7031464 C44.4982456,22.495212 44.8236045,22.3146375 45.062201,22.1614227 C45.3007974,21.9863201 45.4634769,21.8057456 45.5502392,21.619699 C45.6370016,21.4336525 45.6803828,21.1874145 45.6803828,20.880985 L45.6803828,20.880985 L45.6803828,12.3447332 C45.6803828,10.1340629 45.0784689,8.5198358 43.8746411,7.502052 C42.6708134,6.4842681 41.0277512,5.9753762 38.9454545,5.9753762 C37.9476874,5.9753762 36.9878788,6.0793434 36.0660287,6.2872777 C35.1441786,6.495212 34.4446571,6.7195622 33.9674641,6.9603283 C33.5336523,7.1573187 33.2354067,7.4035568 33.0727273,7.6990424 C32.9100478,7.994528 32.8287081,8.2845417 32.8287081,8.5690834 C32.8287081,9.0725034 33.045614,9.4774282 33.4794258,9.7838577 C33.9132376,10.0902873 34.4880383,10.123119 35.2038278,9.8823529 C35.6593301,9.7072503 36.1961722,9.5430917 36.8143541,9.3898769 C37.4325359,9.2366621 38.0778309,9.1600547 38.7502392,9.1600547 C40.0299841,9.1600547 40.9518341,9.4117647 41.5157895,9.9151847 C42.0797448,10.4186047 42.3617225,11.2284542 42.3617225,12.3447332 L42.3617225,12.3447332 L42.3617225,13.4281806 C41.6025518,13.253078 40.9138756,13.1162791 40.2956938,13.0177839 C39.677512,12.9192886 38.9888357,12.870041 38.2296651,12.870041 C37.0800638,12.870041 36.0931419,13.0177839 35.2688995,13.3132695 C34.4446571,13.6087551 33.7614035,14.0082079 33.2191388,14.5116279 C32.676874,15.0150479 32.2755981,15.5950752 32.015311,16.25171 C31.7550239,16.9083447 31.6248804,17.5978112 31.6248804,18.3201094 C31.6248804,19.129959 31.7658692,19.879617 32.0478469,20.5690834 C32.3298246,21.2585499 32.7473684,21.8604651 33.3004785,22.374829 C33.8535885,22.8891929 34.5476874,23.2886457 35.3827751,23.5731874 C36.2178628,23.8577291 37.1885167,24 38.2947368,24 Z M38.5875598,20.9466484 C37.4162679,20.9466484 36.5269537,20.7113543 35.9196172,20.2407661 C35.3122807,19.7701778 35.0086124,19.0861833 35.0086124,18.1887825 C35.0086124,17.4008208 35.3285486,16.7934337 35.9684211,16.3666211 C36.6082935,15.9398085 37.4271132,15.7264022 38.4248804,15.7264022 C39.1623604,15.7264022 39.8239234,15.7756498 40.4095694,15.874145 C40.9952153,15.9726402 41.645933,16.1094391 42.3617225,16.2845417 L42.3617225,16.2845417 L42.3617225,19.9288646 C42.1881978,20.0601915 41.7977671,20.2626539 41.1904306,20.5362517 C40.5830941,20.8098495 39.7154705,20.9466484 38.5875598,20.9466484 Z M60.4516746,23.8030096 C60.9505582,23.8030096 61.3626794,23.6333789 61.6880383,23.2941176 C62.0133971,22.9548564 62.1760766,22.5335157 62.1760766,22.0300958 L62.1760766,22.0300958 L62.1760766,12.9028728 C62.1760766,10.6703146 61.5795853,8.9575923 60.3866029,7.7647059 C59.1936204,6.5718194 57.414992,5.9753762 55.0507177,5.9753762 C54.2047847,5.9753762 53.4185008,6.0355677 52.691866,6.1559508 C51.9652313,6.2763338 51.3199362,6.4295486 50.7559809,6.6155951 C50.1920255,6.8016416 49.7039872,6.998632 49.291866,7.2065663 C48.8797448,7.4145007 48.554386,7.6060192 48.3157895,7.7811218 C48.077193,7.9562244 47.9036683,8.1367989 47.7952153,8.3228454 C47.6867624,8.5088919 47.6325359,8.7770178 47.6325359,9.127223 L47.6325359,9.127223 L47.6325359,22.0300958 C47.6325359,22.5335157 47.8060606,22.9548564 48.15311,23.2941176 C48.5001595,23.6333789 48.9014354,23.8030096 49.3569378,23.8030096 C49.8558214,23.8030096 50.2679426,23.6333789 50.5933014,23.2941176 C50.9186603,22.9548564 51.0813397,22.5335157 51.0813397,22.0300958 L51.0813397,22.0300958 L51.0813397,10.2435021 C51.4500797,10.002736 51.9869219,9.7893297 52.691866,9.6032832 C53.3968102,9.4172367 54.1505582,9.3242134 54.95311,9.3242134 C55.4519936,9.3242134 55.9291866,9.3953488 56.384689,9.5376197 C56.8401914,9.6798906 57.2414673,9.9042408 57.5885167,10.2106703 C57.9355662,10.5170999 58.2121212,10.9056088 58.4181818,11.376197 C58.6242424,11.8467852 58.7272727,12.4103967 58.7272727,13.0670315 L58.7272727,13.0670315 L58.7272727,22.0300958 C58.7272727,22.5335157 58.9007974,22.9548564 59.2478469,23.2941176 C59.5948963,23.6333789 59.9961722,23.8030096 60.4516746,23.8030096 Z M66.0803828,3.9398085 C66.6226475,3.9398085 67.0781499,3.7428181 67.44689,3.3488372 C67.81563,2.9548564 68,2.4842681 68,1.9370725 C68,1.38987688 67.81563,0.93023256 67.44689,0.55813953 C67.0781499,0.18604651 66.6226475,0 66.0803828,0 C65.5164274,0 65.0500797,0.18604651 64.6813397,0.55813953 C64.3125997,0.93023256 64.1282297,1.38987688 64.1282297,1.9370725 C64.1282297,2.4842681 64.3125997,2.9548564 64.6813397,3.3488372 C65.0500797,3.7428181 65.5164274,3.9398085 66.0803828,3.9398085 Z M66.0803828,23.8030096 C66.5792663,23.8030096 66.9913876,23.6333789 67.3167464,23.2941176 C67.6421053,22.9548564 67.8047847,22.5335157 67.8047847,22.0300958 L67.8047847,22.0300958 L67.8047847,7.9781122 C67.8047847,7.4746922 67.6366826,7.0533516 67.3004785,6.7140903 C66.9642743,6.374829 66.5575758,6.2051984 66.0803828,6.2051984 C65.5814992,6.2051984 65.169378,6.374829 64.8440191,6.7140903 C64.5186603,7.0533516 64.3559809,7.4746922 64.3559809,7.9781122 L64.3559809,7.9781122 L64.3559809,22.0300958 C64.3559809,22.5335157 64.5295056,22.9548564 64.876555,23.2941176 C65.2236045,23.6333789 65.6248804,23.8030096 66.0803828,23.8030096 Z" id="adani" fill="url(#linearGradient-1)" fill-rule="nonzero"></path>
                </g>
            </g>
        </g>
    </g>
</svg>