<svg width="24" height="24" viewBox="0 0 222 226" fill="none" xmlns="http://www.w3.org/2000/svg">
<path d="M200.83 153.48C194.69 155.84 184.3 158.44 173.19 161.04C169.17 167.65 161.85 173.09 150.51 175.21C147.91 175.68 144.84 175.92 141.53 176.15C133.74 176.39 124.29 175.68 113.89 174.73C113.18 174.73 112.47 174.49 111.76 174.49C109.16 174.25 107.04 172.36 106.8 169.77C106.56 166.7 109.16 164.1 112.23 164.34C112.94 164.34 113.88 164.58 114.59 164.58C127.82 165.76 140.57 166.71 148.37 165.29C163.01 162.69 167.27 153.48 166.32 146.16C165.61 140.02 161.12 134.11 153.8 134.59C143.41 135.3 131.36 134.59 119.55 133.65C106.09 132.71 92.1502 132.23 82.2302 133.41C71.3602 134.59 48.9203 142.86 29.3203 156.09C20.3503 162.7 9.48024 170.49 3.10024 175.22C-0.209764 177.58 -0.919747 182.31 1.68025 185.61L30.2603 222.69C32.6203 225.76 37.3502 226.47 40.4202 224.11L51.0502 216.08C53.6502 214.19 56.7202 213.48 59.7902 214.43C78.9202 220.57 99.4703 224.59 112.94 225.3C142.23 226.72 198.45 192.23 214.51 180.89C230.35 169.54 218.78 146.86 200.83 153.48Z" fill="#A36EFF"/>
<path d="M114.14 0.890015C103.27 0.890015 94.2998 9.87 94.2998 20.97V94.67C94.2998 105.53 103.04 114.51 114.14 114.51H187.84C198.7 114.51 207.68 105.77 207.68 94.67V20.74C207.68 9.87999 198.94 0.899994 187.84 0.899994L114.14 0.890015ZM127.37 71.99C126.42 71.05 126.42 69.39 127.37 68.21L133.28 62.3C134.46 61.36 136.12 61.36 137.06 62.3L144.62 69.62V23.32C144.62 21.9 145.8 20.72 147.22 20.72H155.49C156.91 20.72 158.09 21.9 158.09 23.32V69.62L165.41 62.3C166.59 61.36 168.25 61.36 169.19 62.3L175.1 68.21C176.04 69.39 176.04 71.05 175.1 71.99L153.13 93.96C151.95 94.9 150.29 94.9 149.35 93.96L127.37 71.99Z" fill="#A36EFF"/>
</svg>
