<svg width="24" height="24" viewBox="0 0 40 40" fill="none" xmlns="http://www.w3.org/2000/svg">
<mask id="path-1-outside-1_1419_4979" maskUnits="userSpaceOnUse" x="0" y="0" width="40" height="40" fill="black">
<rect fill="white" width="40" height="40"/>
<path d="M38.95 1H1.45C1.20125 1 1 1.20125 1 1.45V13.95C1 14.1988 1.20125 14.4 1.45 14.4H3.5V20.2C3.5 20.4488 3.70125 20.65 3.95 20.65H5.2C6.2575 20.65 7.17875 20.0863 7.7 19.2475C8.22125 20.0863 9.1425 20.65 10.2 20.65C11.2575 20.65 12.1788 20.0863 12.7 19.2475C13.2212 20.0863 14.1425 20.65 15.2 20.65C16.2575 20.65 17.1787 20.0863 17.7 19.2475C18.2212 20.0863 19.1425 20.65 20.2 20.65C21.2575 20.65 22.1788 20.0863 22.7 19.2488C23.2213 20.0863 24.1425 20.65 25.2 20.65C26.2575 20.65 27.1788 20.0863 27.7 19.2488C28.2213 20.0863 29.1425 20.65 30.2 20.65C31.2575 20.65 32.1788 20.0863 32.7 19.2488C33.2213 20.0863 34.1425 20.65 35.2 20.65H36.45C36.6987 20.65 36.9 20.4488 36.9 20.2V14.4H38.95C39.1987 14.4 39.4 14.1988 39.4 13.95V1.45C39.4 1.20125 39.1987 1 38.95 1ZM33.15 17.7C33.15 17.4513 32.9488 17.25 32.7 17.25C32.4513 17.25 32.25 17.4513 32.25 17.7C32.25 18.83 31.3313 19.75 30.2 19.75C29.0688 19.75 28.15 18.83 28.15 17.7C28.15 17.4513 27.9488 17.25 27.7 17.25C27.4513 17.25 27.25 17.4513 27.25 17.7C27.25 18.83 26.3313 19.75 25.2 19.75C24.0688 19.75 23.15 18.83 23.15 17.7C23.15 17.4513 22.9488 17.25 22.7 17.25C22.4513 17.25 22.25 17.4513 22.25 17.7C22.25 18.83 21.3312 19.75 20.2 19.75C19.0688 19.75 18.15 18.83 18.15 17.7C18.15 17.4513 17.9487 17.25 17.7 17.25C17.4513 17.25 17.25 17.4513 17.25 17.7C17.25 18.83 16.33 19.75 15.2 19.75C14.07 19.75 13.15 18.83 13.15 17.7C13.15 17.4513 12.9487 17.25 12.7 17.25C12.4512 17.25 12.25 17.4513 12.25 17.7C12.25 18.83 11.33 19.75 10.2 19.75C9.07 19.75 8.15 18.83 8.15 17.7C8.15 17.4513 7.94875 17.25 7.7 17.25C7.45125 17.25 7.25 17.4513 7.25 17.7C7.25 18.83 6.33 19.75 5.2 19.75H4.4V14.4H36V19.75H35.2C34.07 19.75 33.15 18.83 33.15 17.7ZM36 13.5H4.4V8.15H36V13.5ZM38.5 13.5H36.9V7.7C36.9 7.45125 36.6987 7.25 36.45 7.25H3.95C3.70125 7.25 3.5 7.45125 3.5 7.7V13.5H1.9V1.9H38.5V13.5ZM32.7 35.65C32.9488 35.65 33.15 35.4488 33.15 35.2V23.95C33.15 23.7013 32.9488 23.5 32.7 23.5H20.2C19.9513 23.5 19.75 23.7013 19.75 23.95V35.2C19.75 35.4488 19.9513 35.65 20.2 35.65H32.7ZM20.65 24.4H32.25V34.7488H20.65V24.4ZM36.9 23.95C36.9 23.7013 36.6987 23.5 36.45 23.5C36.2013 23.5 36 23.7013 36 23.95V38.5H14.4V23.95C14.4 23.7013 14.1987 23.5 13.95 23.5H7.7C7.45125 23.5 7.25 23.7013 7.25 23.95V38.5H4.4V23.95C4.4 23.7013 4.19875 23.5 3.95 23.5C3.70125 23.5 3.5 23.7013 3.5 23.95V38.5H1.45V39.4013H7.7H13.95H38.95V38.5H36.9V23.95ZM8.14875 24.4H13.5V30.9988H8.14875V24.4ZM8.14875 38.5V31.9H13.5V38.4988L8.14875 38.5Z"/>
</mask>
<path d="M38.95 1H1.45C1.20125 1 1 1.20125 1 1.45V13.95C1 14.1988 1.20125 14.4 1.45 14.4H3.5V20.2C3.5 20.4488 3.70125 20.65 3.95 20.65H5.2C6.2575 20.65 7.17875 20.0863 7.7 19.2475C8.22125 20.0863 9.1425 20.65 10.2 20.65C11.2575 20.65 12.1788 20.0863 12.7 19.2475C13.2212 20.0863 14.1425 20.65 15.2 20.65C16.2575 20.65 17.1787 20.0863 17.7 19.2475C18.2212 20.0863 19.1425 20.65 20.2 20.65C21.2575 20.65 22.1788 20.0863 22.7 19.2488C23.2213 20.0863 24.1425 20.65 25.2 20.65C26.2575 20.65 27.1788 20.0863 27.7 19.2488C28.2213 20.0863 29.1425 20.65 30.2 20.65C31.2575 20.65 32.1788 20.0863 32.7 19.2488C33.2213 20.0863 34.1425 20.65 35.2 20.65H36.45C36.6987 20.65 36.9 20.4488 36.9 20.2V14.4H38.95C39.1987 14.4 39.4 14.1988 39.4 13.95V1.45C39.4 1.20125 39.1987 1 38.95 1ZM33.15 17.7C33.15 17.4513 32.9488 17.25 32.7 17.25C32.4513 17.25 32.25 17.4513 32.25 17.7C32.25 18.83 31.3313 19.75 30.2 19.75C29.0688 19.75 28.15 18.83 28.15 17.7C28.15 17.4513 27.9488 17.25 27.7 17.25C27.4513 17.25 27.25 17.4513 27.25 17.7C27.25 18.83 26.3313 19.75 25.2 19.75C24.0688 19.75 23.15 18.83 23.15 17.7C23.15 17.4513 22.9488 17.25 22.7 17.25C22.4513 17.25 22.25 17.4513 22.25 17.7C22.25 18.83 21.3312 19.75 20.2 19.75C19.0688 19.75 18.15 18.83 18.15 17.7C18.15 17.4513 17.9487 17.25 17.7 17.25C17.4513 17.25 17.25 17.4513 17.25 17.7C17.25 18.83 16.33 19.75 15.2 19.75C14.07 19.75 13.15 18.83 13.15 17.7C13.15 17.4513 12.9487 17.25 12.7 17.25C12.4512 17.25 12.25 17.4513 12.25 17.7C12.25 18.83 11.33 19.75 10.2 19.75C9.07 19.75 8.15 18.83 8.15 17.7C8.15 17.4513 7.94875 17.25 7.7 17.25C7.45125 17.25 7.25 17.4513 7.25 17.7C7.25 18.83 6.33 19.75 5.2 19.75H4.4V14.4H36V19.75H35.2C34.07 19.75 33.15 18.83 33.15 17.7ZM36 13.5H4.4V8.15H36V13.5ZM38.5 13.5H36.9V7.7C36.9 7.45125 36.6987 7.25 36.45 7.25H3.95C3.70125 7.25 3.5 7.45125 3.5 7.7V13.5H1.9V1.9H38.5V13.5ZM32.7 35.65C32.9488 35.65 33.15 35.4488 33.15 35.2V23.95C33.15 23.7013 32.9488 23.5 32.7 23.5H20.2C19.9513 23.5 19.75 23.7013 19.75 23.95V35.2C19.75 35.4488 19.9513 35.65 20.2 35.65H32.7ZM20.65 24.4H32.25V34.7488H20.65V24.4ZM36.9 23.95C36.9 23.7013 36.6987 23.5 36.45 23.5C36.2013 23.5 36 23.7013 36 23.95V38.5H14.4V23.95C14.4 23.7013 14.1987 23.5 13.95 23.5H7.7C7.45125 23.5 7.25 23.7013 7.25 23.95V38.5H4.4V23.95C4.4 23.7013 4.19875 23.5 3.95 23.5C3.70125 23.5 3.5 23.7013 3.5 23.95V38.5H1.45V39.4013H7.7H13.95H38.95V38.5H36.9V23.95ZM8.14875 24.4H13.5V30.9988H8.14875V24.4ZM8.14875 38.5V31.9H13.5V38.4988L8.14875 38.5Z" fill="#A56EFF"/>
<path d="M38.95 1H1.45C1.20125 1 1 1.20125 1 1.45V13.95C1 14.1988 1.20125 14.4 1.45 14.4H3.5V20.2C3.5 20.4488 3.70125 20.65 3.95 20.65H5.2C6.2575 20.65 7.17875 20.0863 7.7 19.2475C8.22125 20.0863 9.1425 20.65 10.2 20.65C11.2575 20.65 12.1788 20.0863 12.7 19.2475C13.2212 20.0863 14.1425 20.65 15.2 20.65C16.2575 20.65 17.1787 20.0863 17.7 19.2475C18.2212 20.0863 19.1425 20.65 20.2 20.65C21.2575 20.65 22.1788 20.0863 22.7 19.2488C23.2213 20.0863 24.1425 20.65 25.2 20.65C26.2575 20.65 27.1788 20.0863 27.7 19.2488C28.2213 20.0863 29.1425 20.65 30.2 20.65C31.2575 20.65 32.1788 20.0863 32.7 19.2488C33.2213 20.0863 34.1425 20.65 35.2 20.65H36.45C36.6987 20.65 36.9 20.4488 36.9 20.2V14.4H38.95C39.1987 14.4 39.4 14.1988 39.4 13.95V1.45C39.4 1.20125 39.1987 1 38.95 1ZM33.15 17.7C33.15 17.4513 32.9488 17.25 32.7 17.25C32.4513 17.25 32.25 17.4513 32.25 17.7C32.25 18.83 31.3313 19.75 30.2 19.75C29.0688 19.75 28.15 18.83 28.15 17.7C28.15 17.4513 27.9488 17.25 27.7 17.25C27.4513 17.25 27.25 17.4513 27.25 17.7C27.25 18.83 26.3313 19.75 25.2 19.75C24.0688 19.75 23.15 18.83 23.15 17.7C23.15 17.4513 22.9488 17.25 22.7 17.25C22.4513 17.25 22.25 17.4513 22.25 17.7C22.25 18.83 21.3312 19.75 20.2 19.75C19.0688 19.75 18.15 18.83 18.15 17.7C18.15 17.4513 17.9487 17.25 17.7 17.25C17.4513 17.25 17.25 17.4513 17.25 17.7C17.25 18.83 16.33 19.75 15.2 19.75C14.07 19.75 13.15 18.83 13.15 17.7C13.15 17.4513 12.9487 17.25 12.7 17.25C12.4512 17.25 12.25 17.4513 12.25 17.7C12.25 18.83 11.33 19.75 10.2 19.75C9.07 19.75 8.15 18.83 8.15 17.7C8.15 17.4513 7.94875 17.25 7.7 17.25C7.45125 17.25 7.25 17.4513 7.25 17.7C7.25 18.83 6.33 19.75 5.2 19.75H4.4V14.4H36V19.75H35.2C34.07 19.75 33.15 18.83 33.15 17.7ZM36 13.5H4.4V8.15H36V13.5ZM38.5 13.5H36.9V7.7C36.9 7.45125 36.6987 7.25 36.45 7.25H3.95C3.70125 7.25 3.5 7.45125 3.5 7.7V13.5H1.9V1.9H38.5V13.5ZM32.7 35.65C32.9488 35.65 33.15 35.4488 33.15 35.2V23.95C33.15 23.7013 32.9488 23.5 32.7 23.5H20.2C19.9513 23.5 19.75 23.7013 19.75 23.95V35.2C19.75 35.4488 19.9513 35.65 20.2 35.65H32.7ZM20.65 24.4H32.25V34.7488H20.65V24.4ZM36.9 23.95C36.9 23.7013 36.6987 23.5 36.45 23.5C36.2013 23.5 36 23.7013 36 23.95V38.5H14.4V23.95C14.4 23.7013 14.1987 23.5 13.95 23.5H7.7C7.45125 23.5 7.25 23.7013 7.25 23.95V38.5H4.4V23.95C4.4 23.7013 4.19875 23.5 3.95 23.5C3.70125 23.5 3.5 23.7013 3.5 23.95V38.5H1.45V39.4013H7.7H13.95H38.95V38.5H36.9V23.95ZM8.14875 24.4H13.5V30.9988H8.14875V24.4ZM8.14875 38.5V31.9H13.5V38.4988L8.14875 38.5Z" stroke="#A56EFF" stroke-width="0.6" mask="url(#path-1-outside-1_1419_4979)"/>
</svg>
