<svg width="32" height="32" viewBox="0 0 32 32" fill="none" xmlns="http://www.w3.org/2000/svg">
<path d="M27.3898 13.82H16.2098V18.45H22.6498C22.0498 21.4 19.5398 23.09 16.2098 23.09C14.3295 23.09 12.5261 22.343 11.1965 21.0134C9.86682 19.6837 9.11984 17.8804 9.11984 16C9.11984 14.1196 9.86682 12.3162 11.1965 10.9866C12.5261 9.65695 14.3295 8.90997 16.2098 8.90997C17.8211 8.91224 19.3823 9.4703 20.6298 10.49L24.1198 6.99997C22.6628 5.71496 20.9155 4.80293 19.0281 4.34225C17.1408 3.88157 15.1698 3.88602 13.2845 4.35521C11.3993 4.8244 9.65615 5.7443 8.20488 7.03587C6.75362 8.32743 5.63764 9.95205 4.95284 11.7701C4.26803 13.5882 4.03488 15.5453 4.27342 17.4734C4.51195 19.4014 5.21504 21.2428 6.32227 22.8391C7.4295 24.4355 8.90777 25.7391 10.63 26.6381C12.3523 27.537 14.2671 28.0044 16.2098 28C22.2098 28 27.6598 23.64 27.6598 16C27.6539 15.2653 27.5633 14.5338 27.3898 13.82V13.82Z" fill="white"/>
</svg>
