<svg width="339" height="194" viewBox="0 0 339 194" fill="none" xmlns="http://www.w3.org/2000/svg">
<g clip-path="url(#clip0_2118_5428)">
<path d="M55.7217 88.0612V33.632C55.7217 32.8547 56.0305 32.1092 56.5801 31.5596C57.1297 31.01 57.8752 30.7012 58.6525 30.7012C59.4298 30.7012 60.1752 31.01 60.7249 31.5596C61.2745 32.1092 61.5833 32.8547 61.5833 33.632V88.0612C61.5833 88.8385 61.2745 89.584 60.7249 90.1336C60.1752 90.6832 59.4298 90.992 58.6525 90.992C57.8752 90.992 57.1297 90.6832 56.5801 90.1336C56.0305 89.584 55.7217 88.8385 55.7217 88.0612Z" fill="#F0F0F0"/>
<path d="M48.709 88.0612V33.632C48.709 32.8547 49.0178 32.1092 49.5674 31.5596C50.117 31.01 50.8625 30.7012 51.6398 30.7012C52.4171 30.7012 53.1625 31.01 53.7122 31.5596C54.2618 32.1092 54.5706 32.8547 54.5706 33.632V88.0612C54.5706 88.8385 54.2618 89.584 53.7122 90.1336C53.1625 90.6832 52.4171 90.992 51.6398 90.992C50.8625 90.992 50.117 90.6832 49.5674 90.1336C49.0178 89.584 48.709 88.8385 48.709 88.0612Z" fill="#F0F0F0"/>
<path d="M41.6963 88.0612V33.632C41.6963 32.8547 42.0051 32.1092 42.5547 31.5596C43.1043 31.01 43.8498 30.7012 44.6271 30.7012C45.4044 30.7012 46.1498 31.01 46.6995 31.5596C47.2491 32.1092 47.5579 32.8547 47.5579 33.632V88.0612C47.5579 88.8385 47.2491 89.584 46.6995 90.1336C46.1498 90.6832 45.4044 90.992 44.6271 90.992C43.8498 90.992 43.1043 90.6832 42.5547 90.1336C42.0051 89.584 41.6963 88.8385 41.6963 88.0612Z" fill="#F0F0F0"/>
<path d="M306.476 174.996C305.295 174.997 304.124 174.794 303.013 174.395L302.842 174.334L302.921 173.955C300.931 169.935 301.626 164.428 304.701 159.9C307.497 155.784 311.747 152.792 315.498 150.152C315.973 149.817 316.539 149.632 317.12 149.621C317.702 149.61 318.274 149.773 318.762 150.089C319.251 150.406 319.633 150.861 319.861 151.396C320.088 151.932 320.151 152.524 320.039 153.095L318.698 159.975C317.73 164.939 316.579 169.637 313.164 172.566C311.289 174.136 308.921 174.996 306.476 174.996Z" fill="#E6E6E6"/>
<path d="M315.258 186.886C313.959 186.878 312.683 186.546 311.545 185.92C310.407 185.293 309.443 184.393 308.742 183.299L308.645 183.148L308.876 182.944C309.476 179.67 312.298 176.754 316.087 175.499C319.531 174.359 323.333 174.546 326.685 174.71C327.128 174.731 327.554 174.884 327.911 175.148C328.267 175.412 328.536 175.777 328.685 176.194C328.834 176.612 328.856 177.064 328.748 177.494C328.639 177.924 328.406 178.313 328.076 178.61L324.305 182.014C321.564 184.487 318.831 186.72 315.534 186.88C315.442 186.884 315.35 186.886 315.258 186.886Z" fill="#E6E6E6"/>
<path d="M303.553 190.525C302.996 186.377 302.423 182.177 302.814 177.985C303.161 174.263 304.272 170.627 306.534 167.645C307.729 166.071 309.19 164.718 310.851 163.646C311.282 163.368 311.68 164.067 311.25 164.345C308.371 166.214 306.156 168.945 304.923 172.149C303.545 175.731 303.324 179.635 303.561 183.44C303.705 185.741 304.009 188.027 304.316 190.31C304.34 190.412 304.326 190.52 304.275 190.612C304.223 190.704 304.14 190.774 304.04 190.807C303.989 190.82 303.936 190.824 303.885 190.817C303.833 190.81 303.783 190.793 303.738 190.767C303.692 190.741 303.653 190.706 303.621 190.664C303.59 190.623 303.566 190.575 303.553 190.525V190.525Z" fill="#F2F2F2"/>
<path d="M301.979 192.908C304.66 188.059 307.769 182.67 313.325 180.948C314.867 180.471 316.489 180.3 318.097 180.444C318.604 180.489 318.477 181.287 317.971 181.243C315.27 181.016 312.574 181.745 310.356 183.303C308.208 184.797 306.536 186.874 305.121 189.077C304.254 190.426 303.478 191.833 302.701 193.238C302.453 193.687 301.728 193.363 301.979 192.908H301.979Z" fill="#F2F2F2"/>
<path d="M300.772 192.838L303.479 192.9L287.159 105.714L284.452 106.224L288.714 128.841H274.984L279.245 106.224L276.539 105.714L260.354 192.9L262.925 192.838L271.434 147.682H292.264L300.772 192.838ZM272.065 144.333L274.352 132.191H289.345L291.633 144.333H272.065Z" fill="#CACACA"/>
<path d="M182.584 89.4501V60.8181C182.584 59.968 183.899 59.2764 185.515 59.2764C187.131 59.2764 188.446 59.968 188.446 60.8181V89.4501C188.446 90.3003 187.131 90.9919 185.515 90.9919C183.899 90.9919 182.584 90.3003 182.584 89.4501Z" fill="#F0F0F0"/>
<path d="M175.571 89.4501V60.8181C175.571 59.968 176.886 59.2764 178.502 59.2764C180.118 59.2764 181.433 59.968 181.433 60.8181V89.4501C181.433 90.3003 180.118 90.9919 178.502 90.9919C176.886 90.9919 175.571 90.3003 175.571 89.4501Z" fill="#F0F0F0"/>
<path d="M168.557 89.4501V60.8181C168.557 59.968 169.871 59.2764 171.487 59.2764C173.104 59.2764 174.418 59.968 174.418 60.8181V89.4501C174.418 90.3003 173.104 90.9919 171.487 90.9919C169.871 90.9919 168.557 90.3003 168.557 89.4501Z" fill="#F0F0F0"/>
<path d="M227.557 68.3952C227.544 68.3082 227.513 68.2249 227.465 68.1508C227.418 68.0766 227.356 68.0132 227.282 67.9647L205.187 53.3782C205.52 53.2392 205.798 52.9953 205.98 52.6835H205.98C206.201 52.2985 206.26 51.8418 206.145 51.4132C206.03 50.9845 205.751 50.6188 205.367 50.3957L203.554 49.349C203.169 49.1282 202.712 49.0688 202.284 49.1837C201.855 49.2985 201.489 49.5783 201.266 49.962C201.146 50.1729 201.073 50.4077 201.054 50.6498L185.105 40.1206C184.569 38.8233 183.757 37.6585 182.725 36.7071C181.693 35.7558 180.466 35.0409 179.13 34.6123V29.9697H173.268V34.6123C171.324 35.2341 169.627 36.4579 168.423 38.1068C167.219 39.7557 166.57 41.7446 166.569 43.7864V45.0424H172.431C172.431 46.0418 172.828 47.0003 173.535 47.7069C174.241 48.4136 175.2 48.8106 176.199 48.8106C177.199 48.8106 178.157 48.4136 178.864 47.7069C179.57 47.0003 179.967 46.0418 179.967 45.0424H185.829V43.7864C185.828 43.1843 185.772 42.5835 185.659 41.9919L226.008 68.6287L209.247 89.0063C209.117 89.0057 208.988 89.0045 208.857 89.0045C207.519 89.0045 206.224 89.0361 204.989 89.0906C205.064 88.8836 205.096 88.6639 205.085 88.4442C205.06 88.0011 204.862 87.5857 204.532 87.2886C204.202 86.9916 203.768 86.8371 203.325 86.8589L201.235 86.9678C200.792 86.9922 200.376 87.191 200.079 87.5207C199.782 87.8504 199.627 88.2842 199.649 88.7275C199.665 88.9893 199.743 89.2437 199.876 89.4693C196.18 89.8622 193.784 90.4037 193.784 90.6792C193.784 91.1307 200.216 90.7009 208.267 90.6802C208.304 90.7849 208.368 90.8779 208.453 90.9497C208.538 91.0214 208.64 91.0693 208.749 91.0885C208.859 91.1077 208.971 91.0975 209.075 91.0588C209.179 91.0202 209.271 90.9546 209.342 90.8688L209.497 90.6803C217.524 90.7027 223.929 91.1298 223.929 90.6792C223.929 90.2545 218.234 89.1978 210.855 89.0283L227.421 68.8877C227.477 68.8197 227.518 68.7407 227.541 68.6559C227.565 68.5711 227.57 68.4823 227.557 68.3952Z" fill="#CCCCCC"/>
<path d="M228.161 193.047H176.572C175.529 193.046 174.53 192.631 173.793 191.894C173.055 191.156 172.641 190.157 172.64 189.114V104.449C172.639 103.518 172.268 102.625 171.609 101.966C170.951 101.307 170.058 100.937 169.126 100.936H48.454C47.5224 100.937 46.6294 101.307 45.9707 101.966C45.3119 102.625 44.9414 103.518 44.9403 104.449V189.114C44.9391 190.157 44.5245 191.156 43.7873 191.894C43.0501 192.631 42.0506 193.046 41.008 193.047H39.2429C38.2003 193.046 37.2008 192.631 36.4636 191.894C35.7264 191.156 35.3117 190.157 35.3105 189.114V99.8892C35.3133 97.3916 36.3067 94.9971 38.0728 93.231C39.8389 91.465 42.2334 90.4715 44.731 90.4688H222.673C225.17 90.4716 227.565 91.465 229.331 93.2311C231.097 94.9971 232.09 97.3916 232.093 99.8892V189.114C232.092 190.157 231.677 191.156 230.94 191.894C230.203 192.631 229.203 193.046 228.161 193.047Z" fill="#E4E4E4"/>
<path d="M231.884 112.45H172.85V114.962H231.884V112.45Z" fill="white"/>
<path d="M231.884 146.363H172.85V148.875H231.884V146.363Z" fill="white"/>
<path d="M123.982 90.056L122.285 89.3416L121.121 80.8359H105.621L104.36 89.3068L102.842 90.0658C102.769 90.1021 102.711 90.1619 102.677 90.2354C102.642 90.309 102.634 90.392 102.652 90.471C102.671 90.55 102.716 90.6204 102.779 90.6708C102.843 90.7212 102.922 90.7486 103.003 90.7487H123.842C123.925 90.7487 124.006 90.7199 124.07 90.6672C124.135 90.6145 124.179 90.5411 124.195 90.4595C124.212 90.378 124.2 90.2932 124.161 90.2196C124.122 90.1461 124.059 90.0883 123.982 90.056Z" fill="#E6E6E6"/>
<path d="M151.527 81.9668H75.3869C74.9874 81.9659 74.6046 81.8066 74.3225 81.5238C74.0403 81.241 73.8818 80.8579 73.8818 80.4584V69.7217H153.032V80.4584C153.032 80.8579 152.873 81.241 152.591 81.5238C152.309 81.8066 151.926 81.9659 151.527 81.9668Z" fill="#CCCCCC"/>
<path d="M153.111 74.7965H73.8125V28.8565C73.8131 28.3744 74.0048 27.9122 74.3457 27.5713C74.6866 27.2304 75.1489 27.0386 75.631 27.0381H151.293C151.775 27.0386 152.237 27.2304 152.578 27.5713C152.919 27.9122 153.111 28.3744 153.111 28.8565V74.7965Z" fill="#3F3D56"/>
<path d="M148.375 71.4619H78.5484C78.1767 71.4615 77.8204 71.3137 77.5576 71.0509C77.2947 70.7881 77.1469 70.4317 77.1465 70.0601V31.774C77.1469 31.4023 77.2947 31.046 77.5576 30.7832C77.8204 30.5203 78.1767 30.3725 78.5484 30.3721H148.375C148.747 30.3725 149.103 30.5203 149.366 30.7832C149.629 31.046 149.776 31.4023 149.777 31.774V70.0601C149.776 70.4317 149.629 70.7881 149.366 71.0509C149.103 71.3137 148.747 71.4615 148.375 71.4619Z" fill="white"/>
<path d="M226.652 34.7669C227.32 34.6707 228 34.7221 228.646 34.9174C229.292 35.1128 229.888 35.4475 230.39 35.8978C230.893 36.3481 231.291 36.9032 231.556 37.5238C231.82 38.1445 231.946 38.8157 231.923 39.4902L247.233 45.383L240.297 50.3386L226.822 43.983C225.692 43.87 224.642 43.3462 223.872 42.5108C223.101 41.6755 222.664 40.5867 222.643 39.4507C222.622 38.3147 223.019 37.2104 223.758 36.3472C224.496 35.4839 225.526 34.9217 226.652 34.7669V34.7669Z" fill="#9E616A"/>
<path d="M284.781 31.875L287.371 36.5839C286.746 39.5705 285.128 42.2576 282.781 44.2085C278.816 47.5528 258.082 60.0082 258.082 60.0082L231.907 46.8676L236.486 40.7828L257.036 47.6698C264.659 40.4713 273.859 35.1531 283.901 32.1392L284.781 31.875Z" fill="#E4E4E4"/>
<path d="M279.966 109.794C291.248 109.794 300.394 106.814 300.394 103.138C300.394 99.4616 291.248 96.4814 279.966 96.4814C268.684 96.4814 259.538 99.4616 259.538 103.138C259.538 106.814 268.684 109.794 279.966 109.794Z" fill="#CACACA"/>
<path d="M234.137 187.198L228.713 185.698L231.915 164.062L239.921 166.275L234.137 187.198Z" fill="#9E616A"/>
<path d="M234.067 192.837L216.576 188.002L216.637 187.781C217.136 185.975 218.332 184.442 219.962 183.518C221.592 182.595 223.521 182.356 225.327 182.855L225.327 182.855L236.01 185.808L234.067 192.837Z" fill="#2F2E41"/>
<path d="M218.41 187.268L213.262 184.994L219.581 164.055L227.179 167.41L218.41 187.268Z" fill="#9E616A"/>
<path d="M217.518 192.837L200.918 185.507L201.011 185.297C201.767 183.583 203.174 182.241 204.921 181.564C206.667 180.887 208.611 180.932 210.325 181.689L210.325 181.689L220.464 186.166L217.518 192.837Z" fill="#2F2E41"/>
<path d="M295.863 86.8635C295.863 86.8635 298.592 95.3181 281.849 106.01L260.287 127.497L237.882 181.091L224.58 175.128L227.189 168.164L228.939 163.491L229.835 161.101L230.795 158.538L245.035 120.527L256.997 99.5828L257.344 88.2182L260.287 80.2072L281.633 72.6328L295.863 86.8635Z" fill="#2F2E41"/>
<path d="M284.977 87.2825C284.977 87.2825 287.705 95.737 270.963 106.429L249.4 127.915L226.995 181.51L213.693 175.547L216.302 168.583L218.053 163.91L218.948 161.52L219.908 158.957L234.149 120.946L238.154 113.933C243.438 104.682 249.858 96.128 257.265 88.4707L261.192 84.412L261.61 78.1318L270.746 73.0518L284.977 87.2825Z" fill="#2F2E41"/>
<path d="M272.079 45.8925L278.778 31.6572L290.468 30.0625C290.468 30.0625 299.597 41.6924 297.2 58.0344C296.301 64.1627 295.569 70.2638 295.525 75.6192C295.514 77.0442 296.76 77.6805 296.782 78.9687C296.802 80.2342 294.419 82.2956 295.107 83.1556C296.091 84.3409 296.676 85.8057 296.782 87.3425C295.952 89.3171 270.841 78.6196 260.287 80.2071L272.079 45.8925Z" fill="#E4E4E4"/>
<path d="M288.683 22.8965C291.667 17.8767 290.016 11.3884 284.997 8.40441C279.977 5.42044 273.489 7.07079 270.505 12.0906C267.521 17.1103 269.171 23.5987 274.191 26.5826C279.21 29.5666 285.699 27.9163 288.683 22.8965Z" fill="#9E616A"/>
<path d="M286.354 13.6965C286.334 13.9747 286.306 14.3432 286.274 14.7601C286.241 15.9013 286.562 17.0246 287.194 17.9755C287.786 18.976 287.08 25.0182 287.08 25.0182C304.4 12.9448 290.715 0.815205 285.361 1.89344C285.473 0.358066 281.107 0.96631 281.107 0.96631C279.443 -1.62445 275.797 1.81457 275.797 1.81457L276.501 0.63097C273.67 1.35099 270.872 10.0997 270.872 10.0997C271.832 13.874 286.466 12.1611 286.354 13.6965Z" fill="#2F2E41"/>
<path d="M219.163 51.4938C225.115 43.5769 229.82 34.7957 233.115 25.4552C233.306 24.8965 233.293 24.2882 233.077 23.7386C232.861 23.1889 232.458 22.7336 231.938 22.4537L211.571 11.5406C211.241 11.3627 210.875 11.2623 210.501 11.2471C210.127 11.232 209.754 11.3023 209.412 11.4529C209.062 11.6047 208.752 11.8341 208.505 12.1237C208.258 12.4133 208.08 12.7555 207.985 13.1243C205.615 22.125 201.159 30.4413 194.978 37.4005C194.723 37.6837 194.537 38.0213 194.433 38.3875C194.328 38.7537 194.309 39.1389 194.376 39.5137C194.441 39.8825 194.588 40.2318 194.808 40.5349C195.028 40.838 195.314 41.0869 195.645 41.2627L216.012 52.1759C216.533 52.4537 217.136 52.5376 217.713 52.4127C218.29 52.2878 218.804 51.9622 219.163 51.4938Z" fill="#CCCCCC"/>
<path d="M217.773 50.4483C217.664 50.585 217.51 50.6792 217.338 50.7147C217.166 50.7501 216.988 50.7245 216.833 50.6424L196.466 39.729C196.367 39.6775 196.281 39.6037 196.216 39.5135C196.15 39.4233 196.106 39.3192 196.088 39.2092C196.066 39.0931 196.072 38.9736 196.105 38.8602C196.138 38.7468 196.196 38.6425 196.276 38.5555C202.639 31.3914 207.226 22.83 209.667 13.564C209.695 13.4496 209.749 13.3432 209.826 13.2532C209.902 13.1632 209.998 13.0921 210.106 13.0454C210.208 12.9998 210.319 12.9784 210.431 12.983C210.543 12.9877 210.652 13.0181 210.75 13.072L231.116 23.9851C231.271 24.0684 231.391 24.2031 231.457 24.3657C231.522 24.5284 231.529 24.7088 231.475 24.8758C228.239 34.0491 223.618 42.6731 217.773 50.4483Z" fill="white"/>
<path d="M210.647 23.4397L224.695 31.6736C226.093 32.4928 227.358 30.3224 225.963 29.5045L211.915 21.2705C210.517 20.4513 209.252 22.6217 210.647 23.4397V23.4397Z" fill="#A56EFF"/>
<path d="M208.135 28.0461L222.183 36.2801C223.581 37.0993 224.847 34.9289 223.451 34.1109L209.403 25.8769C208.005 25.0577 206.74 27.2282 208.135 28.0461V28.0461Z" fill="#A56EFF"/>
<path d="M205.205 33.0695L219.252 41.3035C220.65 42.1227 221.916 39.9523 220.52 39.1344L206.473 30.9004C205.075 30.0812 203.809 32.2516 205.205 33.0695V33.0695Z" fill="#A56EFF"/>
<path d="M202.274 37.258L216.322 45.492C217.719 46.3112 218.985 44.1408 217.59 43.3228L203.542 35.0889C202.144 34.2696 200.878 36.4401 202.274 37.258V37.258Z" fill="#A56EFF"/>
<path d="M266.315 85.6898L271.589 97.5493C271.716 97.8332 271.77 98.1443 271.747 98.4545C271.724 98.7648 271.623 99.0643 271.455 99.326C271.257 99.6388 270.971 99.886 270.633 100.036C270.294 100.187 269.919 100.234 269.554 100.171C269.43 100.152 269.308 100.12 269.191 100.074C268.724 99.8944 268.349 99.537 268.145 99.0804L262.872 87.2209C262.771 86.9949 262.716 86.7512 262.71 86.5039C262.703 86.2565 262.746 86.0104 262.834 85.7794C263.014 85.313 263.371 84.9369 263.827 84.7338C264.284 84.5308 264.803 84.5175 265.269 84.6967C265.735 84.876 266.112 85.2332 266.315 85.6898Z" fill="#A56EFF"/>
<path d="M271.163 96.5938L272.219 98.9873L272.76 102.381C272.795 102.604 272.756 102.833 272.648 103.032C272.541 103.231 272.37 103.388 272.163 103.48C271.957 103.572 271.725 103.593 271.505 103.54C271.285 103.487 271.089 103.363 270.947 103.187L268.761 100.466L267.72 98.1249L271.163 96.5938Z" fill="#3F3D56"/>
<path d="M261.698 82.3903L262.454 87.1382C262.479 87.2937 262.539 87.4413 262.63 87.5699C262.721 87.6984 262.84 87.8043 262.978 87.8793C263.117 87.9544 263.27 87.9967 263.428 88.0029C263.585 88.0091 263.742 87.979 263.885 87.9151L264.635 87.5819L266.081 90.8337C266.126 90.935 266.209 91.0142 266.313 91.0539C266.417 91.0936 266.532 91.0906 266.633 91.0455C266.734 91.0004 266.814 90.917 266.854 90.8135C266.894 90.71 266.891 90.5949 266.846 90.4934L265.4 87.2416L266.149 86.9084C266.397 86.7978 266.592 86.5933 266.69 86.3397C266.788 86.0861 266.781 85.8039 266.672 85.5551C266.635 85.4727 266.588 85.3954 266.531 85.3253L263.511 81.584C263.369 81.408 263.173 81.2838 262.953 81.2308C262.733 81.1777 262.502 81.1988 262.295 81.2907C262.088 81.3827 261.918 81.5403 261.81 81.7391C261.702 81.9379 261.663 82.1668 261.698 82.3903Z" fill="#3F3D56"/>
<path d="M263.888 90.9614C264.006 90.2971 264.269 89.6669 264.658 89.1152C265.047 88.5636 265.552 88.1039 266.137 87.7685C266.723 87.4332 267.375 87.2303 268.048 87.1741C268.72 87.118 269.397 87.21 270.03 87.4437L280.441 74.7666L282.962 82.9098L272.689 93.6997C272.226 94.7373 271.398 95.5689 270.363 96.0371C269.328 96.5053 268.157 96.5774 267.072 96.2399C265.987 95.9024 265.064 95.1786 264.477 94.2057C263.89 93.2328 263.68 92.0785 263.888 90.9614Z" fill="#9E616A"/>
<path d="M276.994 90.137L272.408 83.5137L285.429 66.1527L278.721 51.7792L279.21 34.6821L284.753 33.6582L284.821 33.6927C287.516 35.2439 289.599 37.6702 290.725 40.5687C292.107 44.0255 295.194 57.0023 296.911 64.4297C297.248 65.869 297.211 67.3707 296.804 68.7918C296.396 70.2128 295.632 71.5058 294.583 72.5477L276.994 90.137Z" fill="#E4E4E4"/>
<path d="M147.885 58.1329C147.847 58.4545 147.835 58.7787 147.847 59.1024L124.37 76.1823L117.921 73.3279L112.341 82.4986L123.268 88.6613C124.15 89.1591 125.171 89.3572 126.176 89.2258C127.181 89.0944 128.116 88.6405 128.841 87.9323L152.469 64.853C153.679 65.1603 154.953 65.0921 156.123 64.6575C157.293 64.2229 158.303 63.4424 159.018 62.4199C159.733 61.3974 160.12 60.1814 160.128 58.9335C160.135 57.6856 159.763 56.4651 159.059 55.4342C158.356 54.4033 157.356 53.6109 156.191 53.1625C155.027 52.714 153.753 52.6307 152.54 52.9237C151.327 53.2167 150.232 53.872 149.401 54.8025C148.569 55.733 148.041 56.8946 147.885 58.1328V58.1329Z" fill="#FFB6B6"/>
<path d="M123.612 76.8074L116.766 88.2158C116.571 88.5404 116.308 88.8192 115.996 89.0332C115.684 89.2472 115.329 89.3914 114.956 89.4559C114.583 89.5205 114.2 89.5039 113.834 89.4073C113.468 89.3107 113.127 89.1363 112.835 88.8961L102.584 80.4774C100.929 79.4711 99.7412 77.8498 99.2799 75.9689C98.8186 74.088 99.1219 72.1009 100.123 70.4433C101.125 68.7856 102.743 67.5927 104.622 67.1259C106.502 66.6591 108.49 66.9566 110.15 67.9531L122.363 73.0188C122.713 73.164 123.027 73.3828 123.284 73.6603C123.542 73.9379 123.736 74.2676 123.855 74.6272C123.973 74.9867 124.013 75.3676 123.971 75.7438C123.929 76.12 123.807 76.4828 123.612 76.8074L123.612 76.8074Z" fill="#A56EFF"/>
<path d="M94.2773 175.967H107.697V153.728H94.2773V175.967Z" fill="#CACACA"/>
<path d="M107.025 165.496L105.303 168.034L137.511 189.889L139.233 187.351L107.025 165.496Z" fill="#CACACA"/>
<path d="M94.95 165.495L62.7422 187.351L64.4646 189.889L96.6724 168.034L94.95 165.495Z" fill="#CACACA"/>
<path d="M138.372 192.838C140.701 192.838 142.59 190.949 142.59 188.62C142.59 186.291 140.701 184.402 138.372 184.402C136.043 184.402 134.154 186.291 134.154 188.62C134.154 190.949 136.043 192.838 138.372 192.838Z" fill="#CACACA"/>
<path d="M100.797 192.838C103.126 192.838 105.014 190.949 105.014 188.62C105.014 186.291 103.126 184.402 100.797 184.402C98.4674 184.402 96.5791 186.291 96.5791 188.62C96.5791 190.949 98.4674 192.838 100.797 192.838Z" fill="#CACACA"/>
<path d="M63.6034 192.838C65.9328 192.838 67.8211 190.949 67.8211 188.62C67.8211 186.291 65.9328 184.402 63.6034 184.402C61.2741 184.402 59.3857 186.291 59.3857 188.62C59.3857 190.949 61.2741 192.838 63.6034 192.838Z" fill="#CACACA"/>
<path d="M102.33 166.765H99.2627V188.62H102.33V166.765Z" fill="#CACACA"/>
<path d="M98.1119 163.697H103.863V134.173H98.1119V163.697Z" fill="#CACACA"/>
<path d="M84.5 138.775V131.873C84.5014 130.602 85.0068 129.384 85.9054 128.485C86.8039 127.587 88.0221 127.082 89.2928 127.08H114.982C116.253 127.082 117.471 127.587 118.37 128.485C119.268 129.384 119.774 130.602 119.775 131.873V138.775C119.774 140.045 119.268 141.264 118.37 142.162C117.471 143.061 116.253 143.566 114.982 143.567H89.2928C88.0221 143.566 86.8039 143.061 85.9054 142.162C85.0068 141.264 84.5014 140.045 84.5 138.775Z" fill="#3F3D56"/>
<path d="M130.898 185.951L138.003 185.95L141.383 167.523L130.897 167.524L130.898 185.951Z" fill="#FFB8B8"/>
<path d="M129.087 192.838L151.996 192.837V192.547C151.996 191.376 151.765 190.217 151.317 189.135C150.869 188.053 150.212 187.07 149.384 186.242C148.556 185.415 147.573 184.758 146.492 184.31C145.41 183.862 144.25 183.631 143.079 183.631H143.079L129.087 183.631L129.087 192.838Z" fill="#2F2E41"/>
<path d="M141.526 174.525L155.689 142.763C156.872 140.086 157.003 137.062 156.056 134.293C155.109 131.523 153.153 129.213 150.579 127.821L119.857 111.346L105.838 110.154L92.9063 108.979L92.8131 109.136C92.6938 109.338 89.9134 114.14 91.7928 119.406C93.2185 123.401 96.9267 126.521 102.814 128.68C116.557 133.719 132.433 138.026 138.62 139.643C138.894 139.713 139.15 139.84 139.37 140.016C139.591 140.191 139.772 140.412 139.902 140.663C140.032 140.911 140.109 141.183 140.128 141.462C140.148 141.741 140.11 142.021 140.016 142.285L126.857 171.848C126.719 172.223 126.67 172.625 126.712 173.022C126.755 173.419 126.887 173.801 127.101 174.139C127.314 174.476 127.602 174.76 127.943 174.969C128.283 175.178 128.667 175.306 129.064 175.342L138.897 176.058C138.98 176.066 139.063 176.07 139.146 176.07C139.65 176.07 140.142 175.924 140.565 175.65C140.987 175.375 141.321 174.985 141.526 174.525Z" fill="#2F2E41"/>
<path d="M126.263 185.951L133.367 185.95L136.747 167.523L126.262 167.524L126.263 185.951Z" fill="#FFB8B8"/>
<path d="M124.45 192.838L147.358 192.837V192.547C147.358 191.376 147.128 190.217 146.679 189.135C146.231 188.053 145.575 187.07 144.747 186.242C143.919 185.415 142.936 184.758 141.854 184.31C140.772 183.862 139.613 183.631 138.442 183.631H138.441L124.449 183.631L124.45 192.838Z" fill="#2F2E41"/>
<path d="M136.31 176.262L150.474 144.5C151.656 141.823 151.787 138.799 150.84 136.03C149.893 133.261 147.937 130.95 145.363 129.558L114.641 113.084L100.622 111.892L90.4933 111.013L90.4947 110.874C90.3754 111.075 87.595 115.878 89.4745 121.144C90.9001 125.138 91.7108 128.258 97.5986 130.417C111.341 135.456 127.217 139.763 133.405 141.381C133.678 141.45 133.934 141.578 134.154 141.753C134.375 141.929 134.556 142.15 134.686 142.4C134.816 142.648 134.893 142.92 134.913 143.199C134.932 143.479 134.894 143.759 134.8 144.022L121.641 173.586C121.504 173.961 121.454 174.362 121.496 174.76C121.539 175.157 121.672 175.539 121.885 175.876C122.098 176.214 122.386 176.498 122.727 176.707C123.067 176.915 123.451 177.043 123.849 177.08L133.681 177.796C133.764 177.804 133.847 177.808 133.93 177.808C134.434 177.808 134.926 177.662 135.349 177.387C135.771 177.113 136.105 176.722 136.31 176.262Z" fill="#2F2E41"/>
<path d="M127.425 39.4567C129.244 31.8091 124.519 24.1351 116.871 22.3164C109.223 20.4977 101.549 25.2229 99.7306 32.8705C97.9119 40.5182 102.637 48.1921 110.285 50.0109C117.932 51.8296 125.606 47.1043 127.425 39.4567Z" fill="#FFB8B8"/>
<path d="M162.641 90.8502C168.593 82.9333 173.298 74.1522 176.593 64.8117C176.784 64.253 176.77 63.6447 176.554 63.095C176.339 62.5454 175.935 62.0901 175.415 61.8102L155.048 50.897C154.719 50.7191 154.353 50.6188 153.979 50.6036C153.605 50.5884 153.232 50.6588 152.889 50.8094C152.54 50.9611 152.23 51.1905 151.983 51.4802C151.736 51.7698 151.558 52.112 151.463 52.4807C149.092 61.4814 144.636 69.7978 138.455 76.7569C138.201 77.0402 138.014 77.3777 137.91 77.7439C137.806 78.1101 137.787 78.4953 137.854 78.8701C137.918 79.239 138.066 79.5882 138.286 79.8913C138.506 80.1944 138.792 80.4433 139.122 80.6192L159.49 91.5324C160.011 91.8102 160.613 91.8941 161.19 91.7692C161.767 91.6442 162.281 91.3186 162.641 90.8502Z" fill="#CCCCCC"/>
<path d="M161.251 89.8047C161.141 89.9414 160.987 90.0357 160.816 90.0711C160.644 90.1065 160.465 90.081 160.311 89.9988L139.943 79.0854C139.845 79.0339 139.759 78.9601 139.693 78.8699C139.628 78.7798 139.584 78.6756 139.565 78.5656C139.544 78.4495 139.55 78.3301 139.583 78.2167C139.615 78.1033 139.674 77.999 139.754 77.912C146.117 70.7479 150.704 62.1865 153.144 52.9205C153.173 52.806 153.227 52.6996 153.303 52.6096C153.379 52.5197 153.475 52.4485 153.584 52.4018C153.686 52.3562 153.797 52.3349 153.908 52.3395C154.02 52.3441 154.129 52.3745 154.227 52.4284L174.594 63.3415C174.748 63.4249 174.868 63.5595 174.934 63.7222C175 63.8848 175.006 64.0652 174.953 64.2323C171.717 73.4056 167.096 82.0295 161.251 89.8047Z" fill="white"/>
<path d="M154.126 62.7971L168.173 71.031C169.571 71.8503 170.837 69.6798 169.441 68.8619L155.393 60.6279C153.996 59.8087 152.73 61.9791 154.126 62.7971V62.7971Z" fill="#CCCCCC"/>
<path d="M151.613 67.4016L165.661 75.6355C167.058 76.4548 168.324 74.2843 166.929 73.4664L152.881 65.2324C151.483 64.4132 150.217 66.5836 151.613 67.4016V67.4016Z" fill="#CCCCCC"/>
<path d="M149.638 71.9903L162.414 79.5747C163.685 80.3293 165.045 78.7692 163.776 78.0158L151 70.4314C149.729 69.6768 148.369 71.2369 149.638 71.9903Z" fill="#CCCCCC"/>
<path d="M145.751 76.6145L159.798 84.8484C161.196 85.6676 162.462 83.4972 161.066 82.6793L147.018 74.4453C145.621 73.6261 144.355 75.7965 145.751 76.6145V76.6145Z" fill="#CCCCCC"/>
<path d="M121.783 112.498L93.6167 112.33L93.609 112.129C93.072 97.9972 94.7992 85.1953 98.8893 72.9929C98.9472 72.5362 99.0097 72.048 99.071 71.5688C99.7696 66.1095 100.324 61.7751 105.516 60.1608C105.083 59.5857 104.828 58.8967 104.782 58.1786C104.75 57.7014 104.812 57.2224 104.966 56.7696C105.12 56.3167 105.363 55.8991 105.68 55.541C105.984 55.1951 106.353 54.9131 106.767 54.7114C107.18 54.5096 107.63 54.3922 108.089 54.3659L118.114 54.0245C118.641 54.0209 119.154 54.1947 119.57 54.518C120.333 55.085 120.87 55.9052 121.083 56.8318C121.297 57.7583 121.174 58.7306 120.736 59.5745C120.617 59.8096 120.572 59.9167 120.555 59.9634C120.911 61.8307 121.969 64.0488 123.088 66.3962C124.69 69.7571 126.506 73.5662 126.973 77.6414C127.226 79.8417 127.121 82.0684 126.663 84.2353C126.454 85.403 126.406 86.5938 126.52 87.7745C126.612 89.5253 126.698 91.1784 125.708 92.7771C125.456 93.2105 125.168 93.6725 124.829 94.1844L123.437 97.5122L121.783 112.498Z" fill="#A56EFF"/>
<path d="M79.5156 132.275V74.7222C79.5177 72.8468 80.2637 71.0488 81.5898 69.7226C82.9159 68.3965 84.7139 67.6505 86.5894 67.6484H88.5458C90.4212 67.6505 92.2192 68.3965 93.5454 69.7226C94.8715 71.0488 95.6174 72.8468 95.6195 74.7222V132.275C95.6174 134.151 94.8715 135.949 93.5454 137.275C92.2192 138.601 90.4212 139.347 88.5458 139.349H86.5894C84.7139 139.347 82.9159 138.601 81.5898 137.275C80.2637 135.949 79.5177 134.151 79.5156 132.275Z" fill="#3F3D56"/>
<path d="M155.049 80.4658C154.847 80.7189 154.665 80.9876 154.505 81.2693L125.549 83.3835L121.578 77.5547L111.998 82.3983L118.026 93.4002C118.513 94.289 119.275 94.9959 120.198 95.4147C121.12 95.8335 122.154 95.9417 123.144 95.7229L155.395 88.5932C156.26 89.4926 157.378 90.1074 158.601 90.3557C159.824 90.604 161.094 90.4741 162.241 89.9833C163.389 89.4925 164.359 88.664 165.024 87.608C165.689 86.5521 166.017 85.3187 165.964 84.0719C165.911 82.8251 165.479 81.6241 164.727 80.6285C163.975 79.6329 162.937 78.89 161.752 78.4985C160.567 78.107 159.291 78.0856 158.094 78.437C156.896 78.7884 155.834 79.4961 155.049 80.4658Z" fill="#FFB6B6"/>
<path d="M124.574 83.5148L112.737 89.5905C112.4 89.7634 112.03 89.8616 111.652 89.8786C111.274 89.8955 110.897 89.8307 110.546 89.6887C110.195 89.5466 109.879 89.3306 109.619 89.0553C109.359 88.78 109.161 88.452 109.04 88.0935L104.777 75.5324C103.903 73.8079 103.748 71.8076 104.345 69.9688C104.942 68.13 106.242 66.6024 107.963 65.7202C102.716 68.4135 113.644 60.7632 117.814 68.8887L125.513 79.6379C125.734 79.9457 125.885 80.2974 125.957 80.669C126.029 81.0406 126.02 81.4234 125.931 81.7914C125.842 82.1593 125.675 82.5037 125.441 82.8011C125.206 83.0985 124.911 83.3419 124.574 83.5148H124.574Z" fill="#A56EFF"/>
<path d="M107.148 50.008C106.292 50.008 105.346 49.595 104.281 48.7585C101.144 46.296 98.9029 42.8726 97.8996 39.0136C96.8963 35.1545 97.1868 31.0729 98.7265 27.3948C99.5014 25.5439 100.951 23.0281 103.455 21.5537C105.254 20.4943 107.369 20.1116 109.209 19.836C110.803 19.5972 112.416 19.4071 114.004 19.2717C115.903 19.1094 118.095 18.9998 120.095 19.7595C121.56 20.3164 122.807 21.2997 124.013 22.2508C124.433 22.582 124.868 22.925 125.303 23.2423C126.358 24.0652 127.575 24.6561 128.874 24.9763C129.148 25.0331 129.406 25.1481 129.632 25.3136C129.858 25.479 130.046 25.6909 130.183 25.9351C130.322 26.1833 130.407 26.4586 130.431 26.7424C130.455 27.0262 130.418 27.3118 130.322 27.58C130.134 28.1075 129.965 28.583 130.308 29.0982C130.435 29.2796 130.605 29.4272 130.803 29.5278C131 29.6285 131.219 29.6792 131.441 29.6755C131.558 29.6736 131.674 29.7009 131.777 29.7551C131.881 29.8092 131.97 29.8884 132.035 29.9854C132.101 30.0816 132.143 30.1926 132.156 30.3086C132.17 30.4246 132.155 30.5422 132.113 30.6511L132.057 30.793C132.205 30.8067 132.347 30.856 132.471 30.9367C132.595 31.0174 132.697 31.1271 132.769 31.2562C132.877 31.4401 132.919 31.6551 132.887 31.8658C132.856 32.0765 132.754 32.2702 132.597 32.4149C131.327 33.624 129.744 34.4528 128.026 34.8073C126.851 35.0378 125.642 35.035 124.468 34.7991L124.279 34.7623L124.302 34.5529C119.553 32.859 115.265 35.7338 112.821 39.0203L112.468 38.7975C112.529 38.675 112.564 38.5415 112.572 38.405C112.579 38.2686 112.559 38.132 112.513 38.0034C112.464 37.8492 112.385 37.7061 112.28 37.5825C112.176 37.4589 112.048 37.3571 111.904 37.283C111.613 37.1629 111.292 37.1317 110.984 37.1934C110.675 37.255 110.391 37.4067 110.169 37.6293C109.942 37.867 109.767 38.1493 109.655 38.4583C109.543 38.7672 109.497 39.0961 109.52 39.4238C109.584 40.1185 109.761 40.7981 110.044 41.4359C110.159 41.7409 110.277 42.0566 110.374 42.3747C110.915 44.1818 110.771 46.1249 109.969 47.8323C109.599 48.6112 108.93 49.6044 107.844 49.9123C107.618 49.9762 107.383 50.0084 107.148 50.008Z" fill="#2F2E41"/>
<path d="M338.503 193.676H0.500011C0.368045 193.675 0.241617 193.623 0.148438 193.529C0.0552581 193.436 0.00292969 193.309 0.00292969 193.177C0.00292969 193.045 0.0552581 192.919 0.148438 192.825C0.241617 192.732 0.368045 192.679 0.500011 192.679H338.503C338.635 192.679 338.762 192.731 338.855 192.825C338.949 192.918 339.002 193.045 339.002 193.177C339.002 193.309 338.949 193.436 338.855 193.53C338.762 193.623 338.635 193.676 338.503 193.676Z" fill="#CACACA"/>
</g>
<defs>
<clipPath id="clip0_2118_5428">
<rect width="339" height="193.675" fill="white"/>
</clipPath>
</defs>
</svg>
