<svg class="svgClass" width="262" height="198" viewBox="0 0 262 198" fill="none" xmlns="http://www.w3.org/2000/svg">
    <g clip-path="url(#clip0_1_4207)">
    <path d="M170.809 81.2489C170.237 81.3314 169.653 81.2876 169.099 81.1204C168.546 80.9532 168.036 80.6668 167.605 80.2813C167.174 79.8957 166.832 79.4205 166.605 78.8889C166.378 78.3574 166.269 77.7825 166.288 77.2047L153.164 72.1631L159.106 67.9141L170.658 73.353C171.628 73.4491 172.528 73.8973 173.188 74.6127C173.849 75.328 174.224 76.2608 174.243 77.2342C174.261 78.2077 173.922 79.154 173.289 79.894C172.656 80.634 171.773 81.1161 170.809 81.249L170.809 81.2489Z" fill="#FFB7B7"/>
    <path d="M163.309 77.6322L165.358 70.4068L165.258 70.3382L146.063 57.3043L129.47 40.6621L119.805 44.5223L120.439 47.5803L120.481 47.6178L142.542 67.3696L142.562 67.3795L163.309 77.6322Z" fill="#E6E7E8"/>
    <path d="M143.644 94.137L113.938 89.9746L116.552 71.7539H138.422L143.644 94.137Z" fill="#FFB6B6"/>
    <path d="M93.1719 183.358L99.2657 184.773L107.627 161.952L98.6339 159.863L93.1719 183.358Z" fill="#FFB6B6"/>
    <path d="M87.5 193.165L91.87 194.18L93.6087 190.237L94.6477 194.826L106.238 197.518C106.794 197.647 107.376 197.595 107.9 197.37C108.424 197.145 108.862 196.758 109.151 196.266C109.439 195.775 109.563 195.204 109.504 194.637C109.445 194.069 109.206 193.536 108.822 193.114L101.052 184.575L102.021 180.405L92.151 178.725L87.5 193.165Z" fill="#2F2E41"/>
    <path d="M130.773 186.753H137.029L140.007 162.632H130.773V186.753Z" fill="#FFB6B6"/>
    <path d="M127.469 197.588H131.955L132.756 193.353L134.807 197.588H146.706C147.276 197.588 147.832 197.405 148.291 197.067C148.751 196.73 149.09 196.254 149.26 195.709C149.43 195.165 149.421 194.581 149.235 194.042C149.049 193.503 148.695 193.037 148.226 192.714L138.724 186.154V181.873L128.729 182.469L127.469 197.588Z" fill="#2F2E41"/>
    <path d="M113.569 86.8823L142.62 84.5723C151.193 104.59 145.742 136.546 139.154 172.52L129.81 173.727L129.085 115.922L105.661 169.698L95.9219 169.201L113.569 86.8823Z" fill="#2F2E41"/>
    <path d="M130.476 34.1698V24.3452C130.477 22.6158 130.137 20.9032 129.475 19.3052C128.814 17.7073 127.844 16.2552 126.621 15.032C125.398 13.8089 123.946 12.8386 122.347 12.1766C120.749 11.5146 119.036 11.1738 117.306 11.1738C115.576 11.1738 113.863 11.5146 112.264 12.1766C110.666 12.8386 109.214 13.8089 107.991 15.032C106.768 16.2552 105.798 17.7073 105.136 19.3052C104.475 20.9032 104.135 22.6158 104.136 24.3452C101.815 29.1803 103.267 31.4791 104.136 34.1698C104.137 34.6384 104.323 35.0875 104.655 35.4189C104.986 35.7502 105.435 35.9366 105.904 35.9374H128.707C129.176 35.9369 129.625 35.7505 129.957 35.4191C130.288 35.0878 130.475 34.6385 130.476 34.1698Z" fill="#2F2E41"/>
    <path d="M120.554 35.7895C125.887 35.7895 130.21 31.4681 130.21 26.1374C130.21 20.8067 125.887 16.4854 120.554 16.4854C115.222 16.4854 110.898 20.8067 110.898 26.1374C110.898 31.4681 115.222 35.7895 120.554 35.7895Z" fill="#FFB7B7"/>
    <path d="M133.591 25.1306C133.588 22.3697 132.489 19.7227 130.536 17.7704C128.583 15.8181 125.935 14.7199 123.173 14.7168H121.207C118.445 14.7199 115.797 15.8181 113.844 17.7704C111.891 19.7227 110.792 22.3697 110.789 25.1306V25.3272C112.261 26.3333 113.659 26.4804 114.943 25.3272L116.36 21.3614L116.643 25.3272H118.791L119.506 23.3264L119.65 25.3272C122.55 27.7962 128.034 26.613 133.591 25.3272L133.591 25.1306Z" fill="#2F2E41"/>
    <path d="M114.924 77.0785L139.509 76.1433L140.883 60.0664C141.943 57.1237 141.96 54.5952 140.934 52.5566C140.052 50.8808 138.569 49.5998 136.783 48.9695L131.403 42.4748C130.711 41.64 129.842 40.9694 128.859 40.5113C127.876 40.0532 126.804 39.8191 125.719 39.8259L111.741 39.9214C111.404 39.719 109.361 38.6807 105.33 40.4264C100.959 42.3203 101.974 48.9001 101.985 48.9662L101.995 49.028L102.043 49.0701L111.34 56.8982L114.924 77.0785Z" fill="#E6E7E8"/>
    <path d="M0.412476 198H247.261C247.371 198 247.476 197.957 247.553 197.88C247.63 197.802 247.674 197.697 247.674 197.588C247.674 197.479 247.63 197.374 247.553 197.297C247.476 197.219 247.371 197.176 247.261 197.176H0.412476C0.303081 197.176 0.198168 197.219 0.120814 197.297C0.0434607 197.374 0 197.479 0 197.588C0 197.697 0.0434607 197.802 0.120814 197.88C0.198168 197.957 0.303081 198 0.412476 198Z" fill="#CCCCCC"/>
    <path d="M180.149 100.414C180.131 109.78 176.608 118.8 170.274 125.701C163.94 132.602 155.252 136.885 145.919 137.708C136.585 138.531 127.282 135.834 119.837 130.147C112.392 124.461 107.344 116.196 105.686 106.978C104.028 97.7603 105.88 88.2557 110.877 80.3332C115.874 72.4106 123.655 66.6431 132.691 64.1646C141.726 61.6861 151.362 62.6758 159.705 66.9392C168.047 71.2027 174.493 78.4314 177.773 87.2042C177.855 87.4245 177.935 87.6448 178.013 87.8672V87.8693C178.359 88.847 178.664 89.8429 178.928 90.857C179.742 93.9774 180.152 97.1892 180.149 100.414Z" fill="#3F3D56"/>
    <path d="M138.232 74.9335C136.535 74.0158 134.65 73.4977 132.721 73.4188C130.792 73.3399 128.871 73.7023 127.104 74.4784C125.548 75.1553 123.91 76.3696 123.391 78.5623C125.49 77.3239 128.207 79.2806 128.748 82.4196L128.622 82.4544C128.336 84.6286 128.973 86.9957 130.206 88.3439C130.298 87.7356 130.524 87.1553 130.868 86.6452C131.212 86.1352 131.666 85.7081 132.195 85.3951C133.101 84.7997 134.104 84.3673 134.795 83.3439C135.615 82.1307 135.823 80.3577 136.149 78.7402C136.475 77.1227 137.092 75.3842 138.232 74.9335Z" fill="#A56EFF"/>
    <path d="M126.485 93.4361C125.903 94.3089 125.127 94.8565 124.43 95.5384C123.626 96.2699 123.098 97.2561 122.936 98.331C122.847 99.0905 122.984 99.8626 122.965 100.63C122.946 101.398 122.69 102.263 122.167 102.454C121.342 102.752 120.713 101.22 119.865 101.113C119.191 101.029 118.584 102.089 118.78 103.008C118.975 103.927 119.892 104.334 120.419 103.734C120.895 104.533 120.56 105.983 119.844 106.228C119.768 106.732 119.693 107.233 119.619 107.737C117.81 106.472 115.982 105.185 114.443 103.333C112.732 101.29 111.671 98.7824 111.396 96.1322C111.196 94.0026 111.492 91.5667 110.514 89.9281C109.731 88.6168 108.388 88.3272 107.179 88.4091C106.959 88.4237 106.736 88.4489 106.516 88.4762C107.229 86.3356 108.134 84.264 109.221 82.2868C109.467 82.1813 109.696 82.0391 109.899 81.8651C111.024 80.9104 111.524 78.9781 112.437 77.6416C112.495 77.5556 112.556 77.4717 112.619 77.3898C113.553 76.1708 114.804 75.5435 116.013 74.9602C118.689 73.6615 121.443 72.346 124.268 72.5264L123.464 72.6041C122.526 75.2309 121.587 77.8577 120.648 80.4845C120.505 80.8873 120.361 81.2909 120.215 81.6951C119.682 83.189 119.132 84.7793 119.214 86.4515C119.262 87.4418 119.607 88.4993 120.261 88.8392C120.872 89.1539 121.54 88.7678 122.13 88.386C122.379 88.2265 122.627 88.067 122.877 87.9055C123.773 87.3285 124.766 86.7368 125.712 87.1229C126.579 87.4753 127.219 88.6524 127.341 89.9218C127.453 91.1557 127.152 92.3917 126.485 93.4361Z" fill="#A56EFF"/>
    <path d="M131.814 111.369C129.196 109.758 126.579 108.147 123.961 106.536L124.006 106.422C122.378 107.041 121.703 109.933 121.971 112.298C122.24 114.663 123.152 116.777 123.613 119.081C124.234 122.235 124 125.497 122.934 128.529C126.376 124.668 129.422 120.473 132.027 116.005C132.391 115.441 132.668 114.827 132.849 114.182C133.041 113.494 132.973 112.759 132.657 112.119C132.443 111.803 132.153 111.545 131.814 111.369Z" fill="#A56EFF"/>
    <path d="M121.482 82.0605C121.174 82.7202 121.127 83.4715 121.349 84.1645C121.607 84.7229 122.076 85.1567 122.652 85.3714L124.099 86.088C124.58 86.3264 125.099 86.5672 125.589 86.371C126.181 86.1345 126.591 85.2073 126.485 84.3466C126.372 83.4307 125.794 82.8007 125.26 82.2641C124.513 81.5133 123.765 80.7625 123.018 80.0117L122.596 80.5275C122.141 80.9718 121.764 81.4901 121.482 82.0605Z" fill="#A56EFF"/>
    <path d="M172.397 91.8515C173.047 92.0046 173.698 92.1578 174.349 92.3109C174.235 94.5077 173.146 96.5407 171.685 97.2771C171.077 97.5835 170.399 97.6968 169.895 98.2696C169.439 98.7899 169.208 99.5997 168.996 100.374C168.625 101.725 168.253 103.076 167.882 104.427C167.483 105.884 166.971 107.501 165.934 108.026C165.044 108.477 164.026 107.925 163.342 107C162.658 106.074 162.24 104.83 161.835 103.618C161.86 104.939 161.245 106.236 160.374 106.695C159.501 107.155 158.439 106.74 157.855 105.714C157.436 104.977 157.261 104.006 156.85 103.259C156.439 102.512 155.576 102.084 155.127 102.785C154.831 103.25 154.869 103.964 154.722 104.555C154.648 104.948 154.453 105.308 154.165 105.585C153.877 105.863 153.509 106.043 153.114 106.102C152.75 106.093 152.392 106.011 152.061 105.86C151.73 105.709 151.434 105.492 151.189 105.223C149.904 103.908 149.067 102.222 148.798 100.403C148.616 99.5316 148.639 98.6294 148.866 97.7681C149.124 96.952 149.747 96.3226 150.366 96.4778C150.774 95.6175 149.97 94.4762 149.246 94.5769C148.519 94.6776 147.951 95.456 147.354 96.054C146.76 96.6519 145.929 97.0862 145.331 96.4924C145.344 96.7096 145.271 96.9232 145.127 97.0862C144.983 97.2493 144.78 97.3484 144.562 97.3617C144.541 97.3631 144.519 97.3635 144.498 97.3632C144.1 97.249 143.73 97.0532 143.413 96.7883C142.042 95.9343 140.302 96.5008 139.328 98.1164C139.937 95.5273 140.829 92.5564 142.699 91.9479C143.463 91.6983 144.296 91.9039 145.018 91.4717C146.297 90.7059 146.555 87.8126 145.451 86.6188C145.591 87.7476 145.564 89.0652 144.968 89.8373C144.372 90.6094 143.121 90.1058 143.196 88.9645C143.179 89.125 143.112 89.276 143.004 89.396C142.896 89.5159 142.753 89.5986 142.595 89.6321C142.437 89.6656 142.272 89.6483 142.125 89.5827C141.977 89.517 141.854 89.4064 141.773 89.2666C141.377 88.6624 141.41 87.6742 141.692 86.9524C141.982 86.2987 142.397 85.7084 142.915 85.2152C143.912 84.1473 144.924 83.0667 146.078 82.3953C147.235 81.724 148.57 81.4974 149.728 82.1646C150.339 82.517 150.877 83.1045 151.5 83.415C151.646 83.5059 151.809 83.567 151.979 83.5949C152.15 83.6228 152.324 83.617 152.491 83.5777C152.659 83.5384 152.818 83.4664 152.958 83.3659C153.098 83.2654 153.217 83.1383 153.307 82.9918C153.315 82.9805 153.321 82.9691 153.328 82.9576C153.792 82.1435 153.574 80.935 153.746 79.9175C154.054 78.1194 155.853 77.2781 156.85 78.4656C156.105 78.2747 155.335 79.1559 155.242 80.2238C155.148 81.2917 155.687 82.3702 156.409 82.6933C157.622 83.2304 158.81 81.8792 159.728 80.6287C160.685 79.3195 161.643 78.011 162.603 76.7032C162.756 76.4805 162.928 76.2714 163.117 76.078C163.418 75.7851 163.819 75.6173 164.239 75.6087C164.658 75.6002 165.066 75.7514 165.378 76.0318C166.348 76.8228 166.803 78.4446 167.599 79.5608C168.753 81.1826 170.48 81.5771 172.088 81.8918C173.287 82.1247 174.486 82.359 175.686 82.5946C176.486 84.0821 177.183 85.6221 177.774 87.2042C175.574 88.2071 173.708 89.82 172.397 91.8515Z" fill="#A56EFF"/>
    <path d="M178.923 90.8568C178.677 91.5814 178.543 92.339 178.524 93.1039C177.496 91.8492 177.332 89.4973 178.008 87.8691C178.354 88.8469 178.659 89.8428 178.923 90.8568Z" fill="#A56EFF"/>
    <path d="M176.266 117.097C175.367 118.922 174.321 120.671 173.139 122.327C172.383 122.004 171.571 122.581 170.863 123.122C170.124 123.689 169.237 124.241 168.479 123.724C167.704 123.196 167.455 121.717 167.7 120.544C167.982 119.462 168.476 118.446 169.153 117.556C169.782 116.616 170.456 115.64 171.331 115.275C172.209 114.91 173.336 115.426 173.592 116.673L174.213 116.652C173.865 116.173 174.047 115.183 174.515 115.009C175.055 114.805 175.523 115.546 175.842 116.201C175.985 116.496 176.13 116.794 176.266 117.097Z" fill="#A56EFF"/>
    <path d="M152.476 108.234C151.14 108.318 150.082 106.675 149.38 105.058C148.677 103.441 148.035 101.593 146.83 100.77C146.142 100.3 145.357 100.235 144.61 100.007C144.187 99.9003 143.795 99.694 143.467 99.4055C143.139 99.1169 142.884 98.7544 142.725 98.3479L141.878 98.0059C140.693 98.5979 139.607 99.3714 138.661 100.298C137.58 101.446 136.907 102.918 136.745 104.486C136.583 106.181 137.181 108.071 138.297 108.708C139.179 109.211 140.207 108.894 141.1 109.354C142.217 109.93 142.88 111.601 143.13 113.252C143.381 114.902 143.318 116.618 143.497 118.287C143.677 119.956 144.172 121.693 145.196 122.548C146.477 123.619 148.357 122.729 148.932 120.781C149.214 119.825 149.204 118.746 149.415 117.754C149.787 116.007 150.789 114.711 151.584 113.277C152.379 111.844 153.004 109.897 152.476 108.234Z" fill="#A56EFF"/>
    <path d="M139.28 91.065C139.404 91.1796 139.52 91.3029 139.627 91.434C139.738 91.6249 139.795 91.8424 139.791 92.063C139.787 92.2836 139.723 92.499 139.606 92.686C139.767 92.6769 139.924 92.6345 140.068 92.5615C140.211 92.4885 140.338 92.3866 140.44 92.2621C140.684 91.9846 140.899 91.6827 141.08 91.3612C141.166 91.2511 141.227 91.124 141.259 90.9885C141.292 90.8531 141.295 90.7122 141.269 90.5753C141.206 90.3954 141.057 90.3186 140.952 90.1832C140.807 89.9186 140.708 89.6313 140.659 89.3335C140.601 89.0545 140.467 88.7971 140.27 88.5903C140.074 88.3835 139.824 88.2356 139.548 88.1631L139.615 88.1759C139.501 88.2435 139.411 88.345 139.358 88.4662C139.305 88.5874 139.291 88.7222 139.318 88.8518C139.358 89.1136 139.527 89.331 139.51 89.598C139.486 89.982 139.102 90.1622 139.078 90.5462C139.075 90.7389 139.147 90.9252 139.28 91.065Z" fill="#A56EFF"/>
    <path d="M136.992 84.5395L136.998 84.5383C137.039 84.5009 137.077 84.4603 137.112 84.417L136.992 84.5395Z" fill="#A56EFF"/>
    <path d="M137.39 86.3422C137.551 86.2015 137.669 86.0195 137.733 85.816C137.797 85.6125 137.804 85.3953 137.753 85.1882C137.656 84.7516 137.312 84.4581 136.996 84.5387C136.904 84.6318 136.79 84.7001 136.664 84.737C136.539 84.7739 136.406 84.7784 136.278 84.7499C136.082 84.6995 135.867 84.5697 135.698 84.7172C135.6 84.8273 135.532 84.96 135.5 85.1032C135.437 85.2961 135.374 85.4889 135.311 85.6818C135.281 85.7508 135.274 85.8274 135.289 85.901C135.301 85.9305 135.32 85.9564 135.345 85.9763C135.37 85.9961 135.4 86.0092 135.431 86.0143C135.809 86.1254 136.186 86.2365 136.563 86.3477C136.693 86.4075 136.834 86.438 136.977 86.437C137.12 86.4361 137.261 86.4037 137.39 86.3422Z" fill="#A56EFF"/>
    <path d="M165.863 111.226C165.688 110.94 165.514 110.655 165.34 110.37C165.168 110.039 164.934 109.746 164.651 109.505C164.589 109.453 164.518 109.414 164.442 109.39C164.365 109.366 164.285 109.358 164.205 109.365C164.125 109.372 164.047 109.394 163.976 109.432C163.905 109.469 163.842 109.519 163.79 109.581L163.781 109.592L163.802 109.755C164.269 110.255 164.587 110.875 164.721 111.546C164.761 111.838 164.747 112.14 164.782 112.432C164.785 112.568 164.816 112.702 164.871 112.826C164.927 112.95 165.006 113.062 165.105 113.155C165.379 113.339 165.702 113.068 165.897 112.738C166.072 112.468 166.15 112.146 166.119 111.825C166.076 111.61 165.988 111.406 165.863 111.226Z" fill="#A56EFF"/>
    <path d="M168.593 111.597C168.626 111.33 168.604 111.058 168.529 110.8C168.516 110.45 168.609 110.105 168.795 109.809C168.98 109.529 169.12 109.223 169.21 108.9C169.248 108.753 169.241 108.598 169.19 108.455C169.132 108.325 168.993 108.266 168.912 108.369L169.084 108.479C168.852 108.438 168.614 108.449 168.388 108.513C168.258 108.562 168.143 108.642 168.051 108.746C167.959 108.849 167.894 108.973 167.86 109.107C167.832 109.317 167.785 109.523 167.722 109.724C167.619 109.935 167.421 110.005 167.297 110.189C167.212 110.353 167.169 110.535 167.172 110.719C167.175 110.903 167.224 111.084 167.314 111.245C167.471 111.508 167.719 111.703 168.011 111.793C168.221 111.868 168.497 111.872 168.593 111.597Z" fill="#A56EFF"/>
    <path d="M173.464 113.066C173.54 113.263 173.642 113.449 173.766 113.619C173.999 113.854 174.316 113.71 174.599 113.653C174.856 113.612 175.118 113.642 175.36 113.738C175.601 113.835 175.811 113.995 175.969 114.202C175.859 113.655 175.62 113.142 175.271 112.707C174.922 112.272 174.473 111.927 173.963 111.701C173.301 111.472 172.602 111.362 171.901 111.379L171.781 111.409C172.086 112.297 173.045 112.277 173.464 113.066Z" fill="#A56EFF"/>
    <path d="M152.836 114.882L152.838 114.885L152.873 114.818L152.836 114.882Z" fill="#A56EFF"/>
    <path d="M152.097 116.311C151.936 116.604 151.797 116.908 151.682 117.221C151.53 117.729 151.43 118.251 151.382 118.779C151.344 119.079 151.333 119.462 151.521 119.608C151.575 119.644 151.64 119.659 151.704 119.651C151.769 119.642 151.827 119.61 151.87 119.561C151.974 119.451 152.06 119.324 152.123 119.185C152.493 118.549 152.78 117.868 152.977 117.159C153.183 116.406 153.134 115.607 152.837 114.886C152.59 115.361 152.344 115.836 152.097 116.311Z" fill="#A56EFF"/>
    <path d="M144.977 78.2277C145.094 78.3424 145.242 78.4202 145.403 78.4516C145.564 78.483 145.731 78.4667 145.883 78.4045C146.198 78.2671 146.486 78.0766 146.736 77.8414C146.943 77.6883 147.118 77.4969 147.253 77.2776C147.327 77.1465 147.375 77.0021 147.393 76.8526C147.411 76.7031 147.399 76.5515 147.359 76.4065C147.301 76.2676 147.209 76.1457 147.091 76.0523C146.973 75.959 146.833 75.8973 146.684 75.873C146.266 75.7489 145.847 75.6249 145.428 75.5008L145.731 75.228C145.42 75.0608 145.075 75.371 144.88 75.7551C144.755 76.0058 144.668 76.2737 144.622 76.5499C144.556 76.8386 144.553 77.1381 144.614 77.4279C144.676 77.7176 144.799 77.9905 144.977 78.2277Z" fill="#A56EFF"/>
    <path d="M152.365 75.7474C152.483 75.8774 152.646 75.9577 152.821 75.9719C152.996 75.9861 153.17 75.9333 153.307 75.824C153.426 75.7352 153.524 75.6225 153.596 75.4931C153.668 75.3638 153.711 75.2208 153.724 75.0735C153.754 74.7444 153.591 74.3786 153.359 74.3501L153.412 74.042C152.964 73.9611 152.413 73.9449 152.173 74.4886C152.092 74.6969 152.067 74.9228 152.101 75.1437C152.134 75.3646 152.225 75.5727 152.365 75.7474Z" fill="#A56EFF"/>
    <path d="M108.246 108.727C107.815 108.341 107.475 107.865 107.249 107.333C107.022 106.801 106.915 106.226 106.935 105.648C106.955 105.07 107.101 104.504 107.364 103.989C107.626 103.474 107.998 103.022 108.454 102.667L103.914 89.3652L110.987 91.2019L114.211 103.551C114.758 104.356 114.992 105.334 114.866 106.3C114.74 107.265 114.264 108.151 113.529 108.79C112.793 109.428 111.849 109.774 110.874 109.763C109.9 109.751 108.964 109.383 108.244 108.727L108.246 108.727Z" fill="#FFB7B7"/>
    <path d="M106.217 100.655L113.08 97.5976L110.775 74.3942L112.922 50.9968L103.759 46.0537L101.818 48.5006V48.5561L100.789 78.1428L100.795 78.1651L106.217 100.655Z" fill="#E6E7E8"/>
    <path d="M211.352 169.799C207.471 168.016 203.286 165.914 198.795 163.495C175.568 150.978 147.006 131.452 118.371 108.514C89.7353 85.5764 64.4474 61.9665 47.1653 42.0345C38.7467 32.3248 32.6827 24.0095 29.1419 17.3193C25.393 10.2364 24.637 5.2172 26.8943 2.40128C31.2922 -3.08452 45.6145 1.85661 56.855 6.96776L56.4442 7.87072C41.0081 0.851706 30.7887 -0.870305 27.6688 3.02167C23.6948 7.97858 31.0745 21.9613 47.9152 41.3848C65.1593 61.273 90.4011 84.8387 118.991 107.74C147.581 130.642 176.09 150.132 199.266 162.621C221.899 174.819 237.16 178.971 241.133 174.014C244.433 169.898 239.932 159.533 228.461 144.826L229.244 144.216C237.579 154.902 246.542 168.854 241.908 174.635C239.65 177.45 234.585 177.806 226.853 175.692C222.445 174.487 217.258 172.514 211.352 169.799Z" fill="#A56EFF"/>
    <path d="M62.7521 102.917C52.0537 97.9993 42.2768 93.0605 33.7137 88.2272C22.5209 81.9094 14.0145 76.1139 8.43085 71.0022C2.51924 65.5898 0.120006 61.1163 1.29979 57.706C3.59778 51.0623 18.7484 50.9059 31.0535 51.9446L30.9699 52.9332C14.0719 51.5066 3.86796 53.3167 2.23743 58.0303C0.160768 64.0337 11.8113 74.7251 34.2016 87.3633C57.1282 100.304 88.8233 114.022 123.449 125.99C158.075 137.958 191.477 146.741 217.504 150.72C242.921 154.607 258.69 153.393 260.767 147.389C262.491 142.405 254.768 134.153 239.021 124.154L239.553 123.317C250.995 130.582 264.127 140.713 261.705 147.713C260.525 151.124 255.874 153.16 247.881 153.766C240.331 154.339 230.06 153.644 217.354 151.701C191.27 147.713 157.805 138.915 123.125 126.928C101.369 119.408 80.76 111.194 62.7521 102.917Z" fill="#A56EFF"/>
    <path d="M78.986 52.4343C82.1798 52.4343 84.7689 49.8462 84.7689 46.6537C84.7689 43.4611 82.1798 40.873 78.986 40.873C75.7922 40.873 73.2031 43.4611 73.2031 46.6537C73.2031 49.8462 75.7922 52.4343 78.986 52.4343Z" fill="#E6E6E6"/>
    <path d="M192.97 122.99C194.925 122.99 196.51 121.406 196.51 119.452C196.51 117.497 194.925 115.913 192.97 115.913C191.015 115.913 189.43 117.497 189.43 119.452C189.43 121.406 191.015 122.99 192.97 122.99Z" fill="#FF6584"/>
    <path d="M19.8376 154.052C23.0314 154.052 25.6205 151.464 25.6205 148.272C25.6205 145.079 23.0314 142.491 19.8376 142.491C16.6438 142.491 14.0547 145.079 14.0547 148.272C14.0547 151.464 16.6438 154.052 19.8376 154.052Z" fill="#E6E6E6"/>
    </g>
    <defs>
    <clipPath id="clip0_1_4207">
    <rect width="262" height="198" fill="white"/>
    </clipPath>
    </defs>
</svg>