<svg class="svgClass" width="313" height="194" viewBox="0 0 313 194" fill="none" xmlns="http://www.w3.org/2000/svg">
    <path d="M114.166 136.418C113.805 136.418 113.459 136.562 113.204 136.816C112.949 137.071 112.805 137.416 112.805 137.775V191.996C112.805 192.356 112.949 192.701 113.204 192.956C113.459 193.21 113.805 193.353 114.166 193.354H123.4C123.761 193.353 124.107 193.21 124.362 192.956C124.617 192.701 124.761 192.356 124.761 191.996V137.775C124.761 137.416 124.617 137.071 124.362 136.816C124.107 136.562 123.761 136.418 123.4 136.418H114.166Z" fill="#3F3D56"/>
    <path d="M190.955 136.418C190.594 136.418 190.248 136.562 189.993 136.816C189.738 137.071 189.594 137.416 189.594 137.775V191.996C189.594 192.356 189.738 192.701 189.993 192.956C190.248 193.21 190.594 193.353 190.955 193.354H200.189C200.55 193.353 200.896 193.21 201.151 192.956C201.406 192.701 201.55 192.356 201.55 191.996V137.775C201.55 137.416 201.406 137.071 201.151 136.816C200.896 136.562 200.55 136.418 200.189 136.418H190.955Z" fill="#3F3D56"/>
    <path d="M234.093 93.3393L163.297 87.8906L219.778 97.4907L233.313 95.1555L234.093 93.3393Z" fill="#3F3D56"/>
    <path d="M220.293 96.6365L233.828 94.3013L233.961 93.9921L234.609 94.042L233.828 95.8582L220.293 98.1934L163.812 87.8906L180.551 89.8815L220.293 96.6365Z" fill="#A56EFF"/>
    <path d="M73.7578 93.3393L2.96094 87.8906L59.4423 97.4907L72.9771 95.1555L73.7578 93.3393Z" fill="#3F3D56"/>
    <path d="M58.661 96.6365L72.1955 94.3013L72.3287 93.9921L72.9765 94.042L72.1955 95.8582L58.661 98.1934L2.17969 87.8906L18.9178 89.8815L58.661 96.6365Z" fill="#A56EFF"/>
    <path d="M246.063 121.621L240.076 121.88L185.232 144.947L182.093 147.567L172.143 155.87H140.909L131.502 147.567L127.926 144.409L75.3179 122.14L70.6328 121.621L86.2497 114.097H86.333C89.8729 110.747 120.529 108.129 157.827 108.129C195.126 108.129 225.782 110.747 229.322 114.097H229.665L246.063 121.621Z" fill="#3F3D56"/>
    <path d="M85.8171 114.481C85.9281 114.17 85.9852 113.842 85.9858 113.512V101.189C85.9858 100.414 85.6772 99.6718 85.128 99.1243C84.5788 98.5768 83.8339 98.2693 83.0571 98.2693H81.868C82.8444 97.287 83.5072 96.0386 83.7732 94.6815C84.0391 93.3243 83.8962 91.919 83.3624 90.6427C82.8286 89.3664 81.9278 88.2761 80.7735 87.5092C79.6193 86.7422 78.2631 86.333 76.8759 86.333C75.4888 86.333 74.1326 86.7422 72.9783 87.5092C71.824 88.2761 70.9233 89.3664 70.3895 90.6427C69.8557 91.919 69.7127 93.3243 69.9787 94.6815C70.2446 96.0386 70.9075 97.287 71.8839 98.2693H70.6948C70.3102 98.2693 69.9293 98.3448 69.574 98.4915C69.2187 98.6382 68.8958 98.8532 68.6239 99.1243C68.3519 99.3954 68.1362 99.7173 67.989 100.071C67.8418 100.426 67.7661 100.805 67.7661 101.189V113.512C67.7659 114.017 67.8977 114.513 68.1484 114.951C67.2645 115.106 66.3805 115.273 65.4966 115.467C64.9581 115.587 64.4769 115.887 64.1323 116.316C63.7877 116.746 63.6005 117.28 63.6016 117.83V120.758C63.6016 121.399 63.8573 122.015 64.3126 122.469C64.7678 122.923 65.3853 123.178 66.0291 123.178H93.534V115.913C90.9943 115.275 88.4169 114.797 85.8171 114.481Z" fill="#3F3D56"/>
    <path d="M248.592 115.467C247.708 115.273 246.824 115.106 245.94 114.951C246.191 114.513 246.323 114.017 246.323 113.512V101.189C246.323 100.805 246.247 100.426 246.1 100.071C245.953 99.7173 245.737 99.3955 245.465 99.1244C245.193 98.8533 244.87 98.6382 244.515 98.4915C244.159 98.3448 243.779 98.2693 243.394 98.2693H242.205C243.181 97.287 243.844 96.0386 244.11 94.6815C244.376 93.3243 244.233 91.9191 243.699 90.6427C243.165 89.3664 242.265 88.2761 241.11 87.5092C239.956 86.7422 238.6 86.333 237.213 86.333C235.826 86.333 234.469 86.7422 233.315 87.5092C232.161 88.2761 231.26 89.3664 230.726 90.6427C230.192 91.9191 230.05 93.3243 230.315 94.6815C230.581 96.0386 231.244 97.287 232.221 98.2693H231.032C230.647 98.2693 230.266 98.3448 229.911 98.4915C229.555 98.6382 229.233 98.8533 228.961 99.1244C228.689 99.3955 228.473 99.7173 228.326 100.071C228.179 100.426 228.103 100.805 228.103 101.189V113.512C228.103 113.842 228.161 114.17 228.272 114.481C225.672 114.797 223.094 115.275 220.555 115.913V123.178H248.06C248.703 123.178 249.321 122.923 249.776 122.469C250.231 122.015 250.487 121.399 250.487 120.758V117.83C250.488 117.28 250.301 116.746 249.956 116.316C249.612 115.887 249.131 115.587 248.592 115.467Z" fill="#3F3D56"/>
    <path d="M240.336 93.3393L311.132 87.8906L254.651 97.4907L241.117 95.1555L240.336 93.3393Z" fill="#3F3D56"/>
    <path d="M162.018 153.535H151.035C150.628 153.535 150.226 153.615 149.85 153.77C149.474 153.925 149.132 154.153 148.845 154.44C148.557 154.726 148.329 155.067 148.173 155.441C148.018 155.816 147.937 156.218 147.938 156.623V159.009C147.938 159.636 148.13 160.248 148.487 160.764C148.845 161.279 149.352 161.674 149.94 161.895C149.486 162.439 149.238 163.124 149.239 163.831V164.515C149.239 165.003 149.357 165.484 149.584 165.917C149.81 166.349 150.139 166.721 150.54 166.999V176.108H162.513V166.999C162.915 166.721 163.243 166.349 163.47 165.917C163.697 165.484 163.815 165.003 163.815 164.515V163.831C163.816 163.124 163.567 162.439 163.113 161.895C163.702 161.674 164.208 161.279 164.566 160.764C164.924 160.248 165.116 159.636 165.116 159.009V156.623C165.116 156.218 165.036 155.816 164.88 155.441C164.725 155.067 164.496 154.726 164.209 154.44C163.921 154.153 163.58 153.925 163.204 153.77C162.828 153.615 162.425 153.535 162.018 153.535Z" fill="#3F3D56"/>
    <path d="M145.368 174.818C144.879 174.819 144.41 175.013 144.064 175.357C143.719 175.702 143.524 176.169 143.523 176.657V191.385C143.524 191.873 143.718 192.34 144.064 192.685C144.41 193.029 144.879 193.223 145.368 193.224H167.691C168.18 193.223 168.649 193.029 168.994 192.685C169.34 192.34 169.535 191.873 169.535 191.385V176.657C169.535 176.169 169.34 175.702 168.994 175.358C168.649 175.013 168.18 174.819 167.691 174.818H145.368Z" fill="#A56EFF"/>
    <path d="M182.091 147.567L172.14 155.87H140.907L131.5 147.567H140.855L141.263 145.536C141.383 144.938 141.707 144.401 142.179 144.014C142.652 143.628 143.244 143.416 143.856 143.416H169.972C170.584 143.416 171.176 143.628 171.649 144.014C172.121 144.401 172.445 144.938 172.565 145.536L172.973 147.567H182.091Z" fill="#A56EFF"/>
    <path d="M156.522 191.287C160.547 191.287 163.81 188.034 163.81 184.022C163.81 180.009 160.547 176.757 156.522 176.757C152.497 176.757 149.234 180.009 149.234 184.022C149.234 188.034 152.497 191.287 156.522 191.287Z" fill="#3F3D56"/>
    <path d="M156.524 188.173C158.824 188.173 160.688 186.314 160.688 184.022C160.688 181.729 158.824 179.87 156.524 179.87C154.224 179.87 152.359 181.729 152.359 184.022C152.359 186.314 154.224 188.173 156.524 188.173Z" fill="#E6E6E6"/>
    <path d="M159.04 180.72C159.651 181.518 159.951 182.51 159.883 183.511C159.816 184.513 159.387 185.456 158.675 186.166C157.962 186.876 157.016 187.304 156.011 187.371C155.007 187.438 154.012 187.14 153.211 186.531C153.57 187.003 154.026 187.393 154.549 187.674C155.072 187.956 155.649 188.123 156.242 188.163C156.835 188.204 157.43 188.117 157.987 187.909C158.543 187.701 159.049 187.377 159.469 186.958C159.889 186.539 160.214 186.035 160.423 185.48C160.631 184.926 160.718 184.333 160.678 183.742C160.637 183.151 160.47 182.575 160.188 182.054C159.905 181.533 159.514 181.078 159.04 180.72Z" fill="white"/>
    <path d="M250.617 118.562H63.7344V119.75H250.617V118.562Z" fill="#E6E6E6"/>
    <path d="M255.175 96.6365L241.64 94.3013L241.507 93.9921L240.859 94.042L241.64 95.8582L255.175 98.1934L311.656 87.8906L294.918 89.8815L255.175 96.6365Z" fill="#A56EFF"/>
    <path d="M80 93.3393L150.797 87.8906L94.3155 97.4907L80.7811 95.1555L80 93.3393Z" fill="#3F3D56"/>
    <path d="M95.0968 96.6365L81.562 94.3013L81.4291 93.9921L80.7812 94.042L81.562 95.8582L95.0968 98.1934L151.578 87.8906L134.84 89.8815L95.0968 96.6365Z" fill="#A56EFF"/>
    <path d="M167.33 145.621H146.508V149.772H167.33V145.621Z" fill="#E6E6E6"/>
    <path d="M89.9561 0H26.8376C24.5981 0.00251932 22.4511 0.890467 20.8675 2.46904C19.2839 4.04762 18.3932 6.1879 18.3906 8.42035V41.8251C18.3932 44.0576 19.2839 46.1979 20.8675 47.7764C22.4511 49.355 24.5981 50.243 26.8376 50.2455H89.9561C92.1955 50.243 94.3426 49.355 95.9262 47.7764C97.5097 46.1979 98.4005 44.0576 98.403 41.8251V8.42035C98.4005 6.18791 97.5097 4.04763 95.9262 2.46905C94.3426 0.890478 92.1955 0.0025249 89.9561 0Z" fill="#E6E6E6"/>
    <path d="M26.8392 6.85156C26.422 6.852 26.022 7.01741 25.727 7.31149C25.432 7.60557 25.2661 8.0043 25.2656 8.42019V41.8251C25.2661 42.241 25.432 42.6397 25.727 42.9338C26.022 43.2279 26.422 43.3933 26.8392 43.3937H89.9578C90.375 43.3933 90.775 43.2279 91.07 42.9338C91.365 42.6397 91.5309 42.241 91.5314 41.8251V8.42019C91.5309 8.0043 91.365 7.60557 91.07 7.31149C90.775 7.01741 90.375 6.852 89.9578 6.85156H26.8392Z" fill="white"/>
    <path d="M57.1248 39.8722C57.1033 39.8722 57.0817 39.8716 57.0599 39.8704C56.802 39.8559 56.5567 39.7543 56.3644 39.5823C56.172 39.4103 56.0441 39.1783 56.0016 38.9242L52.3486 17.075L49.1232 29.9362C49.0616 30.1817 48.9195 30.3996 48.7194 30.5553C48.5193 30.711 48.2728 30.7956 48.019 30.7956H43.4663C43.1644 30.7956 42.8749 30.6761 42.6615 30.4633C42.448 30.2505 42.3281 29.9619 42.3281 29.661C42.3281 29.3601 42.448 29.0715 42.6615 28.8587C42.8749 28.646 43.1644 28.5264 43.4663 28.5264H47.1303L51.4674 11.2325C51.5309 10.9795 51.6798 10.756 51.8892 10.5996C52.0986 10.4432 52.3556 10.3635 52.617 10.374C52.8785 10.3844 53.1283 10.4842 53.3245 10.6568C53.5207 10.8293 53.6513 11.0639 53.6943 11.3212L57.417 33.5867L60.5826 22.5418C60.6494 22.3088 60.7893 22.1032 60.9817 21.9552C61.1742 21.8072 61.4092 21.7245 61.6523 21.7192C61.8953 21.7139 62.1337 21.7864 62.3324 21.9259C62.5312 22.0655 62.6798 22.2648 62.7567 22.4947L64.7737 28.5264H68.506C68.8078 28.5264 69.0973 28.646 69.3108 28.8587C69.5242 29.0715 69.6442 29.3601 69.6442 29.661C69.6442 29.9619 69.5242 30.2505 69.3108 30.4633C69.0973 30.6761 68.8078 30.7956 68.506 30.7956H63.9533C63.7144 30.7956 63.4816 30.7207 63.2878 30.5814C63.094 30.4422 62.9491 30.2457 62.8736 30.0198L61.7606 26.6916L58.2187 39.0494C58.1507 39.2863 58.0073 39.4948 57.8099 39.6433C57.6125 39.7917 57.3721 39.8721 57.1248 39.8722Z" fill="#A56EFF"/>
    <path d="M71.122 33.0169C72.9714 33.0169 74.4706 31.5224 74.4706 29.6788C74.4706 27.8353 72.9714 26.3408 71.122 26.3408C69.2726 26.3408 67.7734 27.8353 67.7734 29.6788C67.7734 31.5224 69.2726 33.0169 71.122 33.0169Z" fill="#3F3D56"/>
    <path d="M187.948 0H124.83C122.59 0.0025249 120.443 0.890478 118.86 2.46905C117.276 4.04763 116.385 6.18791 116.383 8.42035V41.8251C116.385 44.0576 117.276 46.1979 118.86 47.7764C120.443 49.355 122.59 50.243 124.83 50.2455H187.948C190.188 50.243 192.335 49.355 193.918 47.7764C195.502 46.1979 196.393 44.0576 196.395 41.8251V8.42035C196.393 6.18791 195.502 4.04762 193.918 2.46905C192.335 0.890472 190.188 0.00252304 187.948 0Z" fill="#E6E6E6"/>
    <path d="M124.831 6.85156C124.414 6.852 124.014 7.01741 123.719 7.31149C123.424 7.60557 123.258 8.0043 123.258 8.42019V41.8251C123.258 42.241 123.424 42.6397 123.719 42.9338C124.014 43.2279 124.414 43.3933 124.831 43.3937H187.95C188.367 43.3933 188.767 43.2279 189.062 42.9338C189.357 42.6397 189.523 42.241 189.524 41.8251V8.42019C189.523 8.0043 189.357 7.60557 189.062 7.31149C188.767 7.01741 188.367 6.852 187.95 6.85156H124.831Z" fill="white"/>
    <path d="M156.388 26.9213C160.986 26.9213 164.714 23.2055 164.714 18.6218C164.714 14.0381 160.986 10.3223 156.388 10.3223C151.79 10.3223 148.062 14.0381 148.062 18.6218C148.062 23.2055 151.79 26.9213 156.388 26.9213Z" fill="#A56EFF"/>
    <path d="M156.39 28.3047H156.39C159.334 28.3047 162.158 29.4706 164.24 31.5459C166.322 33.6211 167.491 36.4358 167.491 39.3707V39.924H145.289V39.3707C145.289 36.4358 146.459 33.6211 148.54 31.5459C150.622 29.4706 153.446 28.3047 156.39 28.3047Z" fill="#A56EFF"/>
    <path d="M139.461 31.0705C142.68 31.0705 145.289 28.4694 145.289 25.2608C145.289 22.0522 142.68 19.4512 139.461 19.4512C136.242 19.4512 133.633 22.0522 133.633 25.2608C133.633 28.4694 136.242 31.0705 139.461 31.0705Z" fill="#3F3D56"/>
    <path d="M145.166 33.7401C144.045 32.7499 142.662 32.1035 141.182 31.8785C139.702 31.6536 138.189 31.8596 136.823 32.472C135.458 33.0843 134.3 34.0768 133.487 35.33C132.674 36.5833 132.242 38.0439 132.242 39.5363V39.9236H143.621V39.3703C143.618 37.3892 144.152 35.4441 145.166 33.7401Z" fill="#3F3D56"/>
    <path d="M173.32 31.0705C176.539 31.0705 179.148 28.4694 179.148 25.2608C179.148 22.0522 176.539 19.4512 173.32 19.4512C170.101 19.4512 167.492 22.0522 167.492 25.2608C167.492 28.4694 170.101 31.0705 173.32 31.0705Z" fill="#3F3D56"/>
    <path d="M167.609 33.7401C168.729 32.7499 170.113 32.1035 171.593 31.8785C173.073 31.6536 174.586 31.8596 175.951 32.472C177.317 33.0843 178.475 34.0768 179.288 35.33C180.101 36.5833 180.533 38.0439 180.533 39.5363V39.9236H169.154V39.3703C169.157 37.3892 168.623 35.4441 167.609 33.7401Z" fill="#3F3D56"/>
    <path d="M285.933 0H222.814C220.575 0.00251839 218.428 0.890467 216.844 2.46904C215.26 4.04762 214.37 6.1879 214.367 8.42035V41.8251C214.37 44.0576 215.26 46.1979 216.844 47.7764C218.428 49.355 220.575 50.243 222.814 50.2455H285.933C288.172 50.243 290.319 49.355 291.903 47.7764C293.486 46.1979 294.377 44.0576 294.38 41.8251V8.42035C294.377 6.18791 293.486 4.04762 291.903 2.46905C290.319 0.890472 288.172 0.00252304 285.933 0Z" fill="#E6E6E6"/>
    <path d="M222.816 6.85156C222.399 6.852 221.999 7.01741 221.704 7.31149C221.409 7.60557 221.243 8.0043 221.242 8.42019V41.8251C221.243 42.241 221.409 42.6397 221.704 42.9338C221.999 43.2279 222.399 43.3933 222.816 43.3937H285.934C286.352 43.3933 286.752 43.2279 287.047 42.9338C287.342 42.6397 287.508 42.241 287.508 41.8251V8.42019C287.508 8.0043 287.342 7.60557 287.047 7.31149C286.752 7.01741 286.352 6.852 285.934 6.85156H222.816Z" fill="white"/>
    <path d="M253.322 40.5698C253.186 40.5698 253.052 40.5431 252.927 40.4914C252.801 40.4396 252.688 40.3638 252.592 40.2681C252.496 40.1725 252.42 40.059 252.368 39.934C252.316 39.8091 252.289 39.6752 252.289 39.5399V31.3014C252.29 31.0286 252.399 30.7671 252.592 30.5744C252.786 30.3817 253.048 30.2734 253.322 30.2734C253.596 30.2734 253.858 30.3817 254.052 30.5744C254.246 30.7671 254.355 31.0286 254.355 31.3014V39.5399C254.355 39.6752 254.329 39.8091 254.277 39.934C254.225 40.059 254.149 40.1725 254.053 40.2681C253.957 40.3638 253.843 40.4396 253.717 40.4914C253.592 40.5431 253.458 40.5698 253.322 40.5698Z" fill="#A56EFF"/>
    <path d="M256.936 36.4503H249.705C249.431 36.4503 249.168 36.3418 248.974 36.1486C248.781 35.9555 248.672 35.6936 248.672 35.4204C248.672 35.1473 248.781 34.8854 248.974 34.6922C249.168 34.4991 249.431 34.3906 249.705 34.3906H256.936C257.21 34.3906 257.473 34.4991 257.667 34.6922C257.861 34.8854 257.97 35.1473 257.97 35.4204C257.97 35.6936 257.861 35.9555 257.667 36.1486C257.473 36.3418 257.21 36.4503 256.936 36.4503Z" fill="#A56EFF"/>
    <path d="M267.269 16.8845C267.133 16.8845 266.999 16.8579 266.873 16.8061C266.748 16.7544 266.634 16.6785 266.538 16.5829C266.442 16.4873 266.366 16.3738 266.314 16.2488C266.262 16.1239 266.236 15.99 266.236 15.8547V11.7354H262.103C261.968 11.7354 261.833 11.7088 261.708 11.657C261.583 11.6053 261.469 11.5294 261.373 11.4338C261.277 11.3382 261.201 11.2246 261.149 11.0997C261.097 10.9748 261.07 10.8408 261.07 10.7056C261.07 10.5704 261.097 10.4365 261.149 10.3115C261.201 10.1866 261.277 10.073 261.373 9.97741C261.469 9.88178 261.583 9.80592 261.708 9.75417C261.833 9.70242 261.968 9.67578 262.103 9.67578H267.269C267.404 9.67578 267.539 9.70242 267.664 9.75417C267.789 9.80592 267.903 9.88178 267.999 9.97741C268.095 10.073 268.171 10.1866 268.223 10.3115C268.275 10.4365 268.302 10.5704 268.302 10.7056V15.8547C268.302 15.99 268.275 16.1239 268.223 16.2488C268.171 16.3738 268.095 16.4873 267.999 16.5829C267.903 16.6785 267.789 16.7544 267.664 16.8061C267.539 16.8579 267.404 16.8845 267.269 16.8845Z" fill="#A56EFF"/>
    <path d="M261.017 17.9607C260.813 17.9607 260.613 17.9003 260.443 17.7872C260.274 17.674 260.141 17.5132 260.063 17.325C259.985 17.1368 259.964 16.9298 260.004 16.73C260.044 16.5302 260.142 16.3467 260.287 16.2027L266.532 9.97742C266.726 9.78471 266.988 9.67657 267.262 9.67676C267.536 9.67694 267.798 9.78543 267.992 9.9784C268.186 10.1714 268.294 10.433 268.295 10.7059C268.295 10.9788 268.186 11.2406 267.993 11.4338L261.748 17.6591C261.652 17.7549 261.538 17.8308 261.413 17.8826C261.288 17.9344 261.153 17.9609 261.017 17.9607Z" fill="#A56EFF"/>
    <path d="M253.322 31.302C251.381 31.302 249.483 30.7282 247.87 29.6532C246.256 28.5782 244.998 27.0502 244.255 25.2626C243.512 23.4749 243.318 21.5078 243.696 19.61C244.075 17.7123 245.01 15.969 246.382 14.6008C247.755 13.2326 249.504 12.3008 251.407 11.9233C253.311 11.5458 255.284 11.7396 257.078 12.4801C258.871 13.2205 260.404 14.4745 261.482 16.0834C262.561 17.6922 263.136 19.5837 263.136 21.5187C263.133 24.1125 262.098 26.5992 260.258 28.4333C258.419 30.2674 255.924 31.299 253.322 31.302ZM253.322 13.795C251.79 13.795 250.292 14.248 249.017 15.0967C247.743 15.9454 246.75 17.1516 246.164 18.563C245.577 19.9743 245.424 21.5272 245.723 23.0255C246.022 24.5237 246.76 25.9 247.843 26.9801C248.927 28.0603 250.307 28.7959 251.81 29.0939C253.313 29.392 254.871 29.239 256.287 28.6544C257.703 28.0698 258.913 27.0799 259.764 25.8097C260.616 24.5396 261.07 23.0463 261.07 21.5187C261.068 19.4709 260.251 17.5077 258.798 16.0598C257.346 14.6118 255.376 13.7973 253.322 13.795Z" fill="#3F3D56"/>
    <path d="M313 193.213H0V194H313V193.213Z" fill="#3F3D56"/>
</svg> 