<svg width="337" height="212" viewBox="0 0 337 212" fill="none" xmlns="http://www.w3.org/2000/svg">
<g clip-path="url(#clip0_2118_5350)">
<path d="M199.493 6.50382C223.696 -6.4462 254.414 0.34283 270.701 23.305L270.146 23.6983C254.061 1.01959 223.719 -5.68395 199.813 7.10334C197.782 8.18999 195.822 9.40351 193.944 10.7367C169.361 28.1723 163.546 62.3565 180.982 86.9391L180.428 87.3324C162.775 62.4442 168.662 27.8345 193.55 10.1823C195.452 8.83283 197.437 7.60425 199.493 6.50382Z" fill="#E6E6E6"/>
<path d="M327.711 61.8564L248.105 55.6634C246.87 55.5659 245.723 54.9822 244.917 54.0403C244.111 53.0984 243.712 51.8754 243.807 50.6394L247.258 11.9619C247.355 10.7261 247.939 9.57955 248.881 8.77366C249.823 7.96776 251.046 7.56838 252.282 7.66312L331.888 13.8561C333.123 13.9537 334.27 14.5374 335.076 15.4792C335.882 16.4211 336.281 17.6442 336.186 18.8801L332.735 57.5577C332.638 58.7934 332.054 59.94 331.112 60.7459C330.17 61.5518 328.947 61.9512 327.711 61.8564Z" fill="#E6E6E6"/>
<path d="M308.907 53.1192C308.303 53.1192 307.696 53.0956 307.088 53.0483L255.641 49.046C254.612 48.966 253.61 48.6842 252.69 48.2166C251.77 47.7491 250.951 47.1049 250.281 46.3209C249.61 45.537 249.1 44.6286 248.78 43.6476C248.461 42.6666 248.337 41.6323 248.417 40.6036L249.59 25.5235C249.754 23.4468 250.735 21.52 252.318 20.1657C253.901 18.8113 255.956 18.1402 258.033 18.2994L324.56 23.4749C326.636 23.6389 328.563 24.6198 329.917 26.2025C331.271 27.7852 331.943 29.8405 331.784 31.9174C331.335 37.6805 328.731 43.0629 324.492 46.9922C320.252 50.9215 314.687 53.1091 308.907 53.1192V53.1192Z" fill="white"/>
<path d="M322.969 35.4633L257.753 30.3897C257.617 30.3792 257.485 30.342 257.363 30.2802C257.242 30.2184 257.134 30.1333 257.045 30.0298C256.957 29.9263 256.889 29.8063 256.847 29.6767C256.805 29.5471 256.788 29.4105 256.799 29.2746C256.81 29.1388 256.847 29.0063 256.909 28.8848C256.97 28.7634 257.055 28.6552 257.159 28.5666C257.263 28.478 257.383 28.4107 257.512 28.3685C257.642 28.3262 257.778 28.3099 257.914 28.3205L323.13 33.394C323.266 33.4046 323.399 33.4418 323.52 33.5036C323.642 33.5654 323.75 33.6504 323.838 33.754C323.927 33.8575 323.994 33.9775 324.036 34.1071C324.079 34.2367 324.095 34.3733 324.084 34.5092C324.074 34.645 324.037 34.7775 323.975 34.899C323.913 35.0204 323.828 35.1286 323.724 35.2172C323.621 35.3058 323.501 35.3731 323.371 35.4153C323.242 35.4576 323.105 35.4739 322.969 35.4633Z" fill="#E6E6E6"/>
<path d="M295.889 37.4693L257.434 34.4777C257.16 34.4562 256.905 34.3266 256.727 34.1175C256.548 33.9084 256.459 33.6369 256.481 33.3626C256.502 33.0883 256.631 32.8337 256.84 32.6547C257.049 32.4758 257.321 32.3872 257.595 32.4084L296.05 35.4C296.186 35.4105 296.318 35.4477 296.44 35.5094C296.562 35.5711 296.67 35.6562 296.758 35.7598C296.847 35.8633 296.914 35.9833 296.957 36.113C296.999 36.2426 297.015 36.3793 297.005 36.5152C296.994 36.6511 296.957 36.7836 296.895 36.9052C296.833 37.0267 296.748 37.1348 296.645 37.2234C296.541 37.312 296.421 37.3794 296.291 37.4216C296.162 37.4637 296.025 37.48 295.889 37.4693V37.4693Z" fill="#E6E6E6"/>
<path d="M304.36 42.241L257.116 38.5657C256.98 38.5552 256.848 38.518 256.726 38.4563C256.605 38.3945 256.496 38.3095 256.408 38.2059C256.319 38.1023 256.252 37.9823 256.209 37.8527C256.167 37.7231 256.151 37.5864 256.161 37.4505C256.172 37.3145 256.209 37.182 256.271 37.0605C256.333 36.939 256.418 36.8308 256.522 36.7422C256.625 36.6536 256.745 36.5863 256.875 36.5441C257.004 36.5019 257.141 36.4857 257.277 36.4963L304.521 40.1717C304.795 40.1932 305.05 40.3228 305.229 40.5319C305.407 40.741 305.496 41.0125 305.475 41.2868C305.453 41.5611 305.324 41.8157 305.115 41.9947C304.906 42.1736 304.634 42.2622 304.36 42.241Z" fill="#E6E6E6"/>
<path d="M322.384 114.361L242.778 108.168C241.543 108.071 240.396 107.487 239.59 106.545C238.784 105.603 238.385 104.38 238.48 103.144L241.931 64.4667C242.028 63.231 242.612 62.0844 243.554 61.2785C244.496 60.4726 245.719 60.0733 246.955 60.168L326.56 66.361C327.796 66.4585 328.943 67.0423 329.749 67.9841C330.555 68.926 330.954 70.149 330.859 71.385L327.408 110.063C327.311 111.298 326.727 112.445 325.785 113.251C324.843 114.057 323.62 114.456 322.384 114.361Z" fill="#E6E6E6"/>
<path d="M303.559 105.623C302.964 105.623 302.364 105.599 301.761 105.553L250.314 101.55C249.285 101.47 248.283 101.189 247.363 100.721C246.443 100.253 245.624 99.6093 244.953 98.8254C244.283 98.0414 243.773 97.133 243.453 96.152C243.133 95.171 243.01 94.1366 243.09 93.108L244.263 78.0281C244.343 76.9993 244.625 75.9965 245.093 75.0767C245.56 74.1569 246.205 73.3382 246.989 72.6674C247.773 71.9966 248.681 71.4868 249.662 71.167C250.643 70.8473 251.677 70.7239 252.706 70.8039L319.232 75.9794C320.261 76.0594 321.264 76.3413 322.184 76.8089C323.103 77.2764 323.922 77.9206 324.593 78.7046C325.264 79.4885 325.774 80.3969 326.093 81.3779C326.413 82.3589 326.536 83.3933 326.456 84.422C326.001 90.186 323.392 95.5673 319.15 99.4956C314.907 103.424 309.341 105.611 303.559 105.623Z" fill="white"/>
<path d="M317.641 87.9672L252.425 82.8937C252.289 82.8831 252.157 82.8459 252.035 82.7841C251.914 82.7223 251.806 82.6373 251.717 82.5337C251.628 82.4302 251.561 82.3102 251.519 82.1806C251.477 82.051 251.46 81.9144 251.471 81.7785C251.481 81.6427 251.519 81.5102 251.58 81.3887C251.642 81.2673 251.727 81.1591 251.831 81.0705C251.934 80.9819 252.054 80.9146 252.184 80.8724C252.314 80.8301 252.45 80.8138 252.586 80.8244L317.802 85.898C317.938 85.9085 318.07 85.9458 318.192 86.0075C318.313 86.0693 318.422 86.1544 318.51 86.2579C318.599 86.3615 318.666 86.4814 318.708 86.611C318.751 86.7406 318.767 86.8772 318.756 87.0131C318.746 87.1489 318.709 87.2814 318.647 87.4029C318.585 87.5244 318.5 87.6325 318.396 87.7211C318.293 87.8097 318.173 87.877 318.043 87.9192C317.914 87.9615 317.777 87.9778 317.641 87.9672Z" fill="#E6E6E6"/>
<path d="M290.561 89.9733L252.106 86.9817C251.97 86.9712 251.838 86.934 251.716 86.8723C251.595 86.8106 251.487 86.7255 251.398 86.6219C251.309 86.5184 251.242 86.3983 251.2 86.2687C251.157 86.1391 251.141 86.0024 251.152 85.8665C251.162 85.7306 251.199 85.598 251.261 85.4765C251.323 85.355 251.408 85.2468 251.512 85.1582C251.615 85.0696 251.735 85.0023 251.865 84.9601C251.995 84.9179 252.131 84.9017 252.267 84.9124L290.722 87.904C290.996 87.9255 291.251 88.055 291.43 88.2641C291.609 88.4732 291.697 88.7448 291.676 89.0191C291.654 89.2934 291.525 89.548 291.316 89.7269C291.107 89.9059 290.835 89.9945 290.561 89.9733Z" fill="#E6E6E6"/>
<path d="M299.033 94.7459L251.789 91.0705C251.515 91.0492 251.26 90.9197 251.081 90.7106C250.902 90.5014 250.814 90.2298 250.835 89.9553C250.857 89.6809 250.986 89.4263 251.195 89.2473C251.404 89.0684 251.676 88.9798 251.95 89.0012L299.194 92.6765C299.469 92.6979 299.723 92.8274 299.902 93.0365C300.081 93.2456 300.17 93.5173 300.148 93.7917C300.127 94.0661 299.998 94.3208 299.788 94.4998C299.579 94.6787 299.308 94.7672 299.033 94.7459Z" fill="#E6E6E6"/>
<path d="M119.89 94.152C118.879 91.8621 118.33 89.3955 118.273 86.8932C118.215 84.3909 118.652 81.9018 119.556 79.568C120.461 77.2343 121.816 75.1016 123.545 73.2917C125.274 71.4818 127.343 70.0302 129.633 69.0197C131.923 68.0092 134.389 67.4597 136.892 67.4024C139.394 67.3452 141.883 67.7814 144.217 68.6861C146.551 69.5908 148.683 70.9463 150.493 72.6753C152.303 74.4042 153.755 76.4727 154.765 78.7626L154.143 79.0372C153.169 76.8289 151.769 74.8342 150.024 73.1669C148.278 71.4997 146.222 70.1925 143.971 69.32C141.721 68.4476 139.32 68.0269 136.907 68.0821C134.494 68.1373 132.116 68.6672 129.907 69.6417C127.699 70.6161 125.704 72.0159 124.037 73.7613C122.37 75.5066 121.063 77.5632 120.19 79.8137C119.318 82.0642 118.897 84.4645 118.952 86.8776C119.007 89.2907 119.537 91.6692 120.512 93.8775L119.89 94.152Z" fill="#E6E6E6"/>
<path d="M317.453 200.447C325.236 196.76 331.032 189.34 330.128 181.187C323.146 186.84 313.641 189.997 303.828 189.921C300.006 189.892 295.726 189.503 292.949 191.648C291.22 192.982 290.441 195.101 290.342 197.213C290.244 199.325 290.756 201.462 291.265 203.572L291.11 204.071C300.247 204.653 309.671 204.135 317.453 200.447Z" fill="#F2F2F2"/>
<path d="M329.937 181.165C326.927 187.038 321.708 191.933 315.223 194.798C313.802 195.461 312.289 195.906 310.735 196.117C309.153 196.282 307.554 196.073 306.067 195.507C304.658 195.001 303.268 194.342 301.773 194.142C301.041 194.04 300.296 194.086 299.583 194.279C298.87 194.471 298.202 194.805 297.621 195.261C296.24 196.336 295.416 197.822 294.669 199.305C293.84 200.951 293.009 202.675 291.386 203.797C291.19 203.933 291.463 204.216 291.66 204.08C294.484 202.128 294.892 198.598 297.136 196.234C297.663 195.637 298.319 195.167 299.055 194.86C299.79 194.553 300.585 194.416 301.381 194.459C302.906 194.572 304.339 195.25 305.763 195.773C307.21 196.344 308.762 196.599 310.316 196.52C311.883 196.382 313.416 195.992 314.859 195.365C317.994 194.06 320.897 192.253 323.453 190.017C326.277 187.575 328.609 184.615 330.322 181.297C330.426 181.095 330.04 180.963 329.937 181.165H329.937Z" fill="white"/>
<path d="M317.395 193.971C318.214 194.937 319.314 195.625 320.542 195.937C321.77 196.249 323.065 196.17 324.246 195.712C324.473 195.617 324.288 195.285 324.061 195.381C322.962 195.809 321.756 195.882 320.613 195.589C319.471 195.297 318.448 194.653 317.69 193.749C317.531 193.556 317.237 193.778 317.395 193.971V193.971Z" fill="white"/>
<path d="M306.751 195.844C306.902 194.697 307.294 193.595 307.902 192.61C308.509 191.625 309.318 190.78 310.276 190.131C310.472 189.994 310.198 189.711 310.002 189.848C309.007 190.526 308.167 191.407 307.537 192.433C306.908 193.459 306.503 194.607 306.349 195.801C306.321 196.028 306.724 196.071 306.751 195.844L306.751 195.844Z" fill="white"/>
<path d="M325.815 187.325C325.441 187.038 325.146 186.659 324.959 186.226C324.773 185.793 324.699 185.319 324.747 184.849C324.778 184.622 324.375 184.58 324.345 184.806C324.294 185.325 324.376 185.848 324.581 186.327C324.786 186.806 325.109 187.226 325.52 187.547C325.557 187.583 325.605 187.606 325.657 187.612C325.708 187.617 325.76 187.605 325.804 187.578C325.823 187.563 325.839 187.544 325.85 187.523C325.861 187.502 325.867 187.478 325.868 187.454C325.869 187.43 325.865 187.406 325.856 187.384C325.847 187.362 325.833 187.342 325.815 187.325V187.325Z" fill="white"/>
<path d="M304.452 163.946C304.428 164.087 304.404 164.228 304.377 164.37C304.044 166.258 303.536 168.112 302.858 169.905C302.808 170.045 302.755 170.186 302.7 170.323C300.986 174.666 298.379 178.601 295.048 181.873C293.691 183.21 292.228 184.434 290.672 185.534C288.503 187.068 286.001 188.567 284.628 190.635C284.483 190.848 284.352 191.071 284.238 191.303L290.421 203.813C290.451 203.836 290.477 203.86 290.507 203.884L290.729 204.392C290.815 204.34 290.903 204.284 290.989 204.232C291.039 204.202 291.087 204.169 291.137 204.14C291.17 204.119 291.203 204.098 291.234 204.081C291.245 204.074 291.256 204.067 291.264 204.061C291.295 204.044 291.322 204.025 291.35 204.009C291.841 203.7 292.331 203.386 292.819 203.069C292.822 203.068 292.822 203.068 292.824 203.064C296.532 200.639 300.02 197.899 302.886 194.737C302.972 194.642 303.062 194.546 303.145 194.445C304.419 193.024 305.56 191.49 306.553 189.861C307.088 188.975 307.572 188.058 308.001 187.117C309.104 184.683 309.757 182.071 309.929 179.405C310.278 174.066 308.694 168.545 304.757 164.27C304.656 164.161 304.556 164.055 304.452 163.946Z" fill="#F2F2F2"/>
<path d="M304.294 164.03C306.016 170.635 305.423 177.6 302.507 183.527C301.9 184.843 301.065 186.041 300.04 187.065C298.941 188.071 297.591 188.762 296.131 189.064C294.734 189.395 293.248 189.585 291.993 190.221C291.377 190.529 290.843 190.979 290.435 191.533C290.026 192.087 289.754 192.73 289.642 193.409C289.335 195.065 289.724 196.77 290.169 198.43C290.663 200.274 291.208 202.184 290.752 204.011C290.697 204.232 291.094 204.324 291.149 204.103C291.942 200.925 289.857 197.711 289.937 194.496C289.974 192.996 290.521 191.533 291.914 190.702C293.132 189.975 294.664 189.777 296.084 189.454C297.518 189.175 298.862 188.55 299.999 187.632C301.082 186.666 301.97 185.503 302.618 184.204C304.101 181.342 305.055 178.235 305.432 175.034C305.885 171.32 305.627 167.553 304.672 163.935C304.613 163.707 304.235 163.804 304.294 164.03H304.294Z" fill="white"/>
<path d="M303.573 181.655C306.117 182.452 308.815 181.498 309.882 179.438C309.987 179.235 309.623 179.054 309.518 179.257C308.519 181.187 306.022 182.052 303.644 181.308C303.394 181.229 303.324 181.577 303.573 181.655V181.655Z" fill="white"/>
<path d="M296.873 188.982C296.222 188 295.778 186.895 295.566 185.735C295.355 184.576 295.381 183.385 295.644 182.236C295.699 182.014 295.302 181.922 295.248 182.143C294.977 183.34 294.952 184.579 295.175 185.786C295.397 186.992 295.863 188.141 296.543 189.162C296.676 189.37 297.006 189.189 296.873 188.982Z" fill="white"/>
<path d="M305.378 171.479C304.879 171.422 304.398 171.256 303.97 170.993C303.542 170.729 303.177 170.375 302.902 169.954C302.772 169.745 302.442 169.926 302.572 170.134C302.878 170.598 303.281 170.989 303.753 171.281C304.225 171.573 304.756 171.759 305.307 171.826C305.417 171.839 305.519 171.801 305.541 171.699C305.547 171.648 305.533 171.597 305.503 171.556C305.473 171.515 305.428 171.488 305.378 171.479Z" fill="white"/>
<path d="M317.578 111.624L312.848 86.4437L303.562 74.2217L296.681 78.7207C297.653 83.9947 305.008 93.8403 305.008 93.8403L311.528 113.314C311.502 113.415 311.478 113.518 311.46 113.623C311.357 114.239 311.414 114.871 311.626 115.459C311.839 116.046 312.199 116.569 312.673 116.976C313.146 117.384 313.717 117.662 314.329 117.785C314.942 117.907 315.576 117.87 316.17 117.676C316.763 117.482 317.297 117.138 317.719 116.678C318.141 116.217 318.437 115.655 318.579 115.047C318.721 114.438 318.703 113.804 318.527 113.204C318.352 112.605 318.025 112.06 317.578 111.624V111.624Z" fill="#FFB8B8"/>
<path d="M296.865 81.381L304.656 75.0576L304.671 75.0242C306.128 71.7223 302.893 66.0605 299.922 61.8924C298.941 60.5188 297.476 59.5688 295.821 59.2345C294.167 58.9002 292.447 59.2065 291.01 60.0914C289.955 60.7514 289.105 61.6935 288.556 62.8112C288.008 63.929 287.783 65.1779 287.907 66.4167L288.563 72.7247L296.865 81.381Z" fill="#3F3D56"/>
<path d="M269.331 206.694L264.147 206.694L261.682 186.699L269.332 186.7L269.331 206.694Z" fill="#FFB8B8"/>
<path d="M270.653 205.001L269.194 205.001L263.498 202.685L260.445 205.001H260.444C258.719 205.001 257.064 205.686 255.844 206.906C254.624 208.126 253.939 209.781 253.938 211.506V211.718L270.653 211.718L270.653 205.001Z" fill="#2F2E41"/>
<path d="M292.331 206.694L287.147 206.694L284.682 186.699L292.332 186.7L292.331 206.694Z" fill="#FFB8B8"/>
<path d="M293.654 205.001L292.195 205.001L286.499 202.685L283.446 205.001H283.445C281.72 205.001 280.065 205.686 278.845 206.906C277.625 208.126 276.94 209.781 276.939 211.506V211.718L293.654 211.718L293.654 205.001Z" fill="#2F2E41"/>
<path d="M300.236 120.571C300.236 120.571 300.842 127.834 299.328 134.795C297.815 141.756 297.815 161.36 297.815 161.36L294.486 199.561L284.499 198.653L281.775 134.795L272.09 156.283L272.998 159.309L271.789 160.066C271.789 160.066 272.696 165.967 272.09 165.967C271.485 165.967 269.972 166.875 269.972 166.875L271.182 198.048L260.892 197.745L257.261 153.862L261.195 128.742L261.498 123.9L262.86 123.956L263.553 121.933L264.827 118.452L300.236 120.571Z" fill="#2F2E41"/>
<path d="M300.759 122.097L300.813 122.022C303.694 117.988 299.361 108.297 298.708 106.892L301.46 105.999L300.84 100.731L300.547 98.3819L302.65 96.2783L302.656 96.2258L303.867 85.6333L305.627 78.5978C306.29 75.9381 306.233 73.1499 305.463 70.5193C304.693 67.8887 303.236 65.5105 301.243 63.6289L297.174 59.7928L292.23 52.4766H284.256L281.522 57.6407C278.871 58.2534 276.519 59.7765 274.876 61.9447C273.233 64.113 272.403 66.7889 272.53 69.5065L273.149 83.0506L270.724 99.9141L270.722 102.966L267.992 106L268.588 108.98L266.511 109.871L265.593 114.151C265.214 114.652 262.708 117.994 262.708 118.907C262.708 119.044 262.809 119.177 263.026 119.324C264.734 120.48 274.173 122.838 278.35 121.166C282.8 119.387 300.489 122.056 300.667 122.083L300.759 122.097Z" fill="#3F3D56"/>
<path d="M231.419 211.596C231.419 211.703 231.461 211.805 231.536 211.881C231.612 211.957 231.714 212 231.821 212H327.075C327.182 212 327.285 211.958 327.361 211.882C327.437 211.806 327.48 211.703 327.48 211.596C327.48 211.489 327.437 211.386 327.361 211.31C327.285 211.234 327.182 211.191 327.075 211.191H231.823C231.716 211.191 231.614 211.233 231.538 211.309C231.462 211.384 231.419 211.486 231.419 211.593V211.596Z" fill="#CCCCCC"/>
<path d="M287.212 50.1144C293.045 50.1144 297.773 45.3865 297.773 39.5543C297.773 33.7221 293.045 28.9941 287.212 28.9941C281.38 28.9941 276.652 33.7221 276.652 39.5543C276.652 45.3865 281.38 50.1144 287.212 50.1144Z" fill="#FFB8B8"/>
<path d="M286.201 50.2847C287.837 50.268 289.468 50.1116 291.077 49.8172C292.669 49.4503 296.183 46.733 297.141 45.1277C297.853 43.935 298.28 42.0902 298.513 40.7527C298.828 38.9826 298.767 37.1661 298.335 35.4209C297.903 33.6757 297.109 32.0407 296.005 30.6218C295.58 30.0274 295.001 29.559 294.331 29.2663C294.272 29.2448 294.211 29.2261 294.15 29.2102C293.179 28.9814 292.298 28.4675 291.621 27.7346C291.49 27.5862 291.348 27.4474 291.197 27.3194C290.437 26.7115 289.545 26.2918 288.592 26.0948C287.053 25.7252 284.852 26.1884 282.049 27.4725C280.641 28.1177 279.078 27.9377 277.874 27.7088C277.806 27.6976 277.737 27.7042 277.673 27.7281C277.609 27.7519 277.552 27.7922 277.508 27.8448C277.011 28.3364 276.346 28.6215 275.647 28.6429C275.219 28.6728 274.786 29.2772 274.263 30.0642C274.144 30.2429 274.005 30.4514 273.905 30.5786L273.885 30.3397L273.65 30.6129C273.28 31.0423 273.025 31.5584 272.908 32.113C272.791 32.6676 272.817 33.2427 272.982 33.7847C273.148 34.3268 273.447 34.8182 273.854 35.2132C274.26 35.6081 274.76 35.8938 275.307 36.0437C275.74 36.1471 276.183 36.206 276.629 36.2195C276.899 36.2368 277.179 36.2547 277.447 36.2941C278.309 36.4476 279.116 36.8219 279.79 37.3806C280.465 37.9393 280.982 38.6633 281.293 39.4818C281.367 39.671 281.482 39.8407 281.632 39.978C281.781 40.1153 281.96 40.2164 282.155 40.2735C282.35 40.3306 282.555 40.3422 282.755 40.3075C282.955 40.2727 283.144 40.1924 283.308 40.0729C283.581 39.849 283.903 39.6944 284.249 39.6222C284.594 39.5501 284.952 39.5625 285.291 39.6586C285.587 39.8129 285.82 40.0641 285.952 40.3699C286.112 40.7104 286.369 40.9956 286.692 41.1891C287.791 41.7205 287.93 44.1967 287.593 46.2727C287.269 48.2737 286.564 49.7334 285.878 49.8224C285.35 49.8908 285.291 49.93 285.255 50.0246L285.223 50.1092L285.284 50.1861C285.579 50.2845 285.892 50.3181 286.201 50.2847Z" fill="#2F2E41"/>
<path d="M170.146 104.717C181.743 104.717 191.144 95.3156 191.144 83.7187C191.144 72.1218 181.743 62.7207 170.146 62.7207C158.55 62.7207 149.148 72.1218 149.148 83.7187C149.148 95.3156 158.55 104.717 170.146 104.717Z" fill="#A56EFF"/>
<path d="M283.768 80.5946L276.841 76.165C272.431 79.2158 266.47 89.9632 266.47 89.9632L251.384 103.9C250.756 104.008 250.167 104.28 249.676 104.687C249.186 105.095 248.812 105.625 248.592 106.223C248.371 106.822 248.313 107.468 248.421 108.096C248.53 108.724 248.802 109.313 249.21 109.803C249.619 110.292 250.149 110.666 250.748 110.886C251.346 111.105 251.992 111.163 252.62 111.054C253.249 110.945 253.837 110.672 254.326 110.263C254.815 109.854 255.188 109.323 255.407 108.724L276.432 94.0774L283.768 80.5946Z" fill="#FFB8B8"/>
<path d="M283.108 82.3913L287.721 71.3196L286.052 65.2011C285.72 64.0012 285.06 62.918 284.144 62.0739C283.229 61.2298 282.096 60.6586 280.873 60.4247C279.213 60.1189 277.499 60.4547 276.077 61.3643C274.656 62.2738 273.632 63.6894 273.215 65.3246C271.951 70.2848 270.981 76.7331 273.533 79.2851L273.559 79.3109L283.108 82.3913Z" fill="#3F3D56"/>
<path d="M14.4625 205.593C5.43243 200.958 -1.11907 192.001 0.250658 182.43C8.26422 189.35 19.344 193.424 30.9065 193.702C35.41 193.81 40.4669 193.512 43.6586 196.142C45.6446 197.778 46.4838 200.304 46.521 202.795C46.5581 205.287 45.8752 207.785 45.1967 210.251L45.3604 210.846C34.5746 211.19 23.4925 210.228 14.4625 205.593Z" fill="#F2F2F2"/>
<path d="M0.477253 182.413C3.80366 189.444 9.76832 195.406 17.3012 199.023C18.9505 199.857 20.7162 200.438 22.5388 200.744C24.3966 200.998 26.2882 200.812 28.0607 200.2C29.74 199.656 31.4013 198.932 33.1698 198.752C34.0358 198.659 34.9116 198.742 35.7449 198.995C36.5783 199.248 37.3519 199.667 38.0197 200.226C39.6068 201.543 40.5218 203.325 41.346 205.1C42.2611 207.07 43.1752 209.132 45.0455 210.515C45.2721 210.682 44.9389 211.005 44.7126 210.838C41.4586 208.433 41.1103 204.259 38.555 201.39C37.3627 200.051 35.6804 199.054 33.6205 199.141C31.8192 199.216 30.1054 199.962 28.4094 200.524C26.6834 201.144 24.8448 201.386 23.0174 201.235C21.1772 201.014 19.3847 200.497 17.7093 199.704C14.0641 198.05 10.7121 195.814 7.78425 193.083C4.54855 190.101 1.91262 186.527 0.0182844 182.555C-0.0966199 182.312 0.363104 182.172 0.477261 182.413H0.477253Z" fill="white"/>
<path d="M14.7737 197.968C12.7942 200.226 9.31011 200.989 6.63775 199.763C6.37448 199.643 6.60476 199.259 6.86838 199.38C8.14717 199.925 9.56477 200.056 10.9218 199.754C12.2789 199.452 13.5071 198.732 14.4338 197.696C14.6286 197.474 14.9674 197.747 14.7737 197.968Z" fill="white"/>
<path d="M27.242 200.572C27.1072 199.215 26.6866 197.902 26.0078 196.719C25.3291 195.537 24.4075 194.511 23.3038 193.71C23.0779 193.542 23.4111 193.219 23.6367 193.387C24.7834 194.223 25.74 195.292 26.4434 196.524C27.1469 197.756 27.5812 199.124 27.7177 200.536C27.742 200.805 27.2662 200.84 27.242 200.572V200.572Z" fill="white"/>
<path d="M5.10267 189.824C5.55428 189.5 5.91541 189.065 6.15182 188.561C6.38823 188.058 6.49208 187.502 6.45351 186.947C6.42534 186.679 6.90124 186.644 6.92922 186.911C6.96906 187.524 6.85374 188.137 6.5939 188.694C6.33405 189.251 5.93808 189.733 5.44256 190.097C5.39759 190.138 5.33988 190.163 5.27881 190.168C5.21774 190.173 5.15689 190.156 5.10618 190.122C5.08427 190.104 5.06656 190.081 5.0543 190.056C5.04203 190.03 5.0355 190.002 5.03517 189.974C5.03484 189.946 5.04071 189.918 5.05237 189.892C5.06403 189.866 5.0812 189.843 5.10268 189.824H5.10267Z" fill="white"/>
<path d="M31.1415 163.08C31.1645 163.247 31.1875 163.414 31.2141 163.582C31.5358 165.819 32.066 168.021 32.7976 170.16C32.8511 170.326 32.9082 170.494 32.9671 170.658C34.8245 175.838 37.7485 180.571 41.5502 184.55C43.0988 186.175 44.7772 187.672 46.5689 189.025C49.0663 190.914 51.9587 192.774 53.4982 195.26C53.6616 195.517 53.8068 195.785 53.9326 196.062L46.1818 210.568C46.1461 210.594 46.114 210.622 46.0783 210.649L45.7976 211.238C45.6983 211.174 45.5971 211.105 45.4977 211.041C45.4399 211.004 45.3839 210.963 45.3261 210.926C45.2881 210.9 45.2502 210.875 45.214 210.853C45.2014 210.845 45.1888 210.836 45.1797 210.829C45.1436 210.808 45.1129 210.784 45.0804 210.765C44.5129 210.382 43.9478 209.994 43.3851 209.603C43.3815 209.601 43.3815 209.601 43.3796 209.597C39.1013 206.601 35.0946 203.243 31.8368 199.411C31.7388 199.296 31.6371 199.18 31.5427 199.058C30.0952 197.336 28.8086 195.486 27.699 193.53C27.1015 192.466 26.566 191.369 26.0952 190.243C24.8877 187.335 24.2159 184.234 24.1124 181.087C23.9004 174.784 25.9725 168.339 30.771 163.451C30.8939 163.326 31.0151 163.204 31.1415 163.08Z" fill="#F2F2F2"/>
<path d="M31.3259 163.187C29.0504 170.902 29.4894 179.13 32.7031 186.221C33.3684 187.794 34.3078 189.236 35.4777 190.481C36.7341 191.708 38.2991 192.572 40.0068 192.982C41.6409 193.424 43.3845 193.703 44.8389 194.5C45.5526 194.886 46.1649 195.435 46.6256 196.103C47.0862 196.771 47.3823 197.539 47.4894 198.343C47.7892 200.305 47.2669 202.299 46.6809 204.239C46.0302 206.392 45.3167 208.622 45.7853 210.791C45.8421 211.053 45.3716 211.147 45.3149 210.885C44.4995 207.111 47.0751 203.403 47.1014 199.612C47.1137 197.843 46.5243 196.101 44.9141 195.069C43.5061 194.167 41.7085 193.877 40.0485 193.443C38.3696 193.061 36.8096 192.274 35.5047 191.151C34.2651 189.972 33.2614 188.568 32.5474 187.014C30.9064 183.587 29.8991 179.892 29.5741 176.107C29.1794 171.714 29.6239 167.287 30.8839 163.06C30.9625 162.794 31.404 162.922 31.3259 163.187L31.3259 163.187Z" fill="white"/>
<path d="M31.5166 183.975C28.4905 184.819 25.3474 183.595 24.168 181.128C24.0518 180.885 24.4864 180.684 24.6027 180.928C25.7077 183.239 28.6169 184.352 31.4457 183.563C31.7434 183.48 31.8126 183.892 31.5166 183.975Z" fill="white"/>
<path d="M39.1367 192.858C39.9405 191.725 40.5057 190.44 40.7979 189.082C41.0901 187.723 41.1033 186.32 40.8366 184.956C40.7809 184.693 41.2513 184.6 41.307 184.862C41.5814 186.282 41.5645 187.743 41.2572 189.156C40.9499 190.569 40.3587 191.905 39.5195 193.082C39.3548 193.322 38.9729 193.097 39.1366 192.858H39.1367Z" fill="white"/>
<path d="M29.769 171.919C30.3594 171.871 30.9321 171.694 31.4461 171.399C31.9601 171.105 32.4028 170.701 32.7428 170.216C32.9041 169.974 33.2859 170.2 33.1256 170.44C32.7478 170.975 32.2582 171.421 31.6909 171.747C31.1235 172.074 30.492 172.273 29.84 172.331C29.7105 172.342 29.5916 172.293 29.5693 172.172C29.564 172.112 29.5817 172.053 29.6189 172.006C29.656 171.959 29.7097 171.928 29.769 171.919Z" fill="white"/>
<path d="M58.46 90.3779L59.1403 96.6869L58.74 104.96L77.0645 102.783L78.7864 90.3779L76.5924 90.3993L58.46 90.3779Z" fill="#FFB6B6"/>
<path d="M48.9551 204.921H52.9614L54.8682 189.468H48.9551V204.921Z" fill="#FFB6B6"/>
<path d="M47.6479 202.177L54.0484 201.795V204.537L60.1336 208.74C60.4342 208.947 60.6605 209.246 60.7796 209.591C60.8988 209.936 60.9044 210.31 60.7957 210.659C60.687 211.008 60.4697 211.313 60.1754 211.529C59.8812 211.746 59.5255 211.862 59.1603 211.862H51.5402L50.2267 209.15L49.7139 211.862H46.8408L47.6479 202.177Z" fill="#2F2E41"/>
<path d="M71.46 204.921H75.4663L77.3727 189.468H71.46V204.921Z" fill="#FFB6B6"/>
<path d="M70.1518 202.177L76.5524 201.795V204.537L82.6375 208.74C82.9381 208.947 83.1645 209.246 83.2836 209.591C83.4027 209.936 83.4083 210.31 83.2996 210.659C83.1909 211.008 82.9736 211.313 82.6794 211.529C82.3852 211.746 82.0295 211.862 81.6642 211.862H74.0441L72.7306 209.15L72.2178 211.862H69.3447L70.1518 202.177Z" fill="#2F2E41"/>
<path d="M47.2267 191.595H47.2702L48.0407 166.469C47.5421 165.507 47.2891 164.437 47.3041 163.354C47.3191 162.271 47.6018 161.208 48.1269 160.261L48.2372 160.061L47.9512 158.735C47.5839 157.032 47.7524 155.256 48.4338 153.653L49.1526 130.215C46.5847 113.572 58.8228 102.719 58.8228 102.719H77.1556L81.0914 116.241C83.6934 141.591 83.2213 166.294 79.0924 190.227L79.2049 190.283C79.6102 190.423 79.7841 190.985 79.5933 191.538C79.4025 192.09 78.9193 192.425 78.514 192.285L68.8321 191.948C68.4268 191.809 68.2529 191.247 68.4438 190.694C68.6345 190.142 69.1178 189.807 69.5231 189.947L70.1814 190.28L68.7775 166.034L68.9333 161.606L68.6123 156.582L67.1282 133.983L61.5109 161.773L55.773 191.875C55.9313 192.018 56.0424 192.206 56.0916 192.414C56.1409 192.621 56.1259 192.839 56.0488 193.038C55.9717 193.237 55.8361 193.408 55.6598 193.529C55.4835 193.649 55.2748 193.713 55.0613 193.713H47.2267C47.0875 193.713 46.9496 193.686 46.8209 193.633C46.6923 193.579 46.5753 193.502 46.4768 193.403C46.3783 193.305 46.3001 193.188 46.2468 193.059C46.1935 192.931 46.166 192.793 46.166 192.654C46.166 192.515 46.1935 192.377 46.2468 192.248C46.3001 192.12 46.3783 192.003 46.4768 191.904C46.5753 191.806 46.6923 191.728 46.8209 191.675C46.9496 191.622 47.0875 191.595 47.2267 191.595Z" fill="#2F2E41"/>
<path d="M61.6594 58.0942C67.0901 58.0942 71.4926 53.6917 71.4926 48.2609C71.4926 42.8302 67.0901 38.4277 61.6594 38.4277C56.2287 38.4277 51.8262 42.8302 51.8262 48.2609C51.8262 53.6917 56.2287 58.0942 61.6594 58.0942Z" fill="#FFB6B6"/>
<path d="M18.5708 93.6895C19.9528 90.4812 21.8505 87.5207 24.1888 84.9254C22.2088 88.0811 21.0772 91.6946 20.9036 95.416C21.6205 95.8638 22.3705 96.2561 23.1473 96.5895C25.4815 97.5685 27.9702 98.1277 30.4989 98.2411C31.8618 93.7004 34.2142 89.5182 37.3868 85.9955C35.1004 89.6417 33.9506 93.8858 34.0838 98.1876C36.9042 97.9438 39.6831 97.3482 42.3557 96.4148C46.3686 95.0343 50.2638 92.9726 53.039 89.7658C56.0424 86.2951 57.5227 81.715 58.0007 77.1492C58.4787 72.587 58.0293 67.9819 57.5762 63.4161C57.3622 61.2403 59.1743 58.7362 58.9603 56.5603H58.8176C57.8652 55.2548 56.8949 53.9171 56.4277 52.3691C55.9639 50.8245 56.0852 49.0018 57.1518 47.7854C57.7493 47.1498 58.5034 46.6824 59.3384 46.4299C59.4169 46.3301 59.5024 46.2337 59.5916 46.1374C61.2067 44.4219 63.1077 43.0001 65.2097 41.9355C63.6937 43.0805 62.6807 44.3753 62.2098 45.7129C63.5225 45.424 64.8351 45.1363 66.1478 44.8497C66.5865 44.3844 67.0484 43.9415 67.5318 43.5228C68.2345 42.9128 68.4664 42.8665 69.3046 42.2922C68.6279 42.8875 68.1032 43.636 67.7744 44.4752C69.4616 44.0507 71.1488 43.4122 72.0263 41.9604C73.4817 39.5598 71.7516 36.3209 69.3368 34.887C67.5801 33.8947 65.556 33.4796 63.5506 33.7004C61.5451 33.9212 59.6599 34.7668 58.1612 36.1176C54.6691 33.5458 49.6967 33.5886 45.8122 35.5112C43.2477 36.8373 41.0386 38.759 39.3701 41.115C40.338 40.9908 41.3122 40.9229 42.2879 40.9117C40.9144 41.1127 39.6065 41.6305 38.4676 42.4241C37.9638 43.2064 37.5018 44.0149 37.0836 44.8461C36.809 45.3919 36.5498 45.9448 36.306 46.5048C34.8114 49.9077 33.8376 53.5319 32.8282 57.1132C31.6511 61.2866 30.3883 65.4885 28.1839 69.2232C24.804 74.9021 19.4721 79.1561 13.1845 81.1906C12.6602 85.9099 14.9645 90.5256 18.5708 93.6895Z" fill="#2F2E41"/>
<path d="M71.5616 64.6695L69.6531 63.9528L67.2466 60.0615L58.6743 60.762L56.5907 64.9344L51.5713 68.7675L53.7664 80.3281L57.1767 94.3706L80.0057 91.517L79.9815 80.946C79.9815 80.946 84.1069 72.5943 77.443 69.4648L71.5616 64.6695Z" fill="#A56EFF"/>
<path d="M106.751 101.337C106.308 101.515 105.831 101.594 105.354 101.567C104.877 101.541 104.412 101.411 103.991 101.185C103.57 100.959 103.204 100.644 102.918 100.262C102.632 99.8794 102.433 99.4389 102.336 98.9714L76.8818 83.5692L81.5344 78.2012L105.092 95.029C105.888 94.9176 106.698 95.1021 107.367 95.5477C108.036 95.9932 108.519 96.6687 108.723 97.4463C108.928 98.2238 108.84 99.0494 108.476 99.7665C108.113 100.484 107.499 101.042 106.751 101.337V101.337Z" fill="#FFB6B6"/>
<path d="M68.3995 76.2657C68.3995 76.2657 67.183 77.4897 70.2353 79.5022C72.6789 81.1134 83.5784 89.0754 87.4421 90.3348C87.3938 90.9023 87.5356 91.4698 87.8453 91.9478C88.1549 92.4259 88.6148 92.7873 89.1525 92.9752L92.6509 85.2875C91.8936 83.53 90.6824 83.9369 90.0451 84.3354L85.82 81.1579L75.445 70.7979L69.2631 75.3654L68.3995 76.2657Z" fill="#A56EFF"/>
<path d="M58.224 36.3857C57.042 38.1298 56.2785 40.1231 55.9927 42.2104C55.707 44.2978 55.9067 46.4229 56.5764 48.4205" fill="#FD6584"/>
<path d="M8.33692 211.596C8.33676 211.649 8.34711 211.702 8.36738 211.751C8.38765 211.8 8.41743 211.845 8.45502 211.882C8.49261 211.92 8.53725 211.949 8.58639 211.97C8.63553 211.99 8.68819 212 8.74134 212H103.993C104.1 212 104.203 211.958 104.279 211.882C104.355 211.806 104.398 211.703 104.398 211.596C104.398 211.489 104.355 211.386 104.279 211.31C104.203 211.234 104.1 211.191 103.993 211.191H8.74134C8.68819 211.191 8.63553 211.202 8.58639 211.222C8.53725 211.242 8.49261 211.272 8.45502 211.309C8.41743 211.347 8.38765 211.392 8.36738 211.441C8.34711 211.49 8.33676 211.543 8.33692 211.596Z" fill="#CCCCCC"/>
<path d="M44.6278 119.68C44.3905 119.763 44.1959 119.938 44.0869 120.164C43.9779 120.391 43.9634 120.652 44.0464 120.89L57.317 159.138C57.4006 159.375 57.5749 159.57 57.8017 159.679C58.0286 159.788 58.2894 159.802 58.5269 159.719L135.744 132.627C135.981 132.544 136.176 132.369 136.285 132.142C136.394 131.916 136.408 131.655 136.325 131.417L123.055 93.1688C122.971 92.9314 122.797 92.7369 122.57 92.6279C122.343 92.5189 122.082 92.5044 121.845 92.5874L44.6278 119.68Z" fill="#E6E6E6"/>
<path d="M64.173 154.2C62.6534 154.2 61.1713 153.729 59.9302 152.852C58.6891 151.975 57.7499 150.735 57.2418 149.303L49.954 128.684C49.3049 126.847 49.4119 124.828 50.2515 123.071C51.0911 121.313 52.5944 119.961 54.4309 119.312L93.4571 105.518C100.763 102.945 108.79 103.375 115.779 106.714C122.768 110.053 128.147 116.027 130.736 123.327C131.385 125.163 131.278 127.182 130.439 128.94C129.599 130.697 128.096 132.05 126.259 132.699L126.203 132.538L126.259 132.699L66.6134 153.78C65.8298 154.058 65.0045 154.2 64.173 154.2Z" fill="white"/>
<path d="M115.926 113.554L80.9811 125.814C80.4887 125.987 79.8786 125.525 79.6182 124.783C79.3578 124.041 79.5458 123.3 80.0382 123.127L114.983 110.866C115.475 110.694 116.085 111.155 116.346 111.897C116.606 112.639 116.418 113.382 115.926 113.554Z" fill="#E6E6E6"/>
<path d="M118.628 121.257L83.6832 133.517C83.1909 133.69 82.5807 133.229 82.3203 132.486C82.0599 131.744 82.248 131.003 82.7403 130.83L117.685 118.569C118.177 118.397 118.787 118.858 119.048 119.6C119.308 120.342 119.12 121.084 118.628 121.257Z" fill="#E6E6E6"/>
<path d="M76.2525 130.006C76.6277 131.063 76.81 132.179 76.7907 133.301C76.7833 133.814 76.7325 134.326 76.639 134.831C76.3411 136.462 75.6179 137.985 74.5425 139.247C73.467 140.509 72.0775 141.464 70.5144 142.016C68.9513 142.569 67.27 142.699 65.6406 142.393C64.0111 142.087 62.4913 141.357 61.2347 140.275C61.1078 140.167 60.9843 140.055 60.8641 139.939C59.8379 138.956 59.0477 137.753 58.5528 136.42C58.058 135.088 57.8713 133.661 58.0067 132.246C58.1422 130.831 58.5963 129.465 59.335 128.251C60.0737 127.036 61.0778 126.005 62.272 125.234C63.4661 124.463 64.8194 123.973 66.2302 123.8C67.6409 123.626 69.0726 123.775 70.4178 124.234C71.763 124.693 72.9867 125.451 73.9972 126.451C75.0078 127.45 75.7788 128.666 76.2525 130.006Z" fill="#E4E4E4"/>
<path d="M67.7692 134.579C68.7631 134.579 69.5687 133.774 69.5687 132.78C69.5687 131.786 68.7631 130.98 67.7692 130.98C66.7754 130.98 65.9697 131.786 65.9697 132.78C65.9697 133.774 66.7754 134.579 67.7692 134.579Z" fill="#FD6584"/>
<path d="M60.8643 139.939C61.3263 138.867 61.8722 137.231 63.1371 137.827C63.7619 138.098 64.881 138.921 65.3354 137.964L68.8932 130.516C68.9607 130.377 69.0552 130.253 69.1713 130.151C69.2873 130.049 69.4226 129.972 69.569 129.923C69.7155 129.874 69.8703 129.855 70.0242 129.867C70.1782 129.878 70.3282 129.921 70.4655 129.992L76.7908 133.301C76.7834 133.814 76.7327 134.326 76.6391 134.831L61.2349 140.275L60.8643 139.939Z" fill="#3F3D56"/>
<path d="M62.7012 117.944C62.2561 117.771 61.8544 117.502 61.5243 117.157C61.1942 116.812 60.9438 116.399 60.7907 115.947C60.6377 115.494 60.5856 115.014 60.6383 114.539C60.691 114.065 60.8471 113.607 61.0956 113.199L53.043 84.5586L60.1081 83.8203L65.802 112.205C66.4594 112.668 66.9241 113.356 67.1081 114.139C67.2921 114.922 67.1826 115.745 66.8004 116.452C66.4182 117.159 65.7898 117.702 65.0343 117.977C64.2788 118.252 63.4486 118.24 62.7012 117.944Z" fill="#FFB6B6"/>
<path d="M51.8509 68.8365C51.8509 68.8365 50.1264 68.8984 50.9788 72.4537C51.6613 75.3 54.1675 93.1553 56.127 96.7154C55.7038 97.0966 55.4194 97.6078 55.3187 98.1684C55.218 98.729 55.3067 99.3072 55.5708 99.8119L63.379 96.5914C64.0274 94.791 63.5253 93.1563 62.7877 93.0116L61.8755 87.8043L60.5311 70.3354L53.0967 68.7695L51.8509 68.8365Z" fill="#A56EFF"/>
<path d="M122.19 144.195L111.391 144.642C111.16 144.652 110.93 144.61 110.718 144.518C110.506 144.427 110.318 144.289 110.167 144.114C110.018 143.944 109.909 143.742 109.85 143.524C109.79 143.305 109.78 143.077 109.821 142.854C110.65 138.335 110.409 133.685 109.116 129.277C109.016 128.94 109.037 128.578 109.173 128.255C109.31 127.931 109.555 127.664 109.867 127.501C114.29 125.203 118.434 125.086 122.184 127.154C122.381 127.261 122.551 127.409 122.685 127.589C122.818 127.768 122.911 127.975 122.956 128.194C123.932 133.005 124.166 137.936 123.65 142.818C123.614 143.185 123.447 143.527 123.178 143.78C122.91 144.033 122.559 144.181 122.19 144.195Z" fill="#A56EFF"/>
<path d="M121.733 137.126L113.476 137.468C113.374 137.472 113.273 137.456 113.177 137.421C113.081 137.386 112.993 137.333 112.918 137.264C112.843 137.195 112.783 137.112 112.74 137.02C112.697 136.927 112.673 136.827 112.669 136.725C112.664 136.624 112.68 136.522 112.715 136.426C112.75 136.331 112.804 136.243 112.873 136.168C112.942 136.093 113.025 136.033 113.118 135.99C113.21 135.947 113.31 135.923 113.412 135.919L121.669 135.577C121.77 135.573 121.872 135.588 121.967 135.624C122.063 135.659 122.151 135.712 122.226 135.781C122.301 135.85 122.361 135.933 122.404 136.025C122.447 136.118 122.471 136.218 122.475 136.319C122.479 136.421 122.464 136.523 122.429 136.618C122.393 136.714 122.34 136.801 122.271 136.876C122.202 136.951 122.119 137.012 122.027 137.055C121.934 137.097 121.834 137.122 121.733 137.126Z" fill="white"/>
<path d="M121.62 134.41L113.363 134.752C113.158 134.761 112.957 134.687 112.806 134.548C112.655 134.409 112.565 134.215 112.556 134.01C112.548 133.804 112.621 133.604 112.761 133.453C112.9 133.301 113.093 133.211 113.299 133.203L121.556 132.861C121.761 132.853 121.961 132.926 122.113 133.065C122.264 133.204 122.354 133.398 122.362 133.603C122.371 133.809 122.297 134.009 122.158 134.161C122.019 134.312 121.825 134.402 121.62 134.41Z" fill="white"/>
<path d="M319.685 59.7211L308.969 58.3156C308.74 58.2861 308.521 58.205 308.328 58.0786C308.134 57.9522 307.972 57.7837 307.853 57.5857C307.736 57.3925 307.663 57.1751 307.642 56.95C307.62 56.7248 307.65 56.4976 307.728 56.2855C309.317 51.975 309.874 47.3521 309.355 42.7876C309.314 42.4383 309.396 42.0858 309.586 41.79C309.776 41.4943 310.063 41.2737 310.398 41.1658C315.149 39.6578 319.252 40.2516 322.593 42.93C322.768 43.0688 322.911 43.2442 323.012 43.444C323.113 43.6437 323.169 43.863 323.176 44.0866C323.315 48.9933 322.703 53.8924 321.359 58.6137C321.261 58.9695 321.038 59.2777 320.73 59.4813C320.422 59.6849 320.051 59.7701 319.685 59.7211Z" fill="#A56EFF"/>
<path d="M320.443 52.679L312.25 51.6044C312.149 51.5911 312.051 51.5581 311.963 51.5073C311.875 51.4564 311.798 51.3887 311.736 51.3079C311.674 51.2272 311.628 51.1351 311.602 51.0367C311.575 50.9384 311.569 50.8359 311.582 50.7349C311.595 50.634 311.628 50.5367 311.679 50.4485C311.73 50.3603 311.797 50.283 311.878 50.221C311.959 50.159 312.051 50.1135 312.149 50.0871C312.248 50.0607 312.35 50.0539 312.451 50.0671L320.645 51.1418C320.849 51.1685 321.034 51.2752 321.159 51.4382C321.284 51.6013 321.339 51.8074 321.313 52.0112C321.286 52.2151 321.179 52.4 321.016 52.5252C320.853 52.6504 320.647 52.7058 320.443 52.679Z" fill="white"/>
<path d="M320.797 49.9839L312.604 48.9092C312.503 48.8962 312.405 48.8633 312.317 48.8125C312.228 48.7617 312.151 48.694 312.089 48.6132C312.026 48.5325 311.981 48.4402 311.954 48.3418C311.928 48.2434 311.921 48.1407 311.934 48.0396C311.948 47.9386 311.981 47.8411 312.032 47.7528C312.083 47.6646 312.15 47.5872 312.231 47.5252C312.312 47.4632 312.405 47.4177 312.503 47.3915C312.602 47.3652 312.704 47.3586 312.805 47.372L320.999 48.4467C321.1 48.4597 321.198 48.4926 321.286 48.5434C321.374 48.5942 321.452 48.6619 321.514 48.7427C321.576 48.8235 321.622 48.9157 321.648 49.0141C321.675 49.1126 321.681 49.2152 321.668 49.3163C321.655 49.4174 321.622 49.5148 321.571 49.6031C321.52 49.6914 321.452 49.7687 321.371 49.8307C321.29 49.8927 321.198 49.9382 321.1 49.9645C321.001 49.9908 320.898 49.9974 320.797 49.9839Z" fill="white"/>
<path d="M176.943 80.491H173.375V76.9227C173.375 76.0665 173.034 75.2454 172.429 74.6399C171.824 74.0345 171.002 73.6943 170.146 73.6943C169.29 73.6943 168.469 74.0345 167.863 74.6399C167.258 75.2454 166.918 76.0665 166.918 76.9227V80.491H163.35C162.493 80.491 161.672 80.8311 161.067 81.4366C160.461 82.042 160.121 82.8632 160.121 83.7194C160.121 84.5756 160.461 85.3968 161.067 86.0022C161.672 86.6077 162.493 86.9478 163.35 86.9478H166.918V90.5161C166.918 91.3723 167.258 92.1935 167.863 92.7989C168.469 93.4043 169.29 93.7445 170.146 93.7445C171.002 93.7445 171.824 93.4043 172.429 92.7989C173.034 92.1935 173.375 91.3723 173.375 90.5161V86.9478H176.943C177.799 86.9478 178.62 86.6077 179.226 86.0022C179.831 85.3968 180.171 84.5756 180.171 83.7194C180.171 82.8632 179.831 82.042 179.226 81.4366C178.62 80.8311 177.799 80.491 176.943 80.491Z" fill="white"/>
<path d="M292.498 14.4539C294.377 14.4539 295.9 12.9306 295.9 11.0516C295.9 9.17264 294.377 7.64941 292.498 7.64941C290.619 7.64941 289.096 9.17264 289.096 11.0516C289.096 12.9306 290.619 14.4539 292.498 14.4539Z" fill="#3F3D56"/>
<path d="M83.4999 110.628C85.3789 110.628 86.9021 109.104 86.9021 107.225C86.9021 105.346 85.3789 103.823 83.4999 103.823C81.6209 103.823 80.0977 105.346 80.0977 107.225C80.0977 109.104 81.6209 110.628 83.4999 110.628Z" fill="#3F3D56"/>
</g>
<defs>
<clipPath id="clip0_2118_5350">
<rect width="336.201" height="212" fill="white"/>
</clipPath>
</defs>
</svg>
