<svg _ngcontent-hkr-c220="" viewBox="0 0 1070 229" xmlns="http://www.w3.org/2000/svg" class="cateinaIconClass svgClass" tabindex="0" ng-reflect-router-link="/home-page"><path _ngcontent-hkr-c220="" d="M0.490219 0.679993C0.480219 50.14 0.470215 99.61 0.470215 149.07C31.5202 124.42 62.5702 99.77 93.6302 75.12C62.5802 50.31 31.5302 25.49 0.490219 0.679993Z"></path><path _ngcontent-hkr-c220="" d="M199.5 0.400024C199.5 50.27 199.51 100.14 199.51 150.02C168.21 125 136.91 99.98 105.61 74.96C136.91 50.11 168.21 25.25 199.5 0.400024Z"></path><path _ngcontent-hkr-c220="" d="M6.44043 153.97C37.4904 129.27 68.5404 104.56 99.5904 79.86C130.96 104.91 162.32 129.96 193.69 155C162.71 179.62 131.72 204.25 100.74 228.87C69.3104 203.91 37.8804 178.94 6.44043 153.97Z"></path><path _ngcontent-hkr-c220="" d="M307.95 168.97C298.23 168.97 289.25 167.42 281 164.32C272.75 161.22 265.61 156.8 259.58 151.07C253.55 145.34 248.84 138.58 245.45 130.79C242.05 123.01 240.36 114.44 240.36 105.07C240.36 95.71 242.05 87.14 245.45 79.35C248.84 71.57 253.55 64.81 259.58 59.07C265.61 53.34 272.75 48.92 281 45.82C289.25 42.72 298.23 41.17 307.95 41.17C319.3 41.17 329.45 43.16 338.41 47.14C347.36 51.12 354.82 56.86 360.79 64.34L338.67 84.35C334.69 79.67 330.33 76.1 325.59 73.64C320.85 71.18 315.55 69.95 309.7 69.95C304.67 69.95 300.05 70.77 295.83 72.41C291.62 74.05 288.02 76.42 285.03 79.52C282.05 82.62 279.7 86.34 278.01 90.67C276.31 95 275.46 99.8 275.46 105.07C275.46 110.34 276.31 115.14 278.01 119.46C279.7 123.79 282.05 127.51 285.03 130.61C288.01 133.71 291.61 136.08 295.83 137.72C300.04 139.36 304.66 140.18 309.7 140.18C315.55 140.18 320.85 138.95 325.59 136.49C330.33 134.03 334.69 130.46 338.67 125.78L360.79 145.79C354.82 153.16 347.36 158.87 338.41 162.91C329.46 166.95 319.3 168.97 307.95 168.97Z"></path><path _ngcontent-hkr-c220="" d="M360.26 166.51L414.5 43.63H448.73L503.15 166.51H466.99L424.51 60.66H438.2L395.72 166.51H360.26ZM389.93 142.64L398.88 117.01H458.92L467.87 142.64H389.93Z"></path><path _ngcontent-hkr-c220="" d="M533.881 166.51V71.19H496.141V43.63H606.201V71.19H568.631V166.51H533.881Z"></path><path _ngcontent-hkr-c220="" d="M654.48 139.65H718.73V166.51H620.07V43.63H716.44V70.49H654.47V139.65H654.48ZM652.02 91.2H709.07V117.18H652.02V91.2Z"></path><path _ngcontent-hkr-c220="" d="M738.91 166.51V43.63H773.67V166.51H738.91Z"></path><path _ngcontent-hkr-c220="" d="M799.3 166.51V43.63H827.91L895.67 125.43H882.15V43.63H916.21V166.51H887.6L819.84 84.71H833.36V166.51H799.3Z"></path><path _ngcontent-hkr-c220="" d="M926.92 166.51L981.16 43.63H1015.39L1069.81 166.51H1033.65L991.17 60.66H1004.86L962.38 166.51H926.92ZM956.59 142.64L965.54 117.01H1025.58L1034.53 142.64H956.59Z"></path></svg>