<svg viewBox="0 0 772 458" fill="none" xmlns="http://www.w3.org/2000/svg">
<g clip-path="url(#clip0_1103_4842)">
<path d="M0.000183105 243.42C0.000183105 336.06 66.3376 414.993 159.254 445.028C173.389 449.606 187.98 452.995 202.833 455.152C243.695 461.084 285.59 457.716 324.577 445.366C418.081 415.578 484.903 336.379 484.859 243.375C484.859 124.913 376.317 28.8401 242.43 28.8401C191.83 28.7749 142.486 42.7867 101.372 68.895C39.9937 107.819 0.000183105 171.484 0.000183105 243.42Z" fill="#E5E5E5"/>
<path d="M159.254 445.027C173.389 449.606 187.98 452.995 202.833 455.152C243.695 461.083 285.59 457.716 324.576 445.366L313.381 405.603L312.705 403.217L289.857 403.295L175.078 403.659L173.609 407.502L159.254 445.027Z" fill="#2F2E41"/>
<path d="M561.416 0H772V210.909H561.416V0Z" fill="#E6E6E6"/>
<path d="M565.54 4.46191H768.246V206.448H565.54V4.46191Z" fill="white"/>
<path d="M666.708 199.266C660.432 199.266 655.345 194.763 655.345 189.209C655.345 183.654 660.432 179.151 666.708 179.151C672.983 179.151 678.07 183.654 678.07 189.209C678.07 194.763 672.983 199.266 666.708 199.266Z" fill="#E6E6E6"/>
<path d="M668.628 75.9604H733.891V81.8699H668.628V75.9604Z" fill="#E6E6E6"/>
<path d="M635.392 93.6685H733.891V99.5779H635.392V93.6685Z" fill="#8A3FFC"/>
<path d="M645.06 111.488H733.891V117.397H645.06V111.488Z" fill="#E6E6E6"/>
<path d="M596.717 128.836H733.891V134.746H596.717V128.836Z" fill="#8A3FFC"/>
<path d="M620.672 145.358H732.465V151.268H620.672V145.358Z" fill="#E6E6E6"/>
<path d="M472.557 343.192C471.756 343.92 471.021 344.703 470.359 345.533L367.43 343.304L355.423 323.882L319.94 336.091L337.424 372.301C338.837 375.226 341.283 377.667 344.396 379.257C347.508 380.847 351.12 381.501 354.688 381.119L470.981 368.685C473.724 371.758 477.459 374.02 481.69 375.169C485.921 376.318 490.447 376.3 494.666 375.116C498.884 373.933 502.596 371.641 505.307 368.545C508.018 365.449 509.6 361.695 509.842 357.784C510.085 353.873 508.976 349.989 506.663 346.649C504.351 343.309 500.945 340.672 496.898 339.087C492.85 337.503 488.354 337.046 484.007 337.779C479.659 338.511 475.667 340.398 472.56 343.188L472.557 343.192Z" fill="#9F616A"/>
<path d="M334.02 232.293L285.85 218.32L271.703 201.146L202.856 204.753L192.748 224.793L156.037 240.147L161.679 332.888L171.33 419.68C220.961 396.932 313.584 414.275 314.395 414.557L334.02 232.293Z" fill="#8A3FFC"/>
<path d="M323.721 357.822L372.717 340.471L372.508 339.699C372.298 338.919 351.445 261.789 348.676 249.394C345.792 236.481 335.253 232.91 334.806 232.765L334.479 232.659L315.089 237.883L306.573 297.107L323.721 357.822Z" fill="#8A3FFC"/>
<path d="M217.931 415.865C216.783 415.841 215.634 415.897 214.495 416.033L146.36 347.71L154.285 326.717L120.046 311.987L101.933 347.954C100.47 350.86 100.111 354.107 100.91 357.209C101.71 360.31 103.624 363.098 106.366 365.155L195.734 432.177C195.053 436.048 195.72 440.01 197.645 443.537C199.57 447.064 202.663 449.988 206.512 451.922C210.361 453.855 214.783 454.705 219.191 454.359C223.599 454.014 227.784 452.488 231.189 449.986C234.594 447.484 237.057 444.123 238.252 440.352C239.446 436.58 239.315 432.576 237.876 428.872C236.437 425.168 233.758 421.939 230.195 419.616C226.632 417.292 222.355 415.984 217.931 415.865Z" fill="#9F616A"/>
<path d="M151.798 354.361L180.221 295.185L169.135 253.965L157.191 240.609C156.316 240.277 155.373 240.111 154.422 240.118C153.47 240.126 152.531 240.309 151.663 240.654C147.255 242.223 143.509 247.033 140.514 254.949L113.877 322.105L151.798 354.361Z" fill="#8A3FFC"/>
<path d="M299.261 179.219V134.606C299.291 126.755 297.573 118.976 294.206 111.713C290.839 104.45 285.888 97.8451 279.637 92.2755C273.386 86.7059 265.957 82.2806 257.774 79.2522C249.591 76.2239 240.814 74.6518 231.945 74.6258C223.075 74.5998 214.287 76.1204 206.081 79.1006C197.875 82.0809 190.413 86.4626 184.121 91.9954C177.828 97.5283 172.829 104.104 169.407 111.347C165.986 118.59 164.21 126.359 164.18 134.209C164.18 134.341 164.18 134.473 164.18 134.606V179.219C164.183 181.348 165.14 183.389 166.841 184.894C168.542 186.4 170.848 187.247 173.253 187.249H290.189C292.594 187.247 294.9 186.4 296.601 184.894C298.302 183.389 299.259 181.348 299.261 179.219Z" fill="#2F2E41"/>
<path d="M245.599 186.209C218.251 186.209 196.081 166.586 196.081 142.38C196.081 118.173 218.251 98.5503 245.599 98.5503C272.947 98.5503 295.117 118.173 295.117 142.38C295.117 166.586 272.947 186.209 245.599 186.209Z" fill="#9F616A"/>
<path d="M315.238 138.175C315.222 125.637 309.588 113.617 299.572 104.751C289.556 95.8857 275.976 90.8989 261.81 90.8848H251.729C237.564 90.8989 223.984 95.8858 213.968 104.751C203.952 113.617 198.318 125.637 198.302 138.175V139.067H219.606L226.873 121.055L228.326 139.067H239.335L243.001 129.981L243.736 139.067H315.238V138.175Z" fill="#2F2E41"/>
<path d="M250.473 192.266C251.473 191.068 252.07 189.643 252.196 188.157C252.321 186.671 251.97 185.184 251.183 183.867C240.501 165.882 225.544 132.65 245.396 112.156L246.82 110.685H189.183V187.277L241.542 195.454C242.072 195.537 242.609 195.579 243.147 195.579C244.576 195.579 245.985 195.279 247.258 194.704C248.531 194.128 249.631 193.293 250.469 192.268L250.473 192.266Z" fill="#2F2E41"/>
<path d="M666.891 16.4263C671.67 16.4261 676.341 17.6802 680.315 20.03C684.289 22.3799 687.386 25.72 689.215 29.6278C691.044 33.5357 691.523 37.8359 690.591 41.9847C689.659 46.1334 687.357 49.9443 683.978 52.9355C680.599 55.9267 676.294 57.9638 671.607 58.7892C666.92 59.6147 662.062 59.1914 657.646 57.5728C653.231 55.9543 649.457 53.2132 646.802 49.6963C644.147 46.1793 642.729 42.0444 642.729 37.8144V37.8133C642.729 35.0047 643.354 32.2237 644.568 29.6289C645.783 27.0341 647.562 24.6764 649.806 22.6904C652.05 20.7044 654.714 19.1291 657.645 18.0543C660.577 16.9795 663.719 16.4263 666.892 16.4263H666.891ZM666.891 22.8418C665.457 22.8418 664.056 23.2181 662.864 23.923C661.672 24.628 660.743 25.6299 660.194 26.8022C659.646 27.9745 659.502 29.2645 659.782 30.5089C660.061 31.7534 660.752 32.8966 661.765 33.7938C662.779 34.691 664.071 35.3021 665.477 35.5496C666.883 35.7972 668.34 35.6701 669.664 35.1846C670.989 34.699 672.121 33.8767 672.917 32.8217C673.714 31.7666 674.139 30.5263 674.139 29.2574C674.139 27.5559 673.375 25.9241 672.016 24.7209C670.657 23.5177 668.813 22.8418 666.891 22.8418ZM666.891 53.7291C669.754 53.7175 672.571 53.0878 675.098 51.8944C677.624 50.701 679.783 48.9801 681.388 46.8809C681.272 42.6035 671.723 40.249 666.891 40.249C662.058 40.249 652.509 42.6035 652.393 46.8809C654 48.9786 656.159 50.6983 658.685 51.8915C661.211 53.0847 664.028 53.7154 666.891 53.7291Z" fill="#8A3FFC"/>
<path d="M666.611 193.064C656.657 176.918 632.81 166.693 613.304 175.91C604.523 180.057 597.543 187.395 595.328 196.067C592.757 206.141 598.174 215.747 603.767 224.211C606.803 228.805 610.129 233.305 612.642 238.151C615.243 243.169 617.102 248.968 615.144 254.427C613.381 259.345 608.96 262.922 604.118 265.551C598.775 268.342 593.092 270.589 587.177 272.248C575.002 275.832 562.159 277.303 549.354 276.579C542.99 276.197 536.68 275.294 530.504 273.882C523.934 272.4 517.487 270.52 510.906 269.07C499.918 266.655 487.391 265.454 476.972 270.306C466.85 275.021 462.321 284.884 460.92 294.478C458.332 312.194 466.269 330.579 480.598 342.986C487.472 348.938 496.123 353.856 505.546 355.868C513.767 357.624 524.324 357.511 530.866 352.071C538.167 346 536.45 336.264 530.651 329.859C523.25 321.686 510.711 319.723 499.522 319.524C486.793 319.298 474.077 320.975 461.356 319.932C455.147 319.505 449.054 318.204 443.308 316.079C438.255 314.112 433.647 311.352 429.706 307.932C421.852 301.179 416.556 292.182 413.922 282.828C410.751 271.578 411.442 259.756 413.904 248.456C415.216 242.63 416.905 236.875 418.964 231.22C419.814 228.834 424.071 229.855 423.215 232.258C415.633 253.536 411.406 278.141 426.054 297.897C432.116 306.275 441.559 312.292 452.459 314.721C465.136 317.51 478.439 316.131 491.328 315.716C503.583 315.321 517.04 315.747 527.545 322.065C536.163 327.247 542.191 337.103 539.586 346.408C537.074 355.382 527.331 359.933 517.587 360.634C507.363 361.372 497.302 358.334 488.716 353.585C470.855 343.706 458.979 326.331 456.493 307.911C455.198 298.312 456.516 287.974 461.434 279.262C464.025 274.546 468.058 270.567 473.076 267.778C478.079 265.063 483.857 263.727 489.661 263.254C502.846 262.179 515.514 266.186 528.022 269.251C534.411 270.892 540.961 271.998 547.584 272.556C554.012 273.028 560.477 272.935 566.884 272.278C573.242 271.614 579.508 270.383 585.586 268.604C591.542 266.974 597.245 264.692 602.562 261.811C607.252 259.156 611.309 255.354 611.54 250.172C611.79 244.553 608.589 239.297 605.545 234.56C599.531 225.202 592.101 216.05 590.533 205.095C589.159 195.512 593.515 186.068 601.038 179.233C604.808 175.764 609.347 173.021 614.37 171.177C619.393 169.332 624.793 168.426 630.23 168.514C641.392 168.797 652.078 173.093 660.288 179.691C664.36 182.965 667.786 186.817 670.426 191.089C671.786 193.294 667.981 195.265 666.62 193.058L666.611 193.064Z" fill="#3F3D56"/>
</g>
<defs>
<clipPath id="clip0_1103_4842">
<rect width="772" height="458" fill="white" transform="matrix(-1 0 0 1 772 0)"/>
</clipPath>
</defs>
</svg>
