<svg width="160" height="160" viewBox="0 0 160 160" fill="none" xmlns="http://www.w3.org/2000/svg">
<path d="M135.001 156.799C122.981 156.799 113.201 147.019 113.201 134.999C113.201 129.634 115.151 124.714 118.376 120.919L101.171 103.714C95.5407 108.739 88.1207 111.799 80.0007 111.799C71.8757 111.799 64.4607 108.739 58.8357 103.709L41.6307 120.914C44.8557 124.714 46.8007 129.634 46.8007 134.999C46.8007 147.019 37.0207 156.799 25.0007 156.799C12.9807 156.799 3.20068 147.019 3.20068 134.999C3.20068 122.979 12.9807 113.199 25.0007 113.199C30.3657 113.199 35.2807 115.149 39.0807 118.374L56.2857 101.169C51.2607 95.5392 48.2007 88.1192 48.2007 79.9992C48.2007 71.8792 51.2607 64.4592 56.2857 58.8342L39.0807 41.6292C35.2807 44.8542 30.3657 46.7992 25.0007 46.7992C12.9807 46.7992 3.20068 37.0192 3.20068 24.9992C3.20068 12.9792 12.9807 3.19922 25.0007 3.19922C37.0207 3.19922 46.8007 12.9792 46.8007 24.9992C46.8007 30.3642 44.8557 35.2792 41.6307 39.0792L58.8357 56.2842C64.4607 51.2592 71.8807 48.1992 80.0007 48.1992C88.1207 48.1992 95.5407 51.2592 101.166 56.2842L118.371 39.0842C115.146 35.2842 113.201 30.3642 113.201 24.9992C113.201 12.9792 122.981 3.19922 135.001 3.19922C147.021 3.19922 156.801 12.9792 156.801 24.9992C156.801 37.0192 147.021 46.7992 135.001 46.7992C129.641 46.7992 124.721 44.8542 120.921 41.6292L103.716 58.8342C108.746 64.4592 111.806 71.8792 111.806 79.9992C111.806 88.1192 108.746 95.5392 103.716 101.164L120.921 118.369C124.721 115.139 129.636 113.194 135.001 113.194C147.021 113.194 156.801 122.974 156.801 134.994C156.801 147.014 147.021 156.799 135.001 156.799ZM135.001 116.799C124.966 116.799 116.801 124.964 116.801 134.999C116.801 145.034 124.966 153.199 135.001 153.199C145.036 153.199 153.201 145.034 153.201 134.999C153.201 124.964 145.036 116.799 135.001 116.799ZM25.0007 116.799C14.9657 116.799 6.80068 124.964 6.80068 134.999C6.80068 145.034 14.9657 153.199 25.0007 153.199C35.0357 153.199 43.2007 145.034 43.2007 134.999C43.2007 124.964 35.0357 116.799 25.0007 116.799ZM80.0007 51.7992C64.4507 51.7992 51.8007 64.4492 51.8007 79.9992C51.8007 95.5492 64.4507 108.199 80.0007 108.199C95.5507 108.199 108.201 95.5542 108.201 79.9992C108.201 64.4492 95.5507 51.7992 80.0007 51.7992ZM135.001 6.79922C124.966 6.79922 116.801 14.9642 116.801 24.9992C116.801 35.0342 124.966 43.1992 135.001 43.1992C145.036 43.1992 153.201 35.0342 153.201 24.9992C153.201 14.9642 145.036 6.79922 135.001 6.79922ZM25.0007 6.79922C14.9657 6.79922 6.80068 14.9642 6.80068 24.9992C6.80068 35.0342 14.9657 43.1992 25.0007 43.1992C35.0357 43.1992 43.2007 35.0342 43.2007 24.9992C43.2007 14.9642 35.0357 6.79922 25.0007 6.79922Z" fill="white"/>
</svg>
