<svg width="24" height="24" viewBox="0 0 36 35" fill="none" xmlns="http://www.w3.org/2000/svg">
<path d="M30.5 12H23V4.5C22.9989 3.50577 22.6035 2.55258 21.9004 1.84956C21.1974 1.14653 20.2442 0.751092 19.25 0.75H16.584C15.9828 0.752411 15.4025 0.970354 14.9483 1.36424C14.4942 1.75813 14.1964 2.30185 14.109 2.89662L13.0524 10.2922L8.581 17H0.5V34.5H26.75C29.0699 34.4974 31.294 33.5747 32.9343 31.9343C34.5747 30.294 35.4974 28.0699 35.5 25.75V17C35.4985 15.6744 34.9712 14.4035 34.0339 13.4661C33.0965 12.5288 31.8256 12.0015 30.5 12V12ZM8 32H3V19.5H8V32ZM33 25.75C32.9981 27.407 32.339 28.9956 31.1673 30.1673C29.9956 31.339 28.407 31.9981 26.75 32H10.5V18.6284L15.4472 11.2078L16.584 3.25H19.25C19.5814 3.25026 19.8992 3.38205 20.1336 3.61641C20.368 3.85077 20.4997 4.16856 20.5 4.5V14.5H30.5C31.1628 14.5008 31.7982 14.7645 32.2669 15.2331C32.7355 15.7018 32.9992 16.3372 33 17V25.75Z" fill="#A56EFF"/>
</svg>
