<svg width="24" height="24" viewBox="0 0 38 40" fill="none" xmlns="http://www.w3.org/2000/svg">
<path d="M29.7008 39H29.4508H28.5508H28.3008V38.75V29.385C28.3008 25.0557 25.3627 21.3365 21.1531 20.3383L21.1524 20.3381C20.8624 20.2685 20.6458 20.0226 20.6181 19.7235C20.5892 19.4231 20.757 19.14 21.03 19.018L21.0304 19.0179C22.8367 18.2142 24.002 16.421 24.002 14.4513C24.002 11.6943 21.7589 9.45002 19.002 9.45002C16.2451 9.45002 14.002 11.6931 14.002 14.4513C14.002 16.4222 15.1686 18.2154 16.9736 19.0178L16.974 19.018C17.2485 19.1407 17.4131 19.4244 17.386 19.7227L17.386 19.7228C17.3587 20.0207 17.1432 20.2697 16.8509 20.3383C12.6414 21.3353 9.70328 25.0544 9.70328 29.385V38.75V39H9.45328H8.55328H8.30328V38.75V29.385C8.30328 24.941 10.9948 21.0551 15.0154 19.4534C13.5132 18.2559 12.6008 16.4235 12.6008 14.4513C12.6008 11.9315 14.0644 9.74685 16.1845 8.70395C16.3946 8.14544 16.5008 7.55744 16.5008 6.95127C16.5008 4.19426 14.2576 1.95002 11.5008 1.95002C8.74381 1.95002 6.49953 4.19313 6.49953 6.95127C6.49953 8.92095 7.66608 10.7153 9.47092 11.5178L29.7008 39ZM29.7008 39L29.7008 38.7501L29.702 29.3863V29.3863C29.702 24.9422 27.0092 21.0562 22.9885 19.4545C24.4897 18.2571 25.402 16.4246 25.402 14.4513C25.402 11.9314 23.9382 9.74798 21.817 8.70398C21.607 8.14546 21.5008 7.55745 21.5008 6.95127C21.5008 4.19305 23.7439 1.95002 26.5008 1.95002C29.2576 1.95002 31.5008 4.19426 31.5008 6.95127C31.5008 8.92103 30.3354 10.7142 28.5303 11.5179L28.5301 11.518C28.257 11.64 28.0892 11.9231 28.1181 12.2235C28.1458 12.5226 28.3624 12.7685 28.6524 12.8381L28.6531 12.8383C32.863 13.8366 35.8008 17.551 35.8008 21.875V31.25V31.5H36.0508H36.952H37.202V31.25V21.8763C37.202 17.4381 34.5091 13.5548 30.4886 11.9545M29.7008 39L30.4886 11.9545M30.4886 11.9545C31.9897 10.757 32.902 8.92456 32.902 6.95127C32.902 3.42188 30.03 0.55127 26.5008 0.55127C22.9715 0.55127 20.0995 3.42188 20.0995 6.95127C20.0995 7.36327 20.1384 7.76964 20.2151 8.16754C19.4237 8.01793 18.5778 8.01794 17.7857 8.16752C17.8627 7.76931 17.9008 7.36292 17.9008 6.95127C17.9008 3.42195 15.0301 0.55127 11.5008 0.55127C7.97146 0.55127 5.10078 3.42195 5.10078 6.95127C5.10078 8.92335 6.012 10.7557 7.51301 11.9532C3.49365 13.5536 0.800781 17.4369 0.800781 21.875V31.25V31.5H1.05078H1.95078H2.20078V31.25V21.875C2.20078 17.5511 5.1384 13.8368 9.34803 12.8384C9.64027 12.77 9.85585 12.5213 9.88342 12.2236C9.91229 11.9241 9.7467 11.6402 9.4711 11.5178L30.4886 11.9545ZM23.2463 30.4956L23.4231 30.3188L23.2463 30.142L22.6088 29.5045L22.432 29.3277L22.2552 29.5045L17.7508 34.0102L15.7451 32.0045L15.5681 31.8275L15.3913 32.0047L14.7551 32.6422L14.5786 32.819L14.7553 32.9956L17.574 35.8131L17.7508 35.9898L17.9275 35.8131L23.2463 30.4956Z" fill="#A56EFF" stroke="#A56EFF" stroke-width="0.5"/>
</svg>
