<svg width="24" height="24" viewBox="0 0 32 37" fill="none" xmlns="http://www.w3.org/2000/svg">
<path d="M14.1908 8.5913L14.3727 8.67431C14.7877 7.76475 14.876 6.72946 14.8949 5.90005H16.7508H16.9508V5.70005V4.80005V4.60005H16.7508H14.899C14.8865 3.59407 14.8105 2.71495 14.3017 2.04081L14.3016 2.04069C13.6504 1.17932 12.47 0.850049 10.5008 0.850049C8.59875 0.850049 7.47802 1.16883 6.84451 1.86567C6.24898 2.52074 6.13025 3.46392 6.10652 4.60005H4.25078H4.05078V4.80005V5.70005V5.90005H4.25078H6.10748C6.13184 6.78432 6.24497 7.97169 6.79337 8.9682C7.09069 9.50846 7.5168 9.99443 8.12488 10.3441C8.73245 10.6934 9.5101 10.9 10.5008 10.9C11.4326 10.9 12.2324 10.7175 12.8861 10.3438C13.5419 9.96899 14.0388 9.40852 14.3728 8.67411L14.1908 8.5913ZM14.1908 8.5913C13.5545 9.99005 12.3133 10.7 10.5008 10.7C6.65078 10.7 6.33078 7.4913 6.30328 5.70005H14.6983C14.6883 6.55505 14.6208 7.6488 14.1908 8.5913ZM27.2008 36.7001H27.4008V36.5V14.65H30.5008C30.86 14.65 31.1508 14.3593 31.1508 14V6.50005C31.1508 6.39899 31.1273 6.29962 31.0822 6.20936C31.049 6.14301 30.6856 5.43411 29.9757 4.7393C29.2647 4.04348 28.1932 3.35005 26.7508 3.35005C25.3084 3.35005 24.2369 4.04348 23.5259 4.7393C22.8159 5.43411 22.4526 6.14301 22.4194 6.20935L22.418 6.21225C22.3765 6.2986 22.3508 6.39677 22.3508 6.50005V14C22.3508 14.3593 22.6416 14.65 23.0008 14.65H26.0995V22.1H19.9008V17.125C19.9008 14.4446 17.5562 12.1 14.8758 12.1H6.12578C3.40032 12.1 1.10078 14.3996 1.10078 17.125V31.5C1.10078 32.548 1.95282 33.4001 3.00078 33.4001H3.60078V36.5V36.7001H3.80078H4.70078H4.90078V36.5V20.9H16.1008V36.5V36.7001H16.3008H17.2008H17.4008V36.5V25.9001H26.1008V36.5V36.7001H26.3008H27.2008ZM3.80078 15.05H3.60078V15.25V32.1H3.00078C2.66999 32.1 2.40078 31.8308 2.40078 31.5V17.125C2.40078 15.108 4.10874 13.4 6.12578 13.4H7.35078V19.6H4.90078V15.25V15.05H4.70078H3.80078ZM16.3008 15.05H16.1008V15.25V19.6H13.6508V13.4H14.8758C16.8191 13.4 18.6008 15.1805 18.6008 17.125V22.75C18.6008 23.1093 18.8916 23.4001 19.2508 23.4001H26.1008V24.6H17.4008V15.25V15.05H17.2008H16.3008ZM13.19 8.13599L13.19 8.13601C12.9644 8.63212 12.6371 8.99334 12.2018 9.23315C11.7635 9.4746 11.2025 9.60005 10.5008 9.60005C9.13793 9.60005 8.39676 9.11596 7.97571 8.41912C7.57042 7.74837 7.44304 6.85193 7.41014 5.90005H7.48786H8.2348H10.5014H12.768H13.515H13.5946C13.5763 6.6344 13.501 7.45226 13.19 8.13599ZM13.2623 2.82411L13.2624 2.82424C13.3989 3.00527 13.4847 3.25325 13.5349 3.58753C13.5778 3.87383 13.5928 4.20963 13.5978 4.60005H7.40391C7.40983 4.16095 7.42835 3.79847 7.48464 3.49648C7.54866 3.15302 7.65865 2.90504 7.83999 2.71929C8.02212 2.53272 8.29608 2.38864 8.72668 2.29223C9.15866 2.19551 9.7334 2.15005 10.5008 2.15005C11.3076 2.15005 11.9205 2.20796 12.3746 2.32511C12.8284 2.44221 13.1035 2.61321 13.2623 2.82411ZM12.3508 13.4V19.6H8.65078V13.4H12.3508ZM29.8495 13.35H23.6508V6.66942C23.7842 6.44591 24.1028 5.96432 24.5968 5.52716C25.1267 5.05812 25.8468 4.65005 26.7508 4.65005C27.6547 4.65005 28.3748 5.05812 28.9046 5.52714C29.3985 5.96437 29.7168 6.44602 29.8495 6.66921V13.35ZM6.75078 29.6501H14.2508C14.61 29.6501 14.9008 29.3593 14.9008 29V22.75C14.9008 22.3908 14.61 22.1 14.2508 22.1H6.75078C6.39157 22.1 6.10078 22.3908 6.10078 22.75V29C6.10078 29.3593 6.39157 29.6501 6.75078 29.6501ZM13.6008 23.4001V28.35H7.40078V23.4001H13.6008Z" fill="#A56EFF" stroke="#A56EFF" stroke-width="0.4"/>
</svg>
