<svg width="24" height="24" viewBox="0 0 222 225" fill="none" xmlns="http://www.w3.org/2000/svg">
<path d="M200.88 152.89C194.75 155.25 184.38 157.84 173.31 160.43C169.3 167.03 162 172.45 150.69 174.57C148.1 175.04 145.03 175.28 141.73 175.51C133.95 175.75 124.53 175.04 114.16 174.1C113.45 174.1 112.75 173.86 112.04 173.86C109.45 173.62 107.33 171.74 107.09 169.15C106.85 166.09 109.45 163.49 112.51 163.73C113.22 163.73 114.16 163.97 114.87 163.97C128.07 165.15 140.79 166.09 148.57 164.68C163.18 162.09 167.42 152.9 166.48 145.59C165.77 139.46 161.3 133.57 153.99 134.04C143.62 134.75 131.6 134.04 119.82 133.1C106.39 132.16 92.4797 131.69 82.5897 132.86C71.7497 134.04 49.3598 142.29 29.7998 155.48C20.8498 162.07 10.0098 169.85 3.63979 174.56C0.339791 176.92 -0.370244 181.63 2.22976 184.93L30.7398 221.93C33.0998 224.99 37.8098 225.7 40.8698 223.34L51.4697 215.33C54.0597 213.44 57.1297 212.74 60.1897 213.68C79.2797 219.81 99.7797 223.81 113.21 224.52C142.43 225.93 198.51 191.53 214.54 180.22C230.34 168.91 218.79 146.29 200.88 152.89Z" fill="#A36EFF"/>
<path d="M114.4 0.660004C103.56 0.660004 94.5999 9.62 94.6099 20.69V94.21C94.6099 105.05 103.33 114 114.4 114H187.92C198.76 114 207.71 105.28 207.71 94.21V20.45C207.71 9.61001 198.99 0.660004 187.92 0.660004H114.4ZM127.59 71.59C126.65 70.65 126.65 69 127.59 67.82L133.48 61.93C134.66 60.99 136.31 60.99 137.25 61.93L144.79 69.24V23.05C144.79 21.64 145.97 20.46 147.38 20.46H155.63C157.04 20.46 158.22 21.64 158.22 23.05V69.24L165.52 61.94C166.7 61 168.35 61 169.29 61.94L175.18 67.83C176.12 69.01 176.12 70.66 175.18 71.6L153.27 93.51C152.09 94.45 150.44 94.45 149.5 93.51L127.59 71.59Z" fill="#A36EFF"/>
<path d="M192.8 11.32H117.89V95.14H192.8V11.32Z" fill="#A36EFF"/>
<path d="M160.93 83.26C160.14 82.52 159.34 81.78 158.54 81.04C156.63 79.26 154.72 77.48 152.81 75.71C150.5 73.57 148.2 71.42 145.9 69.28C143.9 67.42 141.9 65.56 139.9 63.7C138.93 62.8 137.97 61.88 136.98 60.99L136.94 60.95C137.33 61.87 137.71 62.8 138.09 63.73V61.86L134.16 65.79H137.98C139.29 65.79 140.61 65.84 141.93 65.78C145.08 65.64 148.23 64.72 150.88 62.98C153.43 61.31 155.63 59.03 157.05 56.32C158.51 53.53 159.31 50.34 159.14 47.18C158.98 44.06 158.07 40.94 156.35 38.32C154.67 35.75 152.36 33.52 149.61 32.11C147.01 30.77 144.16 30.05 141.23 30.04H132.77H132.5C131.49 30.04 130.44 30.48 129.72 31.19C129.04 31.87 128.53 32.99 128.57 33.97C128.62 34.99 128.95 36.04 129.72 36.75C130.49 37.46 131.44 37.9 132.5 37.9H140.78C141.55 37.9 142.33 37.92 143.09 38.02C142.74 37.97 142.4 37.93 142.04 37.88C143.27 38.04 144.47 38.37 145.62 38.85C145.31 38.72 144.99 38.59 144.68 38.46C145.8 38.94 146.85 39.55 147.81 40.29C147.55 40.09 147.28 39.88 147.02 39.67C147.95 40.4 148.78 41.23 149.51 42.16C149.31 41.9 149.1 41.63 148.89 41.37C149.63 42.33 150.25 43.38 150.72 44.5C150.59 44.19 150.46 43.87 150.33 43.56C150.81 44.71 151.14 45.91 151.3 47.14C151.25 46.79 151.21 46.45 151.16 46.09C151.32 47.3 151.32 48.52 151.16 49.73C151.21 49.38 151.25 49.04 151.3 48.68C151.14 49.91 150.81 51.11 150.33 52.26C150.46 51.95 150.59 51.63 150.72 51.32C150.24 52.44 149.63 53.49 148.89 54.45C149.09 54.19 149.3 53.92 149.51 53.66C148.78 54.59 147.95 55.42 147.02 56.15C147.28 55.95 147.55 55.74 147.81 55.53C146.85 56.27 145.8 56.89 144.68 57.36C144.99 57.23 145.31 57.1 145.62 56.97C144.47 57.45 143.27 57.78 142.04 57.94C142.39 57.89 142.73 57.85 143.09 57.8C141.92 57.95 140.75 57.92 139.58 57.92H135.24H134.15C132.03 57.92 130.22 59.72 130.22 61.85C130.22 62.46 130.21 63.07 130.22 63.68C130.23 64.79 130.69 65.87 131.5 66.62C131.92 67.01 132.34 67.4 132.76 67.79C134.59 69.49 136.42 71.19 138.25 72.89C140.67 75.14 143.1 77.4 145.52 79.66C147.7 81.69 149.89 83.72 152.07 85.75C153.15 86.76 154.23 87.77 155.31 88.77C155.32 88.78 155.34 88.8 155.36 88.81C156.11 89.51 157.1 89.96 158.14 89.96C159.1 89.96 160.26 89.53 160.92 88.81C161.61 88.06 162.12 87.08 162.07 86.03C162.04 85.02 161.7 83.98 160.93 83.26Z" fill="white"/>
<path d="M132.51 37.89H135.97H144.29H154.31H163C164.41 37.89 165.82 37.9 167.22 37.89H167.28C168.29 37.89 169.34 37.45 170.06 36.74C170.74 36.06 171.25 34.94 171.21 33.96C171.16 32.94 170.83 31.89 170.06 31.18C169.29 30.47 168.34 30.03 167.28 30.03H163.82H155.5H145.48H136.79C135.38 30.03 133.97 30.02 132.57 30.03H132.51C131.5 30.03 130.45 30.47 129.73 31.18C129.05 31.86 128.54 32.98 128.58 33.96C128.63 34.98 128.96 36.03 129.73 36.74C130.5 37.44 131.45 37.89 132.51 37.89Z" fill="white"/>
<path d="M132.51 51.84H135.97H144.29H154.31H163C164.41 51.84 165.82 51.85 167.22 51.84H167.28C168.29 51.84 169.34 51.4 170.06 50.69C170.74 50.01 171.25 48.89 171.21 47.91C171.16 46.89 170.83 45.84 170.06 45.13C169.29 44.42 168.34 43.98 167.28 43.98H163.82H155.5H145.48H136.79C135.38 43.98 133.97 43.97 132.57 43.98H132.51C131.5 43.98 130.45 44.42 129.73 45.13C129.05 45.81 128.54 46.93 128.58 47.91C128.63 48.93 128.96 49.98 129.73 50.69C130.5 51.39 131.45 51.84 132.51 51.84Z" fill="white"/>
</svg>
