<svg width="24" height="24" viewBox="0 0 30 31" fill="none" xmlns="http://www.w3.org/2000/svg">
<path d="M28.75 11.75C29.0815 11.75 29.3995 11.6183 29.6339 11.3838C29.8683 11.1494 30 10.8315 30 10.5V6.74996C29.9999 6.49306 29.9206 6.24244 29.773 6.0322C29.6254 5.82196 29.4166 5.6623 29.175 5.57496L15.425 0.574956C15.1504 0.475666 14.8496 0.475666 14.575 0.574956L0.825 5.57496C0.583412 5.6623 0.374601 5.82196 0.226983 6.0322C0.0793654 6.24244 0.000109299 6.49306 0 6.74996V10.5C0 10.8315 0.131696 11.1494 0.366117 11.3838C0.600537 11.6183 0.918479 11.75 1.25 11.75H2.5V28H0V30.5H30V28H27.5V11.75H28.75ZM2.5 7.62496L15 3.07496L27.5 7.62496V9.24996H2.5V7.62496ZM17.5 28H12.5V11.75H17.5V28ZM5 11.75H10V28H5V11.75ZM25 28H20V11.75H25V28Z" fill="#A56EFF"/>
</svg>
