<svg width="1920" height="1080" viewBox="0 0 1920 1080" fill="none" xmlns="http://www.w3.org/2000/svg">
<g clip-path="url(#clip0_30_766)">
<circle cx="1613.89" cy="354.892" r="318.964" transform="rotate(-105 1613.89 354.892)" stroke="#A56EFF" stroke-width="8.03" stroke-linecap="round" stroke-dasharray="18.06 36.11 54.17 72.23"/>
<circle cx="1613.89" cy="354.891" r="401.292" transform="rotate(-105 1613.89 354.891)" stroke="#F0B928" stroke-width="8.03"/>
<circle cx="1613.89" cy="354.89" r="483.621" transform="rotate(-105 1613.89 354.89)" stroke="#FA4D56" stroke-width="8.03" stroke-linecap="round" stroke-dasharray="18.06 36.11 54.17 72.23"/>
<circle cx="1613.89" cy="354.891" r="572.282" transform="rotate(-105 1613.89 354.891)" stroke="#EE5396" stroke-width="8.03"/>
<circle cx="1613.89" cy="354.89" r="648.277" transform="rotate(-105 1613.89 354.89)" stroke="#A56EFF" stroke-width="8.03" stroke-linecap="round" stroke-linejoin="round" stroke-dasharray="18.06 36.11 54.17 72.23"/>
<g clip-path="url(#clip1_30_766)">
<path d="M888.298 357.263C885.348 356.69 883.414 353.823 883.988 350.873C884.244 349.557 884.957 348.442 885.929 347.665L882.528 342.622C880.907 343.586 878.94 343.983 876.947 343.596C874.953 343.208 873.279 342.104 872.139 340.601L867.096 344.003C867.706 345.089 867.949 346.389 867.693 347.706C867.119 350.655 864.253 352.589 861.303 352.016C858.353 351.442 856.42 348.576 856.993 345.626C857.566 342.676 860.433 340.743 863.383 341.316C864.7 341.572 865.813 342.285 866.591 343.258L871.634 339.856C870.67 338.235 870.273 336.268 870.66 334.275C871.047 332.282 872.152 330.607 873.654 329.467L870.252 324.424C869.166 325.034 867.867 325.277 866.55 325.021C863.601 324.448 861.667 321.581 862.24 318.631C862.814 315.681 865.68 313.748 868.63 314.321C871.58 314.895 873.513 317.761 872.94 320.711C872.684 322.028 871.972 323.141 871 323.92L874.401 328.963C876.021 327.998 877.988 327.601 879.981 327.988C881.974 328.375 883.649 329.48 884.789 330.982L889.832 327.582C889.222 326.495 888.979 325.195 889.235 323.878C889.808 320.929 892.675 318.995 895.625 319.568C898.575 320.142 900.508 323.008 899.935 325.958C899.361 328.908 896.495 330.842 893.545 330.268C892.23 330.012 891.115 329.3 890.336 328.328L885.293 331.729C886.259 333.35 886.656 335.316 886.269 337.309C885.882 339.302 884.777 340.977 883.274 342.117L886.676 347.16C887.762 346.549 889.061 346.306 890.378 346.562C893.328 347.135 895.261 350.002 894.688 352.952C894.114 355.901 891.248 357.836 888.298 357.263ZM890.206 347.447C887.743 346.968 885.35 348.582 884.871 351.045C884.393 353.508 886.007 355.901 888.47 356.379C890.932 356.858 893.325 355.244 893.804 352.781C894.283 350.319 892.669 347.925 890.206 347.447ZM863.211 342.199C860.749 341.721 858.355 343.335 857.877 345.798C857.398 348.26 859.012 350.653 861.475 351.132C863.937 351.611 866.331 349.997 866.809 347.534C867.288 345.071 865.674 342.678 863.211 342.199ZM879.809 328.872C875.993 328.13 872.285 330.631 871.544 334.447C870.802 338.263 873.303 341.971 877.119 342.712C880.935 343.454 884.642 340.955 885.384 337.137C886.126 333.321 883.625 329.613 879.809 328.872ZM895.453 320.452C892.991 319.973 890.597 321.587 890.119 324.05C889.64 326.513 891.254 328.906 893.717 329.385C896.179 329.863 898.573 328.249 899.051 325.786C899.53 323.324 897.916 320.931 895.453 320.452ZM868.458 315.205C865.996 314.726 863.603 316.34 863.124 318.803C862.645 321.266 864.259 323.659 866.722 324.137C869.185 324.616 871.578 323.002 872.057 320.539C872.535 318.077 870.921 315.683 868.458 315.205Z" fill="#A56EFF"/>
<path d="M888.298 357.263C885.348 356.69 883.414 353.823 883.988 350.873C884.244 349.557 884.957 348.442 885.929 347.665L882.528 342.622C880.907 343.586 878.94 343.983 876.947 343.596C874.953 343.208 873.279 342.104 872.139 340.601L867.096 344.003C867.706 345.089 867.949 346.389 867.693 347.706C867.119 350.655 864.253 352.589 861.303 352.016C858.353 351.442 856.42 348.576 856.993 345.626C857.566 342.676 860.433 340.743 863.383 341.316C864.7 341.572 865.813 342.285 866.591 343.258L871.634 339.856C870.67 338.235 870.273 336.268 870.66 334.275C871.047 332.282 872.152 330.607 873.654 329.467L870.252 324.424C869.166 325.034 867.867 325.277 866.55 325.021C863.601 324.448 861.667 321.581 862.24 318.631C862.814 315.681 865.68 313.748 868.63 314.321C871.58 314.895 873.513 317.761 872.94 320.711C872.684 322.028 871.972 323.141 871 323.92L874.401 328.963C876.021 327.998 877.988 327.601 879.981 327.988C881.974 328.375 883.649 329.48 884.789 330.982L889.832 327.582C889.222 326.495 888.979 325.195 889.235 323.878C889.808 320.929 892.675 318.995 895.625 319.568C898.575 320.142 900.508 323.008 899.935 325.958C899.361 328.908 896.495 330.842 893.545 330.268C892.23 330.012 891.115 329.3 890.336 328.328L885.293 331.729C886.259 333.35 886.656 335.316 886.269 337.309C885.882 339.302 884.777 340.977 883.274 342.117L886.676 347.16C887.762 346.549 889.061 346.306 890.378 346.562C893.328 347.135 895.261 350.002 894.688 352.952C894.114 355.901 891.248 357.836 888.298 357.263ZM890.206 347.447C887.743 346.968 885.35 348.582 884.871 351.045C884.393 353.508 886.007 355.901 888.47 356.379C890.932 356.858 893.325 355.244 893.804 352.781C894.283 350.319 892.669 347.925 890.206 347.447ZM863.211 342.199C860.749 341.721 858.355 343.335 857.877 345.798C857.398 348.26 859.012 350.653 861.475 351.132C863.937 351.611 866.331 349.997 866.809 347.534C867.288 345.071 865.674 342.678 863.211 342.199ZM879.809 328.872C875.993 328.13 872.285 330.631 871.544 334.447C870.802 338.263 873.303 341.971 877.119 342.712C880.935 343.454 884.642 340.955 885.384 337.137C886.126 333.321 883.625 329.613 879.809 328.872ZM895.453 320.452C892.991 319.973 890.597 321.587 890.119 324.05C889.64 326.513 891.254 328.906 893.717 329.385C896.179 329.863 898.573 328.249 899.051 325.786C899.53 323.324 897.916 320.931 895.453 320.452ZM868.458 315.205C865.996 314.726 863.603 316.34 863.124 318.803C862.645 321.266 864.259 323.659 866.722 324.137C869.185 324.616 871.578 323.002 872.057 320.539C872.535 318.077 870.921 315.683 868.458 315.205Z" fill="#A56EFF"/>
</g>
<g clip-path="url(#clip2_30_766)">
<path d="M562.024 194.694C559.15 195.573 556.097 193.949 555.219 191.075C554.827 189.793 554.933 188.474 555.427 187.331L550.056 184.475C549.077 186.088 547.527 187.362 545.586 187.956C543.643 188.549 541.647 188.36 539.934 187.568L537.078 192.939C538.127 193.612 538.952 194.646 539.344 195.929C540.223 198.803 538.599 201.856 535.726 202.734C532.852 203.613 529.799 201.989 528.92 199.116C528.042 196.242 529.665 193.189 532.539 192.31C533.821 191.918 535.139 192.025 536.283 192.518L539.139 187.148C537.526 186.169 536.252 184.619 535.659 182.677C535.065 180.736 535.254 178.738 536.045 177.026L530.674 174.171C530.001 175.219 528.968 176.044 527.685 176.436C524.812 177.314 521.759 175.691 520.88 172.817C520.001 169.944 521.625 166.891 524.498 166.012C527.372 165.133 530.425 166.757 531.304 169.63C531.696 170.913 531.59 172.23 531.097 173.375L536.468 176.23C537.445 174.618 538.996 173.344 540.937 172.75C542.878 172.157 544.876 172.346 546.588 173.136L549.444 167.767C548.395 167.094 547.571 166.06 547.178 164.777C546.3 161.903 547.923 158.85 550.797 157.972C553.671 157.093 556.724 158.717 557.602 161.59C558.481 164.464 556.857 167.517 553.984 168.396C552.702 168.787 551.384 168.682 550.24 168.189L547.384 173.56C548.998 174.537 550.272 176.087 550.865 178.028C551.459 179.97 551.269 181.967 550.478 183.68L555.849 186.535C556.521 185.485 557.554 184.661 558.837 184.269C561.71 183.39 564.763 185.014 565.642 187.887C566.521 190.761 564.898 193.815 562.024 194.694ZM559.1 185.131C556.701 185.864 555.346 188.413 556.079 190.812C556.813 193.211 559.362 194.567 561.761 193.833C564.16 193.1 565.515 190.551 564.782 188.152C564.048 185.753 561.499 184.397 559.1 185.131ZM532.802 193.171C530.403 193.905 529.047 196.453 529.781 198.853C530.514 201.252 533.063 202.607 535.462 201.873C537.862 201.14 539.217 198.591 538.483 196.192C537.75 193.793 535.201 192.438 532.802 193.171ZM541.2 173.611C537.482 174.748 535.383 178.697 536.519 182.414C537.656 186.132 541.605 188.232 545.322 187.095C549.04 185.958 551.14 182.011 550.003 178.292C548.867 174.574 544.918 172.474 541.2 173.611ZM551.06 158.832C548.661 159.566 547.306 162.115 548.039 164.514C548.773 166.913 551.321 168.268 553.721 167.535C556.12 166.801 557.475 164.253 556.741 161.853C556.008 159.454 553.459 158.099 551.06 158.832ZM524.762 166.873C522.362 167.606 521.007 170.155 521.741 172.554C522.474 174.953 525.023 176.309 527.422 175.575C529.821 174.842 531.177 172.293 530.443 169.894C529.71 167.494 527.161 166.139 524.762 166.873Z" fill="#A56EFF"/>
<path d="M562.024 194.694C559.15 195.573 556.097 193.949 555.219 191.075C554.827 189.793 554.933 188.474 555.427 187.331L550.056 184.475C549.077 186.088 547.527 187.362 545.586 187.956C543.643 188.549 541.647 188.36 539.934 187.568L537.078 192.939C538.127 193.612 538.952 194.646 539.344 195.929C540.223 198.803 538.599 201.856 535.726 202.734C532.852 203.613 529.799 201.989 528.92 199.116C528.042 196.242 529.665 193.189 532.539 192.31C533.821 191.918 535.139 192.025 536.283 192.518L539.139 187.148C537.526 186.169 536.252 184.619 535.659 182.677C535.065 180.736 535.254 178.738 536.045 177.026L530.674 174.171C530.001 175.219 528.968 176.044 527.685 176.436C524.812 177.314 521.759 175.691 520.88 172.817C520.001 169.944 521.625 166.891 524.498 166.012C527.372 165.133 530.425 166.757 531.304 169.63C531.696 170.913 531.59 172.23 531.097 173.375L536.468 176.23C537.445 174.618 538.996 173.344 540.937 172.75C542.878 172.157 544.876 172.346 546.588 173.136L549.444 167.767C548.395 167.094 547.571 166.06 547.178 164.777C546.3 161.903 547.923 158.85 550.797 157.972C553.671 157.093 556.724 158.717 557.602 161.59C558.481 164.464 556.857 167.517 553.984 168.396C552.702 168.787 551.384 168.682 550.24 168.189L547.384 173.56C548.998 174.537 550.272 176.087 550.865 178.028C551.459 179.97 551.269 181.967 550.478 183.68L555.849 186.535C556.521 185.485 557.554 184.661 558.837 184.269C561.71 183.39 564.763 185.014 565.642 187.887C566.521 190.761 564.898 193.815 562.024 194.694ZM559.1 185.131C556.701 185.864 555.346 188.413 556.079 190.812C556.813 193.211 559.362 194.567 561.761 193.833C564.16 193.1 565.515 190.551 564.782 188.152C564.048 185.753 561.499 184.397 559.1 185.131ZM532.802 193.171C530.403 193.905 529.047 196.453 529.781 198.853C530.514 201.252 533.063 202.607 535.462 201.873C537.862 201.14 539.217 198.591 538.483 196.192C537.75 193.793 535.201 192.438 532.802 193.171ZM541.2 173.611C537.482 174.748 535.383 178.697 536.519 182.414C537.656 186.132 541.605 188.232 545.322 187.095C549.04 185.958 551.14 182.011 550.003 178.292C548.867 174.574 544.918 172.474 541.2 173.611ZM551.06 158.832C548.661 159.566 547.306 162.115 548.039 164.514C548.773 166.913 551.321 168.268 553.721 167.535C556.12 166.801 557.475 164.253 556.741 161.853C556.008 159.454 553.459 158.099 551.06 158.832ZM524.762 166.873C522.362 167.606 521.007 170.155 521.741 172.554C522.474 174.953 525.023 176.309 527.422 175.575C529.821 174.842 531.177 172.293 530.443 169.894C529.71 167.494 527.161 166.139 524.762 166.873Z" fill="#A56EFF"/>
</g>
<g clip-path="url(#clip3_30_766)">
<path d="M1160.74 920.407C1157.86 921.285 1154.81 919.662 1153.93 916.788C1153.54 915.506 1153.65 914.187 1154.14 913.044L1148.77 910.188C1147.79 911.801 1146.24 913.075 1144.3 913.668C1142.36 914.262 1140.36 914.073 1138.65 913.281L1135.79 918.652C1136.84 919.325 1137.66 920.359 1138.06 921.642C1138.94 924.515 1137.31 927.568 1134.44 928.447C1131.56 929.326 1128.51 927.702 1127.63 924.829C1126.75 921.955 1128.38 918.902 1131.25 918.023C1132.53 917.631 1133.85 917.738 1135 918.231L1137.85 912.861C1136.24 911.882 1134.96 910.332 1134.37 908.39C1133.78 906.449 1133.97 904.451 1134.76 902.739L1129.39 899.883C1128.71 900.932 1127.68 901.757 1126.4 902.149C1123.52 903.027 1120.47 901.404 1119.59 898.53C1118.71 895.657 1120.34 892.604 1123.21 891.725C1126.09 890.846 1129.14 892.47 1130.02 895.343C1130.41 896.626 1130.3 897.943 1129.81 899.087L1135.18 901.943C1136.16 900.331 1137.71 899.057 1139.65 898.463C1141.59 897.87 1143.59 898.059 1145.3 898.849L1148.16 893.479C1147.11 892.807 1146.28 891.773 1145.89 890.49C1145.01 887.616 1146.64 884.563 1149.51 883.685C1152.38 882.806 1155.44 884.429 1156.32 887.303C1157.19 890.177 1155.57 893.23 1152.7 894.108C1151.42 894.5 1150.1 894.395 1148.95 893.902L1146.1 899.272C1147.71 900.25 1148.98 901.8 1149.58 903.741C1150.17 905.682 1149.98 907.68 1149.19 909.393L1154.56 912.248C1155.23 911.198 1156.27 910.374 1157.55 909.982C1160.42 909.103 1163.48 910.727 1164.35 913.6C1165.23 916.474 1163.61 919.528 1160.74 920.407ZM1157.81 910.844C1155.41 911.577 1154.06 914.126 1154.79 916.525C1155.53 918.924 1158.07 920.28 1160.47 919.546C1162.87 918.813 1164.23 916.264 1163.49 913.865C1162.76 911.466 1160.21 910.11 1157.81 910.844ZM1131.51 918.884C1129.12 919.617 1127.76 922.166 1128.49 924.565C1129.23 926.965 1131.78 928.32 1134.18 927.586C1136.57 926.853 1137.93 924.304 1137.2 921.905C1136.46 919.506 1133.91 918.151 1131.51 918.884ZM1139.91 899.324C1136.2 900.461 1134.1 904.409 1135.23 908.127C1136.37 911.845 1140.32 913.944 1144.04 912.808C1147.75 911.671 1149.85 907.723 1148.72 904.005C1147.58 900.287 1143.63 898.187 1139.91 899.324ZM1149.77 884.545C1147.37 885.279 1146.02 887.828 1146.75 890.227C1147.49 892.626 1150.03 893.981 1152.43 893.248C1154.83 892.514 1156.19 889.965 1155.45 887.566C1154.72 885.167 1152.17 883.812 1149.77 884.545ZM1123.47 892.586C1121.08 893.319 1119.72 895.868 1120.45 898.267C1121.19 900.666 1123.74 902.021 1126.14 901.288C1128.53 900.554 1129.89 898.006 1129.16 895.607C1128.42 893.207 1125.87 891.852 1123.47 892.586Z" fill="#A56EFF"/>
<path d="M1160.74 920.407C1157.86 921.285 1154.81 919.662 1153.93 916.788C1153.54 915.506 1153.65 914.187 1154.14 913.044L1148.77 910.188C1147.79 911.801 1146.24 913.075 1144.3 913.668C1142.36 914.262 1140.36 914.073 1138.65 913.281L1135.79 918.652C1136.84 919.325 1137.66 920.359 1138.06 921.642C1138.94 924.515 1137.31 927.568 1134.44 928.447C1131.56 929.326 1128.51 927.702 1127.63 924.829C1126.75 921.955 1128.38 918.902 1131.25 918.023C1132.53 917.631 1133.85 917.738 1135 918.231L1137.85 912.861C1136.24 911.882 1134.96 910.332 1134.37 908.39C1133.78 906.449 1133.97 904.451 1134.76 902.739L1129.39 899.883C1128.71 900.932 1127.68 901.757 1126.4 902.149C1123.52 903.027 1120.47 901.404 1119.59 898.53C1118.71 895.657 1120.34 892.604 1123.21 891.725C1126.09 890.846 1129.14 892.47 1130.02 895.343C1130.41 896.626 1130.3 897.943 1129.81 899.087L1135.18 901.943C1136.16 900.331 1137.71 899.057 1139.65 898.463C1141.59 897.87 1143.59 898.059 1145.3 898.849L1148.16 893.479C1147.11 892.807 1146.28 891.773 1145.89 890.49C1145.01 887.616 1146.64 884.563 1149.51 883.685C1152.38 882.806 1155.44 884.429 1156.32 887.303C1157.19 890.177 1155.57 893.23 1152.7 894.108C1151.42 894.5 1150.1 894.395 1148.95 893.902L1146.1 899.272C1147.71 900.25 1148.98 901.8 1149.58 903.741C1150.17 905.682 1149.98 907.68 1149.19 909.393L1154.56 912.248C1155.23 911.198 1156.27 910.374 1157.55 909.982C1160.42 909.103 1163.48 910.727 1164.35 913.6C1165.23 916.474 1163.61 919.528 1160.74 920.407ZM1157.81 910.844C1155.41 911.577 1154.06 914.126 1154.79 916.525C1155.53 918.924 1158.07 920.28 1160.47 919.546C1162.87 918.813 1164.23 916.264 1163.49 913.865C1162.76 911.466 1160.21 910.11 1157.81 910.844ZM1131.51 918.884C1129.12 919.617 1127.76 922.166 1128.49 924.565C1129.23 926.965 1131.78 928.32 1134.18 927.586C1136.57 926.853 1137.93 924.304 1137.2 921.905C1136.46 919.506 1133.91 918.151 1131.51 918.884ZM1139.91 899.324C1136.2 900.461 1134.1 904.409 1135.23 908.127C1136.37 911.845 1140.32 913.944 1144.04 912.808C1147.75 911.671 1149.85 907.723 1148.72 904.005C1147.58 900.287 1143.63 898.187 1139.91 899.324ZM1149.77 884.545C1147.37 885.279 1146.02 887.828 1146.75 890.227C1147.49 892.626 1150.03 893.981 1152.43 893.248C1154.83 892.514 1156.19 889.965 1155.45 887.566C1154.72 885.167 1152.17 883.812 1149.77 884.545ZM1123.47 892.586C1121.08 893.319 1119.72 895.868 1120.45 898.267C1121.19 900.666 1123.74 902.021 1126.14 901.288C1128.53 900.554 1129.89 898.006 1129.16 895.607C1128.42 893.207 1125.87 891.852 1123.47 892.586Z" fill="#A56EFF"/>
</g>
<path d="M74.9248 216.77V214.285C74.4586 214.103 74.1248 213.656 74.1248 213.126C74.1248 212.436 74.6848 211.876 75.3748 211.876C76.0648 211.876 76.6248 212.436 76.6248 213.126C76.6248 213.656 76.2923 214.103 75.8248 214.285V216.77C75.8248 217.018 75.6236 217.22 75.3748 217.22C75.1261 217.22 74.9248 217.018 74.9248 216.77ZM85.1998 205.001V223.751C85.1998 224 84.9986 224.201 84.7498 224.201H65.9998C65.7511 224.201 65.5498 224 65.5498 223.751V208.751H66.4498V223.301H84.2998V205.451H47.2498C47.0011 205.451 46.7998 205.25 46.7998 205.001V186.251C46.7998 186.002 47.0011 185.801 47.2498 185.801H65.9998C66.2486 185.801 66.4498 186.002 66.4498 186.251V201.251H65.5498V186.701H47.6998V204.551H50.5498V201.252C50.5498 198.845 52.0073 196.678 54.1848 195.718C53.4723 195.051 53.0536 194.117 53.0536 193.126C53.0536 191.155 54.6573 189.551 56.6286 189.551C58.5998 189.551 60.2036 191.155 60.2036 193.126C60.2036 194.118 59.7848 195.053 59.0698 195.72C61.2448 196.682 62.6998 198.847 62.6998 201.252V204.551H70.5498V199.376C70.5498 196.716 72.7136 194.551 75.3736 194.551C78.0348 194.551 80.1998 196.715 80.1998 199.376L80.1986 204.551H84.7498C84.9986 204.551 85.1998 204.752 85.1998 205.001ZM61.7998 201.252C61.7998 198.956 60.2373 196.915 57.9986 196.29C57.8223 196.24 57.6936 196.09 57.6723 195.907C57.6511 195.726 57.7436 195.55 57.9036 195.462C58.7661 194.988 59.3036 194.093 59.3036 193.126C59.3036 191.651 58.1036 190.451 56.6286 190.451C55.1536 190.451 53.9536 191.651 53.9536 193.126C53.9536 194.092 54.4898 194.987 55.3523 195.461C55.5123 195.548 55.6036 195.725 55.5823 195.907C55.5598 196.088 55.4311 196.24 55.2548 196.288C53.0148 196.912 51.4498 198.953 51.4498 201.252V204.551H61.7998C61.7998 204.551 61.7998 201.252 61.7998 201.252ZM79.2998 199.376C79.2998 197.212 77.5398 195.451 75.3748 195.451C73.2098 195.451 71.4498 197.212 71.4498 199.376V204.551H79.2973L79.2998 199.376Z" fill="#A56EFF"/>
<path d="M510.925 897.77V895.285C510.459 895.103 510.125 894.656 510.125 894.126C510.125 893.436 510.685 892.876 511.375 892.876C512.065 892.876 512.625 893.436 512.625 894.126C512.625 894.656 512.292 895.103 511.825 895.285V897.77C511.825 898.018 511.624 898.22 511.375 898.22C511.126 898.22 510.925 898.018 510.925 897.77ZM521.2 886.001V904.751C521.2 905 520.999 905.201 520.75 905.201H502C501.751 905.201 501.55 905 501.55 904.751V889.751H502.45V904.301H520.3V886.451H483.25C483.001 886.451 482.8 886.25 482.8 886.001V867.251C482.8 867.002 483.001 866.801 483.25 866.801H502C502.249 866.801 502.45 867.002 502.45 867.251V882.251H501.55V867.701H483.7V885.551H486.55V882.252C486.55 879.845 488.007 877.678 490.185 876.718C489.472 876.051 489.054 875.117 489.054 874.126C489.054 872.155 490.657 870.551 492.629 870.551C494.6 870.551 496.204 872.155 496.204 874.126C496.204 875.118 495.785 876.053 495.07 876.72C497.245 877.682 498.7 879.847 498.7 882.252V885.551H506.55V880.376C506.55 877.716 508.714 875.551 511.374 875.551C514.035 875.551 516.2 877.715 516.2 880.376L516.199 885.551H520.75C520.999 885.551 521.2 885.752 521.2 886.001ZM497.8 882.252C497.8 879.956 496.237 877.915 493.999 877.29C493.822 877.24 493.694 877.09 493.672 876.907C493.651 876.726 493.744 876.55 493.904 876.462C494.766 875.988 495.304 875.093 495.304 874.126C495.304 872.651 494.104 871.451 492.629 871.451C491.154 871.451 489.954 872.651 489.954 874.126C489.954 875.092 490.49 875.987 491.352 876.461C491.512 876.548 491.604 876.725 491.582 876.907C491.56 877.088 491.431 877.24 491.255 877.288C489.015 877.912 487.45 879.953 487.45 882.252V885.551H497.8C497.8 885.551 497.8 882.252 497.8 882.252ZM515.3 880.376C515.3 878.212 513.54 876.451 511.375 876.451C509.21 876.451 507.45 878.212 507.45 880.376V885.551H515.297L515.3 880.376Z" fill="#A56EFF"/>
<path d="M890.925 736.77V734.285C890.459 734.103 890.125 733.656 890.125 733.126C890.125 732.436 890.685 731.876 891.375 731.876C892.065 731.876 892.625 732.436 892.625 733.126C892.625 733.656 892.292 734.103 891.825 734.285V736.77C891.825 737.018 891.624 737.22 891.375 737.22C891.126 737.22 890.925 737.018 890.925 736.77ZM901.2 725.001V743.751C901.2 744 900.999 744.201 900.75 744.201H882C881.751 744.201 881.55 744 881.55 743.751V728.751H882.45V743.301H900.3V725.451H863.25C863.001 725.451 862.8 725.25 862.8 725.001V706.251C862.8 706.002 863.001 705.801 863.25 705.801H882C882.249 705.801 882.45 706.002 882.45 706.251V721.251H881.55V706.701H863.7V724.551H866.55V721.252C866.55 718.845 868.007 716.678 870.185 715.718C869.472 715.051 869.054 714.117 869.054 713.126C869.054 711.155 870.657 709.551 872.629 709.551C874.6 709.551 876.204 711.155 876.204 713.126C876.204 714.118 875.785 715.053 875.07 715.72C877.245 716.682 878.7 718.847 878.7 721.252V724.551H886.55V719.376C886.55 716.716 888.714 714.551 891.374 714.551C894.035 714.551 896.2 716.715 896.2 719.376L896.199 724.551H900.75C900.999 724.551 901.2 724.752 901.2 725.001ZM877.8 721.252C877.8 718.956 876.237 716.915 873.999 716.29C873.822 716.24 873.694 716.09 873.672 715.907C873.651 715.726 873.744 715.55 873.904 715.462C874.766 714.988 875.304 714.093 875.304 713.126C875.304 711.651 874.104 710.451 872.629 710.451C871.154 710.451 869.954 711.651 869.954 713.126C869.954 714.092 870.49 714.987 871.352 715.461C871.512 715.548 871.604 715.725 871.582 715.907C871.56 716.088 871.431 716.24 871.255 716.288C869.015 716.912 867.45 718.953 867.45 721.252V724.551H877.8C877.8 724.551 877.8 721.252 877.8 721.252ZM895.3 719.376C895.3 717.212 893.54 715.451 891.375 715.451C889.21 715.451 887.45 717.212 887.45 719.376V724.551H895.297L895.3 719.376Z" fill="#A56EFF"/>
<g clip-path="url(#clip4_30_766)">
<path d="M622.074 585.648C619.782 579.453 613.318 575.72 606.808 576.832C606.535 576.288 605.907 575.99 605.297 576.154C604.681 576.319 604.287 576.898 604.331 577.513C600.61 578.889 597.695 581.748 596.257 585.434C596.115 585.424 595.97 585.43 595.825 585.469C595.127 585.656 594.712 586.376 594.899 587.074C594.997 587.441 595.244 587.725 595.555 587.89C595.165 589.949 595.225 592.012 595.765 594.027C596.459 596.62 597.877 598.919 599.862 600.707C599.741 600.974 599.703 601.28 599.784 601.584C599.971 602.282 600.691 602.697 601.389 602.51C601.593 602.456 601.769 602.352 601.917 602.219C605.15 604.197 609.061 604.785 612.707 603.808C612.892 603.759 613.002 603.569 612.952 603.383L610.784 595.294C611.28 595.002 611.545 594.411 611.389 593.829C611.233 593.248 610.707 592.868 610.133 592.863L606.296 578.544C606.632 578.347 606.86 578.015 606.924 577.638C610.611 577.724 614.567 582.314 616.235 588.541L616.906 588.362C615.439 582.885 612.216 578.612 608.855 577.329C614.343 577.222 619.467 580.615 621.42 585.878C620.973 586.183 620.74 586.744 620.888 587.296C621.075 587.994 621.795 588.409 622.493 588.222C623.191 588.035 623.606 587.315 623.419 586.618C623.255 586.005 622.683 585.611 622.074 585.648ZM608.858 594.507C609.014 595.089 609.54 595.469 610.114 595.473L612.184 603.198C608.603 603.839 604.398 599.716 602.386 593.539C602.853 593.239 603.099 592.666 602.948 592.102C602.797 591.537 602.296 591.164 601.741 591.139C600.511 585.33 601.709 580.033 604.629 578.252C604.874 578.546 605.239 578.721 605.626 578.723L609.463 593.043C608.968 593.334 608.702 593.926 608.858 594.507ZM601.523 591.845C601.851 591.757 602.19 591.953 602.278 592.281C602.366 592.61 602.171 592.948 601.842 593.036C601.514 593.124 601.175 592.929 601.087 592.6C600.999 592.272 601.194 591.933 601.523 591.845ZM596.005 586.139C596.333 586.051 596.672 586.247 596.76 586.575C596.848 586.904 596.652 587.242 596.324 587.33C595.996 587.418 595.657 587.223 595.569 586.894C595.481 586.566 595.676 586.227 596.005 586.139ZM600.454 601.405C600.366 601.076 600.562 600.738 600.89 600.65C601.219 600.561 601.557 600.757 601.645 601.085C601.733 601.414 601.538 601.753 601.209 601.841C600.881 601.929 600.542 601.733 600.454 601.405ZM602.296 601.638C602.369 601.408 602.382 601.156 602.315 600.906C602.128 600.208 601.408 599.793 600.711 599.98C600.56 600.02 600.426 600.089 600.306 600.173C598.431 598.477 597.092 596.3 596.435 593.847C595.924 591.941 595.866 589.99 596.232 588.042C596.322 588.037 596.413 588.024 596.503 587.999C597.201 587.812 597.617 587.093 597.43 586.395C597.347 586.085 597.155 585.836 596.911 585.665C598.038 582.79 600.116 580.452 602.785 578.984C600.717 581.563 599.999 586.259 601.065 591.289C600.541 591.57 600.257 592.182 600.417 592.78C600.577 593.378 601.13 593.767 601.724 593.748C603.34 598.709 606.361 602.403 609.447 603.572C606.953 603.627 604.466 602.962 602.296 601.638ZM610.719 594.009C610.807 594.337 610.612 594.676 610.283 594.764C609.955 594.852 609.616 594.656 609.528 594.328C609.44 593.999 609.636 593.661 609.964 593.573C610.293 593.485 610.631 593.68 610.719 594.009ZM605.795 578.015C605.467 578.103 605.128 577.907 605.04 577.579C604.952 577.25 605.148 576.912 605.476 576.824C605.805 576.736 606.143 576.931 606.231 577.26C606.319 577.588 606.124 577.927 605.795 578.015ZM622.313 587.551C621.985 587.639 621.646 587.444 621.558 587.115C621.47 586.787 621.665 586.448 621.994 586.36C622.322 586.272 622.661 586.468 622.749 586.796C622.837 587.125 622.641 587.463 622.313 587.551ZM614.665 601.289L617.197 600.61L616.269 597.149L613.737 597.827L614.665 601.289ZM614.587 598.318L615.777 597.999L616.345 600.12L615.155 600.439L614.587 598.318ZM618.387 600.292L620.919 599.613L619.243 593.36L616.711 594.039L618.387 600.292ZM617.561 594.529L618.751 594.21L620.067 599.122L618.877 599.441L617.561 594.529ZM622.109 599.294L624.64 598.616L622.217 589.571L619.685 590.25L622.109 599.294ZM620.535 590.74L621.725 590.421L623.789 598.125L622.599 598.444L620.535 590.74Z" fill="#A56EFF"/>
</g>
<path d="M1540.7 167L1596.17 199.029V263.087L1540.7 295.116L1485.22 263.087V199.029L1540.7 167Z" stroke="url(#paint0_linear_30_766)" stroke-width="2.56233"/>
<path d="M1680.35 167L1735.82 199.029V263.087L1680.35 295.116L1624.87 263.087V199.029L1680.35 167Z" stroke="url(#paint1_linear_30_766)" stroke-width="2.56233"/>
<path d="M1467.99 289.992L1523.47 322.021V386.08L1467.99 418.109L1412.52 386.08V322.021L1467.99 289.992Z" stroke="url(#paint2_linear_30_766)" stroke-width="2.56233"/>
<path d="M1607.64 289.992L1663.12 322.021V386.08L1607.64 418.109L1552.16 386.08V322.021L1607.64 289.992Z" stroke="url(#paint3_linear_30_766)" stroke-width="2.56233"/>
<line x1="1576.14" y1="306.699" x2="1561.08" y2="283.318" stroke="#6929C4" stroke-width="2.56233"/>
<path d="M1535.57 411.062L1591.05 443.092V507.15L1535.57 539.179L1480.1 507.15V443.092L1535.57 411.062Z" stroke="url(#paint4_linear_30_766)" stroke-width="2.56233"/>
<path d="M1675.22 411.062L1730.7 443.092V507.15L1675.22 539.179L1619.75 507.15V443.092L1675.22 411.062Z" stroke="url(#paint5_linear_30_766)" stroke-width="2.56233"/>
<path d="M1747.29 289.992L1802.76 322.021V386.08L1747.29 418.109L1691.81 386.08V322.021L1747.29 289.992Z" stroke="url(#paint6_linear_30_766)" stroke-width="2.56233"/>
<line x1="1636.01" y1="304.52" x2="1650.73" y2="279.415" stroke="#605BEF" stroke-width="2.56233"/>
<line x1="1551.21" y1="354.371" x2="1523.4" y2="354.371" stroke="#605BEF" stroke-width="2.56233"/>
<line x1="1691.5" y1="355.332" x2="1663.69" y2="355.332" stroke="#605BEF" stroke-width="2.56233"/>
<line x1="1582.28" y1="403.437" x2="1565.91" y2="428.417" stroke="#605BEF" stroke-width="2.56233"/>
<line x1="1636.98" y1="401.259" x2="1650.29" y2="424.467" stroke="#605BEF" stroke-width="2.56233"/>
<path d="M1486.25 199.23L1539.93 167.512L1595.02 199.072L1543.37 231.205L1486.25 199.23Z" stroke="#A56EFF" stroke-width="1.48752"/>
<path d="M1541.07 294.017L1486.48 262.588L1486.27 199.101L1543.37 231.267L1541.07 294.017Z" stroke="#A56EFF" stroke-width="1.48752"/>
<path d="M1595.15 263.195L1540.56 293.781L1543.27 230.965L1595.15 198.736L1595.15 263.195Z" stroke="#A56EFF" stroke-width="1.48752"/>
<path d="M1626.07 199.23L1679.76 167.512L1734.84 199.072L1683.2 231.205L1626.07 199.23Z" stroke="#A56EFF" stroke-width="1.48752"/>
<path d="M1680.9 294.017L1626.31 262.588L1626.1 199.101L1683.2 231.267L1680.9 294.017Z" stroke="#A56EFF" stroke-width="1.48752"/>
<path d="M1734.98 263.195L1680.39 293.781L1683.09 230.965L1734.98 198.736L1734.98 263.195Z" stroke="#A56EFF" stroke-width="1.48752"/>
<path d="M1692.52 322.199L1746.2 290.48L1801.29 322.04L1749.64 354.174L1692.52 322.199Z" stroke="#A56EFF" stroke-width="1.48752"/>
<path d="M1747.34 416.988L1692.75 385.558L1692.54 322.072L1749.64 354.238L1747.34 416.988Z" stroke="#A56EFF" stroke-width="1.48752"/>
<path d="M1801.42 386.164L1746.83 416.749L1749.54 353.934L1801.42 321.705L1801.42 386.164Z" stroke="#A56EFF" stroke-width="1.48752"/>
<path d="M1553.22 322.68L1606.9 290.961L1661.99 322.521L1610.35 354.655L1553.22 322.68Z" stroke="#A56EFF" stroke-width="0.991681"/>
<path d="M1609.84 355L1607.58 416.626L1553.95 385.75L1553.74 323.401L1609.84 355Z" stroke="#A56EFF" stroke-width="0.991681"/>
<path d="M1661.63 323.077L1661.63 386.354L1608.07 416.363L1610.72 354.698L1661.63 323.077Z" stroke="#A56EFF" stroke-width="0.991681"/>
<path d="M1470.97 353.598L1414.85 322.188L1467.54 291.054L1521.66 322.058L1470.97 353.598Z" stroke="#A56EFF" stroke-width="0.991681"/>
<path d="M1470.48 354.519L1468.22 416.146L1414.59 385.269L1414.38 322.92L1470.48 354.519Z" stroke="#A56EFF" stroke-width="0.991681"/>
<path d="M1522.27 322.597L1522.27 385.873L1468.71 415.882L1471.36 354.217L1522.27 322.597Z" stroke="#A56EFF" stroke-width="0.991681"/>
<path d="M1538.4 474.583L1482.28 443.172L1534.97 412.038L1589.09 443.042L1538.4 474.583Z" stroke="#A56EFF" stroke-width="0.991681"/>
<path d="M1537.65 475.646L1535.42 536.71L1482.27 506.11L1482.06 444.329L1537.65 475.646Z" stroke="#A56EFF" stroke-width="1.48752"/>
<path d="M1589.45 444.027L1589.45 506.712L1536.41 536.433L1539.04 475.343L1589.45 444.027Z" stroke="#A56EFF" stroke-width="1.48752"/>
<path d="M1677.77 475.063L1621.65 443.652L1674.34 412.519L1728.46 443.523L1677.77 475.063Z" stroke="#A56EFF" stroke-width="0.991681"/>
<path d="M1677.27 475.984L1675.01 537.61L1621.39 506.734L1621.18 444.385L1677.27 475.984Z" stroke="#A56EFF" stroke-width="0.991681"/>
<path d="M1729.06 444.061L1729.06 507.338L1675.5 537.347L1678.16 475.682L1729.06 444.061Z" stroke="#A56EFF" stroke-width="0.991681"/>
</g>
<defs>
<linearGradient id="paint0_linear_30_766" x1="1540.7" y1="167" x2="1540.7" y2="295.116" gradientUnits="userSpaceOnUse">
<stop stop-color="#F0B928"/>
<stop offset="0.401042" stop-color="#FA4D56"/>
<stop offset="0.729167" stop-color="#D12771"/>
<stop offset="0.9998" stop-color="#605BEF"/>
<stop offset="0.9999" stop-color="#F3E0A9" stop-opacity="0.0961538"/>
<stop offset="1" stop-color="#F6F4AF" stop-opacity="0"/>
<stop offset="1" stop-color="#605BEF"/>
</linearGradient>
<linearGradient id="paint1_linear_30_766" x1="1680.35" y1="167" x2="1680.35" y2="295.116" gradientUnits="userSpaceOnUse">
<stop stop-color="#F0B928"/>
<stop offset="0.401042" stop-color="#FA4D56"/>
<stop offset="0.729167" stop-color="#D12771"/>
<stop offset="0.9998" stop-color="#605BEF"/>
<stop offset="0.9999" stop-color="#F3E0A9" stop-opacity="0.0961538"/>
<stop offset="1" stop-color="#F6F4AF" stop-opacity="0"/>
<stop offset="1" stop-color="#605BEF"/>
</linearGradient>
<linearGradient id="paint2_linear_30_766" x1="1467.99" y1="289.992" x2="1467.99" y2="418.109" gradientUnits="userSpaceOnUse">
<stop stop-color="#F0B928"/>
<stop offset="0.401042" stop-color="#FA4D56"/>
<stop offset="0.729167" stop-color="#D12771"/>
<stop offset="0.9998" stop-color="#605BEF"/>
<stop offset="0.9999" stop-color="#F3E0A9" stop-opacity="0.0961538"/>
<stop offset="1" stop-color="#F6F4AF" stop-opacity="0"/>
<stop offset="1" stop-color="#605BEF"/>
</linearGradient>
<linearGradient id="paint3_linear_30_766" x1="1607.64" y1="289.992" x2="1607.64" y2="418.109" gradientUnits="userSpaceOnUse">
<stop stop-color="#F0B928"/>
<stop offset="0.401042" stop-color="#FA4D56"/>
<stop offset="0.729167" stop-color="#D12771"/>
<stop offset="0.9998" stop-color="#605BEF"/>
<stop offset="0.9999" stop-color="#F3E0A9" stop-opacity="0.0961538"/>
<stop offset="1" stop-color="#F6F4AF" stop-opacity="0"/>
<stop offset="1" stop-color="#605BEF"/>
</linearGradient>
<linearGradient id="paint4_linear_30_766" x1="1535.57" y1="411.062" x2="1535.57" y2="539.179" gradientUnits="userSpaceOnUse">
<stop stop-color="#F0B928"/>
<stop offset="0.401042" stop-color="#FA4D56"/>
<stop offset="0.729167" stop-color="#D12771"/>
<stop offset="0.9998" stop-color="#605BEF"/>
<stop offset="0.9999" stop-color="#F3E0A9" stop-opacity="0.0961538"/>
<stop offset="1" stop-color="#F6F4AF" stop-opacity="0"/>
<stop offset="1" stop-color="#605BEF"/>
</linearGradient>
<linearGradient id="paint5_linear_30_766" x1="1675.22" y1="411.062" x2="1675.22" y2="539.179" gradientUnits="userSpaceOnUse">
<stop stop-color="#F0B928"/>
<stop offset="0.401042" stop-color="#FA4D56"/>
<stop offset="0.729167" stop-color="#D12771"/>
<stop offset="0.9998" stop-color="#605BEF"/>
<stop offset="0.9999" stop-color="#F3E0A9" stop-opacity="0.0961538"/>
<stop offset="1" stop-color="#F6F4AF" stop-opacity="0"/>
<stop offset="1" stop-color="#605BEF"/>
</linearGradient>
<linearGradient id="paint6_linear_30_766" x1="1747.29" y1="289.992" x2="1747.29" y2="418.109" gradientUnits="userSpaceOnUse">
<stop stop-color="#F0B928"/>
<stop offset="0.401042" stop-color="#FA4D56"/>
<stop offset="0.729167" stop-color="#D12771"/>
<stop offset="0.9998" stop-color="#605BEF"/>
<stop offset="0.9999" stop-color="#F3E0A9" stop-opacity="0.0961538"/>
<stop offset="1" stop-color="#F6F4AF" stop-opacity="0"/>
<stop offset="1" stop-color="#605BEF"/>
</linearGradient>
<clipPath id="clip0_30_766">
<rect width="1920" height="1080" fill="white"/>
</clipPath>
<clipPath id="clip1_30_766">
<rect width="40" height="40" fill="white" transform="translate(862.646 312.344) rotate(11)"/>
</clipPath>
<clipPath id="clip2_30_766">
<rect width="40" height="40" fill="white" transform="translate(518.287 167.074) rotate(-17)"/>
</clipPath>
<clipPath id="clip3_30_766">
<rect width="40" height="40" fill="white" transform="translate(1117 892.789) rotate(-17)"/>
</clipPath>
<clipPath id="clip4_30_766">
<rect width="30.8262" height="30.8262" fill="white" transform="translate(590.123 579.08) rotate(-15)"/>
</clipPath>
</defs>
</svg>
