<svg width="160" height="160" viewBox="0 0 160 160" fill="none" xmlns="http://www.w3.org/2000/svg">
<path d="M130.001 132.499C130.001 133.879 128.881 134.999 127.501 134.999C126.121 134.999 125.001 133.879 125.001 132.499C125.001 131.119 126.121 129.999 127.501 129.999C128.881 129.999 130.001 131.119 130.001 132.499ZM135.001 146.799H105.001C104.006 146.799 103.201 145.994 103.201 144.999V124.999C103.201 124.004 104.006 123.199 105.001 123.199H118.201V111.799H81.8007V123.194H95.0007C95.9957 123.194 96.8007 123.999 96.8007 124.994V144.994C96.8007 145.989 95.9957 146.794 95.0007 146.794H65.0007C64.0057 146.794 63.2007 145.989 63.2007 144.994V124.994C63.2007 123.999 64.0057 123.194 65.0007 123.194H78.2007V111.799H41.8007V123.194H55.0007C55.9957 123.194 56.8007 123.999 56.8007 124.994V144.994C56.8007 145.989 55.9957 146.794 55.0007 146.794H25.0007C24.0057 146.794 23.2007 145.989 23.2007 144.994V124.994C23.2007 123.999 24.0057 123.194 25.0007 123.194H38.2007V109.999C38.2007 109.004 39.0057 108.199 40.0007 108.199H78.2007V96.7942C75.0407 96.7942 72.2257 96.7992 70.0007 96.8042H37.5007C18.5857 96.8042 3.20068 81.4142 3.20068 62.5042C3.20068 43.5942 18.5857 28.1992 37.5007 28.1992H43.6957C51.8457 12.7492 67.5707 3.19922 85.0007 3.19922C110.201 3.19922 130.816 23.2242 131.771 48.1992H132.501C145.901 48.1992 156.801 59.0992 156.801 72.4992C156.801 85.8992 145.896 96.7992 132.501 96.7992H120.001C119.951 96.7992 119.901 96.7942 119.856 96.7892C118.506 96.7592 97.4707 96.7642 81.8007 96.7842V108.194H120.001C120.996 108.194 121.801 108.999 121.801 109.994V123.194H135.001C135.996 123.194 136.801 123.999 136.801 124.994V144.994C136.801 145.994 135.996 146.799 135.001 146.799ZM106.801 143.199H133.196V126.799H106.801V143.199ZM76.8007 143.199H93.2007V126.799H76.8007V143.199ZM66.8007 143.199H73.2007V136.799H66.8007V143.199ZM26.8007 143.199H53.2007V136.799H26.8007V143.199ZM66.8007 133.199H73.2007V126.799H66.8007V133.199ZM26.8007 133.199H53.2007V126.799H26.8007V133.199ZM99.6807 93.1692C113.321 93.1692 118.161 93.2192 120.001 93.3692V93.1992H132.501C143.916 93.1992 153.201 83.9142 153.201 72.4992C153.201 61.0842 143.921 51.7992 132.501 51.7992H130.001C129.006 51.7992 128.201 50.9942 128.201 49.9992C128.201 26.1792 108.821 6.79922 85.0007 6.79922C68.5757 6.79922 53.7907 15.9992 46.4057 30.8042C46.1007 31.4142 45.4807 31.7992 44.7957 31.7992H37.5007C20.5707 31.7992 6.80068 45.5692 6.80068 62.4992C6.80068 79.4292 20.5707 93.1992 37.5007 93.1992H70.0007C82.8907 93.1842 92.5007 93.1692 99.6807 93.1692Z" fill="white"/>
</svg>
