<svg width="24" height="24" viewBox="0 0 38 36" fill="none" xmlns="http://www.w3.org/2000/svg">
<path d="M12.3013 30.6H12.1513V30.75C12.1513 32.0882 12.4914 33.1766 13.135 33.933C13.7814 34.6925 14.7194 35.1 15.8763 35.1C17.0332 35.1 17.9712 34.6928 18.6177 33.9335C19.2615 33.1773 19.6019 32.0888 19.6025 30.7501V30.75V18.5666L19.7072 18.4951L19.7074 18.4949C21.89 16.9975 24.8638 16.9975 27.049 18.495L27.049 18.495L27.4133 18.7445C27.4134 18.7445 27.4135 18.7446 27.4136 18.7447C27.6161 18.8851 27.889 18.8851 28.0915 18.7447C28.0916 18.7446 28.0917 18.7445 28.0918 18.7445L28.4561 18.495L28.4561 18.495C30.6412 16.9975 33.6139 16.9975 35.799 18.495L35.799 18.495L36.1627 18.7441C36.1629 18.7442 36.1632 18.7444 36.1634 18.7446C36.3609 18.8826 36.6237 18.8841 36.8266 18.7554L36.8283 18.7543C37.0293 18.6231 37.1345 18.3851 37.0928 18.1467L37.0928 18.1464C35.5408 9.37307 28.2389 2.94556 19.6013 2.66053V0.75V0.6H19.4513H18.5513H18.4013V0.75V2.66053C9.7637 2.94554 2.46308 9.37182 0.909844 18.1451L0.909819 18.1452C0.86804 18.3825 0.973344 18.6222 1.17602 18.7534L1.17628 18.7536C1.37865 18.884 1.63876 18.88 1.8392 18.7442L1.83981 18.7438L2.20481 18.4938L2.20491 18.4937C4.38752 16.9963 7.36382 16.9963 9.54644 18.4937L9.54653 18.4938L9.91153 18.7438L9.9117 18.7439C10.1165 18.8837 10.3849 18.8837 10.5896 18.7439L10.5898 18.7438L10.9548 18.4938L10.9549 18.4937C13.1375 16.9963 16.1138 16.9963 18.2964 18.4937L18.2966 18.4938L18.4013 18.5654V30.75C18.4013 31.7942 18.1678 32.5806 17.7441 33.1034C17.3245 33.6211 16.7022 33.9 15.8763 33.9C15.0504 33.9 14.4281 33.6211 14.0085 33.1034C13.5848 32.5806 13.3513 31.7942 13.3513 30.75V30.6H13.2013H12.3013ZM23.7397 4.53075C29.4742 6.21827 34.0517 10.9022 35.6146 16.9926C33.3455 15.8376 30.5582 15.8969 28.3324 17.1571C28.1388 11.4732 26.4321 6.93621 23.7397 4.53075ZM14.2615 4.53081C11.5693 6.93621 9.86264 11.473 9.66899 17.1566C8.51024 16.497 7.21131 16.15 5.8763 16.15C4.65704 16.15 3.46753 16.4388 2.38702 16.9929C3.95242 10.9007 8.52861 6.21821 14.2615 4.53081ZM24.8432 7.81923C26.1688 10.1339 26.996 13.3453 27.1316 17.1363C24.8207 15.8436 21.9108 15.8475 19.6013 17.148V3.88178C21.71 4.10481 23.5202 5.50905 24.8432 7.81923ZM18.4013 3.88178V17.1466C17.246 16.4932 15.9536 16.15 14.6263 16.15C13.3061 16.15 12.0204 16.4892 10.8709 17.1359C11.006 13.3451 11.8333 10.1338 13.159 7.81924C14.4821 5.50906 16.2926 4.10481 18.4013 3.88178Z" fill="#A56EFF" stroke="#A56EFF" stroke-width="0.3"/>
</svg>
