<svg width="825" height="640" viewBox="0 0 825 640" fill="none" xmlns="http://www.w3.org/2000/svg">
<g clip-path="url(#clip0_85_1566)">
<path d="M107.558 281.629C76.8678 268.738 52.2653 244.603 38.7872 214.166C31.2463 196.924 27.5647 178.226 25.4685 159.525C23.4119 141.176 22.992 121.822 30.8884 105.133C35.2118 95.9949 41.8287 88.1331 50.0943 82.3132C58.3598 76.4933 67.9921 72.914 78.0524 71.9239C88.1127 70.9339 98.2579 72.5669 107.499 76.6639C116.741 80.7608 124.763 87.182 130.785 95.3017C135.968 102.29 139.612 110.676 139.705 119.377C139.9 137.626 125.226 152.272 118.788 169.35C112.136 186.998 114.534 206.552 115.665 225.378C116.796 244.205 116.079 264.615 104.655 279.622" fill="#F2F2F2"/>
<path d="M657.995 512.394C690.406 504.802 718.689 485.109 737.055 457.346C747.366 441.603 754.114 423.781 759.3 405.691C764.388 387.943 768.03 368.929 763.028 351.157C760.289 341.426 755.076 332.571 747.897 325.454C740.718 318.337 731.818 313.201 722.064 310.547C712.309 307.893 702.034 307.811 692.238 310.309C682.443 312.807 673.462 317.801 666.17 324.802C659.894 330.829 654.903 338.489 653.36 347.052C650.124 365.014 662.15 381.902 665.649 399.814C669.265 418.325 663.639 437.205 659.384 455.579C655.129 473.953 652.432 494.196 661.192 510.899" fill="#F2F2F2"/>
<path d="M410.813 483.087C364.615 483.233 319.668 468.084 282.984 440.002C247.067 412.561 220.827 374.389 208.07 331.026L209.897 330.495C235.695 419.219 318.315 481.185 410.813 481.185C438.47 481.237 465.86 475.772 491.379 465.11L492.112 466.865C466.36 477.624 438.722 483.139 410.813 483.087Z" fill="#E6E6E6"/>
<path d="M610.521 209.445C583.079 121.71 502.823 62.7633 410.814 62.7633C383.55 62.7139 356.541 68.0244 331.325 78.3929L330.602 76.634C364.333 62.8193 401.064 57.9602 437.227 62.5282C473.391 67.0963 507.759 80.9364 536.996 102.705C572.579 129.362 598.924 166.489 612.337 208.878L610.521 209.445Z" fill="#E6E6E6"/>
<path d="M667.572 549.654C581.053 549.654 510.664 479.266 510.664 392.746C510.664 306.227 581.053 235.838 667.572 235.838C754.092 235.838 824.481 306.227 824.481 392.746C824.481 479.266 754.092 549.654 667.572 549.654ZM667.572 237.74C582.102 237.74 512.566 307.275 512.566 392.746C512.566 478.217 582.102 547.752 667.572 547.752C753.043 547.752 822.579 478.217 822.579 392.746C822.579 307.275 753.043 237.74 667.572 237.74Z" fill="#3F3D56"/>
<path d="M156.908 313.816C70.3886 313.816 0 243.428 0 156.908C0 70.3886 70.3886 0 156.908 0C243.428 0 313.816 70.3886 313.816 156.908C313.816 243.428 243.428 313.816 156.908 313.816ZM156.908 1.90192C71.4376 1.90192 1.90192 71.4376 1.90192 156.908C1.90192 242.379 71.4376 311.915 156.908 311.915C242.379 311.915 311.915 242.379 311.915 156.908C311.915 71.4376 242.379 1.90192 156.908 1.90192Z" fill="#3F3D56"/>
<path d="M144.708 157.79L130.852 184.701L144.533 192.544C144.533 192.544 153.918 162.316 154.195 161.169C155.61 160.59 156.816 159.596 157.654 158.317C158.492 157.038 158.921 155.535 158.886 154.007C158.851 152.478 158.353 150.997 157.458 149.757C156.562 148.518 155.311 147.58 153.871 147.067C152.431 146.555 150.869 146.491 149.392 146.885C147.915 147.279 146.592 148.113 145.599 149.275C144.605 150.437 143.988 151.873 143.829 153.394C143.67 154.915 143.976 156.448 144.708 157.79V157.79Z" fill="#A0616A"/>
<path d="M73.6016 161.451C79.7823 184.351 101.998 198.895 120.446 216.332C122.718 217.129 125.131 217.443 127.531 217.255C129.931 217.066 132.265 216.379 134.385 215.237C136.504 214.095 138.362 212.523 139.839 210.622C141.316 208.721 142.381 206.533 142.964 204.197L149.182 179.864L133.379 179.442L126.838 186.55L105.677 171.47L73.6016 161.451Z" fill="#3F3D56"/>
<path d="M644.244 417.127C646.927 417.303 649.436 418.518 651.237 420.515C653.037 422.512 653.988 425.133 653.885 427.82C653.856 428.366 653.781 428.909 653.662 429.442L684.133 448.638L667.287 456.089L640.935 436.718C638.76 436.053 636.867 434.688 635.55 432.834C634.234 430.981 633.568 428.744 633.656 426.472C633.719 425.18 634.036 423.913 634.588 422.743C635.141 421.573 635.918 420.524 636.876 419.654C637.834 418.785 638.954 418.113 640.172 417.676C641.39 417.24 642.682 417.047 643.974 417.11C644.064 417.115 644.154 417.12 644.244 417.127Z" fill="#FFB6B6"/>
<path d="M673.63 439.913L666.078 455.495L695.937 474.709C698.061 476.088 700.503 476.9 703.03 477.07C705.557 477.239 708.086 476.759 710.375 475.676C713.159 474.344 715.434 472.143 716.858 469.405C718.281 466.667 718.776 463.54 718.268 460.497L708.58 405.185C707.929 401.314 705.821 397.84 702.687 395.476C699.553 393.113 695.633 392.04 691.733 392.479C687.896 392.898 684.383 394.825 681.967 397.835C679.55 400.844 678.428 404.691 678.848 408.527C678.864 408.677 678.883 408.827 678.904 408.977C678.977 409.508 679.079 410.035 679.209 410.556L689.786 449.893L673.63 439.913Z" fill="#8A3FFC"/>
<path d="M646.491 446.23L635.247 417.217C634.863 416.224 634.889 415.12 635.319 414.146C635.749 413.172 636.547 412.408 637.54 412.022L643.863 409.572C644.856 409.188 645.961 409.214 646.934 409.644C647.908 410.074 648.672 410.873 649.058 411.865L660.302 440.878C660.685 441.871 660.659 442.976 660.23 443.949C659.8 444.923 659.001 445.687 658.009 446.073L651.686 448.523C650.693 448.907 649.588 448.881 648.614 448.451C647.64 448.021 646.876 447.223 646.491 446.23Z" fill="#3F3D56"/>
<path d="M638.858 413.215C638.323 413.423 637.893 413.835 637.661 414.359C637.429 414.884 637.415 415.48 637.622 416.015L648.866 445.028C649.074 445.562 649.486 445.993 650.01 446.224C650.535 446.456 651.13 446.47 651.666 446.263L657.989 443.813C658.524 443.605 658.954 443.193 659.186 442.668C659.417 442.144 659.431 441.548 659.224 441.013L647.98 412C647.773 411.466 647.361 411.035 646.836 410.804C646.311 410.572 645.716 410.558 645.181 410.765L638.858 413.215Z" fill="#8A3FFC"/>
<path d="M671.51 506.769H714.211V464.068H671.51V506.769Z" fill="#FFB8B8"/>
<path d="M570.241 589.826L553.933 584.339L544.852 628.73L555.902 632.447L570.241 589.826Z" fill="#FFB6B6"/>
<path d="M599.166 581.38L582.422 585.34L598.169 627.825L609.515 625.142L599.166 581.38Z" fill="#FFB6B6"/>
<path d="M712.673 517.924C721.231 574.982 607.258 541.248 607.258 541.248L571.523 590.545L550.602 586.742C550.602 586.742 560.015 557.147 576.827 517.475C584.293 499.856 669.07 504.161 669.07 504.161L670.83 490.346L719.329 489.396L712.673 517.924Z" fill="#2F2E41"/>
<path d="M603.665 529.008L572.625 529.722C577.601 572.522 581.988 589.595 581.988 589.595L600.056 583.889L603.665 529.008Z" fill="#2F2E41"/>
<path d="M688.279 394.678L696.874 383.63L709.134 383.099L710.358 393.489L716.433 396.291C722.499 419.336 723.435 443.431 719.177 466.877C718.363 467.644 717.768 468.614 717.454 469.687C717.14 470.76 717.117 471.898 717.389 472.982L717.783 474.552L717.747 474.61C716.454 476.65 716.016 479.116 716.526 481.476L719.427 486.631C720.468 488.485 721.093 490.544 721.258 492.663C721.423 494.783 721.124 496.914 720.383 498.906C719.641 500.899 718.474 502.706 716.964 504.202C715.453 505.698 713.634 506.847 711.634 507.57C693.801 514.034 677.084 516.441 664.717 498.302L660.828 435.092L688.279 394.678Z" fill="#8A3FFC"/>
<path d="M697.286 386.564C709.805 386.564 719.955 376.415 719.955 363.895C719.955 351.376 709.805 341.227 697.286 341.227C684.766 341.227 674.617 351.376 674.617 363.895C674.617 376.415 684.766 386.564 697.286 386.564Z" fill="#FFB8B8"/>
<path d="M708.667 336.568C718.265 336.753 725.878 345.656 725.671 356.454C732.773 363.865 730.425 372.934 724.49 382.632C713.633 383.892 711.099 384.417 701.578 388.3L700.323 382.439L697.48 390.072C695.06 391.188 692.659 392.412 690.276 393.745C688.563 385.89 688.988 378.254 693.591 371.604C697.68 365.695 687.729 358.68 680.612 359.672L680.716 354.245L678.928 359.64C676.154 361.678 673.085 360.94 669.938 359.467V359.467C664.835 332.945 704.344 325.692 708.667 336.568Z" fill="#2F2E41"/>
<path d="M560.927 639.955L553.661 639.006L553.26 631.977L549.042 638.402L529.772 635.885C528.848 635.765 527.987 635.352 527.315 634.707C526.642 634.063 526.193 633.22 526.033 632.302C525.874 631.384 526.012 630.44 526.427 629.606C526.842 628.772 527.513 628.093 528.342 627.667L545.119 619.049L546.025 612.114L562.085 615.195L560.927 639.955Z" fill="#2F2E41"/>
<path d="M613.683 635.954L606.415 636.889L604.235 630.194L601.796 637.483L582.52 639.964C581.596 640.083 580.659 639.903 579.844 639.452C579.029 639 578.38 638.299 577.992 637.453C577.603 636.606 577.496 635.657 577.685 634.745C577.873 633.833 578.349 633.005 579.042 632.382L593.066 619.771L592.174 612.834L608.489 611.717L613.683 635.954Z" fill="#2F2E41"/>
<path d="M646.978 422.43C649.662 422.606 652.17 423.821 653.971 425.819C655.772 427.816 656.722 430.437 656.62 433.124C656.59 433.67 656.516 434.212 656.397 434.746L686.867 453.942L670.021 461.392L643.669 442.021C641.495 441.357 639.602 439.991 638.285 438.138C636.968 436.284 636.302 434.047 636.391 431.775C636.453 430.483 636.77 429.216 637.322 428.046C637.875 426.876 638.652 425.827 639.611 424.958C640.569 424.088 641.689 423.416 642.906 422.98C644.124 422.543 645.416 422.351 646.708 422.413C646.798 422.418 646.888 422.423 646.978 422.43Z" fill="#FFB6B6"/>
<path d="M676.364 445.217L668.812 460.798L698.671 480.012C700.796 481.391 703.237 482.204 705.765 482.373C708.292 482.542 710.82 482.063 713.11 480.979C715.893 479.647 718.168 477.446 719.592 474.708C721.016 471.97 721.511 468.844 721.003 465.8L711.314 410.488C710.664 406.617 708.555 403.143 705.421 400.78C702.288 398.416 698.367 397.344 694.467 397.782C692.567 397.99 690.727 398.57 689.051 399.489C687.376 400.408 685.897 401.648 684.701 403.138C683.504 404.628 682.613 406.339 682.078 408.174C681.543 410.009 681.375 411.931 681.582 413.831C681.599 413.981 681.617 414.13 681.639 414.28C681.712 414.811 681.814 415.339 681.944 415.859L692.52 455.196L676.364 445.217Z" fill="#8A3FFC"/>
<path d="M105 442.211L114.578 446.532L135.802 411.645L121.666 405.268L105 442.211Z" fill="#A0616A"/>
<path d="M100.156 452.05L129.609 465.337L129.777 464.964C131.149 461.924 131.256 458.463 130.076 455.343C128.896 452.224 126.526 449.7 123.486 448.329L123.485 448.328L119.946 441.819L108.067 441.373L105.496 440.213L100.156 452.05Z" fill="#2F2E41"/>
<path d="M223.627 394.766L233.742 391.927L227.603 351.555L212.672 355.747L223.627 394.766Z" fill="#A0616A"/>
<path d="M226.236 405.42L257.345 396.687L257.235 396.293C256.333 393.082 254.193 390.361 251.285 388.727C248.377 387.094 244.939 386.683 241.727 387.584L241.727 387.584L234.834 384.868L225.442 392.156L222.727 392.918L226.236 405.42Z" fill="#2F2E41"/>
<path d="M70.5178 276.801C70.7765 284.285 86.6934 304.477 95.0646 307.372C96.4875 307.865 97.3191 308.136 97.3191 308.136L100.233 307.255L135.516 296.58C141.694 300.214 160.124 302.062 175.247 302.986C187.283 303.719 193.992 310.012 193.992 310.012C197.543 337.017 207.78 356.705 219.585 380.902L233.752 378.438L220.368 288.308C220.079 286.361 219.224 284.543 217.911 283.078C216.597 281.613 214.881 280.567 212.978 280.069L116.698 254.885C116.698 254.885 111.388 253.924 100.19 259.326C81.7533 268.22 70.333 271.356 70.5178 276.801Z" fill="#2F2E41"/>
<path d="M88.9219 275.354C85.6929 282.111 90.4779 307.373 96.5639 313.808L98.1794 314.907L98.7256 315.192C102.376 327.541 141.554 363.659 141.554 363.659C128.321 380.518 116.527 401.085 111.265 424.128L126.567 429.719L169.64 365.417C170.768 363.733 171.36 361.747 171.338 359.72C171.316 357.693 170.681 355.72 169.516 354.061L151.944 329.03L123.311 273.568C102.851 272.936 91.2742 270.44 88.9219 275.354Z" fill="#2F2E41"/>
<path d="M71.098 279.744C71.0506 279.744 69.9291 276.808 69.9063 276.802C69.525 276.695 64.3625 276.186 65.5235 267.639L67.0089 258.232L65.5588 249.926L63.1196 247.487L67.0397 243.568L64.6373 225.788L63.715 190.192C61.4 177.964 62.0045 166.781 73.219 161.396L86.0756 149.471L100.705 149.294L117.303 159.134L125.344 175.165L128.464 218.612L130.792 224.046L130.593 224.227C130.578 224.241 129.026 225.644 128.329 226.415C127.991 226.895 128.625 230.476 129.407 233.516L130.41 241.021L127.882 242.827L131.169 246.709L140.128 261.853L139.591 261.719C138.986 261.569 133.352 270.026 71.512 279.43C71.2267 279.474 71.2167 279.744 71.098 279.744Z" fill="#3F3D56"/>
<path d="M141.909 185.715L136.789 183.044C135.986 182.624 135.382 181.902 135.111 181.037C134.839 180.172 134.921 179.235 135.34 178.431L147.597 154.942C148.017 154.138 148.738 153.535 149.603 153.263C150.468 152.991 151.405 153.074 152.209 153.492L157.329 156.163C158.132 156.584 158.736 157.305 159.007 158.17C159.279 159.035 159.197 159.972 158.778 160.776L146.521 184.266C146.101 185.069 145.38 185.672 144.515 185.944C143.65 186.216 142.713 186.134 141.909 185.715Z" fill="#3F3D56"/>
<path d="M150.982 154.377C150.549 154.152 150.044 154.107 149.578 154.254C149.112 154.4 148.723 154.726 148.496 155.158L136.24 178.648C136.014 179.081 135.97 179.586 136.116 180.052C136.263 180.518 136.588 180.907 137.021 181.133L142.14 183.805C142.573 184.03 143.078 184.075 143.544 183.928C144.01 183.782 144.399 183.456 144.626 183.024L156.883 159.534C157.108 159.101 157.153 158.596 157.006 158.13C156.86 157.664 156.534 157.275 156.102 157.049L150.982 154.377Z" fill="#8A3FFC"/>
<path d="M96.6828 146.087C108.235 146.087 117.6 136.722 117.6 125.17C117.6 113.618 108.235 104.253 96.6828 104.253C85.1305 104.253 75.7656 113.618 75.7656 125.17C75.7656 136.722 85.1305 146.087 96.6828 146.087Z" fill="#A0616A"/>
<path d="M86.3993 138.642C85.4823 137.913 84.3383 137.529 83.167 137.557C82.8036 137.617 82.457 137.753 82.1502 137.957C81.8434 138.16 81.5834 138.427 81.3873 138.739C81.2784 138.876 81.137 138.983 80.9759 139.052C80.8148 139.12 80.6391 139.148 80.4649 139.131C78.233 139.212 73.4757 135.072 73.1504 127.083C72.9958 123.286 70.7241 116.861 74.3406 113.381C74.583 111.977 77.4069 97.4632 90.1365 97.0632C103.169 96.649 111.844 99.2669 113.928 104.234C115.376 108.177 116.476 112.239 117.217 116.374L117.654 118.833L116.633 116.554C116.613 116.511 114.751 112.432 111.297 111.071C111.241 111.735 111.072 112.384 110.798 112.991C109.671 115.434 106.83 117.027 103.561 117.052C101.301 116.982 99.0733 116.503 96.9851 115.638C97.2215 115.979 97.3543 116.382 97.3673 116.797C97.3803 117.212 97.2731 117.621 97.0585 117.977C96.8438 118.332 96.5311 118.618 96.1578 118.8C95.7845 118.981 95.3666 119.051 94.9545 119L94.35 118.925C94.1595 118.902 93.9667 118.945 93.8051 119.049C93.6434 119.152 93.5231 119.309 93.4649 119.492C93.4068 119.675 93.4146 119.872 93.4868 120.05C93.5591 120.228 93.6914 120.375 93.8607 120.466L94.393 120.75L93.747 121.063C91.1465 122.223 89.0039 124.212 87.6539 126.719C86.304 129.226 85.823 132.11 86.286 134.919L87.0392 139.156L86.3993 138.642Z" fill="#2F2E41"/>
<path d="M417.573 461.861C417.001 461.887 416.435 461.737 415.951 461.43C415.468 461.124 415.09 460.676 414.869 460.148C414.648 459.62 414.595 459.036 414.716 458.477C414.838 457.917 415.129 457.409 415.549 457.02L415.741 456.259C415.716 456.198 415.69 456.138 415.665 456.077C415.088 454.716 414.123 453.555 412.889 452.741C411.655 451.927 410.209 451.495 408.73 451.501C407.252 451.506 405.809 451.949 404.581 452.772C403.354 453.595 402.397 454.763 401.83 456.128C399.568 461.578 396.687 467.037 395.978 472.799C395.665 475.345 395.797 477.927 396.367 480.429C391.053 468.837 388.293 456.237 388.275 443.484C388.274 440.284 388.452 437.086 388.808 433.906C389.102 431.299 389.51 428.71 390.032 426.14C392.881 412.195 398.996 399.125 407.877 388.002C412.175 385.657 415.651 382.051 417.836 377.669C418.628 376.094 419.188 374.413 419.498 372.677C419.013 372.741 418.52 372.781 418.035 372.812C417.884 372.82 417.725 372.828 417.574 372.836L417.517 372.839C416.984 372.863 416.456 372.732 415.996 372.463C415.535 372.193 415.162 371.796 414.922 371.32C414.682 370.844 414.585 370.308 414.642 369.778C414.699 369.247 414.909 368.745 415.245 368.331C415.454 368.073 415.664 367.816 415.873 367.558C416.191 367.161 416.517 366.771 416.835 366.374C416.872 366.336 416.906 366.296 416.938 366.255C417.304 365.802 417.67 365.356 418.035 364.903C417.368 363.867 416.47 363 415.412 362.368C411.748 360.222 406.692 361.708 404.046 365.023C401.391 368.337 400.89 372.987 401.812 377.128C402.719 380.652 404.219 383.996 406.247 387.016C406.049 387.271 405.842 387.517 405.643 387.772C402.011 392.443 398.845 397.458 396.191 402.747C396.836 396.822 396.066 390.829 393.943 385.26C391.791 380.07 387.759 375.699 384.208 371.212C379.942 365.823 371.196 368.175 370.444 375.006C370.437 375.073 370.43 375.139 370.423 375.205C370.95 375.502 371.467 375.818 371.972 376.152C372.606 376.576 373.098 377.182 373.383 377.89C373.667 378.599 373.731 379.376 373.566 380.122C373.401 380.867 373.014 381.545 372.457 382.067C371.9 382.588 371.199 382.93 370.444 383.046L370.367 383.058C370.555 384.959 370.887 386.843 371.361 388.694C372.733 393.86 375.157 398.687 378.482 402.873C381.808 407.058 385.962 410.512 390.684 413.017C390.994 413.176 391.296 413.334 391.606 413.486C388.939 421.042 387.267 428.914 386.63 436.902C386.27 441.615 386.291 446.349 386.694 451.059L386.67 450.892C385.652 445.655 382.859 440.93 378.761 437.514C372.675 432.515 364.076 430.673 357.51 426.655C356.812 426.207 356 425.968 355.171 425.966C354.342 425.964 353.529 426.199 352.829 426.643C352.129 427.088 351.571 427.723 351.22 428.475C350.87 429.226 350.741 430.062 350.85 430.885C350.859 430.943 350.868 431.002 350.877 431.06C351.856 431.459 352.809 431.918 353.731 432.435C354.258 432.733 354.774 433.049 355.28 433.383C355.914 433.807 356.406 434.413 356.69 435.121C356.975 435.829 357.039 436.607 356.874 437.352C356.708 438.097 356.322 438.775 355.765 439.297C355.208 439.819 354.507 440.16 353.752 440.277L353.675 440.288C353.619 440.296 353.572 440.304 353.516 440.312C355.188 444.306 357.536 447.981 360.455 451.178C364.062 455.048 368.42 458.14 373.264 460.266C378.108 462.391 383.336 463.505 388.625 463.538H388.633C390.069 469.778 392.15 475.852 394.841 481.661H417.018C417.097 481.415 417.169 481.16 417.24 480.914C415.188 481.043 413.127 480.92 411.104 480.548C412.749 478.529 414.395 476.495 416.04 474.476C416.077 474.438 416.111 474.398 416.143 474.356C416.978 473.323 417.821 472.298 418.655 471.264L418.656 471.263C418.7 468.096 418.337 464.936 417.574 461.861L417.573 461.861Z" fill="#E6E6E6"/>
<path d="M524.179 117.983C524.607 118.364 524.908 118.867 525.04 119.424C525.173 119.981 525.131 120.565 524.921 121.098C524.71 121.63 524.341 122.085 523.863 122.401C523.385 122.716 522.822 122.878 522.25 122.863L521.582 123.274C521.557 123.335 521.533 123.396 521.509 123.458C520.971 124.835 520.853 126.34 521.168 127.784C521.483 129.228 522.218 130.547 523.281 131.574C524.343 132.602 525.686 133.293 527.139 133.56C528.593 133.828 530.093 133.659 531.452 133.077C536.876 130.753 542.749 128.855 547.279 125.224C549.28 123.618 550.988 121.677 552.325 119.487C548.04 131.498 541.222 142.448 532.334 151.593C530.101 153.885 527.742 156.051 525.267 158.08C523.237 159.742 521.138 161.311 518.97 162.787C507.197 170.785 493.695 175.877 479.572 177.644C474.857 176.323 469.851 176.48 465.228 178.092C463.561 178.668 461.987 179.481 460.554 180.508C460.946 180.8 461.326 181.116 461.696 181.432C461.809 181.531 461.929 181.637 462.042 181.736L462.085 181.774C462.483 182.129 462.771 182.591 462.912 183.106C463.054 183.62 463.044 184.164 462.883 184.673C462.723 185.182 462.419 185.633 462.008 185.973C461.596 186.313 461.096 186.527 460.566 186.589C460.236 186.627 459.907 186.665 459.577 186.703C459.072 186.766 458.566 186.817 458.061 186.88C458.009 186.882 457.956 186.886 457.904 186.893C457.326 186.963 456.754 187.026 456.175 187.096C455.93 188.303 455.968 189.551 456.284 190.742C457.41 194.837 462.068 197.301 466.277 196.774C470.492 196.254 474.096 193.273 476.326 189.664C478.136 186.508 479.396 183.066 480.051 179.487C480.371 179.444 480.691 179.411 481.011 179.368C486.873 178.558 492.641 177.176 498.233 175.241C493.635 179.034 490.004 183.863 487.637 189.333C485.555 194.552 485.392 200.496 484.804 206.188C484.097 213.025 492.002 217.445 497.309 213.077C497.36 213.035 497.411 212.993 497.462 212.95C497.292 212.369 497.143 211.782 497.015 211.19C496.856 210.444 496.927 209.667 497.217 208.961C497.508 208.255 498.005 207.654 498.643 207.235C499.282 206.817 500.032 206.601 500.795 206.616C501.558 206.631 502.299 206.876 502.92 207.32L502.984 207.365C504.176 205.872 505.253 204.291 506.206 202.636C508.829 197.978 510.462 192.829 511.002 187.511C511.542 182.192 510.978 176.82 509.344 171.73C509.233 171.4 509.128 171.075 509.011 170.751C516.195 167.2 522.887 162.731 528.918 157.454C532.466 154.331 535.755 150.926 538.754 147.272L538.654 147.408C535.728 151.869 534.43 157.202 534.981 162.508C535.85 170.337 540.723 177.657 542.62 185.118C542.807 185.926 543.221 186.663 543.814 187.244C544.406 187.824 545.152 188.223 545.964 188.393C546.776 188.563 547.619 188.498 548.395 188.204C549.17 187.911 549.846 187.402 550.341 186.737C550.376 186.689 550.41 186.641 550.445 186.592C550.022 185.624 549.66 184.63 549.361 183.616C549.191 183.035 549.042 182.448 548.913 181.856C548.755 181.11 548.825 180.333 549.116 179.627C549.407 178.921 549.904 178.32 550.542 177.901C551.18 177.483 551.93 177.267 552.693 177.282C553.456 177.297 554.197 177.542 554.819 177.985L554.882 178.031C554.928 178.064 554.967 178.092 555.013 178.125C556.602 174.098 557.487 169.827 557.627 165.5C557.746 160.212 556.782 154.955 554.797 150.052C552.811 145.149 549.845 140.703 546.081 136.987L546.075 136.981C549.402 131.511 552.151 125.709 554.278 119.67L538.397 104.191C538.168 104.312 537.939 104.445 537.716 104.571C539.276 105.911 540.666 107.438 541.855 109.116C539.268 109.413 536.669 109.722 534.082 110.02C534.029 110.021 533.977 110.025 533.925 110.033C532.606 110.19 531.287 110.337 529.968 110.494L529.967 110.495C527.724 112.732 525.779 115.249 524.179 117.983L524.179 117.983Z" fill="#E6E6E6"/>
<path d="M141.85 180.058L121.852 202.779L133.208 213.721C133.208 213.721 149.679 186.693 150.227 185.647C151.741 185.431 153.153 184.761 154.277 183.725C155.401 182.689 156.185 181.336 156.523 179.845C156.862 178.354 156.74 176.796 156.173 175.376C155.607 173.956 154.623 172.741 153.351 171.893C152.079 171.044 150.58 170.602 149.051 170.624C147.523 170.646 146.037 171.132 144.79 172.017C143.543 172.902 142.595 174.144 142.07 175.58C141.545 177.016 141.468 178.578 141.85 180.058Z" fill="#A0616A"/>
<path d="M71.9922 166.273C72.404 189.989 90.4041 209.51 104.045 230.918C106.054 232.245 108.317 233.138 110.691 233.54C113.064 233.943 115.496 233.845 117.83 233.254C120.164 232.663 122.348 231.592 124.244 230.108C126.141 228.625 127.706 226.762 128.842 224.639L140.804 202.556L125.58 198.294L117.504 203.593L100.657 183.809L71.9922 166.273Z" fill="#3F3D56"/>
</g>
<defs>
<clipPath id="clip0_85_1566">
<rect width="824.482" height="640" fill="white"/>
</clipPath>
</defs>
</svg>
