<?xml version="1.0" encoding="UTF-8"?>
<svg xmlns="http://www.w3.org/2000/svg" xmlns:xlink="http://www.w3.org/1999/xlink" viewBox="0 0 130 26" version="1.1">
<g id="surface1">
<path style=" stroke:none;fill-rule:nonzero;fill:rgb(99.598694%,76.098633%,5.099487%);fill-opacity:1;" d="M 11.101563 25.757813 L 10.992188 25.75 C 3.699219 25.597656 0.140625 20.125 0.347656 15.246094 C 0.347656 15.230469 0.40625 13.09375 0.40625 13.09375 C 0.304688 18.703125 3.710938 23.765625 11.003906 23.921875 L 129.550781 23.921875 L 129.550781 25.757813 L 11.101563 25.757813 "/>
<path style=" stroke:none;fill-rule:nonzero;fill:rgb(63.499451%,4.699707%,23.098755%);fill-opacity:1;" d="M 1.570313 0.535156 L 1.570313 11.421875 L 1.574219 11.496094 C 1.6875 16.90625 6.125 21.195313 11.558594 21.195313 L 22.785156 21.195313 L 22.785156 0.535156 L 1.570313 0.535156 "/>
<path style=" stroke:none;fill-rule:evenodd;fill:rgb(99.598694%,76.098633%,5.099487%);fill-opacity:1;" d="M 12.144531 4.589844 C 14.019531 4.589844 15.546875 6.109375 15.546875 7.976563 C 15.546875 9.84375 14.019531 11.363281 12.144531 11.363281 C 10.269531 11.363281 8.742188 9.84375 8.742188 7.976563 C 8.742188 6.109375 10.269531 4.589844 12.144531 4.589844 Z M 16.089844 2.972656 L 20.058594 2.972656 L 20.058594 19.058594 L 16.089844 19.058594 L 16.089844 14.53125 C 12.613281 15.824219 9.355469 15.941406 6.355469 12.976563 C 5.105469 11.671875 4.417969 9.898438 4.714844 6.792969 C 4.75 6.332031 4.535156 4.199219 3.972656 2.972656 C 5.148438 2.972656 6.324219 2.972656 7.5 2.972656 C 9.136719 5.613281 6.988281 8.910156 9.515625 11.0625 C 12.949219 13.3125 15.949219 10.632813 16.089844 8.195313 L 16.089844 2.972656 "/>
<path style=" stroke:none;fill-rule:nonzero;fill:rgb(63.499451%,4.699707%,23.098755%);fill-opacity:1;" d="M 12.636719 9.644531 L 12.8125 9.832031 C 12.542969 10.097656 12.261719 10.328125 11.964844 10.527344 C 11.660156 10.734375 11.433594 10.835938 11.273438 10.835938 C 11.207031 10.835938 11.148438 10.8125 11.101563 10.761719 C 11.042969 10.714844 11.027344 10.648438 11.027344 10.574219 C 11.027344 10.453125 11.066406 10.265625 11.152344 10 L 11.476563 9.082031 C 11.5 9.011719 11.59375 8.730469 11.757813 8.238281 C 11.917969 7.738281 11.996094 7.484375 11.996094 7.460938 C 11.996094 7.390625 11.964844 7.351563 11.90625 7.351563 C 11.859375 7.351563 11.789063 7.390625 11.679688 7.460938 C 11.578125 7.535156 11.484375 7.617188 11.414063 7.703125 L 11.300781 7.820313 L 11.132813 7.640625 C 11.453125 7.316406 11.742188 7.058594 12.015625 6.867188 C 12.285156 6.683594 12.488281 6.589844 12.632813 6.589844 C 12.75 6.589844 12.8125 6.652344 12.8125 6.761719 C 12.8125 6.828125 12.78125 6.972656 12.710938 7.203125 C 12.640625 7.429688 12.554688 7.703125 12.445313 8.035156 C 12.339844 8.359375 12.261719 8.609375 12.199219 8.785156 C 12.121094 8.988281 12.039063 9.222656 11.953125 9.503906 C 11.859375 9.78125 11.8125 9.949219 11.8125 10.007813 C 11.8125 10.078125 11.847656 10.117188 11.90625 10.117188 C 12.015625 10.117188 12.21875 9.996094 12.511719 9.738281 C 12.523438 9.730469 12.546875 9.714844 12.574219 9.695313 C 12.605469 9.671875 12.632813 9.648438 12.636719 9.644531 "/>
<path style=" stroke:none;fill-rule:nonzero;fill:rgb(63.499451%,4.699707%,23.098755%);fill-opacity:1;" d="M 12.902344 5.3125 C 13.007813 5.3125 13.09375 5.355469 13.167969 5.425781 C 13.242188 5.507813 13.269531 5.597656 13.269531 5.714844 C 13.269531 5.871094 13.226563 6.007813 13.113281 6.140625 C 13.015625 6.277344 12.902344 6.34375 12.765625 6.34375 C 12.664063 6.34375 12.578125 6.300781 12.511719 6.214844 C 12.4375 6.117188 12.40625 6.011719 12.40625 5.902344 C 12.40625 5.804688 12.421875 5.714844 12.46875 5.628906 C 12.511719 5.542969 12.574219 5.46875 12.648438 5.40625 C 12.71875 5.347656 12.8125 5.3125 12.902344 5.3125 "/>
<path style=" stroke:none;fill-rule:evenodd;fill:rgb(0%,48.999023%,76.499939%);fill-opacity:1;" d="M 48.578125 3.261719 L 51.847656 3.261719 L 51.847656 12.417969 C 51.847656 12.417969 51.800781 14.066406 52.792969 14.765625 C 53.097656 14.980469 53.417969 15.082031 53.730469 15.105469 C 54.042969 15.132813 54.34375 15.085938 54.601563 15.003906 C 55.113281 14.839844 55.621094 14.300781 55.824219 13.78125 C 55.902344 13.574219 56.109375 12.746094 55.859375 12.105469 C 55.601563 11.425781 54.875 10.933594 54.445313 10.828125 C 53.996094 10.722656 53.386719 10.707031 52.597656 10.964844 L 52.597656 7.761719 C 52.597656 7.761719 54.761719 7.097656 56.636719 8.117188 C 57.960938 8.835938 58.808594 10.160156 59.140625 11.496094 C 59.277344 12.050781 59.328125 12.605469 59.285156 13.121094 C 59.140625 14.882813 58.363281 17.175781 55.714844 18.078125 C 54.207031 18.59375 52.636719 18.296875 51.449219 17.765625 C 50.109375 17.171875 49.390625 16.25 49.019531 15.359375 C 48.773438 14.765625 48.675781 14.183594 48.617188 13.363281 C 48.574219 12.679688 48.558594 11.929688 48.558594 11.429688 C 48.558594 8.464844 48.578125 3.261719 48.578125 3.261719 "/>
<path style=" stroke:none;fill-rule:evenodd;fill:rgb(0%,48.999023%,76.499939%);fill-opacity:1;" d="M 26.753906 21.90625 L 30.210938 21.90625 L 30.210938 12.75 C 30.210938 12.75 30.15625 11.105469 31.207031 10.402344 C 31.527344 10.1875 31.867188 10.089844 32.195313 10.0625 C 32.527344 10.039063 32.84375 10.085938 33.117188 10.167969 C 33.65625 10.328125 34.195313 10.867188 34.40625 11.390625 C 34.492188 11.59375 34.710938 12.421875 34.449219 13.066406 C 34.171875 13.746094 33.40625 14.234375 32.949219 14.339844 C 32.476563 14.449219 31.835938 14.464844 31 14.203125 L 31 17.410156 C 31 17.410156 33.289063 18.074219 35.269531 17.054688 C 36.667969 16.335938 37.5625 15.011719 37.914063 13.671875 C 38.058594 13.121094 38.109375 12.5625 38.066406 12.050781 C 37.910156 10.289063 37.09375 7.996094 34.296875 7.089844 C 32.703125 6.578125 31.042969 6.871094 29.785156 7.402344 C 28.371094 8 27.617188 8.917969 27.222656 9.808594 C 26.960938 10.402344 26.855469 10.988281 26.796875 11.808594 C 26.75 12.488281 26.734375 13.238281 26.734375 13.742188 C 26.734375 16.703125 26.753906 21.90625 26.753906 21.90625 "/>
<path style=" stroke:none;fill-rule:nonzero;fill:rgb(0%,48.999023%,76.499939%);fill-opacity:1;" d="M 38.804688 17.496094 L 38.804688 11.289063 C 38.804688 11.289063 38.847656 7.902344 41.683594 7.085938 C 44.519531 6.269531 46.519531 7.878906 47.050781 8.839844 C 47.582031 9.796875 47.746094 11.1875 47.726563 11.675781 C 47.703125 12.164063 47.726563 17.492188 47.726563 17.492188 L 44.335938 17.492188 L 44.335938 11.695313 C 44.335938 11.695313 44.398438 10.167969 43.234375 10.167969 C 42.074219 10.167969 42.152344 11.492188 42.152344 11.492188 L 42.164063 17.484375 L 38.804688 17.496094 "/>
<path style=" stroke:none;fill-rule:nonzero;fill:rgb(0%,48.999023%,76.499939%);fill-opacity:1;" d="M 89.996094 13.121094 L 83.226563 13.121094 C 83.226563 14.429688 83.917969 15.136719 85.242188 15.136719 C 85.929688 15.136719 86.425781 14.90625 86.78125 14.308594 L 89.875 14.308594 C 89.359375 16.445313 87.328125 17.417969 85.261719 17.417969 C 82.253906 17.417969 80.007813 15.71875 80.007813 12.59375 C 80.007813 9.570313 82.078125 7.75 85.03125 7.75 C 88.175781 7.75 89.996094 9.695313 89.996094 12.785156 Z M 87.011719 11.265625 C 86.851563 10.402344 86.054688 9.835938 85.191406 9.835938 C 84.253906 9.835938 83.472656 10.328125 83.277344 11.265625 L 87.011719 11.265625 "/>
<path style=" stroke:none;fill-rule:nonzero;fill:rgb(0%,48.999023%,76.499939%);fill-opacity:1;" d="M 95.660156 17.257813 L 92.441406 17.257813 L 92.441406 10.84375 L 90.832031 10.84375 L 90.832031 8.191406 L 92.441406 8.191406 L 92.441406 5.46875 L 95.660156 5.46875 L 95.660156 8.191406 L 97.246094 8.191406 L 97.246094 10.84375 L 95.660156 10.84375 L 95.660156 17.257813 "/>
<path style=" stroke:none;fill-rule:nonzero;fill:rgb(0%,48.999023%,76.499939%);fill-opacity:1;" d="M 110.402344 17.257813 L 107.1875 17.257813 L 107.1875 7.570313 L 110.402344 7.570313 L 110.402344 17.257813 "/>
<path style=" stroke:none;fill-rule:nonzero;fill:rgb(0%,48.999023%,76.499939%);fill-opacity:1;" d="M 116.855469 17.21875 L 113.640625 17.21875 L 113.640625 11.117188 L 112.035156 11.117188 L 112.035156 8.464844 L 113.640625 8.464844 L 113.640625 7.992188 C 113.640625 6.734375 113.675781 5.816406 114.558594 4.808594 C 115.355469 3.875 116.503906 3.359375 117.722656 3.359375 C 118.21875 3.359375 118.65625 3.449219 119.101563 3.679688 L 119.101563 6.453125 C 118.730469 6.296875 118.394531 6.152344 117.96875 6.152344 C 117.140625 6.152344 116.855469 6.648438 116.855469 7.671875 L 116.855469 8.464844 L 118.777344 8.464844 L 118.777344 11.117188 L 116.855469 11.117188 L 116.855469 17.21875 "/>
<path style=" stroke:none;fill-rule:nonzero;fill:rgb(0%,48.999023%,76.499939%);fill-opacity:1;" d="M 129.472656 13.128906 L 122.703125 13.128906 C 122.703125 14.4375 123.394531 15.144531 124.71875 15.144531 C 125.40625 15.144531 125.902344 14.914063 126.257813 14.3125 L 129.351563 14.3125 C 128.839844 16.449219 126.804688 17.425781 124.734375 17.425781 C 121.730469 17.425781 119.488281 15.726563 119.488281 12.597656 C 119.488281 9.578125 121.554688 7.753906 124.507813 7.753906 C 127.652344 7.753906 129.472656 9.699219 129.472656 12.792969 Z M 126.484375 11.273438 C 126.324219 10.40625 125.53125 9.84375 124.664063 9.84375 C 123.726563 9.84375 122.949219 10.335938 122.757813 11.273438 L 126.484375 11.273438 "/>
<path style=" stroke:none;fill-rule:nonzero;fill:rgb(0%,48.999023%,76.499939%);fill-opacity:1;" d="M 108.785156 2.371094 C 107.691406 2.371094 106.800781 3.261719 106.800781 4.359375 C 106.800781 5.453125 107.691406 6.34375 108.785156 6.34375 C 109.882813 6.34375 110.773438 5.453125 110.773438 4.359375 C 110.773438 3.261719 109.882813 2.371094 108.785156 2.371094 "/>
<path style=" stroke:none;fill-rule:nonzero;fill:rgb(0%,48.999023%,76.499939%);fill-opacity:1;" d="M 65.46875 4.558594 L 68.71875 4.558594 L 71.300781 11.351563 L 74.03125 4.558594 L 77.320313 4.558594 L 79.242188 17.269531 L 75.9375 17.269531 L 75.007813 9.953125 L 74.976563 9.953125 L 71.925781 17.269531 L 70.609375 17.269531 L 67.691406 9.953125 L 67.65625 9.953125 L 66.59375 17.269531 L 63.308594 17.269531 L 65.46875 4.558594 "/>
<path style=" stroke:none;fill-rule:nonzero;fill:rgb(0%,48.999023%,76.499939%);fill-opacity:1;" d="M 101.964844 14.40625 L 105.988281 14.40625 L 105.988281 17.25 L 98.605469 17.25 L 98.605469 4.335938 L 101.964844 4.335938 L 101.964844 14.40625 "/>
</g>
</svg>
