<svg width="24" height="24" viewBox="0 0 40 40" fill="none" xmlns="http://www.w3.org/2000/svg">
<path d="M12.5008 39.375H12.6758V39.2001V38.3V38.125H12.5008H2.50078H2.32578V38.3V39.2001V39.375H2.50078H12.5008ZM14.2008 37.675H14.3758V37.5V27.5V27.3251H14.2008H13.3008H13.1258V27.5V37.5V37.675H13.3008H14.2008ZM1.70078 37.675H1.87578V37.5V27.5V27.3251H1.70078H0.800781H0.625781V27.5V37.5V37.675H0.800781H1.70078ZM25.0008 26.875H25.1758V26.7001V25.8V25.625H25.0008H15.0008H14.8258V25.8V26.7001V26.875H15.0008H25.0008ZM12.5008 26.875H12.6758V26.7001V25.8V25.625H12.5008H2.50078H2.32578V25.8V26.7001V26.875H2.50078H12.5008ZM26.7008 25.175H26.8758L26.8758 25.0001L26.877 15.0001L26.8771 14.825H26.702H25.8008H25.6258V15V25V25.175H25.8008H26.7008ZM14.2008 25.175H14.3758V25V15V14.825H14.2008H13.3008H13.1258V15V25V25.175H13.3008H14.2008ZM15.8095 20.1951L15.6858 20.3188L15.8095 20.4425L18.3095 22.9425C18.4313 23.0643 18.5915 23.125 18.7508 23.125C18.9105 23.125 19.0705 23.0641 19.1933 22.9413L24.1933 17.9413L24.3171 17.8174L24.1932 17.6937L23.5557 17.0574L23.4319 16.9339L23.3083 17.0576L18.7508 21.6163L16.6933 19.5588L16.5695 19.4351L16.4458 19.5588L15.8095 20.1951ZM37.5008 14.375H37.6758V14.2V13.3V13.125H37.5008H27.5008H27.3258V13.3V14.2V14.375H27.5008H37.5008ZM25.0008 14.375H25.1758V14.2V13.3V13.125H25.0008H15.0008H14.8258V13.3V14.2V14.375H15.0008H25.0008ZM39.2008 12.675H39.3758L39.3758 12.5001L39.377 2.50007L39.3771 2.32505H39.202H38.3008H38.1258V2.50005V12.5V12.675H38.3008H39.2008ZM26.7008 12.675H26.8758L26.8758 12.5001L26.877 2.50007L26.8771 2.32505H26.702H25.8008H25.6258V2.50005V12.5V12.675H25.8008H26.7008ZM37.5008 1.87505H37.6758V1.70005V0.800049V0.625049H37.5008H27.5008H27.3258V0.800049V1.70005V1.87505H27.5008H37.5008Z" fill="#A56EFF" stroke="#A56EFF" stroke-width="0.35"/>
</svg>
