<?xml version="1.0" encoding="UTF-8"?>
<svg xmlns="http://www.w3.org/2000/svg" xmlns:xlink="http://www.w3.org/1999/xlink" width="177.46pt" height="44.29pt" viewBox="0 0 177.46 44.29" version="1.1">
<defs>
<clipPath id="clip1">
  <path d="M 100 38 L 105 38 L 105 44.289063 L 100 44.289063 Z M 100 38 "/>
</clipPath>
<clipPath id="clip2">
  <path d="M 105 38 L 110 38 L 110 44.289063 L 105 44.289063 Z M 105 38 "/>
</clipPath>
<clipPath id="clip3">
  <path d="M 110 38 L 116 38 L 116 44.289063 L 110 44.289063 Z M 110 38 "/>
</clipPath>
<clipPath id="clip4">
  <path d="M 116 38 L 120 38 L 120 44.289063 L 116 44.289063 Z M 116 38 "/>
</clipPath>
<clipPath id="clip5">
  <path d="M 120 38 L 124 38 L 124 44.289063 L 120 44.289063 Z M 120 38 "/>
</clipPath>
<clipPath id="clip6">
  <path d="M 158 38 L 163 38 L 163 44.289063 L 158 44.289063 Z M 158 38 "/>
</clipPath>
<clipPath id="clip7">
  <path d="M 162 38 L 168 38 L 168 44.289063 L 162 44.289063 Z M 162 38 "/>
</clipPath>
<clipPath id="clip8">
  <path d="M 173 38 L 177.460938 38 L 177.460938 44.289063 L 173 44.289063 Z M 173 38 "/>
</clipPath>
<clipPath id="clip9">
  <path d="M 126 38 L 131 38 L 131 44.289063 L 126 44.289063 Z M 126 38 "/>
</clipPath>
<clipPath id="clip10">
  <path d="M 131 38 L 133 38 L 133 44.289063 L 131 44.289063 Z M 131 38 "/>
</clipPath>
<clipPath id="clip11">
  <path d="M 137 38 L 143 38 L 143 44.289063 L 137 44.289063 Z M 137 38 "/>
</clipPath>
<clipPath id="clip12">
  <path d="M 147 38 L 152 38 L 152 44.289063 L 147 44.289063 Z M 147 38 "/>
</clipPath>
<clipPath id="clip13">
  <path d="M 151 38 L 156 38 L 156 44.289063 L 151 44.289063 Z M 151 38 "/>
</clipPath>
<clipPath id="clip14">
  <path d="M 133 38 L 137 38 L 137 44.289063 L 133 44.289063 Z M 133 38 "/>
</clipPath>
<clipPath id="clip15">
  <path d="M 143 38 L 147 38 L 147 44.289063 L 143 44.289063 Z M 143 38 "/>
</clipPath>
<clipPath id="clip16">
  <path d="M 168 38 L 173 38 L 173 44.289063 L 168 44.289063 Z M 168 38 "/>
</clipPath>
<clipPath id="clip17">
  <path d="M 73 10 L 84 10 L 84 44.289063 L 73 44.289063 Z M 73 10 "/>
</clipPath>
<clipPath id="clip18">
  <path d="M 86 10 L 97 10 L 97 44.289063 L 86 44.289063 Z M 86 10 "/>
</clipPath>
<clipPath id="clip19">
  <path d="M 153 10 L 177.460938 10 L 177.460938 34 L 153 34 Z M 153 10 "/>
</clipPath>
<clipPath id="clip20">
  <path d="M 11 31 L 37 31 L 37 44.289063 L 11 44.289063 Z M 11 31 "/>
</clipPath>
</defs>
<g id="surface1">
<g clip-path="url(#clip1)" clip-rule="nonzero">
<path style=" stroke:none;fill-rule:nonzero;fill:rgb(1.998901%,52.198792%,44.699097%);fill-opacity:1;" d="M 103.902344 41.523438 C 103.8125 41.398438 103.695313 41.289063 103.550781 41.199219 C 103.410156 41.113281 103.242188 41.039063 103.050781 40.972656 L 102.257813 40.710938 C 102.117188 40.667969 102.007813 40.621094 101.917969 40.582031 C 101.839844 40.546875 101.78125 40.5 101.738281 40.457031 C 101.695313 40.410156 101.671875 40.359375 101.65625 40.304688 C 101.640625 40.242188 101.632813 40.160156 101.632813 40.066406 L 101.632813 39.847656 C 101.632813 39.609375 101.695313 39.4375 101.816406 39.320313 C 102.003906 39.144531 102.449219 39.113281 103.03125 39.1875 C 103.234375 39.210938 103.4375 39.242188 103.632813 39.285156 L 103.742188 39.304688 L 103.765625 38.472656 L 103.683594 38.460938 C 103.476563 38.421875 103.257813 38.386719 103.035156 38.359375 C 102.816406 38.335938 102.625 38.320313 102.476563 38.320313 C 101.863281 38.320313 101.410156 38.460938 101.136719 38.734375 C 100.859375 39.011719 100.722656 39.410156 100.722656 39.914063 L 100.722656 40.003906 C 100.722656 40.222656 100.742188 40.417969 100.78125 40.574219 C 100.820313 40.738281 100.882813 40.882813 100.96875 41.003906 C 101.054688 41.128906 101.171875 41.238281 101.316406 41.320313 C 101.453125 41.40625 101.628906 41.480469 101.832031 41.542969 L 102.710938 41.835938 C 102.917969 41.902344 103.0625 41.980469 103.136719 42.070313 C 103.207031 42.160156 103.242188 42.292969 103.242188 42.464844 L 103.242188 42.75 C 103.242188 42.980469 103.167969 43.152344 103.023438 43.265625 C 102.867188 43.382813 102.582031 43.445313 102.167969 43.445313 C 102.023438 43.445313 101.847656 43.433594 101.640625 43.40625 C 101.433594 43.375 101.210938 43.335938 100.984375 43.277344 L 100.867188 43.25 L 100.847656 44.101563 L 100.921875 44.117188 C 101.175781 44.175781 101.414063 44.21875 101.640625 44.246094 C 101.863281 44.277344 102.046875 44.289063 102.1875 44.289063 C 102.53125 44.289063 102.835938 44.253906 103.078125 44.1875 C 103.328125 44.121094 103.539063 44.015625 103.699219 43.878906 C 103.863281 43.742188 103.980469 43.570313 104.050781 43.367188 C 104.117188 43.171875 104.152344 42.941406 104.152344 42.6875 L 104.152344 42.527344 C 104.152344 42.3125 104.132813 42.117188 104.097656 41.960938 C 104.054688 41.796875 103.992188 41.648438 103.902344 41.523438 "/>
</g>
<g clip-path="url(#clip2)" clip-rule="nonzero">
<path style=" stroke:none;fill-rule:nonzero;fill:rgb(1.998901%,52.198792%,44.699097%);fill-opacity:1;" d="M 108.691406 38.421875 L 107.511719 42.527344 L 106.324219 38.421875 L 105.085938 38.421875 L 105.03125 44.1875 L 105.929688 44.1875 L 105.964844 40.144531 L 106.988281 43.609375 L 108.023438 43.609375 L 109.050781 40.144531 L 109.089844 44.1875 L 109.980469 44.1875 L 109.929688 38.421875 L 108.691406 38.421875 "/>
</g>
<g clip-path="url(#clip3)" clip-rule="nonzero">
<path style=" stroke:none;fill-rule:nonzero;fill:rgb(1.998901%,52.198792%,44.699097%);fill-opacity:1;" d="M 113.792969 42.058594 L 112.359375 42.058594 L 113.082031 39.527344 Z M 112.578125 38.421875 L 110.820313 44.1875 L 111.757813 44.1875 L 112.125 42.894531 L 114.035156 42.894531 L 114.402344 44.1875 L 115.382813 44.1875 L 113.613281 38.421875 L 112.578125 38.421875 "/>
</g>
<g clip-path="url(#clip4)" clip-rule="nonzero">
<path style=" stroke:none;fill-rule:nonzero;fill:rgb(1.998901%,52.198792%,44.699097%);fill-opacity:1;" d="M 117.152344 38.421875 L 116.242188 38.421875 L 116.242188 44.1875 L 119.367188 44.1875 L 119.367188 43.359375 L 117.152344 43.359375 L 117.152344 38.421875 "/>
</g>
<g clip-path="url(#clip5)" clip-rule="nonzero">
<path style=" stroke:none;fill-rule:nonzero;fill:rgb(1.998901%,52.198792%,44.699097%);fill-opacity:1;" d="M 121.21875 38.421875 L 120.304688 38.421875 L 120.304688 44.1875 L 123.429688 44.1875 L 123.429688 43.359375 L 121.21875 43.359375 L 121.21875 38.421875 "/>
</g>
<g clip-path="url(#clip6)" clip-rule="nonzero">
<path style=" stroke:none;fill-rule:nonzero;fill:rgb(1.998901%,52.198792%,44.699097%);fill-opacity:1;" d="M 160.179688 39.132813 C 160.597656 39.132813 160.894531 39.199219 161.058594 39.332031 C 161.222656 39.460938 161.304688 39.644531 161.304688 39.886719 L 161.304688 40.03125 C 161.304688 40.300781 161.226563 40.507813 161.070313 40.652344 C 160.910156 40.800781 160.671875 40.875 160.351563 40.875 L 159.609375 40.875 L 159.609375 39.152344 C 159.8125 39.136719 160.003906 39.132813 160.179688 39.132813 M 161.53125 42.433594 L 161.53125 42.613281 C 161.53125 42.875 161.445313 43.078125 161.265625 43.234375 C 161.085938 43.390625 160.777344 43.472656 160.351563 43.472656 L 160.160156 43.472656 C 160.113281 43.472656 160.058594 43.46875 160.007813 43.464844 C 159.945313 43.457031 159.878906 43.453125 159.804688 43.445313 C 159.746094 43.441406 159.683594 43.4375 159.609375 43.429688 L 159.609375 41.652344 L 160.402344 41.652344 C 160.808594 41.652344 161.101563 41.71875 161.277344 41.855469 C 161.449219 41.988281 161.53125 42.179688 161.53125 42.433594 M 161.589844 41.175781 C 161.773438 41.0625 161.914063 40.921875 162.015625 40.753906 C 162.148438 40.527344 162.214844 40.265625 162.214844 39.964844 L 162.214844 39.777344 C 162.214844 39.347656 162.050781 38.992188 161.726563 38.722656 C 161.40625 38.457031 160.921875 38.320313 160.289063 38.320313 C 159.984375 38.320313 159.703125 38.324219 159.457031 38.328125 C 159.210938 38.335938 158.984375 38.34375 158.785156 38.355469 L 158.699219 38.359375 L 158.699219 44.234375 L 158.785156 44.238281 C 158.992188 44.25 159.164063 44.257813 159.304688 44.265625 C 159.441406 44.269531 159.566406 44.277344 159.675781 44.28125 C 159.789063 44.285156 159.898438 44.289063 160 44.289063 L 160.351563 44.289063 C 160.703125 44.289063 161.015625 44.25 161.277344 44.171875 C 161.539063 44.089844 161.761719 43.980469 161.929688 43.835938 C 162.101563 43.691406 162.234375 43.511719 162.316406 43.308594 C 162.402344 43.109375 162.445313 42.886719 162.445313 42.65625 L 162.445313 42.464844 C 162.445313 42.113281 162.347656 41.8125 162.15625 41.574219 C 162.011719 41.394531 161.820313 41.261719 161.589844 41.175781 "/>
</g>
<g clip-path="url(#clip7)" clip-rule="nonzero">
<path style=" stroke:none;fill-rule:nonzero;fill:rgb(1.998901%,52.198792%,44.699097%);fill-opacity:1;" d="M 165.902344 42.058594 L 164.464844 42.058594 L 165.191406 39.527344 Z M 164.6875 38.421875 L 162.929688 44.1875 L 163.867188 44.1875 L 164.234375 42.894531 L 166.144531 42.894531 L 166.507813 44.1875 L 167.492188 44.1875 L 165.722656 38.421875 L 164.6875 38.421875 "/>
</g>
<g clip-path="url(#clip8)" clip-rule="nonzero">
<path style=" stroke:none;fill-rule:nonzero;fill:rgb(1.998901%,52.198792%,44.699097%);fill-opacity:1;" d="M 175.003906 41.214844 L 177.214844 38.421875 L 176.164063 38.421875 L 174.226563 40.929688 L 174.226563 38.421875 L 173.320313 38.421875 L 173.320313 44.1875 L 174.226563 44.1875 L 174.226563 41.609375 L 176.265625 44.1875 L 177.441406 44.1875 L 175.003906 41.214844 "/>
</g>
<g clip-path="url(#clip9)" clip-rule="nonzero">
<path style=" stroke:none;fill-rule:nonzero;fill:rgb(1.998901%,52.198792%,44.699097%);fill-opacity:1;" d="M 126.996094 44.1875 L 127.90625 44.1875 L 127.90625 41.675781 L 129.574219 41.675781 L 129.574219 40.84375 L 127.90625 40.84375 L 127.90625 39.269531 L 130.121094 39.269531 L 130.121094 38.421875 L 126.996094 38.421875 L 126.996094 44.1875 "/>
</g>
<g clip-path="url(#clip10)" clip-rule="nonzero">
<path style=" stroke:none;fill-rule:nonzero;fill:rgb(1.998901%,52.198792%,44.699097%);fill-opacity:1;" d="M 131.117188 44.1875 L 132.027344 44.1875 L 132.027344 38.421875 L 131.117188 38.421875 L 131.117188 44.1875 "/>
</g>
<g clip-path="url(#clip11)" clip-rule="nonzero">
<path style=" stroke:none;fill-rule:nonzero;fill:rgb(1.998901%,52.198792%,44.699097%);fill-opacity:1;" d="M 140.722656 42.058594 L 139.285156 42.058594 L 140.011719 39.527344 Z M 139.507813 38.421875 L 137.746094 44.1875 L 138.6875 44.1875 L 139.054688 42.894531 L 140.960938 42.894531 L 141.328125 44.1875 L 142.3125 44.1875 L 140.542969 38.421875 L 139.507813 38.421875 "/>
</g>
<g clip-path="url(#clip12)" clip-rule="nonzero">
<path style=" stroke:none;fill-rule:nonzero;fill:rgb(1.998901%,52.198792%,44.699097%);fill-opacity:1;" d="M 149.007813 39.355469 C 149.15625 39.21875 149.417969 39.148438 149.78125 39.148438 C 149.988281 39.148438 150.195313 39.164063 150.398438 39.195313 C 150.609375 39.226563 150.78125 39.253906 150.921875 39.285156 L 151.03125 39.304688 L 151.054688 38.472656 L 150.390625 38.371094 C 150.183594 38.335938 149.980469 38.320313 149.78125 38.320313 C 149.09375 38.320313 148.601563 38.472656 148.308594 38.777344 C 148.019531 39.078125 147.875 39.535156 147.875 40.132813 L 147.875 42.476563 C 147.875 42.769531 147.90625 43.03125 147.972656 43.25 C 148.039063 43.480469 148.148438 43.675781 148.300781 43.832031 C 148.453125 43.988281 148.65625 44.105469 148.90625 44.179688 C 149.144531 44.253906 149.441406 44.289063 149.78125 44.289063 C 149.980469 44.289063 150.183594 44.273438 150.390625 44.242188 L 151.054688 44.140625 L 151.03125 43.289063 L 150.921875 43.3125 C 150.78125 43.339844 150.609375 43.371094 150.398438 43.402344 C 150.195313 43.429688 149.988281 43.445313 149.78125 43.445313 C 149.417969 43.445313 149.15625 43.375 149.007813 43.238281 C 148.863281 43.101563 148.785156 42.859375 148.785156 42.519531 L 148.785156 40.085938 C 148.785156 39.738281 148.863281 39.492188 149.007813 39.355469 "/>
</g>
<g clip-path="url(#clip13)" clip-rule="nonzero">
<path style=" stroke:none;fill-rule:nonzero;fill:rgb(1.998901%,52.198792%,44.699097%);fill-opacity:1;" d="M 151.894531 44.1875 L 155.023438 44.1875 L 155.023438 43.34375 L 152.808594 43.34375 L 152.808594 41.675781 L 154.851563 41.675781 L 154.851563 40.84375 L 152.808594 40.84375 L 152.808594 39.269531 L 155.023438 39.269531 L 155.023438 38.421875 L 151.894531 38.421875 L 151.894531 44.1875 "/>
</g>
<g clip-path="url(#clip14)" clip-rule="nonzero">
<path style=" stroke:none;fill-rule:nonzero;fill:rgb(1.998901%,52.198792%,44.699097%);fill-opacity:1;" d="M 136.089844 42.347656 L 134.03125 38.421875 L 133.128906 38.421875 L 133.128906 44.1875 L 134.03125 44.1875 L 134.03125 40.210938 L 136.089844 44.1875 L 136.992188 44.1875 L 136.992188 38.421875 L 136.089844 38.421875 L 136.089844 42.347656 "/>
</g>
<g clip-path="url(#clip15)" clip-rule="nonzero">
<path style=" stroke:none;fill-rule:nonzero;fill:rgb(1.998901%,52.198792%,44.699097%);fill-opacity:1;" d="M 146.023438 42.347656 L 143.964844 38.421875 L 143.0625 38.421875 L 143.0625 44.1875 L 143.964844 44.1875 L 143.964844 40.210938 L 146.023438 44.1875 L 146.925781 44.1875 L 146.925781 38.421875 L 146.023438 38.421875 L 146.023438 42.347656 "/>
</g>
<g clip-path="url(#clip16)" clip-rule="nonzero">
<path style=" stroke:none;fill-rule:nonzero;fill:rgb(1.998901%,52.198792%,44.699097%);fill-opacity:1;" d="M 171.257813 42.347656 L 169.199219 38.421875 L 168.296875 38.421875 L 168.296875 44.1875 L 169.199219 44.1875 L 169.199219 40.210938 L 171.257813 44.1875 L 172.164063 44.1875 L 172.164063 38.421875 L 171.257813 38.421875 L 171.257813 42.347656 "/>
</g>
<g clip-path="url(#clip17)" clip-rule="nonzero">
<path style=" stroke:none;fill-rule:nonzero;fill:rgb(96.099854%,50.999451%,19.999695%);fill-opacity:1;" d="M 74.652344 10.160156 L 74.652344 10.871094 C 76.300781 11.203125 76.601563 12.347656 76.601563 14.605469 L 76.601563 39.144531 C 76.503906 41.0625 75.265625 42.675781 73.546875 43.316406 L 73.546875 44.144531 C 73.652344 44.148438 73.765625 44.152344 73.871094 44.152344 C 74.835938 44.152344 75.753906 43.976563 76.601563 43.660156 C 79.503906 42.578125 81.585938 39.820313 81.671875 36.5625 L 81.671875 14.605469 C 81.671875 12.347656 81.976563 11.203125 83.621094 10.871094 L 83.621094 10.160156 L 74.652344 10.160156 "/>
</g>
<g clip-path="url(#clip18)" clip-rule="nonzero">
<path style=" stroke:none;fill-rule:nonzero;fill:rgb(96.099854%,50.999451%,19.999695%);fill-opacity:1;" d="M 87.546875 10.160156 L 87.546875 10.871094 C 89.195313 11.203125 89.5 12.347656 89.5 14.605469 L 89.5 39.144531 C 89.398438 41.0625 88.160156 42.675781 86.441406 43.316406 L 86.441406 44.144531 C 86.550781 44.148438 86.660156 44.152344 86.769531 44.152344 C 87.730469 44.152344 88.652344 43.976563 89.5 43.660156 C 92.402344 42.578125 94.480469 39.820313 94.570313 36.5625 L 94.570313 14.605469 C 94.570313 12.347656 94.875 11.203125 96.515625 10.871094 L 96.515625 10.160156 L 87.546875 10.160156 "/>
</g>
<path style=" stroke:none;fill-rule:nonzero;fill:rgb(96.099854%,50.999451%,19.999695%);fill-opacity:1;" d="M 126.296875 10.160156 L 126.296875 10.871094 C 127.410156 11.1875 127.769531 11.832031 127.769531 12.601563 C 127.769531 13.582031 127.378906 14.601563 126.945313 15.785156 L 123.410156 25.480469 L 117.839844 11.558594 C 117.476563 10.734375 116.660156 10.160156 115.703125 10.160156 L 110.527344 10.160156 L 110.527344 10.871094 C 112.179688 11.0625 112.953125 12.246094 113.898438 14.644531 L 121.371094 33.4375 L 122.199219 33.4375 L 129.390625 14.644531 C 130.1875 12.53125 130.914063 11.25 132.203125 10.871094 L 132.203125 10.160156 L 126.296875 10.160156 "/>
<path style=" stroke:none;fill-rule:nonzero;fill:rgb(96.099854%,50.999451%,19.999695%);fill-opacity:1;" d="M 134.140625 23.433594 L 137.226563 15.089844 L 140.511719 23.433594 Z M 148.742188 31.242188 C 148.371094 30.65625 147.558594 28.695313 147.558594 28.695313 L 140.304688 10.160156 L 137.265625 10.160156 L 130.203125 28.992188 C 129.4375 31.035156 128.730469 32.320313 127.515625 32.734375 L 127.515625 33.445313 L 132.636719 33.445313 L 132.636719 32.734375 C 131.621094 32.5 131.402344 32.074219 131.402344 31.414063 C 131.402344 30.597656 131.753906 29.816406 132.0625 28.992188 L 133.433594 25.519531 L 141.335938 25.515625 L 143.90625 32.019531 C 144.28125 32.871094 145.117188 33.394531 146.074219 33.445313 L 151.054688 33.445313 L 151.054688 32.730469 C 150.042969 32.636719 149.351563 32.191406 148.742188 31.242188 "/>
<path style=" stroke:none;fill-rule:nonzero;fill:rgb(96.099854%,50.999451%,19.999695%);fill-opacity:1;" d="M 107.910156 29.539063 C 107.910156 26.511719 107.914063 12.679688 107.910156 12.628906 C 107.828125 11.253906 106.691406 10.164063 105.300781 10.160156 L 100.722656 10.160156 L 100.722656 10.871094 C 102.367188 11.203125 102.675781 12.34375 102.675781 14.605469 L 102.675781 29.433594 C 102.617188 31.386719 102.21875 32.425781 100.675781 32.734375 L 100.675781 33.4375 L 109.90625 33.4375 L 109.90625 32.734375 C 108.386719 32.425781 107.980469 31.421875 107.910156 29.539063 "/>
<g clip-path="url(#clip19)" clip-rule="nonzero">
<path style=" stroke:none;fill-rule:nonzero;fill:rgb(96.099854%,50.999451%,19.999695%);fill-opacity:1;" d="M 175.507813 28.996094 L 175.507813 17.921875 C 175.507813 12.695313 173.125 10.160156 168.214844 10.160156 C 165.09375 10.160156 162.4375 11.253906 160.0625 13.554688 L 160.058594 12.546875 C 159.976563 11.21875 158.878906 10.160156 157.53125 10.160156 L 153.105469 10.160156 L 153.105469 10.871094 C 154.621094 11.171875 154.964844 12.160156 154.992188 14.132813 L 154.992188 28.996094 C 154.992188 31.261719 154.6875 32.402344 153.042969 32.730469 L 153.042969 33.4375 L 162.015625 33.4375 L 162.015625 32.730469 C 160.363281 32.402344 160.0625 31.261719 160.0625 28.996094 L 160.0625 15.996094 C 162.011719 13.773438 164.160156 12.683594 166.34375 12.683594 C 169.339844 12.683594 170.433594 14.433594 170.433594 18.222656 L 170.433594 28.996094 C 170.433594 31.261719 170.132813 32.402344 168.484375 32.730469 L 168.484375 33.4375 L 177.453125 33.4375 L 177.453125 32.730469 C 175.808594 32.402344 175.507813 31.261719 175.507813 28.996094 "/>
</g>
<path style=" stroke:none;fill-rule:nonzero;fill:rgb(96.099854%,50.999451%,19.999695%);fill-opacity:1;" d="M 48.324219 14.601563 L 48.324219 25.683594 C 48.324219 30.910156 50.703125 33.441406 55.617188 33.441406 C 58.738281 33.441406 61.390625 32.347656 63.769531 30.046875 L 63.773438 31.054688 C 63.851563 32.386719 64.949219 33.4375 66.296875 33.441406 L 70.722656 33.441406 L 70.722656 32.738281 C 69.210938 32.4375 68.867188 31.441406 68.835938 29.46875 L 68.835938 14.601563 C 68.835938 12.34375 69.140625 11.203125 70.785156 10.871094 L 70.785156 10.160156 L 61.816406 10.160156 L 61.816406 10.871094 C 63.460938 11.199219 63.769531 12.34375 63.769531 14.601563 L 63.769531 27.601563 C 61.816406 29.828125 59.671875 30.917969 57.488281 30.917969 C 54.488281 30.917969 53.394531 29.164063 53.394531 25.378906 L 53.394531 14.601563 C 53.394531 12.34375 53.699219 11.203125 55.347656 10.871094 L 55.347656 10.160156 L 46.371094 10.160156 L 46.371094 10.871094 C 48.019531 11.199219 48.324219 12.34375 48.324219 14.601563 "/>
<path style=" stroke:none;fill-rule:nonzero;fill:rgb(1.998901%,52.198792%,44.699097%);fill-opacity:1;" d="M 37.011719 7.257813 C 37.144531 1.207031 39.550781 0.0273438 39.550781 0.0273438 C 39.550781 0.0273438 34.351563 -0.148438 33.203125 0.386719 C 27.902344 2.324219 27.058594 8.28125 27.054688 12.125 L 27.054688 12.152344 L 27.054688 12.125 C 27.058594 11.558594 27.007813 0.8125 15.445313 0.0585938 C 15.089844 0.0390625 0 0.0273438 0 0.0273438 C 0 0.0273438 2.425781 1.199219 2.546875 7.257813 L 2.546875 25.546875 C 2.925781 21.464844 4.753906 16.609375 9.160156 11.039063 C 12.933594 15.804688 14.816406 20.042969 15.519531 23.726563 C 18.203125 21.488281 21.90625 19.597656 27.015625 18.472656 C 27.015625 18.472656 27.59375 25.460938 24.71875 31.886719 C 27.964844 31.046875 31.824219 30.886719 36.371094 31.878906 C 36.722656 30.667969 36.941406 29.398438 37.011719 28.089844 L 37.011719 7.257813 "/>
<path style=" stroke:none;fill-rule:nonzero;fill:rgb(96.099854%,50.999451%,19.999695%);fill-opacity:1;" d="M 8.691406 40.261719 C 8.535156 36.597656 9.03125 29.140625 15.519531 23.726563 C 14.816406 20.042969 12.933594 15.804688 9.160156 11.039063 C 4.753906 16.609375 2.925781 21.464844 2.542969 25.546875 C 2.542969 25.546875 1.4375 34.289063 8.691406 40.261719 "/>
<path style=" stroke:none;fill-rule:nonzero;fill:rgb(97.999573%,65.098572%,20.399475%);fill-opacity:1;" d="M 27.015625 18.472656 C 21.90625 19.597656 18.203125 21.488281 15.519531 23.726563 C 9.03125 29.140625 8.535156 36.597656 8.691406 40.261719 C 8.867188 40.441406 11.402344 42.09375 11.402344 42.09375 C 13.398438 38.855469 17.570313 33.734375 24.71875 31.886719 C 27.59375 25.460938 27.015625 18.472656 27.015625 18.472656 "/>
<g clip-path="url(#clip20)" clip-rule="nonzero">
<path style=" stroke:none;fill-rule:nonzero;fill:rgb(99.198914%,72.499084%,19.999695%);fill-opacity:1;" d="M 24.71875 31.886719 C 17.570313 33.734375 13.398438 38.855469 11.402344 42.09375 C 11.414063 42.101563 11.421875 42.105469 11.433594 42.113281 C 15.660156 44.457031 20.066406 44.148438 20.066406 44.148438 C 27.804688 44.140625 34.332031 38.960938 36.371094 31.878906 C 31.824219 30.886719 27.964844 31.046875 24.71875 31.886719 "/>
</g>
</g>
</svg>
