<svg width="853" height="618" viewBox="0 0 853 618" fill="none" xmlns="http://www.w3.org/2000/svg">
<g clip-path="url(#clip0_1_4731)">
<path d="M792.013 555.912H688.013V615.912H792.013V555.912Z" fill="#6C63FF"/>
<path d="M578.453 602.03C577.519 605.206 577.086 608.908 579.025 611.591C580.096 612.935 581.507 613.968 583.111 614.584C587.238 616.199 591.679 616.851 596.096 616.489C596.942 616.529 597.787 616.392 598.577 616.088C599.368 615.785 600.087 615.321 600.689 614.726C610.937 606.242 617.867 594.419 620.264 581.333C620.458 580.658 620.421 579.937 620.16 579.284C619.823 578.779 619.35 578.378 618.797 578.128C616.517 576.699 614.059 575.576 611.486 574.789C597.408 571.155 581.941 590.162 578.453 602.03Z" fill="#2F2E41"/>
<path d="M726.095 557.533C727.986 559.73 730.318 561.506 732.938 562.745C734.253 563.354 735.688 563.657 737.137 563.632C738.585 563.608 740.009 563.256 741.302 562.603C745.175 560.398 746.273 555.275 745.964 550.828C745.392 542.605 741.464 535.195 736.95 528.478C735.521 526.352 732.36 520.027 729.585 519.948C728.267 519.911 723.337 524.69 721.998 525.6C717.104 528.923 713.715 531.301 714.733 537.68C715.869 544.796 721.306 552.41 726.095 557.533Z" fill="#2F2E41"/>
<path d="M683.19 217.422C662.357 215.807 642.458 216.405 621.588 215.334C619.834 215.244 620.679 235.321 618.862 246.222C617.928 251.825 586.514 580.059 590.413 580.725C600.426 582.819 610.554 584.32 620.744 585.217C624.877 585.581 663.407 371.711 661.56 354.33C666.605 361.729 684.372 395.889 693.357 435.184C705.211 487.03 708.7 545.672 716.068 542.383C720.812 535.87 727.249 530.779 734.68 527.664C746.858 523.134 727.122 273.74 706.269 262.274C706.013 254.975 705.745 247.496 702.994 240.73C699.114 231.187 691.459 223.567 683.19 217.422Z" fill="#2F2E41"/>
<path d="M851.787 617.73H277.706V615.548H852.182L851.787 617.73Z" fill="#3F3D56"/>
<path d="M471.013 294.368H0V387.363H471.013V294.368Z" fill="#E6E6E6"/>
<path d="M471.013 147.426H0V240.421H471.013V147.426Z" fill="#E6E6E6"/>
<path d="M471.013 0H0V92.9949H471.013V0Z" fill="#E6E6E6"/>
<path d="M10.041 82.9531H460.972V10.041H10.041V82.9531Z" fill="white"/>
<path d="M10.041 230.704H460.972V157.792H10.041V230.704Z" fill="white"/>
<path d="M10.041 377.322H460.972V304.41H10.041V377.322Z" fill="white"/>
<path d="M49.5169 73.6716C64.8581 73.6716 77.2946 61.2351 77.2946 45.8939C77.2946 30.5527 64.8581 18.1162 49.5169 18.1162C34.1757 18.1162 21.7393 30.5527 21.7393 45.8939C21.7393 61.2351 34.1757 73.6716 49.5169 73.6716Z" fill="#6C63FF"/>
<path d="M390.095 35.0244H115.941V41.063H390.095V35.0244Z" fill="#6C63FF"/>
<path d="M390.095 50.7246H115.941V56.7632H390.095V50.7246Z" fill="#6C63FF"/>
<path d="M49.5169 222.305C64.8581 222.305 77.2946 209.869 77.2946 194.528C77.2946 179.186 64.8581 166.75 49.5169 166.75C34.1757 166.75 21.7393 179.186 21.7393 194.528C21.7393 209.869 34.1757 222.305 49.5169 222.305Z" fill="#CCCCCC"/>
<path d="M390.095 183.658H115.941V189.697H390.095V183.658Z" fill="#CCCCCC"/>
<path d="M390.095 199.358H115.941V205.397H390.095V199.358Z" fill="#CCCCCC"/>
<path d="M49.5169 369.248C64.8581 369.248 77.2946 356.811 77.2946 341.47C77.2946 326.129 64.8581 313.692 49.5169 313.692C34.1758 313.692 21.7393 326.129 21.7393 341.47C21.7393 356.811 34.1758 369.248 49.5169 369.248Z" fill="#CCCCCC"/>
<path d="M390.095 330.601H115.941V336.639H390.095V330.601Z" fill="#CCCCCC"/>
<path d="M390.095 346.301H115.941V352.339H390.095V346.301Z" fill="#CCCCCC"/>
<path d="M678.057 58.2156C667.244 39.9458 645.853 39.0943 645.853 39.0943C645.853 39.0943 625.008 36.4287 611.636 64.2538C599.172 90.1891 581.971 115.23 608.867 121.301L613.725 106.181L616.733 122.427C620.563 122.703 624.405 122.768 628.241 122.624C657.045 121.694 684.475 122.896 683.592 112.56C682.418 98.82 688.461 75.7948 678.057 58.2156Z" fill="#2F2E41"/>
<path d="M638.168 120.463C638.22 122.52 638.205 124.689 637.183 126.474C635.157 130.013 630.212 130.543 627.237 133.332C624.109 136.266 623.755 141.027 623.606 145.313C623.45 149.794 623.318 154.422 624.953 158.597C625.955 160.896 627.221 163.072 628.726 165.078C630.542 167.696 632.375 170.302 634.225 172.897C635.212 174.358 636.313 175.74 637.517 177.029C640.83 180.403 645.374 182.271 649.911 183.604C652.842 184.465 656.007 185.136 658.916 184.2C660.84 183.449 662.614 182.359 664.152 180.98C666.401 179.368 668.398 177.432 670.08 175.235C672.522 171.692 673.198 167.257 673.704 162.984C675.201 150.348 675.783 137.62 675.447 124.9C675.508 123.514 675.26 122.132 674.72 120.854C673.214 117.913 669.179 117.285 667.053 114.755C665.236 112.592 665.162 109.505 665.177 106.68L665.217 99.4872C665.28 98.8812 665.158 98.2702 664.867 97.7349C664.604 97.4466 664.286 97.2132 663.932 97.048C663.578 96.8828 663.194 96.7891 662.804 96.7723C658.334 96.0305 653.802 95.7273 649.273 95.8671C645.601 95.9793 638.555 95.6719 635.38 97.7171C632.498 99.5735 636.107 104.701 636.774 107.581C637.672 111.817 638.139 116.133 638.168 120.463Z" fill="#FFB8B8"/>
<path d="M646.596 108.112C662.652 108.112 675.667 95.0962 675.667 79.0407C675.667 62.9853 662.652 49.9697 646.596 49.9697C630.541 49.9697 617.525 62.9853 617.525 79.0407C617.525 95.0962 630.541 108.112 646.596 108.112Z" fill="#FFB8B8"/>
<path d="M640.013 141.911C625.009 94.3634 617.104 161.149 607.644 179.384C607.731 191.957 608.072 226.731 611.013 239.911C622.435 291.113 679.002 287.094 696.013 243.911C705.074 220.909 684.973 163.9 685.654 137.3C660.744 112.059 659.207 192.136 640.013 141.911Z" fill="#6C63FF"/>
<path d="M623.542 125.602C591.031 141.404 606.541 183.857 594.757 211.641C585.345 249.76 561.409 261.747 616.137 262.634C627.929 227.792 616.411 189.945 632.489 154.467C633.596 140.571 638.362 135.346 637.94 123.579C634.787 118.695 626.621 124.089 623.542 125.602Z" fill="#575A88"/>
<path d="M673.276 56.4548L652.142 45.3838L622.957 49.9128L616.919 76.5828L631.95 76.0038L636.149 66.2058V75.8418L643.084 75.5758L647.111 59.9768L649.626 76.5828L674.283 76.0788L673.276 56.4548Z" fill="#2F2E41"/>
<path d="M660.204 138.985C676.938 137.032 660.623 116.937 673.905 117.278C713.676 110.589 725.575 135.222 710.449 169.602C696.585 197.14 745.63 235.824 718.231 251.232C708.507 254.802 694.583 266.03 685.08 261.141C669.823 222.793 669.271 178.978 660.204 138.985Z" fill="#575A88"/>
<path d="M706.779 248.46C700.953 251.247 696.344 255.678 692.444 260.826C691.618 261.915 692.726 263.948 695.2 263.915C697.502 263.884 698.878 260.932 701.18 260.901C701.883 267.054 703.157 273.128 704.985 279.046C709.578 275.013 712.328 269.335 714.96 263.818L720.161 252.913C722.07 248.909 723.981 244.903 725.702 240.815C726.17 239.859 726.459 238.826 726.555 237.766C726.782 230.731 719.845 230.688 716.854 235.091C713.582 239.907 712.563 245.694 706.779 248.46Z" fill="#FFB8B8"/>
<path d="M707.976 127.508C712.423 132.129 716.901 136.789 720.353 142.194C723.806 147.599 741.663 196.208 742.387 197.239C744.965 201.044 741.954 210.879 741.802 211.443C741.503 213.209 737.778 230.846 736.845 234.74C736.192 237.466 736.2 240.303 735.772 243.073C735.345 245.843 734.383 248.691 732.25 250.508C731.978 250.769 731.644 250.956 731.28 251.051C730.096 251.282 729.29 249.913 728.876 248.781C727.586 245.256 726.284 241.662 724.01 238.675C721.736 235.688 718.289 233.349 714.535 233.36C714.225 232.617 714.096 231.811 714.16 231.009C714.224 230.207 714.479 229.431 714.903 228.747C715.655 227.328 716.758 226.126 717.587 224.751C718.638 222.878 719.353 220.835 719.699 218.715C721.553 208.976 719.687 198.896 714.47 190.465C713.257 188.466 711.79 186.633 710.106 185.011C708.273 183.293 706.129 181.912 704.436 180.056C701.827 176.967 700.249 173.139 699.925 169.109C699.612 165.105 699.719 161.08 700.243 157.099C701.004 149.198 701.982 141.285 703.111 133.428C703.198 132.405 703.463 131.405 703.894 130.472C704.78 128.82 706.279 128.305 707.976 127.508Z" fill="#575A88"/>
<path d="M610.915 236.669C607.923 232.266 600.987 232.309 601.213 239.344C601.31 240.404 601.599 241.438 602.067 242.393C603.788 246.482 605.698 250.487 607.608 254.491L612.809 265.396C615.44 270.913 618.19 276.591 622.783 280.624C624.611 274.707 625.885 268.632 626.589 262.479C628.891 262.51 630.266 265.462 632.568 265.493C635.043 265.526 636.15 263.493 635.324 262.404C631.424 257.256 626.815 252.825 620.989 250.038C615.206 247.272 614.187 241.485 610.915 236.669Z" fill="#FFB8B8"/>
<path d="M623.875 132.05C624.306 132.983 624.572 133.983 624.659 135.007C625.787 142.864 626.765 150.776 627.527 158.677C628.05 162.658 628.157 166.683 627.845 170.687C627.52 174.717 625.943 178.545 623.333 181.634C621.641 183.49 619.496 184.871 617.663 186.589C615.979 188.211 614.512 190.044 613.299 192.043C608.082 200.474 606.216 210.554 608.07 220.293C608.416 222.413 609.131 224.456 610.182 226.329C611.012 227.704 612.115 228.906 612.867 230.325C613.291 231.009 613.545 231.785 613.609 232.587C613.673 233.389 613.545 234.195 613.234 234.938C609.48 234.927 606.034 237.266 603.759 240.253C601.485 243.24 600.183 246.834 598.893 250.359C598.479 251.491 597.673 252.86 596.49 252.629C596.125 252.534 595.791 252.347 595.52 252.087C593.386 250.269 592.424 247.421 591.997 244.651C591.569 241.881 591.578 239.044 590.925 236.318C589.991 232.424 586.266 214.787 585.968 213.021C585.815 212.457 582.804 202.622 585.382 198.817C586.106 197.786 603.964 149.177 607.416 143.772C610.868 138.367 615.347 133.707 619.794 129.086C621.491 129.883 622.989 130.398 623.875 132.05Z" fill="#575A88"/>
</g>
<defs>
<clipPath id="clip0_1_4731">
<rect width="852.182" height="617.73" fill="white"/>
</clipPath>
</defs>
</svg>
