<svg width="570" height="515" viewBox="0 0 570 515" fill="none" xmlns="http://www.w3.org/2000/svg">
<g clip-path="url(#clip0_115_1806)">
<path d="M108.706 350.957C107.978 351.302 107.161 351.414 106.368 351.279C105.574 351.144 104.841 350.768 104.267 350.202C103.694 349.636 103.309 348.908 103.164 348.116C103.018 347.324 103.12 346.506 103.455 345.774C103.394 345.373 103.351 345.084 103.29 344.683C103.225 344.618 103.159 344.552 103.093 344.487C96.4319 337.926 85.1481 342.706 85.1698 352.056C85.1889 360.354 84.4111 368.999 86.6152 376.86C87.5909 380.334 89.1619 383.613 91.2583 386.55C78.0764 374.39 67.6633 359.537 60.7251 343C58.9883 338.848 57.485 334.602 56.2223 330.283C55.1902 326.74 54.3159 323.16 53.5996 319.542C49.7338 299.903 50.5817 279.628 56.0736 260.38C60.379 255.007 62.9337 248.442 63.3935 241.572C63.5667 239.099 63.381 236.614 62.8423 234.194C62.2476 234.539 61.6297 234.858 61.0178 235.162C60.8261 235.254 60.6242 235.351 60.4325 235.443L60.36 235.477C59.6815 235.797 58.925 235.915 58.1815 235.815C57.4381 235.715 56.7394 235.402 56.1695 234.914C55.5997 234.426 55.183 233.784 54.9696 233.065C54.7562 232.346 54.7553 231.58 54.9669 230.86C55.0988 230.413 55.231 229.965 55.3633 229.517C55.5604 228.829 55.7721 228.147 55.9691 227.459C55.9962 227.39 56.0194 227.32 56.0385 227.248C56.2673 226.462 56.5003 225.686 56.7291 224.9C55.3013 223.918 53.666 223.279 51.9506 223.032C46.0322 222.235 40.2786 226.905 38.6415 232.641C36.994 238.381 38.8658 244.686 42.3077 249.56C45.2513 253.733 49.2418 257.02 53.4247 259.985C53.3048 260.423 53.1702 260.855 53.0503 261.292C50.8698 269.323 49.4815 277.548 48.9054 285.85C46.5302 277.812 42.2807 270.453 36.5065 264.378C30.9005 258.81 23.2979 255.325 16.2572 251.429C7.80009 246.749 -2.27384 254.544 0.455681 263.816C0.482113 263.906 0.508752 263.995 0.535603 264.085C1.38137 264.185 2.22259 264.315 3.05925 264.474C4.11264 264.68 5.07922 265.2 5.83235 265.965C6.58548 266.729 7.09003 267.704 7.27989 268.76C7.46975 269.817 7.33607 270.906 6.89635 271.885C6.45664 272.864 5.73142 273.688 4.81569 274.248L4.72191 274.305C5.99655 276.67 7.44913 278.934 9.06706 281.079C13.6489 287.038 19.4126 291.987 25.9967 295.615C32.5807 299.243 39.8433 301.471 47.329 302.161C47.8175 302.199 48.2957 302.241 48.7798 302.269C49.4175 313.521 51.5156 324.642 55.0212 335.352C57.1091 341.662 59.7039 347.794 62.7802 353.686L62.6587 353.483C58.4988 347.239 52.3117 342.623 45.1424 340.413C34.5339 337.226 22.3781 339.5 11.6791 337.846C6.52888 337.05 2.62907 342.49 5.33192 346.945C5.37506 347.017 5.41839 347.088 5.46192 347.159C6.94814 347.145 8.43375 347.224 9.91014 347.395C10.7559 347.496 11.5972 347.625 12.4338 347.785C13.4872 347.991 14.4538 348.51 15.2069 349.275C15.9601 350.04 16.4646 351.014 16.6545 352.071C16.8443 353.127 16.7107 354.217 16.2709 355.196C15.8312 356.175 15.106 356.998 14.1903 357.558L14.0964 357.616C14.0285 357.656 13.9709 357.692 13.9032 357.733C18.2386 362.007 23.2775 365.504 28.799 368.069C35.577 371.135 42.9097 372.784 50.3476 372.915C57.7854 373.046 65.1717 371.656 72.0535 368.832L72.0639 368.827C77.3106 376.145 83.3035 382.898 89.9462 388.976L118.722 376.951C118.691 376.588 118.646 376.219 118.605 375.861C116.012 377.141 113.271 378.099 110.445 378.714C111.485 375.202 112.516 371.669 113.557 368.157C113.584 368.088 113.607 368.018 113.626 367.947C114.149 366.153 114.686 364.366 115.209 362.573L115.208 362.571C113.549 358.437 111.363 354.534 108.707 350.958L108.706 350.957ZM48.6646 299.907L48.6712 299.88L48.6733 299.927L48.6646 299.907ZM66.3029 360.028L65.8227 359.575C65.6649 359.168 65.4968 358.766 65.3141 358.358C65.2666 358.244 65.1986 358.139 65.1512 358.026C65.5413 358.699 65.9213 359.376 66.3218 360.045L66.3029 360.028Z" fill="#F2F2F2"/>
<path d="M372.764 153.208C371.691 157.532 371.18 161.976 371.243 166.43L371.244 166.432C372.417 167.885 373.602 169.327 374.776 170.78C374.821 170.839 374.87 170.895 374.921 170.948C377.235 173.787 379.549 176.649 381.863 179.488C379.018 180.011 376.12 180.184 373.233 180.002C373.334 180.349 373.434 180.707 373.546 181.053H404.733C408.518 172.883 411.444 164.342 413.463 155.567H413.475C420.913 155.52 428.264 153.954 435.076 150.965C441.889 147.976 448.018 143.627 453.09 138.185C457.196 133.689 460.497 128.52 462.849 122.904C462.77 122.893 462.703 122.882 462.625 122.871L462.516 122.854C461.456 122.69 460.469 122.21 459.686 121.476C458.902 120.742 458.359 119.789 458.127 118.741C457.895 117.693 457.984 116.6 458.384 115.603C458.784 114.607 459.476 113.755 460.369 113.159C461.078 112.69 461.804 112.246 462.547 111.827C463.843 111.099 465.183 110.454 466.56 109.893C466.573 109.811 466.585 109.728 466.597 109.646C467.373 104.493 461.677 100.977 457.232 103.698C447.999 109.349 435.906 111.938 427.347 118.97C421.584 123.773 417.655 130.418 416.224 137.782L416.191 138.017C416.757 131.394 416.787 124.737 416.28 118.109C415.385 106.875 413.033 95.8053 409.283 85.178C409.719 84.9656 410.144 84.742 410.58 84.5185C417.221 80.9959 423.062 76.1394 427.738 70.2534C432.414 64.3674 435.824 57.5788 437.754 50.3132C438.42 47.7107 438.887 45.0613 439.151 42.3879L439.042 42.3711C437.981 42.2076 436.995 41.7274 436.211 40.9935C435.428 40.2596 434.885 39.3062 434.653 38.2583C434.421 37.2103 434.51 36.1167 434.91 35.1206C435.31 34.1246 436.002 33.2726 436.894 32.6763C437.604 32.2069 438.33 31.7627 439.073 31.3438C439.063 31.2508 439.053 31.1578 439.043 31.0648C437.986 21.4573 425.685 18.1496 419.687 25.7286C414.693 32.0384 409.022 38.1855 405.997 45.4843C403.011 53.3159 401.928 61.7444 402.836 70.0764C399.103 62.6391 394.651 55.5854 389.542 49.0166C389.263 48.6588 388.972 48.3123 388.693 47.9546C391.409 43.6063 393.823 39.0344 394.93 34.049C396.227 28.2252 395.523 21.6858 391.789 17.0246C388.067 12.3633 380.957 10.273 375.804 13.2911C374.316 14.1798 373.054 15.4001 372.115 16.8569C372.63 17.494 373.144 18.12 373.658 18.7572C373.703 18.8158 373.752 18.8718 373.803 18.9249C374.25 19.4838 374.709 20.0315 375.156 20.5904C375.451 20.9523 375.745 21.3144 376.04 21.6768C376.512 22.2593 376.807 22.966 376.887 23.7118C376.968 24.4576 376.831 25.2108 376.493 25.8807C376.155 26.5505 375.631 27.1085 374.984 27.4874C374.336 27.8663 373.593 28.05 372.844 28.0163L372.764 28.0128C372.551 28.0015 372.328 27.9903 372.115 27.9792C371.434 27.9345 370.74 27.8786 370.059 27.7892C370.495 30.2297 371.281 32.5941 372.395 34.8091C375.468 40.971 380.357 46.0427 386.401 49.3408C398.89 64.9822 407.49 83.363 411.496 102.974C412.234 106.584 412.808 110.225 413.218 113.895C413.718 118.367 413.968 122.864 413.967 127.365C413.942 145.299 410.061 163.018 402.587 179.321C403.389 175.802 403.574 172.171 403.135 168.59C402.137 160.487 398.086 152.81 394.904 145.146C391.319 136.511 379.065 136.452 375.449 145.074C375.413 145.159 375.377 145.245 375.342 145.331C375.441 145.724 375.512 146.007 375.611 146.4C376.202 146.947 376.611 147.662 376.783 148.449C376.954 149.236 376.879 150.057 376.569 150.8C376.258 151.542 375.726 152.172 375.046 152.603C374.366 153.034 373.569 153.245 372.765 153.208L372.764 153.208ZM408.478 82.9759L408.462 82.9314L408.478 82.9535V82.9759ZM415.375 145.25C415.487 144.478 415.576 143.707 415.677 142.936C415.677 143.059 415.654 143.182 415.654 143.305C415.643 143.752 415.643 144.188 415.654 144.624L415.386 145.227L415.375 145.25Z" fill="#F2F2F2"/>
<path d="M341.344 345.387H245.931C244.581 345.389 243.287 345.927 242.334 346.882C241.381 347.838 240.846 349.133 240.848 350.483V501.207H346.44V350.483C346.44 349.814 346.309 349.151 346.053 348.532C345.797 347.914 345.421 347.352 344.948 346.879C344.475 346.405 343.913 346.03 343.294 345.774C342.676 345.518 342.013 345.386 341.344 345.387ZM293.958 431.026C290.974 431.013 288.117 429.821 286.007 427.711C283.897 425.601 282.705 422.744 282.692 419.76V402.375C282.692 399.387 283.879 396.521 285.991 394.408C288.104 392.295 290.97 391.108 293.958 391.108C296.946 391.108 299.812 392.295 301.925 394.408C304.038 396.521 305.225 399.387 305.225 402.375V419.76C305.211 422.744 304.02 425.601 301.91 427.711C299.8 429.821 296.942 431.013 293.958 431.026Z" fill="#E6E6E6"/>
<path d="M240.52 496.387V510.929C240.521 511.682 240.821 512.404 241.354 512.937C241.887 513.47 242.609 513.77 243.362 513.772H343.924C344.677 513.768 345.398 513.467 345.93 512.935C346.462 512.402 346.763 511.681 346.767 510.929V496.387L240.52 496.387Z" fill="#CCCCCC"/>
<path d="M499.339 110.165H91.4863C87.9822 110.171 84.6232 111.565 82.1454 114.043C79.6677 116.521 78.2732 119.88 78.2676 123.384V398.605C78.2709 402.109 79.6647 405.47 82.143 407.948C84.6212 410.426 87.9815 411.82 91.4863 411.823H499.339C502.844 411.82 506.204 410.426 508.683 407.948C511.161 405.47 512.555 402.109 512.558 398.605V123.384C512.553 119.88 511.158 116.521 508.68 114.043C506.203 111.565 502.844 110.171 499.339 110.165Z" fill="#E6E6E6"/>
<path d="M495.933 119.709H94.8949C93.0181 119.713 91.2198 120.462 89.8942 121.791C88.5687 123.119 87.8243 124.919 87.8242 126.796V395.193C87.8263 397.068 88.572 398.865 89.8975 400.19C91.2231 401.516 93.0203 402.262 94.8949 402.264H495.933C497.808 402.262 499.605 401.516 500.931 400.19C502.256 398.865 503.002 397.068 503.004 395.193V126.796C503.004 124.919 502.259 123.119 500.934 121.791C499.608 120.462 497.81 119.713 495.933 119.709Z" fill="white"/>
<path d="M138.882 386.878C138.891 392.131 137.955 397.343 136.119 402.265H94.8935C93.0196 402.262 91.2234 401.516 89.8983 400.191C88.5733 398.866 87.8274 397.07 87.8242 395.196V343.345C90.1276 342.972 92.4573 342.785 94.7906 342.786C100.581 342.786 106.315 343.926 111.664 346.142C117.014 348.357 121.874 351.605 125.969 355.699C130.063 359.794 133.311 364.655 135.527 370.004C137.742 375.354 138.882 381.087 138.882 386.878Z" fill="#A56EFF"/>
<path d="M503.005 126.796V360.41C472.147 369.404 439.2 368.1 409.15 356.695C379.1 345.289 353.585 324.404 336.466 297.2C319.348 269.997 311.559 237.957 314.278 205.931C316.998 173.905 330.078 143.636 351.538 119.709H495.934C497.811 119.713 499.609 120.462 500.935 121.791C502.26 123.119 503.005 124.919 503.005 126.796Z" fill="#E6E6E6"/>
<path d="M475.776 156.692H100.523C100.133 156.683 99.7616 156.522 99.4885 156.243C99.2154 155.964 99.0625 155.59 99.0625 155.199C99.0625 154.809 99.2154 154.434 99.4885 154.155C99.7616 153.876 100.133 153.715 100.523 153.707H475.776C476.166 153.715 476.538 153.876 476.811 154.155C477.084 154.434 477.237 154.809 477.237 155.199C477.237 155.59 477.084 155.964 476.811 156.243C476.538 156.522 476.166 156.683 475.776 156.692Z" fill="#CACACA"/>
<path d="M126.066 146.088C130.896 146.088 134.811 142.085 134.811 137.147C134.811 132.21 130.896 128.207 126.066 128.207C121.236 128.207 117.32 132.21 117.32 137.147C117.32 142.085 121.236 146.088 126.066 146.088Z" fill="#3F3D56"/>
<path d="M156.279 146.088C161.109 146.088 165.024 142.085 165.024 137.147C165.024 132.21 161.109 128.207 156.279 128.207C151.449 128.207 147.533 132.21 147.533 137.147C147.533 142.085 151.449 146.088 156.279 146.088Z" fill="#3F3D56"/>
<path d="M186.49 146.088C191.32 146.088 195.235 142.085 195.235 137.147C195.235 132.21 191.32 128.207 186.49 128.207C181.66 128.207 177.744 132.21 177.744 137.147C177.744 142.085 181.66 146.088 186.49 146.088Z" fill="#3F3D56"/>
<path d="M457.585 130.424H436.124C435.699 130.432 435.294 130.607 434.996 130.911C434.698 131.215 434.531 131.623 434.531 132.049C434.531 132.474 434.698 132.883 434.996 133.187C435.294 133.49 435.699 133.665 436.124 133.674H457.585C458.01 133.665 458.415 133.49 458.713 133.187C459.011 132.883 459.178 132.474 459.178 132.049C459.178 131.623 459.011 131.215 458.713 130.911C458.415 130.607 458.01 130.432 457.585 130.424Z" fill="#3F3D56"/>
<path d="M457.585 136.523H436.124C435.699 136.532 435.294 136.707 434.996 137.011C434.698 137.314 434.531 137.723 434.531 138.148C434.531 138.574 434.698 138.982 434.996 139.286C435.294 139.59 435.699 139.765 436.124 139.773H457.585C458.01 139.765 458.415 139.59 458.713 139.286C459.011 138.982 459.178 138.574 459.178 138.148C459.178 137.723 459.011 137.314 458.713 137.011C458.415 136.707 458.01 136.532 457.585 136.523Z" fill="#3F3D56"/>
<path d="M457.585 142.614H436.124C435.699 142.623 435.294 142.798 434.996 143.101C434.698 143.405 434.531 143.814 434.531 144.239C434.531 144.665 434.698 145.073 434.996 145.377C435.294 145.681 435.699 145.856 436.124 145.864H457.585C458.01 145.856 458.415 145.681 458.713 145.377C459.011 145.073 459.178 144.665 459.178 144.239C459.178 143.814 459.011 143.405 458.713 143.101C458.415 142.798 458.01 142.623 457.585 142.614Z" fill="#3F3D56"/>
<path d="M257.695 53.508C259.017 50.7216 252.893 45.0502 244.017 40.8405C235.141 36.6308 226.875 35.477 225.553 38.2634C224.231 41.0498 230.355 46.7212 239.231 50.9309C248.107 55.1406 256.374 56.2944 257.695 53.508Z" fill="#2F2E41"/>
<path d="M330.949 82.208C333.313 80.2282 330.118 72.5174 323.812 64.9853C317.505 57.4532 310.476 52.9522 308.111 54.9319C305.747 56.9117 308.942 64.6226 315.249 72.1546C321.555 79.6867 328.584 84.1878 330.949 82.208Z" fill="#2F2E41"/>
<path d="M281.693 97.9668C301.34 97.9668 317.268 82.0397 317.268 62.3926C317.268 42.7455 301.34 26.8184 281.693 26.8184C262.046 26.8184 246.119 42.7455 246.119 62.3926C246.119 82.0397 262.046 97.9668 281.693 97.9668Z" fill="#2F2E41"/>
<path d="M296.751 90.3115H285.943V109.675H296.751V90.3115Z" fill="#2F2E41"/>
<path d="M275.135 90.3115H264.328V109.675H275.135V90.3115Z" fill="#2F2E41"/>
<path d="M287.744 113.277C292.718 113.277 296.751 111.765 296.751 109.9C296.751 108.035 292.718 106.522 287.744 106.522C282.77 106.522 278.738 108.035 278.738 109.9C278.738 111.765 282.77 113.277 287.744 113.277Z" fill="#2F2E41"/>
<path d="M266.129 112.827C271.103 112.827 275.135 111.315 275.135 109.45C275.135 107.584 271.103 106.072 266.129 106.072C261.155 106.072 257.123 107.584 257.123 109.45C257.123 111.315 261.155 112.827 266.129 112.827Z" fill="#2F2E41"/>
<path d="M270.523 17.6747C273.699 4.88226 287.721 -2.64585 301.841 0.860256C315.961 4.36636 324.832 17.5791 321.656 30.3716C318.479 43.164 307.941 43.2053 293.821 39.6992C279.701 36.1931 267.346 30.4673 270.523 17.6747Z" fill="#E6E6E6"/>
<path d="M276.374 66.7463C282.924 66.7463 288.235 61.4362 288.235 54.8858C288.235 48.3355 282.924 43.0254 276.374 43.0254C269.824 43.0254 264.514 48.3355 264.514 54.8858C264.514 61.4362 269.824 66.7463 276.374 66.7463Z" fill="white"/>
<path d="M275.629 63.6745C277.813 63.6745 279.583 61.9045 279.583 59.7211C279.583 57.5376 277.813 55.7676 275.629 55.7676C273.446 55.7676 271.676 57.5376 271.676 59.7211C271.676 61.9045 273.446 63.6745 275.629 63.6745Z" fill="#3F3D56"/>
<path d="M291.445 76.3598C292.228 80.6561 281.748 88.0101 277.452 88.7922C275.389 89.1678 273.261 88.7084 271.537 87.5151C269.812 86.3218 268.632 84.4924 268.257 82.4292L268.254 82.4139C267.476 78.1169 270.799 76.5963 275.096 75.8184C279.393 75.0405 290.668 72.0628 291.445 76.3598Z" fill="white"/>
<path d="M417.458 325.559C423.445 317.77 426.316 309.933 423.871 308.053C421.425 306.174 414.59 310.964 408.604 318.753C402.617 326.542 399.746 334.379 402.191 336.258C404.636 338.138 411.471 333.347 417.458 325.559Z" fill="#2F2E41"/>
<path d="M450.043 351.553C469.69 351.553 485.617 335.626 485.617 315.979C485.617 296.331 469.69 280.404 450.043 280.404C430.396 280.404 414.469 296.331 414.469 315.979C414.469 335.626 430.396 351.553 450.043 351.553Z" fill="#2F2E41"/>
<path d="M466.253 343.898H455.445V363.262H466.253V343.898Z" fill="#2F2E41"/>
<path d="M444.639 343.898H433.832V363.262H444.639V343.898Z" fill="#2F2E41"/>
<path d="M457.248 366.864C462.222 366.864 466.254 365.352 466.254 363.487C466.254 361.621 462.222 360.109 457.248 360.109C452.274 360.109 448.242 361.621 448.242 363.487C448.242 365.352 452.274 366.864 457.248 366.864Z" fill="#2F2E41"/>
<path d="M435.633 366.414C440.607 366.414 444.639 364.902 444.639 363.036C444.639 361.171 440.607 359.659 435.633 359.659C430.659 359.659 426.627 361.171 426.627 363.036C426.627 364.902 430.659 366.414 435.633 366.414Z" fill="#2F2E41"/>
<path d="M449.143 319.131C455.857 319.131 461.301 313.688 461.301 306.973C461.301 300.258 455.857 294.814 449.143 294.814C442.428 294.814 436.984 300.258 436.984 306.973C436.984 313.688 442.428 319.131 449.143 319.131Z" fill="white"/>
<path d="M448.316 316.808C450.555 316.808 452.369 314.993 452.369 312.755C452.369 310.517 450.555 308.702 448.316 308.702C446.078 308.702 444.264 310.517 444.264 312.755C444.264 314.993 446.078 316.808 448.316 316.808Z" fill="#3F3D56"/>
<path d="M484.551 282.896C487.424 270.032 478.242 257.033 464.043 253.863C449.843 250.692 436.004 258.551 433.132 271.415C430.259 284.279 439.67 289.023 453.869 292.194C468.068 295.364 481.679 295.76 484.551 282.896Z" fill="#A56EFF"/>
<path d="M492.09 346.865C494.865 345.52 493.639 337.263 489.353 328.424C485.066 319.585 479.342 313.511 476.567 314.856C473.792 316.202 475.018 324.458 479.304 333.297C483.591 342.136 489.315 348.211 492.09 346.865Z" fill="#2F2E41"/>
<path d="M467.516 328.813C467.516 332.295 458.551 339.17 448.603 339.17C438.655 339.17 429.328 329.368 429.328 325.886C429.328 322.404 438.655 326.561 448.603 326.561C458.551 326.561 467.516 325.331 467.516 328.813Z" fill="white"/>
<path d="M423.373 471.325C443.02 471.325 458.947 455.398 458.947 435.751C458.947 416.104 443.02 400.177 423.373 400.177C403.726 400.177 387.799 416.104 387.799 435.751C387.799 455.398 403.726 471.325 423.373 471.325Z" fill="#2F2E41"/>
<path d="M417.969 463.67H407.162V483.033H417.969V463.67Z" fill="#2F2E41"/>
<path d="M439.583 463.67H428.775V483.033H439.583V463.67Z" fill="#2F2E41"/>
<path d="M423.486 489.582C424.282 487.896 421.282 484.807 416.784 482.683C412.286 480.559 407.994 480.205 407.198 481.891C406.402 483.578 409.402 486.667 413.9 488.791C418.397 490.915 422.689 491.269 423.486 489.582Z" fill="#2F2E41"/>
<path d="M445.304 488.669C446.004 486.94 442.835 484.025 438.225 482.156C433.616 480.288 429.311 480.175 428.61 481.904C427.91 483.633 431.079 486.549 435.689 488.417C440.298 490.285 444.603 490.398 445.304 488.669Z" fill="#2F2E41"/>
<path d="M388.864 402.668C385.991 389.804 395.173 376.805 409.373 373.634C423.572 370.464 437.411 378.322 440.283 391.186C443.156 404.05 433.746 408.795 419.546 411.965C405.347 415.136 391.736 415.532 388.864 402.668Z" fill="#A56EFF"/>
<path d="M465.661 421.149C469.212 410.844 469.469 401.587 466.234 400.472C462.999 399.357 457.497 406.807 453.946 417.112C450.395 427.417 450.138 436.674 453.373 437.789C456.608 438.904 462.109 431.454 465.661 421.149Z" fill="#2F2E41"/>
<path d="M394.698 432.265C397.118 429.847 392.835 421.636 385.131 413.926C377.427 406.215 369.219 401.926 366.799 404.344C364.378 406.763 368.662 414.974 376.366 422.684C384.07 430.394 392.278 434.684 394.698 432.265Z" fill="#2F2E41"/>
<path d="M154.156 498.763C173.803 498.763 189.731 482.836 189.731 463.188C189.731 443.541 173.803 427.614 154.156 427.614C134.509 427.614 118.582 443.541 118.582 463.188C118.582 482.836 134.509 498.763 154.156 498.763Z" fill="#2F2E41"/>
<path d="M148.753 491.107H137.945V510.471H148.753V491.107Z" fill="#2F2E41"/>
<path d="M170.368 491.107H159.561V510.471H170.368V491.107Z" fill="#2F2E41"/>
<path d="M146.951 514.073C151.925 514.073 155.958 512.561 155.958 510.696C155.958 508.83 151.925 507.318 146.951 507.318C141.978 507.318 137.945 508.83 137.945 510.696C137.945 512.561 141.978 514.073 146.951 514.073Z" fill="#2F2E41"/>
<path d="M168.567 513.623C173.541 513.623 177.573 512.111 177.573 510.245C177.573 508.38 173.541 506.868 168.567 506.868C163.593 506.868 159.561 508.38 159.561 510.245C159.561 512.111 163.593 513.623 168.567 513.623Z" fill="#2F2E41"/>
<path d="M119.647 430.105C116.775 417.241 125.957 404.242 140.156 401.072C154.355 397.901 168.194 405.759 171.067 418.624C173.939 431.488 164.529 436.232 150.33 439.403C136.131 442.573 122.519 442.969 119.647 430.105Z" fill="#3F3D56"/>
<path d="M199.771 472.317C201.371 469.292 194.858 462.709 185.223 457.612C175.589 452.515 166.481 450.836 164.881 453.86C163.281 456.885 169.795 463.469 179.429 468.565C189.064 473.662 198.172 475.341 199.771 472.317Z" fill="#2F2E41"/>
<path d="M149.22 284.397C158.096 280.187 164.22 274.516 162.898 271.729C161.577 268.943 153.31 270.097 144.434 274.306C135.559 278.516 129.435 284.188 130.756 286.974C132.078 289.76 140.344 288.607 149.22 284.397Z" fill="#2F2E41"/>
<path d="M73.2022 305.62C79.5085 298.088 82.704 290.377 80.3395 288.397C77.9749 286.418 70.9458 290.919 64.6394 298.451C58.333 305.983 55.1375 313.694 57.5021 315.674C59.8666 317.653 66.8958 313.152 73.2022 305.62Z" fill="#2F2E41"/>
<path d="M106.76 331.433C126.407 331.433 142.334 315.506 142.334 295.858C142.334 276.211 126.407 260.284 106.76 260.284C87.1127 260.284 71.1855 276.211 71.1855 295.858C71.1855 315.506 87.1127 331.433 106.76 331.433Z" fill="#2F2E41"/>
<path d="M102.509 323.777H91.7012V343.141H102.509V323.777Z" fill="#2F2E41"/>
<path d="M124.124 323.777H113.316V343.141H124.124V323.777Z" fill="#2F2E41"/>
<path d="M100.707 346.743C105.681 346.743 109.713 345.231 109.713 343.366C109.713 341.5 105.681 339.988 100.707 339.988C95.7334 339.988 91.7012 341.5 91.7012 343.366C91.7012 345.231 95.7334 346.743 100.707 346.743Z" fill="#2F2E41"/>
<path d="M122.323 346.293C127.297 346.293 131.329 344.781 131.329 342.915C131.329 341.05 127.297 339.538 122.323 339.538C117.349 339.538 113.316 341.05 113.316 342.915C113.316 344.781 117.349 346.293 122.323 346.293Z" fill="#2F2E41"/>
<path d="M117.928 251.141C114.752 238.348 100.73 230.82 86.6101 234.326C72.49 237.832 63.6185 251.045 66.795 263.837C69.9715 276.63 80.5101 276.671 94.6302 273.165C108.75 269.659 121.105 263.933 117.928 251.141Z" fill="#A56EFF"/>
<path d="M112.077 300.213C118.628 300.213 123.938 294.903 123.938 288.353C123.938 281.802 118.628 276.492 112.077 276.492C105.527 276.492 100.217 281.802 100.217 288.353C100.217 294.903 105.527 300.213 112.077 300.213Z" fill="white"/>
<path d="M112.823 297.14C115.006 297.14 116.776 295.37 116.776 293.187C116.776 291.003 115.006 289.233 112.823 289.233C110.639 289.233 108.869 291.003 108.869 293.187C108.869 295.37 110.639 297.14 112.823 297.14Z" fill="#3F3D56"/>
<path d="M104.638 313.063C104.452 314.085 104.469 315.133 104.688 316.148C104.907 317.163 105.324 318.125 105.915 318.979C106.506 319.832 107.259 320.561 108.131 321.124C109.004 321.687 109.979 322.072 111.001 322.258C112.022 322.444 113.07 322.427 114.085 322.208C115.1 321.989 116.062 321.572 116.916 320.981C117.77 320.39 118.499 319.637 119.062 318.764C119.625 317.892 120.01 316.917 120.196 315.895L120.199 315.88C120.977 311.583 117.654 310.062 113.357 309.285C109.06 308.507 105.415 308.766 104.638 313.063Z" fill="white"/>
<path d="M569.017 513.766L18.2715 514.02C18.1421 514.02 18.0139 513.995 17.8943 513.946C17.7746 513.896 17.6659 513.824 17.5742 513.733C17.4826 513.641 17.4099 513.533 17.3603 513.413C17.3107 513.294 17.2852 513.166 17.2852 513.036C17.2852 512.907 17.3107 512.779 17.3603 512.659C17.4099 512.54 17.4826 512.431 17.5742 512.34C17.6659 512.248 17.7746 512.176 17.8943 512.127C18.0139 512.077 18.1421 512.052 18.2715 512.053L569.017 511.799C569.277 511.8 569.526 511.904 569.71 512.088C569.894 512.272 569.997 512.522 569.997 512.782C569.997 513.043 569.894 513.292 569.71 513.477C569.526 513.661 569.277 513.765 569.017 513.766Z" fill="#CACACA"/>
</g>
<defs>
<clipPath id="clip0_115_1806">
<rect width="570" height="514.073" fill="white"/>
</clipPath>
</defs>
</svg>
