<svg width="24" height="24" viewBox="0 0 220 222" fill="none" xmlns="http://www.w3.org/2000/svg">
<path d="M199.1 150.85C193.04 153.18 182.78 155.75 171.82 158.31C167.86 164.84 160.63 170.2 149.44 172.3C146.88 172.77 143.84 173 140.58 173.23C132.89 173.46 123.56 172.76 113.3 171.83C112.6 171.83 111.9 171.6 111.2 171.6C108.64 171.37 106.54 169.5 106.3 166.94C106.07 163.91 108.63 161.34 111.66 161.58C112.36 161.58 113.29 161.81 113.99 161.81C127.05 162.98 139.64 163.91 147.33 162.51C161.78 159.95 165.98 150.85 165.05 143.63C164.35 137.57 159.92 131.74 152.69 132.21C142.43 132.91 130.54 132.21 118.88 131.28C105.59 130.35 91.8301 129.88 82.0401 131.05C71.3101 132.22 49.1701 140.38 29.8101 153.43C20.9501 159.95 10.2301 167.65 3.93008 172.31C0.670079 174.64 -0.0299152 179.3 2.53008 182.57L30.7401 219.18C33.0701 222.21 37.7301 222.91 40.7601 220.58L51.2501 212.65C53.8101 210.78 56.8501 210.09 59.8801 211.02C78.7601 217.08 99.0501 221.04 112.34 221.75C141.25 223.15 196.74 189.11 212.59 177.92C228.25 166.7 216.82 144.32 199.1 150.85Z" fill="#A36EFF"/>
<path d="M113.54 112.38H186.28C197.24 112.38 205.86 103.52 205.86 92.8V19.82C205.86 8.86001 197 0.23999 186.28 0.23999H113.54C102.58 0.23999 93.96 9.10001 93.96 19.82V92.56C93.95 103.52 102.81 112.38 113.54 112.38ZM126.59 42.2L148.27 20.52C149.2 19.59 150.83 19.59 152 20.52L173.68 42.2C174.61 43.13 174.61 44.76 173.68 45.93L167.85 51.76C166.92 52.69 165.29 52.69 164.12 51.76L156.89 44.53V90.23C156.89 91.63 155.72 92.79 154.33 92.79H146.17C144.77 92.79 143.61 91.62 143.61 90.23V44.53L136.15 51.76C135.22 52.69 133.59 52.69 132.42 51.76L126.59 45.93C125.66 44.76 125.66 43.13 126.59 42.2Z" fill="#A36EFF"/>
</svg>
