<svg width="104" height="128" viewBox="0 0 104 128" fill="none" xmlns="http://www.w3.org/2000/svg">
<path d="M86.2139 67.8725C86.3929 87.2066 103.123 93.6403 103.308 93.7224C103.166 94.1759 100.635 102.891 94.4943 111.893C89.1857 119.676 83.6758 127.429 74.9964 127.59C66.4688 127.748 63.7262 122.518 53.976 122.518C44.2287 122.518 41.1819 127.429 33.1088 127.748C24.7312 128.066 18.3515 119.332 12.9992 111.578C2.06125 95.7168 -6.29738 66.7575 4.92618 47.2097C10.5017 37.502 20.4662 31.3551 31.281 31.1975C39.5076 31.0402 47.2727 36.749 52.3017 36.749C57.3275 36.749 66.7637 29.8837 76.6836 30.8919C80.836 31.0654 92.4935 32.5742 99.9787 43.5643C99.3751 43.9394 86.0692 51.7092 86.2139 67.8729V67.8725ZM70.1865 20.3983C74.6346 14.9979 77.628 7.48048 76.8113 0C70.4 0.258438 62.6478 4.28536 58.049 9.68249C53.9278 14.4624 50.3187 22.1123 51.2926 29.4445C58.4387 29.9991 65.7388 25.802 70.1869 20.3983" fill="#161616"/>
</svg>
