<svg width="299" height="120" viewBox="0 0 299 120" fill="none" xmlns="http://www.w3.org/2000/svg">
<path d="M58.0003 111.255V119.58H0V111.255H58.0003ZM148.641 111.255C142.823 116.629 135.202 119.602 127.299 119.58L66.2858 119.498V111.255H148.641ZM234.88 111.255L231.987 119.58L229.12 111.255H234.88ZM207.143 111.255V119.58H165.715V111.255H207.143H207.143ZM298.286 111.255V119.58H256.857V111.255H298.286ZM158.026 95.362C157.315 98.2823 156.192 101.086 154.692 103.687H66.2858V95.362H158.026ZM240.433 95.362L237.525 103.688H226.475L223.567 95.362H240.433ZM207.143 95.362V103.687H165.715V95.362H207.143H207.143ZM298.286 95.362V103.687H256.857V95.362H298.286ZM58.0003 95.362V103.687H0V95.362H58.0003ZM41.4279 79.4675V87.7932H16.5712V79.4675H41.4285H41.4279ZM107.714 79.4675V87.7932H82.8564V79.4675H107.714ZM157.826 79.4675C158.561 82.1813 158.933 84.9809 158.934 87.7932H131.065V79.4675H157.826ZM245.986 79.4675L243.077 87.7932H220.922L218.012 79.4675H245.986ZM207.143 79.4675V87.7932H182.285V79.4675H207.143ZM281.714 79.4675V87.7932H256.857V79.4675H281.714ZM41.4279 63.5743V71.8993H16.5712V63.5743H41.4285H41.4279ZM207.143 63.5743V71.8993H182.285V63.5743H207.143ZM281.714 63.5743V71.8993H256.857V63.5743H281.714ZM147.771 63.5743C150.53 65.9328 152.868 68.7482 154.682 71.8988H82.857V63.5737L147.771 63.5743ZM251.539 63.5743L248.631 71.8993H215.368L212.46 63.5737H251.539V63.5743ZM229.67 47.681L231.999 54.4104L234.328 47.681H281.713V56.0061H256.858V48.3571L254.184 56.0067H209.816L207.143 48.3559V56.0067H182.286V47.681H229.671H229.67ZM82.8564 47.681H154.683C152.869 50.8318 150.531 53.6474 147.771 56.0061H82.857V47.6804L82.8564 47.681ZM41.4279 47.681V56.0061H16.5712V47.6804H41.4285L41.4279 47.681ZM41.4279 31.7871V40.1122H16.5712V31.7871H41.4285H41.4279ZM107.714 31.7871V40.1122H82.8564V31.7871H107.714ZM158.935 31.7871C158.933 34.5992 158.561 37.3987 157.826 40.1122H131.065V31.7871H158.935ZM224.169 31.7871L227.051 40.1122H182.286V31.7871H224.17H224.169ZM281.713 31.7871V40.1122H236.948L239.829 31.7871H281.713ZM57.9991 15.8933V24.219H0V15.8927H58.0003L57.9991 15.8933ZM154.691 15.8933C156.191 18.4947 157.314 21.298 158.025 24.2184H66.2847V15.8933H154.691ZM298.285 15.8933V24.2184H242.449L245.33 15.8933H298.286H298.285ZM218.668 15.8933L221.55 24.2184H165.714V15.8933H218.669H218.668ZM58.0008 0.000614419V8.3251H0V2.90534e-05H58.0003L58.0008 0.000614419ZM127.299 2.90534e-05C135.2 -0.0107181 142.817 2.96048 148.641 8.3251H66.2858V2.90534e-05H127.299ZM298.286 2.90534e-05V8.32569H247.95L250.831 0.000614419H298.286V2.90534e-05ZM213.169 2.90534e-05L216.05 8.32569H165.715V0.000614419H213.169L213.169 2.90534e-05Z" fill="#161616"/>
</svg>
