<svg width="160" height="160" viewBox="0 0 160 160" fill="none" xmlns="http://www.w3.org/2000/svg">
    <path d="M6.79873 90.0012H3.19873V20.0012C3.19873 19.0062 4.00373 18.2012 4.99873 18.2012H50.6537L38.7287 6.27117L41.2737 3.72617L57.5437 20.0012L41.2687 36.2712L38.7287 33.7312L50.6537 21.8012H6.79873V90.0012ZM153.199 138.201H109.349L121.279 126.276L118.729 123.726L102.454 140.001L118.724 156.276L121.274 153.726L109.344 141.801H154.999C155.994 141.801 156.799 140.996 156.799 140.001V70.0012H153.199V138.201ZM144.999 18.2012H114.999V21.8012H144.999V18.2012ZM144.999 28.2012H114.999V31.8012H144.999V28.2012ZM134.999 38.2012H114.999V41.8012H134.999V38.2012ZM44.9987 118.201H14.9987V121.806H44.9987V118.201ZM44.9987 128.201H14.9987V131.806H44.9987V128.201ZM34.9987 138.201H14.9987V141.806H34.9987V138.201ZM84.9987 75.0012C84.9987 72.2412 82.7587 70.0012 79.9987 70.0012C77.2387 70.0012 74.9987 72.2412 74.9987 75.0012C74.9987 77.1262 76.3337 78.9112 78.1987 79.6362V85.0012C78.1987 85.9962 79.0037 86.8012 79.9987 86.8012C80.9937 86.8012 81.7987 85.9962 81.7987 85.0012V79.6362C83.6637 78.9112 84.9987 77.1262 84.9987 75.0012ZM156.799 5.00117V55.0012C156.799 55.9962 155.994 56.8012 154.999 56.8012H106.799V105.001C106.799 105.996 105.994 106.801 104.999 106.801H56.7987V155.001C56.7987 155.996 55.9937 156.801 54.9987 156.801H4.99873C4.00373 156.801 3.19873 155.996 3.19873 155.001V105.001C3.19873 104.006 4.00373 103.201 4.99873 103.201H53.1987V55.0012C53.1987 54.0062 54.0037 53.2012 54.9987 53.2012H65.6987V42.5012C65.6987 34.6162 72.1137 28.2012 79.9987 28.2012C87.8837 28.2012 94.2987 34.6162 94.2987 42.5012V53.2012H103.194V5.00117C103.194 4.00617 103.999 3.20117 104.994 3.20117H154.994C155.994 3.20117 156.799 4.00617 156.799 5.00117ZM69.2987 53.2012H90.6987V42.5012C90.6987 36.6012 85.8987 31.8012 79.9987 31.8012C74.0987 31.8012 69.2987 36.6012 69.2987 42.5012V53.2012ZM53.1987 106.801H6.79873V153.196H53.1987V106.801ZM103.199 56.8012H56.7987V103.201H103.199V56.8012ZM153.199 6.80117H106.799V53.2012H153.194L153.199 6.80117Z" fill="white"/>
</svg> 